<svg width="26" height="26" viewBox="0 0 26 26" fill="none" xmlns="http://www.w3.org/2000/svg">
<g clip-path="url(#clip0_2148_11705)">
<path d="M11.6667 21.4167C11.6667 21.704 11.7808 21.9795 11.984 22.1827C12.1871 22.3859 12.4627 22.5 12.75 22.5C13.0373 22.5 13.3129 22.3859 13.516 22.1827C13.7192 21.9795 13.8333 21.704 13.8333 21.4167V13.8333H21.4167C21.704 13.8333 21.9795 13.7192 22.1827 13.516C22.3859 13.3129 22.5 13.0373 22.5 12.75C22.5 12.4627 22.3859 12.1871 22.1827 11.984C21.9795 11.7808 21.704 11.6667 21.4167 11.6667H13.8333V4.08333C13.8333 3.79602 13.7192 3.52047 13.516 3.3173C13.3129 3.11414 13.0373 3 12.75 3C12.4627 3 12.1871 3.11414 11.984 3.3173C11.7808 3.52047 11.6667 3.79602 11.6667 4.08333V11.6667H4.08333C3.79602 11.6667 3.52047 11.7808 3.3173 11.984C3.11414 12.1871 3 12.4627 3 12.75C3 13.0373 3.11414 13.3129 3.3173 13.516C3.52047 13.7192 3.79602 13.8333 4.08333 13.8333H11.6667V21.4167Z" fill="white"/>
</g>
<defs>
<clipPath id="clip0_2148_11705">
<rect width="26" height="26" fill="white"/>
</clipPath>
</defs>
</svg>
