<svg width="20" height="20" viewBox="0 0 20 20" fill="none" xmlns="http://www.w3.org/2000/svg">
<g id="add_line 2" clip-path="url(#clip0_2777_17362)">
<g id="Group">
<path id="Vector" d="M8.97428 16.4744C8.97428 16.6954 9.06208 16.9074 9.21836 17.0637C9.37464 17.2199 9.5866 17.3077 9.80762 17.3077C10.0286 17.3077 10.2406 17.2199 10.3969 17.0637C10.5532 16.9074 10.641 16.6954 10.641 16.4744V10.6411H16.4743C16.6953 10.6411 16.9073 10.5533 17.0635 10.397C17.2198 10.2407 17.3076 10.0288 17.3076 9.80774C17.3076 9.58673 17.2198 9.37476 17.0635 9.21848C16.9073 9.0622 16.6953 8.97441 16.4743 8.97441H10.641V3.14107C10.641 2.92006 10.5532 2.7081 10.3969 2.55182C10.2406 2.39554 10.0286 2.30774 9.80762 2.30774C9.5866 2.30774 9.37464 2.39554 9.21836 2.55182C9.06208 2.7081 8.97428 2.92006 8.97428 3.14107V8.97441H3.14095C2.91994 8.97441 2.70798 9.0622 2.55169 9.21848C2.39541 9.37476 2.30762 9.58673 2.30762 9.80774C2.30762 10.0288 2.39541 10.2407 2.55169 10.397C2.70798 10.5533 2.91994 10.6411 3.14095 10.6411H8.97428V16.4744Z" fill="#D7D7D7"/>
</g>
</g>
<defs>
<clipPath id="clip0_2777_17362">
<rect width="20" height="20" fill="white"/>
</clipPath>
</defs>
</svg>
