<svg width="30" height="30" viewBox="0 0 30 30" fill="none" xmlns="http://www.w3.org/2000/svg">
<g id="alert_line 1" clip-path="url(#clip0_2706_554)">
<g id="Group">
<path id="Vector" d="M16.6242 3.935L27.4167 22.6275C27.5813 22.9125 27.6679 23.2359 27.6679 23.565C27.6679 23.8941 27.5813 24.2174 27.4167 24.5025C27.2522 24.7875 27.0155 25.0242 26.7304 25.1888C26.4454 25.3533 26.1221 25.44 25.793 25.44H4.20796C3.87883 25.44 3.55551 25.3533 3.27048 25.1888C2.98545 25.0242 2.74876 24.7875 2.5842 24.5025C2.41964 24.2174 2.33301 23.8941 2.33301 23.565C2.33301 23.2359 2.41965 22.9125 2.58421 22.6275L13.3767 3.935C14.098 2.685 15.9017 2.685 16.6242 3.935ZM15.0005 6.1225L5.29046 22.94H24.7105L15.0005 6.1225ZM15.0005 18.75C15.332 18.75 15.6499 18.8817 15.8843 19.1161C16.1188 19.3505 16.2505 19.6685 16.2505 20C16.2505 20.3315 16.1188 20.6495 15.8843 20.8839C15.6499 21.1183 15.332 21.25 15.0005 21.25C14.6689 21.25 14.351 21.1183 14.1166 20.8839C13.8822 20.6495 13.7505 20.3315 13.7505 20C13.7505 19.6685 13.8822 19.3505 14.1166 19.1161C14.351 18.8817 14.6689 18.75 15.0005 18.75ZM15.0005 10C15.332 10 15.6499 10.1317 15.8843 10.3661C16.1188 10.6005 16.2505 10.9185 16.2505 11.25V16.25C16.2505 16.5815 16.1188 16.8995 15.8843 17.1339C15.6499 17.3683 15.332 17.5 15.0005 17.5C14.6689 17.5 14.351 17.3683 14.1166 17.1339C13.8822 16.8995 13.7505 16.5815 13.7505 16.25V11.25C13.7505 10.9185 13.8822 10.6005 14.1166 10.3661C14.351 10.1317 14.6689 10 15.0005 10Z" fill="#121212"/>
</g>
</g>
<defs>
<clipPath id="clip0_2706_554">
<rect width="30" height="30" fill="white"/>
</clipPath>
</defs>
</svg>
