<svg width="8" height="14" viewBox="0 0 8 14" fill="none" xmlns="http://www.w3.org/2000/svg">
<path d="M5.52219 6.99952L0.685856 2.16335C0.503301 1.98069 0.414134 1.76285 0.418356 1.50985C0.422578 1.25685 0.515967 1.03902 0.698523 0.856353C0.881189 0.673797 1.09969 0.58252 1.35402 0.58252C1.60836 0.58252 1.82686 0.673797 2.00952 0.856353L7.06636 5.92202C7.21825 6.07391 7.33152 6.2438 7.40619 6.43169C7.48086 6.61969 7.51819 6.80897 7.51819 6.99952C7.51819 7.19008 7.48086 7.37935 7.40619 7.56735C7.33152 7.75524 7.21825 7.92513 7.06636 8.07702L1.99686 13.1467C1.81419 13.3292 1.59847 13.4177 1.34969 13.4122C1.10091 13.4066 0.88519 13.3126 0.702523 13.13C0.519967 12.9474 0.428689 12.7289 0.428689 12.4745C0.428689 12.2202 0.519967 12.0017 0.702523 11.819L5.52219 6.99952Z" fill="#3D3F4D"/>
</svg>
