<svg width="30" height="30" viewBox="0 0 30 30" fill="none" xmlns="http://www.w3.org/2000/svg">
<g id="arrow_left_line 1" clip-path="url(#clip0_2521_14331)">
<g id="Group">
<path id="Vector" d="M4.54506 14.1162C4.31072 14.3507 4.17908 14.6685 4.17908 15C4.17908 15.3315 4.31072 15.6493 4.54506 15.8837L11.6163 22.955C11.8521 23.1827 12.1678 23.3087 12.4956 23.3058C12.8233 23.303 13.1368 23.1715 13.3686 22.9398C13.6003 22.708 13.7318 22.3945 13.7347 22.0667C13.7375 21.739 13.6115 21.4233 13.3838 21.1875L8.44631 16.25H25.0001C25.3316 16.25 25.6495 16.1183 25.8839 15.8839C26.1184 15.6495 26.2501 15.3315 26.2501 15C26.2501 14.6685 26.1184 14.3505 25.8839 14.1161C25.6495 13.8817 25.3316 13.75 25.0001 13.75H8.44631L13.3838 8.8125C13.6115 8.57674 13.7375 8.26099 13.7347 7.93324C13.7318 7.6055 13.6003 7.29198 13.3686 7.06022C13.1368 6.82846 12.8233 6.697 12.4956 6.69415C12.1678 6.69131 11.8521 6.8173 11.6163 7.045L4.54506 14.1162Z" fill="#121212"/>
</g>
</g>
<defs>
<clipPath id="clip0_2521_14331">
<rect width="30" height="30" fill="white"/>
</clipPath>
</defs>
</svg>
