<svg width="10" height="10" viewBox="0 0 10 10" fill="none" xmlns="http://www.w3.org/2000/svg">
<g id="arrow_down_fill 1" clip-path="url(#clip0_2210_15520)">
<g id="Group">
<path id="Vector" d="M4.37496 6.68125L3.08496 5.39167C2.96777 5.27442 2.8088 5.20853 2.64302 5.20849C2.47725 5.20845 2.31825 5.27427 2.201 5.39146C2.08375 5.50865 2.01786 5.66762 2.01782 5.83339C2.01778 5.99917 2.0836 6.15817 2.20079 6.27542L4.55788 8.6325C4.61592 8.69058 4.68483 8.73665 4.76069 8.76809C4.83654 8.79952 4.91785 8.8157 4.99996 8.8157C5.08207 8.8157 5.16337 8.79952 5.23923 8.76809C5.31508 8.73665 5.384 8.69058 5.44204 8.6325L7.79913 6.27583C7.85718 6.21778 7.90323 6.14886 7.93465 6.073C7.96607 5.99715 7.98224 5.91585 7.98224 5.83375C7.98224 5.75165 7.96607 5.67035 7.93465 5.5945C7.90323 5.51864 7.85718 5.44972 7.79913 5.39167C7.74107 5.33361 7.67215 5.28756 7.5963 5.25614C7.52044 5.22472 7.43914 5.20855 7.35704 5.20855C7.27494 5.20855 7.19364 5.22472 7.11779 5.25614C7.04194 5.28756 6.97301 5.33361 6.91496 5.39167L5.62496 6.68125V1.875C5.62496 1.70924 5.55911 1.55027 5.4419 1.43306C5.32469 1.31585 5.16572 1.25 4.99996 1.25C4.8342 1.25 4.67523 1.31585 4.55802 1.43306C4.44081 1.55027 4.37496 1.70924 4.37496 1.875V6.68125Z" fill="#6C6C6C"/>
</g>
</g>
<defs>
<clipPath id="clip0_2210_15520">
<rect width="10" height="10" fill="white"/>
</clipPath>
</defs>
</svg>
