<svg width="16" height="17" viewBox="0 0 16 17" fill="none" xmlns="http://www.w3.org/2000/svg">
<mask id="mask0_615_1597" style="mask-type:alpha" maskUnits="userSpaceOnUse" x="0" y="0" width="16" height="17">
<rect y="0.5" width="16" height="16" fill="#D9D9D9"/>
</mask>
<g mask="url(#mask0_615_1597)">
<path d="M10.5642 9.25838H3.28958C3.07681 9.25838 2.89719 9.18521 2.75075 9.03888C2.60442 8.89243 2.53125 8.71282 2.53125 8.50004C2.53125 8.28727 2.60442 8.10765 2.75075 7.96121C2.89719 7.81488 3.07681 7.74171 3.28958 7.74171H10.5642L7.45292 4.63054C7.30103 4.47854 7.22719 4.30038 7.23142 4.09604C7.23564 3.89171 7.31369 3.7136 7.46558 3.56171C7.61758 3.42082 7.79575 3.34827 8.00008 3.34404C8.20442 3.33982 8.38258 3.41365 8.53458 3.56554L12.9346 7.96554C13.0091 8.04021 13.0636 8.1231 13.0981 8.21421C13.1325 8.30521 13.1497 8.40049 13.1497 8.50004C13.1497 8.5996 13.1325 8.69488 13.0981 8.78588C13.0636 8.87699 13.0091 8.95988 12.9346 9.03454L8.53058 13.4384C8.38703 13.5819 8.21164 13.6537 8.00442 13.6537C7.79719 13.6537 7.61758 13.5819 7.46558 13.4384C7.31369 13.2865 7.23775 13.1063 7.23775 12.8977C7.23775 12.6892 7.31369 12.5089 7.46558 12.3569L10.5642 9.25838Z" fill="#21232A"/>
</g>
</svg>
