<svg width="26" height="26" viewBox="0 0 26 26" fill="none" xmlns="http://www.w3.org/2000/svg">
<mask id="mask0_661_306" style="mask-type:alpha" maskUnits="userSpaceOnUse" x="0" y="0" width="26" height="26">
<rect width="26" height="26" fill="#D9D9D9"/>
</mask>
<g mask="url(#mask0_661_306)">
<path d="M10.566 13L18.4248 20.8588C18.7216 21.1556 18.8666 21.5062 18.8598 21.9104C18.8529 22.3147 18.6989 22.6674 18.3977 22.9686C18.1011 23.2652 17.7506 23.4135 17.3464 23.4135C16.9421 23.4135 16.5915 23.2652 16.2947 22.9686L8.05027 14.7509C7.80345 14.5041 7.61937 14.2281 7.49804 13.9227C7.37671 13.6172 7.31604 13.3097 7.31604 13C7.31604 12.6904 7.37671 12.3828 7.49804 12.0773C7.61937 11.772 7.80345 11.4959 8.05027 11.2491L16.2947 3.01086C16.5915 2.71421 16.9455 2.56823 17.3566 2.57292C17.7678 2.57762 18.1238 2.73046 18.4248 3.03145C18.7216 3.32828 18.8701 3.67991 18.8701 4.08634C18.8701 4.49277 18.7216 4.8444 18.4248 5.14124L10.566 13Z" fill="#191919"/>
</g>
</svg>
