<svg width="14" height="14" viewBox="0 0 14 14" fill="none" xmlns="http://www.w3.org/2000/svg">
<g id="arrow_right_line 2" clip-path="url(#clip0_2638_5748)">
<g id="Group">
<path id="Vector" d="M8.57908 3.28767L11.879 6.58759C11.9884 6.69698 12.0498 6.84533 12.0498 7.00001C12.0498 7.15469 11.9884 7.30303 11.879 7.41242L8.57908 10.7123C8.46907 10.8186 8.32171 10.8774 8.16877 10.8761C8.01582 10.8747 7.86951 10.8134 7.76136 10.7052C7.6532 10.5971 7.59185 10.4508 7.59052 10.2978C7.58919 10.1449 7.64799 9.99753 7.75425 9.88751L10.0584 7.58334H2.33333C2.17862 7.58334 2.03025 7.52188 1.92085 7.41249C1.81146 7.30309 1.75 7.15472 1.75 7.00001C1.75 6.8453 1.81146 6.69692 1.92085 6.58753C2.03025 6.47813 2.17862 6.41667 2.33333 6.41667H10.0584L7.75425 4.11251C7.69854 4.0587 7.6541 3.99433 7.62352 3.92316C7.59295 3.85199 7.57686 3.77545 7.57619 3.69799C7.57551 3.62054 7.59027 3.54372 7.6196 3.47203C7.64893 3.40034 7.69225 3.33521 7.74702 3.28044C7.80179 3.22567 7.86692 3.18236 7.93861 3.15303C8.0103 3.1237 8.08711 3.10894 8.16457 3.10961C8.24202 3.11028 8.31857 3.12638 8.38974 3.15695C8.4609 3.18752 8.52527 3.23196 8.57908 3.28767Z" fill="#6C6C6C"/>
</g>
</g>
<defs>
<clipPath id="clip0_2638_5748">
<rect width="14" height="14" fill="white"/>
</clipPath>
</defs>
</svg>
