<svg width="12" height="12" viewBox="0 0 12 12" fill="none" xmlns="http://www.w3.org/2000/svg">
<g clip-path="url(#clip0_2329_194)">
<path d="M7 1C7.25229 0.99992 7.49528 1.0952 7.68027 1.26675C7.86526 1.43829 7.97858 1.67342 7.9975 1.925L8 2V3H8.5C8.75229 2.99992 8.99528 3.0952 9.18027 3.26675C9.36526 3.43829 9.47858 3.67342 9.4975 3.925L9.5 4V9.5C9.5 9.76522 9.39464 10.0196 9.20711 10.2071C9.01957 10.3946 8.76522 10.5 8.5 10.5C8.49986 10.6274 8.45106 10.75 8.36358 10.8427C8.27609 10.9354 8.15652 10.9911 8.0293 10.9986C7.90208 11.0061 7.77681 10.9647 7.67908 10.8829C7.58136 10.8011 7.51855 10.685 7.5035 10.5585L7.5 10.5H4.5C4.5 10.6326 4.44732 10.7598 4.35355 10.8536C4.25979 10.9473 4.13261 11 4 11C3.86739 11 3.74021 10.9473 3.64645 10.8536C3.55268 10.7598 3.5 10.6326 3.5 10.5C3.24771 10.5001 3.00472 10.4048 2.81973 10.2333C2.63474 10.0617 2.52142 9.82658 2.5025 9.575L2.5 9.5V4C2.49992 3.74771 2.5952 3.50472 2.76675 3.31973C2.93829 3.13474 3.17342 3.02142 3.425 3.0025L3.5 3H4V2C3.99992 1.74771 4.0952 1.50472 4.26675 1.31973C4.43829 1.13474 4.67342 1.02142 4.925 1.0025L5 1H7ZM8.5 4H3.5V9.5H8.5V4ZM5 5C5.13261 5 5.25979 5.05268 5.35355 5.14645C5.44732 5.24021 5.5 5.36739 5.5 5.5V8C5.5 8.13261 5.44732 8.25979 5.35355 8.35355C5.25979 8.44732 5.13261 8.5 5 8.5C4.86739 8.5 4.74021 8.44732 4.64645 8.35355C4.55268 8.25979 4.5 8.13261 4.5 8V5.5C4.5 5.36739 4.55268 5.24021 4.64645 5.14645C4.74021 5.05268 4.86739 5 5 5ZM7 5C7.13261 5 7.25979 5.05268 7.35355 5.14645C7.44732 5.24021 7.5 5.36739 7.5 5.5V8C7.5 8.13261 7.44732 8.25979 7.35355 8.35355C7.25979 8.44732 7.13261 8.5 7 8.5C6.86739 8.5 6.74021 8.44732 6.64645 8.35355C6.55268 8.25979 6.5 8.13261 6.5 8V5.5C6.5 5.36739 6.55268 5.24021 6.64645 5.14645C6.74021 5.05268 6.86739 5 7 5ZM7 2H5V3H7V2Z" fill="#9C9C9C"/>
</g>
<defs>
<clipPath id="clip0_2329_194">
<rect width="12" height="12" fill="white"/>
</clipPath>
</defs>
</svg>
