<svg width="36" height="44" viewBox="0 0 36 44" fill="none" xmlns="http://www.w3.org/2000/svg">
<g id="Frame" clip-path="url(#clip0_2544_7850)">
<path id="Vector" d="M15.0687 27.0742C15.5415 27.0742 16.2981 27.4523 17.3697 28.587C22.2934 34.0556 28.0477 38.7144 34.4212 42.3922C35.1777 42.8019 35.5874 43.1171 35.5874 43.5268C35.5874 43.9365 35.5875 44.1257 34.8941 44.1257C31.6773 43.7359 28.5089 43.0177 25.4385 41.9824C23.705 41.1629 19.9226 38.1056 15.4469 30.352C14.897 29.6785 14.5282 28.8757 14.3754 28.0197C14.3528 27.9114 14.3532 27.7996 14.3766 27.6915C14.4 27.5834 14.4458 27.4815 14.5112 27.3923C14.5766 27.3031 14.6601 27.2286 14.7561 27.1738C14.8522 27.119 14.9587 27.0851 15.0687 27.0742Z" fill="#659AD2"/>
<path id="Vector_2" d="M30.0086 4.91735C30.0086 4.91735 31.1118 7.09214 20.5531 8.57352L22.4758 3.12086C22.6249 2.78922 22.6908 2.42624 22.668 2.06337C22.6452 1.70051 22.5344 1.3487 22.345 1.03831C22.1557 0.727919 21.8935 0.468304 21.5813 0.281987C21.2691 0.0956707 20.9161 -0.0117379 20.5531 -0.0310059C20.0117 0.0156318 19.4969 0.223865 19.0754 0.566701C18.6539 0.909538 18.3451 1.37111 18.1892 1.89158L15.0373 9.14093C12.1629 9.36332 9.27563 9.36332 6.40123 9.14093C4.47859 8.95181 3.97442 10.0234 3.97442 11.1265C3.97442 13.0176 7.34692 14.9719 9.49018 14.7512L12.642 14.4676L0.853918 41.3844C0.412657 42.393 0.0344493 44.0005 2.05164 44.0005C4.06883 44.0005 8.63909 42.1409 9.39553 39.9976L14.6906 25.0578C17.1303 24.5959 19.592 24.2593 22.0661 24.0492C23.2953 24.0492 23.9571 24.6165 23.9571 25.3099C23.9571 26.8543 20.238 31.2985 13.0203 36.7827C12.2323 37.3816 13.0201 37.8543 13.3038 37.8543C16.3721 36.4869 19.2446 34.7169 21.8454 32.5908C24.556 30.5421 29.2522 25.2469 29.2522 21.4962C29.2522 20.0463 28.6218 18.6911 25.6591 18.6911C22.6963 18.6911 17.7479 19.3214 16.6448 19.4475C17.3697 17.4618 18.0317 15.5077 18.6936 13.6796C24.2724 12.9232 27.5818 12.4188 29.536 12.009C32.2466 11.4417 34.4213 9.89731 34.4213 8.28986C34.4213 4.88585 30.0086 4.91735 30.0086 4.91735Z" fill="#632D00"/>
</g>
<defs>
<clipPath id="clip0_2544_7850">
<rect width="35.0487" height="44" fill="white" transform="translate(0.475647)"/>
</clipPath>
</defs>
</svg>
