<svg width="44" height="44" viewBox="0 0 44 44" fill="none" xmlns="http://www.w3.org/2000/svg">
<g id="Frame" clip-path="url(#clip0_2544_7818)">
<path id="Vector" d="M21.0187 0.316539C16.7296 0.511051 12.5945 1.9733 9.13658 4.51829C5.67864 7.06328 3.05318 10.5767 1.59235 14.614C0.131519 18.6514 -0.099076 23.0313 0.929755 27.1998C1.95859 31.3682 4.20064 35.1378 7.37223 38.0318C10.5438 40.9258 14.5025 42.8142 18.7475 43.458C22.9924 44.1018 27.333 43.4721 31.2201 41.6486C35.1071 39.8251 38.366 36.8897 40.5845 33.2138C42.803 29.5379 43.8815 25.2865 43.6834 20.9976C43.5561 18.1496 42.8686 15.3546 41.6604 12.7725C40.4521 10.1903 38.7468 7.87161 36.6419 5.94894C34.5369 4.02628 32.0737 2.53735 29.3929 1.56728C26.7122 0.597216 23.8665 0.165034 21.0187 0.295447V0.316539Z" fill="url(#paint0_radial_2544_7818)"/>
<path id="Vector_2" d="M21.0081 0.0216809C16.661 0.218197 12.4698 1.69946 8.96466 4.27811C5.4595 6.85676 2.79778 10.417 1.31614 14.5085C-0.165509 18.6 -0.400501 23.039 0.640853 27.264C1.68221 31.4891 3.95314 35.3105 7.16644 38.2448C10.3797 41.1791 14.3911 43.0946 18.6931 43.7491C22.9951 44.4035 27.3946 43.7674 31.3351 41.9212C35.2756 40.0751 38.5801 37.1019 40.8306 33.3776C43.0812 29.6533 44.1768 25.3452 43.9788 20.9982C43.7133 15.1699 41.1447 9.68543 36.8374 5.75011C32.5301 1.81478 26.8366 -0.249443 21.0081 0.011119V0.0216809ZM23.5826 21.3675C27.4973 24.9761 29.6393 26.9176 29.6393 26.9176C36.5294 32.6576 34.1764 37.9018 31.5385 39.7272C29.4185 41.1411 26.9327 41.9074 24.3846 41.9325C24.2964 41.9458 24.2064 41.9413 24.12 41.9191C24.0336 41.897 23.9525 41.8576 23.8816 41.8035C23.8107 41.7493 23.7515 41.6814 23.7073 41.6039C23.6632 41.5264 23.6352 41.4408 23.6249 41.3522C23.6249 40.8562 24.3318 40.7296 24.3318 40.7296C30.8421 39.4529 28.9323 35.1795 26.6321 33.0059C25.6719 32.0879 16.6081 24.2692 16.6081 24.2692C7.9769 16.8831 8.66275 11.0269 8.66275 11.0269C9.07426 3.88354 15.3313 2.11088 20.069 2.5224C20.6177 2.57515 20.9237 2.91282 20.8287 3.36654C20.7337 3.82026 19.9951 3.91521 19.9951 3.91521C18.6419 3.88006 17.3031 4.20021 16.1121 4.84375C12.303 7.40778 13.432 11.7761 18.5179 16.6298C19.151 17.2418 19.8368 17.8855 20.5333 18.5397C20.5333 18.5397 21.5567 19.4366 23.5826 21.3675ZM20.6282 39.8327C20.6282 40.5397 18.9716 40.8351 17.0407 40.6452C14.1534 40.4398 11.4036 39.3325 9.17976 37.4797C7.03968 35.5528 5.49173 33.057 4.71648 30.2835C3.99897 27.7934 3.66132 24.8917 4.8853 25.1133C5.24406 25.1871 5.87714 26.791 6.55244 27.9517C7.00435 28.8215 7.62489 29.5927 8.37787 30.2202C8.62055 30.3996 9.433 28.5531 10.657 27.5085C11.3534 26.9282 12.1237 26.7277 12.2503 28.4581C12.398 30.5685 12.0182 33.1008 12.6301 33.1008C13.2421 33.1008 14.5189 32.6577 17.3783 32.415C18.4335 32.3306 19.0666 32.531 18.0431 33.9766C17.295 35.1155 16.3393 36.1035 15.2258 36.8888C17.6632 39.1469 20.5755 38.8725 20.6282 39.8327ZM22.5486 17.6745C22.3538 16.7692 22.3252 15.836 22.4642 14.9205C22.7526 13.0485 23.3218 11.2308 24.1524 9.52865C25.2076 7.02793 22.7385 5.56125 23.0973 4.64327C23.646 3.39819 25.3764 4.98091 27.3179 5.09698C28.9745 5.19194 29.9769 5.09699 31.2642 5.27637C32.9736 5.5085 35.0205 6.07829 35.928 7.15455C36.8354 8.2308 35.4954 9.32817 33.9548 8.57901C32.8364 8.03033 31.4225 8.36798 32.2455 9.53921C32.8648 10.3162 33.7611 10.823 34.7462 10.9531C37.5424 11.6917 37.6057 14.3718 35.7064 15.7646C33.5433 17.3368 31.3697 16.6932 30.4939 13.591C30.0508 12.0399 28.9534 11.2591 27.8349 11.6917C26.7165 12.1243 27.3812 14.1713 28.2359 16.0495C29.9241 20.3756 25.7141 20.2701 25.2287 20.1752C24.5938 20.0445 24.0074 19.7408 23.5344 19.2976C23.0614 18.8544 22.7202 18.289 22.5486 17.6639V17.6745Z" fill="url(#paint1_radial_2544_7818)"/>
</g>
<defs>
<radialGradient id="paint0_radial_2544_7818" cx="0" cy="0" r="1" gradientUnits="userSpaceOnUse" gradientTransform="translate(25.3885 14.8942) scale(20.6219 20.6219)">
<stop stop-color="white"/>
<stop offset="1" stop-color="#CF9C51"/>
</radialGradient>
<radialGradient id="paint1_radial_2544_7818" cx="0" cy="0" r="1" gradientUnits="userSpaceOnUse" gradientTransform="translate(20.2834 8.61613) scale(46.193 46.1931)">
<stop stop-color="#00C0F3"/>
<stop offset="0.22" stop-color="#0097D6"/>
<stop offset="0.28" stop-color="#0086CA"/>
<stop offset="0.37" stop-color="#0074BD"/>
<stop offset="0.46" stop-color="#0069B5"/>
<stop offset="0.57" stop-color="#0066B3"/>
</radialGradient>
<clipPath id="clip0_2544_7818">
<rect width="44" height="44" fill="white"/>
</clipPath>
</defs>
</svg>
