<svg width="44" height="32" viewBox="0 0 44 32" fill="none" xmlns="http://www.w3.org/2000/svg">
<g id="Frame" clip-path="url(#clip0_2544_7815)">
<path id="Vector" d="M0 16.2414C0 7.57251 9.84739 0.553436 22 0.553436C34.1526 0.553436 44 7.57251 44 16.2414C44 24.9104 34.1526 31.4466 22 31.4466C9.84739 31.4466 0 24.8989 0 16.2414ZM14.8085 25.0253C18.9935 27.3248 25.5469 26.5257 25.5469 26.5257C27.5532 26.5257 26.1218 25.3415 26.1218 25.3415C25.8505 25.1888 25.6183 24.9753 25.4432 24.7179C25.2682 24.4605 25.1551 24.166 25.1128 23.8576C25.0705 23.5492 25.1001 23.2352 25.1994 22.9401C25.2986 22.645 25.4648 22.3769 25.6849 22.1568C26.6883 21.0538 28.0246 20.309 29.4905 20.0355C33.6755 18.7191 38.4871 19.3457 38.4871 19.3457C39.9817 19.5929 38.7343 18.2879 38.7343 18.2879C37.7972 17.5349 38.3606 15.908 38.3606 15.908C39.6828 14.3439 41.5515 13.3427 43.5861 13.1084L43.4424 12.6485L43.3274 12.3209C42.1164 11.975 40.8669 11.7819 39.608 11.746C32.3648 10.9987 28.7431 13.0567 28.7431 13.0567C22.937 15.9942 28.7431 18.7708 28.7431 18.7708C25.5194 18.1983 22.2173 18.2295 19.005 18.8628C17.3737 19.0823 15.8143 19.6722 14.4463 20.5874C10.9856 22.9616 14.8085 25.0253 14.8085 25.0253ZM0.0172452 16.7703L0.137961 16.9715C2.9203 21.3462 12.7849 20.0355 12.7849 20.0355C14.1646 19.8458 13.0954 19.1618 13.0954 19.1618C10.3533 16.6611 13.8484 14.787 13.8484 14.787C18.683 11.9472 25.179 12.9475 25.179 12.9475C26.6794 12.9762 25.8056 12.3209 25.8056 12.3209C25.491 12.0166 25.2698 11.6288 25.168 11.2032C25.0662 10.7775 25.0879 10.3317 25.2307 9.91795C26.2252 7.54376 30.347 6.76196 30.347 6.76196C31.4967 6.29632 30.347 5.85942 30.347 5.85942C20.3559 3.79566 15.4006 6.66998 15.4006 6.66998C9.43924 9.76274 15.7455 12.3841 15.7455 12.3841C13.3724 11.985 10.9637 11.8386 8.55971 11.9472C0.822053 12.5681 0.0459901 15.5344 0.0459901 15.5344C0.0459901 15.5344 0.0114909 15.908 0.0114909 16.2414L0.0172452 16.7703ZM17.8035 22.7316C18.0712 22.7328 18.3331 22.6544 18.5562 22.5064C18.7792 22.3584 18.9533 22.1474 19.0562 21.9003C19.1592 21.6533 19.1864 21.3812 19.1345 21.1186C19.0825 20.856 18.9538 20.6147 18.7645 20.4255C18.5752 20.2362 18.334 20.1074 18.0714 20.0555C17.8088 20.0035 17.5367 20.0308 17.2896 20.1337C17.0425 20.2367 16.8316 20.4107 16.6836 20.6338C16.5356 20.8568 16.4572 21.1188 16.4583 21.3865C16.4583 21.7412 16.5984 22.0817 16.8482 22.3336C17.098 22.5855 17.4372 22.7286 17.792 22.7316H17.8035ZM4.66214 16.4082C4.92957 16.4082 5.19098 16.3288 5.41326 16.1801C5.63554 16.0314 5.8087 15.82 5.91077 15.5729C6.01285 15.3257 6.03926 15.0538 5.98667 14.7915C5.93407 14.5293 5.80484 14.2886 5.61533 14.0999C5.42583 13.9112 5.18458 13.783 4.92215 13.7316C4.65972 13.6801 4.38791 13.7076 4.14116 13.8108C3.89441 13.9139 3.68383 14.088 3.53608 14.3109C3.38833 14.5338 3.31007 14.7955 3.31121 15.063C3.30739 15.2415 3.33917 15.4191 3.4047 15.5852C3.47023 15.7514 3.5682 15.9028 3.69288 16.0307C3.81756 16.1586 3.96647 16.2604 4.13091 16.3302C4.29534 16.3999 4.47203 16.4362 4.65064 16.4369L4.66214 16.4082ZM17.5851 9.67651C17.8522 9.67651 18.1134 9.59728 18.3356 9.44884C18.5577 9.30039 18.7309 9.0894 18.8331 8.84255C18.9354 8.5957 18.9621 8.32408 18.91 8.06203C18.8579 7.79997 18.7292 7.55926 18.5403 7.37033C18.3514 7.1814 18.1107 7.05273 17.8486 7.00061C17.5866 6.94848 17.3149 6.97523 17.0681 7.07748C16.8212 7.17973 16.6102 7.35288 16.4618 7.57504C16.3134 7.7972 16.2341 8.05839 16.2341 8.32557C16.2303 8.50442 16.2621 8.68225 16.3275 8.84873C16.393 9.01521 16.4909 9.16702 16.6155 9.29537C16.7401 9.42373 16.8889 9.52605 17.0534 9.59641C17.2179 9.66677 17.3947 9.70377 17.5736 9.70525L17.5851 9.67651ZM30.7494 16.0632C31.0152 16.0621 31.2747 15.9822 31.4952 15.8337C31.7156 15.6852 31.8872 15.4748 31.9881 15.2289C32.089 14.983 32.1148 14.7127 32.0623 14.4521C32.0097 14.1916 31.8812 13.9524 31.6928 13.7649C31.5045 13.5773 31.2648 13.4498 31.004 13.3983C30.7432 13.3469 30.473 13.3738 30.2276 13.4758C29.9821 13.5778 29.7724 13.7502 29.6248 13.9713C29.4772 14.1924 29.3985 14.4522 29.3985 14.7181C29.3977 14.8954 29.4322 15.0711 29.4999 15.2351C29.5676 15.399 29.6671 15.5479 29.7928 15.673C29.9185 15.7981 30.0678 15.8971 30.232 15.9641C30.3962 16.031 30.5721 16.0648 30.7494 16.0632Z" fill="#076CAF"/>
</g>
<defs>
<clipPath id="clip0_2544_7815">
<rect width="44" height="30.8931" fill="white" transform="translate(0 0.553436)"/>
</clipPath>
</defs>
</svg>
