<svg width="44" height="44" viewBox="0 0 44 44" fill="none" xmlns="http://www.w3.org/2000/svg">
<g id="Frame" clip-path="url(#clip0_2544_7854)">
<path id="Vector" d="M0.00466919 30.6357C0.00466919 37.9877 4.50923 44.0047 21.5659 44.0047H22.4388C39.5001 44.0047 44 37.9877 44 30.6357V13.3643C44 6.00765 39.4954 -0.00932312 22.4388 -0.00932312H21.5659C4.50456 1.27591e-05 0.00466919 6.01698 0.00466919 13.3643V30.6357Z" fill="url(#paint0_linear_2544_7854)"/>
<path id="Vector_2" d="M22.4341 44C23.6618 44 24.8194 43.9673 25.9211 43.9067V36.4613C29.0439 36.438 33.231 35.1869 35.0982 31.1492C37.3108 26.3599 35.1309 22.6955 33.0163 20.8797C34.342 19.2226 35.1683 16.1791 34.0433 12.9675C32.1294 7.50606 26.6913 7.22131 24.8428 7.21664H22.4108V43.9814L22.4341 44ZM25.9211 10.979H26.3878C27.6882 11.054 28.9108 11.6231 29.8054 12.5698C30.7 13.5164 31.1991 14.7692 31.2005 16.0717C31.2005 19.6007 27.8769 21.2765 27.5315 21.3932C27.6855 21.3932 32.2835 22.7936 32.2835 27.0694C32.2835 30.3603 29.3053 32.7456 25.9117 32.7456L25.9211 10.979Z" fill="white"/>
<path id="Vector_3" d="M15.1101 21.1224C14.0738 20.2262 12.3374 18.373 12.4167 16.0624C12.4867 13.9711 13.481 12.356 15.1521 11.6278C16.6459 10.9743 18.457 10.965 19.5633 10.965H19.8201V7.23064H19.6287C18.2003 7.23064 15.8383 7.23064 13.6911 8.16422C10.6429 9.49459 8.75705 12.4261 8.64035 15.997C8.54232 18.8585 9.95204 21.6966 12.6128 23.9886C15.1428 26.1731 16.4311 27.4382 15.7963 30.1782C15.2641 32.4795 11.6792 35.565 10.5309 36.3959H15.7076C16.9493 35.4623 18.9752 33.1564 19.4746 30.9625C20.651 25.9024 17.5794 23.251 15.1101 21.1224Z" fill="white"/>
</g>
<defs>
<linearGradient id="paint0_linear_2544_7854" x1="22.0794" y1="15.6082" x2="22.0794" y2="43.7559" gradientUnits="userSpaceOnUse">
<stop stop-color="#92C83E"/>
<stop offset="0.6" stop-color="#009D54"/>
<stop offset="1" stop-color="#007360"/>
</linearGradient>
<clipPath id="clip0_2544_7854">
<rect width="44" height="44" fill="white"/>
</clipPath>
</defs>
</svg>
