<svg width="44" height="40" viewBox="0 0 44 40" fill="none" xmlns="http://www.w3.org/2000/svg">
<g id="Frame" clip-path="url(#clip0_2544_7798)">
<path id="Vector" d="M39.7958 23.4258C37.8568 28.2546 34.5941 29.625 34.5941 29.625C44.1864 19.9114 38.3229 8.70633 38.3229 8.70633C36.9059 6.1987 38.7051 5.10804 38.7051 5.10804C34.5847 6.13346 35.9085 9.54533 35.9085 9.54533C37.5272 13.127 37.8566 17.1585 36.8407 20.9555L35.489 20.2004C35.489 20.2004 38.7051 7.53175 25.589 3.08514V0.698706H22.7924V16.4063L35.6661 23.7428C35.4237 24.2182 35.1814 24.675 34.9203 25.0851L21.9907 17.6275L9.0144 25.0851C8.7434 24.6505 8.4945 24.2025 8.26865 23.7428L21.1424 16.4063V0.661438H18.3458V3.04788C5.22966 7.49449 8.44575 20.1631 8.44575 20.1631L7.08474 20.9182C6.07423 17.1208 6.40345 13.0911 8.01695 9.50804C8.01695 9.50804 9.30339 6.09617 5.22034 5.07074C5.22034 5.07074 7.01949 6.16143 5.60254 8.66906C5.60254 8.66906 -0.251694 19.8555 9.33136 29.5877C9.33136 29.5877 6.07796 28.2173 4.12966 23.3885C3.73898 22.6563 3.11516 22.0753 2.35701 21.7376C1.59887 21.3999 0.74972 21.3248 -0.0559387 21.5241C0.415334 21.8236 0.822704 22.2133 1.14269 22.6709C1.46267 23.1285 1.68894 23.6448 1.80847 24.1902C1.80847 24.1902 4.60509 33.0462 15.3347 34.3979V39.2826H20.6203V32.0767C16.8403 31.8296 13.3026 30.1292 10.7483 27.3318L12.072 26.558C14.7946 29.0044 18.2708 30.4481 21.9254 30.6504H22.028C25.6814 30.443 29.1559 29 31.8814 26.558L33.2051 27.3318C30.6508 30.1292 27.1131 31.8296 23.333 32.0767V39.2826H28.6093V34.3979C39.3576 33.0462 42.1449 24.1902 42.1449 24.1902C42.2644 23.6448 42.4907 23.1285 42.8107 22.6709C43.1307 22.2133 43.538 21.8236 44.0093 21.5241C43.1956 21.3326 42.3414 21.4153 41.5795 21.7591C40.8175 22.103 40.1905 22.6889 39.7958 23.4258ZM32.9254 18.7648L25.6542 14.7191V6.03091C25.6542 6.03091 34.4076 8.3894 32.9254 18.7462V18.7648ZM18.2991 6.00294V14.6911L11.0373 18.7648C9.58305 8.38939 18.2991 6.00294 18.2991 6.00294ZM22.028 20.8436L29.2619 25.0851H29.1966C27.2092 26.8383 24.6502 27.8057 22 27.8057C19.3498 27.8057 16.7908 26.8383 14.8034 25.0851H14.7381L22.028 20.8436Z" fill="#0056A7"/>
</g>
<defs>
<clipPath id="clip0_2544_7798">
<rect width="44" height="38.6771" fill="white" transform="translate(0 0.661438)"/>
</clipPath>
</defs>
</svg>
