<svg width="44" height="44" viewBox="0 0 44 44" fill="none" xmlns="http://www.w3.org/2000/svg">
<g id="Frame" clip-path="url(#clip0_2544_7633)">
<path id="Vector" d="M43.6807 21.9949C43.6826 26.3015 42.4072 30.512 40.0159 34.0936C37.6245 37.6752 34.2245 40.4672 30.2461 42.1161C26.2677 43.7651 21.8896 44.1971 17.6656 43.3574C13.4417 42.5177 9.56163 40.4441 6.5164 37.3988C3.47116 34.3536 1.39754 30.4736 0.557847 26.2496C-0.281847 22.0257 0.150124 17.6476 1.7991 13.6692C3.44809 9.69074 6.23997 6.29077 9.82161 3.89938C13.4033 1.50798 17.6137 0.232616 21.9203 0.234591C27.6907 0.237237 33.224 2.53069 37.3043 6.61097C41.3846 10.6912 43.678 16.2245 43.6807 21.9949Z" fill="white"/>
<path id="Vector_2" d="M21.9201 42.7267C26.0204 42.7267 30.0287 41.5107 33.438 39.2327C36.8473 36.9547 39.5046 33.7168 41.0737 29.9286C42.6429 26.1404 43.0534 21.9719 42.2535 17.9504C41.4535 13.9288 39.479 10.2348 36.5796 7.33537C33.6803 4.43599 29.9862 2.46149 25.9647 1.66155C21.9431 0.861608 17.7746 1.27217 13.9864 2.8413C10.1982 4.41044 6.96034 7.06768 4.68231 10.477C2.40428 13.8863 1.18835 17.8946 1.18835 21.9949C1.18835 27.4933 3.3726 32.7665 7.26055 36.6545C11.1485 40.5424 16.4217 42.7267 21.9201 42.7267Z" fill="#0083CA"/>
<mask id="mask0_2544_7633" style="mask-type:alpha" maskUnits="userSpaceOnUse" x="1" y="1" width="42" height="42">
<path id="Vector_3" d="M21.9201 42.7267C26.0205 42.7267 30.0287 41.5108 33.438 39.2327C36.8474 36.9547 39.5046 33.7169 41.0738 29.9286C42.6429 26.1404 43.0534 21.9719 42.2535 17.9504C41.4536 13.9288 39.4791 10.2348 36.5797 7.3354C33.6803 4.43602 29.9862 2.46152 25.9647 1.66158C21.9431 0.861639 17.7747 1.2722 13.9864 2.84133C10.1982 4.41047 6.96037 7.06771 4.68234 10.477C2.40431 13.8863 1.18839 17.8946 1.18839 21.9949C1.18839 27.4933 3.37263 32.7665 7.26058 36.6545C11.1485 40.5424 16.4217 42.7267 21.9201 42.7267Z" fill="#0083CA"/>
</mask>
<g mask="url(#mask0_2544_7633)">
<g id="Group">
<path id="Vector_4" d="M21.99 32.0112C31.0976 32.0112 38.907 34.5478 42.2524 38.1429C43.4094 35.4978 44.0045 32.6414 44 29.7543C44 23.9196 41.6822 18.3238 37.5564 14.198C33.4306 10.0722 27.8348 7.75433 22 7.75433C16.1653 7.75433 10.5695 10.0722 6.44366 14.198C2.31786 18.3238 -8.8033e-06 23.9196 -8.8033e-06 29.7543C-0.00416168 32.6403 0.587409 35.496 1.73764 38.1429C5.07309 34.5478 12.8725 32.0112 21.99 32.0112Z" fill="#0083CA"/>
<path id="Vector_5" d="M21.99 32.0321C31.0776 32.0321 38.867 34.5487 42.2024 38.1238C43.3515 35.4977 43.9432 32.6617 43.9401 29.7952C43.9401 18.0013 34.1035 8.41434 21.97 8.41434C9.83658 8.41434 -1.07532e-05 18.0013 -1.07532e-05 29.7952C-0.00397271 32.6618 0.587765 35.4979 1.73764 38.1238C5.11304 34.5487 12.8725 32.0321 21.99 32.0321Z" fill="#0085CB"/>
<path id="Vector_6" d="M21.99 32.0512C31.0477 32.0512 38.8171 34.5578 42.1426 38.093C43.2902 35.491 43.882 32.6781 43.8802 29.8342C43.8802 18.1302 34.0636 8.5932 21.99 8.5932C9.9165 8.5932 0.0998757 18.1402 0.0998757 29.8342C0.0956725 32.6783 0.687628 35.4917 1.83753 38.093C5.15301 34.5578 12.9224 32.0512 21.99 32.0512Z" fill="#0086CC"/>
<path id="Vector_7" d="M21.98 32.0812C31.0177 32.0812 38.7771 34.5578 42.0926 38.073C43.2348 35.508 43.8268 32.732 43.8302 29.9241C43.8302 18.3199 34.0436 8.82288 21.99 8.82288C9.93645 8.82288 0.169761 18.3199 0.169761 29.9241C0.163283 32.7448 0.751995 35.5352 1.89742 38.1129C5.19292 34.5578 12.9423 32.0812 21.98 32.0812Z" fill="#0088CC"/>
<path id="Vector_8" d="M21.98 32.1011C30.9678 32.1011 38.7272 34.5578 42.0327 38.043C43.176 35.4893 43.7648 32.7221 43.7603 29.9241C43.7603 18.4098 34.0036 8.9527 21.98 8.9527C9.95643 8.9527 0.209737 18.3998 0.209737 29.9241C0.205754 32.721 0.791015 35.4874 1.9274 38.043C5.23289 34.5578 12.9623 32.1011 21.98 32.1011Z" fill="#0089CD"/>
<path id="Vector_9" d="M21.98 32.1211C30.9678 32.1211 38.6773 34.5578 41.9528 38.0131C43.0879 35.4816 43.6733 32.7383 43.6705 29.964C43.6705 18.5396 33.9337 9.14243 21.9501 9.14243C9.96642 9.14243 0.239692 18.5496 0.239692 29.964C0.237305 32.7372 0.819155 35.4798 1.94736 38.0131C5.27282 34.5578 12.9923 32.1211 21.98 32.1211Z" fill="#008BCE"/>
<path id="Vector_10" d="M21.98 32.1511C30.9678 32.1511 38.6373 34.5578 41.9528 37.9931C43.0866 35.4824 43.6721 32.7588 43.6704 30.004C43.6704 18.6794 33.9637 9.33218 22.01 9.33218C10.0563 9.33218 0.34952 18.6794 0.34952 30.004C0.348361 32.7577 0.930373 35.4805 2.05721 37.9931C5.31277 34.5578 13.0123 32.1511 21.98 32.1511Z" fill="#008DCF"/>
<path id="Vector_11" d="M21.97 32.171C30.9578 32.171 38.5874 34.5678 41.8729 37.9631C42.9988 35.4749 43.581 32.7751 43.5806 30.0439C43.5806 18.8192 33.9038 9.51193 21.97 9.51193C10.0363 9.51193 0.369509 18.8192 0.369509 30.0439C0.368208 32.7752 0.950417 35.4752 2.07717 37.9631C5.35271 34.5678 13.0322 32.171 21.97 32.171Z" fill="#008ED0"/>
<path id="Vector_12" d="M21.9701 32.191C30.8879 32.191 38.5475 34.5678 41.813 37.9332C42.9443 35.4714 43.527 32.7931 43.5207 30.0839C43.5207 18.9491 33.8638 9.70166 21.9701 9.70166C10.0763 9.70166 0.429453 18.959 0.429453 30.0839C0.423841 32.792 1.00291 35.4694 2.12712 37.9332C5.39267 34.5678 13.0522 32.191 21.9701 32.191Z" fill="#0090D0"/>
<path id="Vector_13" d="M21.9701 32.221C30.8579 32.221 38.4975 34.5678 41.7631 37.9132C42.8852 35.4699 43.4644 32.8124 43.4608 30.1238C43.4608 19.1388 33.8339 9.88141 21.9701 9.88141C10.1062 9.88141 0.47937 19.0889 0.47937 30.1238C0.479554 32.812 1.05858 35.4687 2.17707 37.9132C5.44261 34.5678 13.0722 32.221 21.9701 32.221Z" fill="#0092D1"/>
<path id="Vector_14" d="M21.97 32.2409C30.8379 32.2409 38.4476 34.5678 41.7131 37.8833C42.8293 35.4627 43.4084 32.8293 43.4108 30.1638C43.4108 19.1788 33.8039 10.0612 21.97 10.0612C10.1362 10.0612 0.529297 19.2287 0.529297 30.1638C0.529476 32.8295 1.10871 35.4634 2.22696 37.8833C5.48252 34.5678 13.0921 32.2409 21.97 32.2409Z" fill="#0093D2"/>
<path id="Vector_15" d="M21.9601 32.2609C30.808 32.2609 38.4077 34.5778 41.6532 37.8533C42.7701 35.4577 43.3495 32.8469 43.3509 30.2037C43.3509 19.3585 33.764 10.231 21.9601 10.231C10.1562 10.231 0.589245 19.3485 0.589245 30.2037C0.586198 32.8463 1.16228 35.4574 2.27695 37.8533C5.52252 34.5778 13.1122 32.2609 21.9601 32.2609Z" fill="#0095D3"/>
<path id="Vector_16" d="M21.9601 32.2909C30.778 32.2909 38.3577 34.5777 41.6033 37.8333C42.7159 35.4579 43.2921 32.8667 43.291 30.2437C43.291 19.4983 33.734 10.4307 21.9601 10.4307C10.1861 10.4307 0.639142 19.4983 0.639142 30.2437C0.636076 32.8669 1.21237 35.4585 2.32684 37.8333C5.56243 34.5777 13.1321 32.2909 21.9601 32.2909Z" fill="#0097D4"/>
<path id="Vector_17" d="M21.9601 32.3108C30.7581 32.3108 38.3177 34.5778 41.5433 37.8034C42.6545 35.4558 43.2309 32.8909 43.231 30.2936C43.231 19.6381 33.7041 10.6204 21.9601 10.6204C10.2161 10.6204 0.689057 19.6082 0.689057 30.2936C0.688196 32.891 1.26467 35.4561 2.37676 37.8034C5.60236 34.5778 13.1521 32.3108 21.9601 32.3108Z" fill="#0098D5"/>
<path id="Vector_18" d="M21.9501 32.3308C30.7281 32.3308 38.2678 34.5777 41.4935 37.7734C42.5964 35.4482 43.1694 32.9071 43.1712 30.3335C43.1712 19.7679 33.6641 10.8002 21.9501 10.8002C10.2361 10.8002 0.748993 19.7879 0.748993 30.3335C0.748371 32.9073 1.32153 35.4489 2.42673 37.7734C5.64234 34.5777 13.1721 32.3308 21.9501 32.3308Z" fill="#009AD5"/>
<path id="Vector_19" d="M21.9501 32.3508C30.6981 32.3508 38.2179 34.5877 41.4335 37.7534C42.5351 35.449 43.1083 32.9277 43.1112 30.3735C43.1112 19.9077 33.6341 10.9899 21.9501 10.9899C10.266 10.9899 0.79892 19.9077 0.79892 30.3735C0.799476 32.9279 1.37277 35.4498 2.47662 37.7534C5.68225 34.5877 13.192 32.3508 21.9501 32.3508Z" fill="#009CD6"/>
<path id="Vector_20" d="M21.9501 32.3808C30.6782 32.3808 38.1779 34.5877 41.3836 37.7235C42.4773 35.4415 43.0471 32.944 43.0513 30.4134C43.0513 20.0476 33.5942 11.1697 21.9501 11.1697C10.3059 11.1697 0.888794 20.0476 0.888794 30.4134C0.890618 32.9453 1.46411 35.4442 2.5665 37.7235C5.7222 34.5877 13.212 32.3808 21.9501 32.3808Z" fill="#009ED7"/>
<path id="Vector_21" d="M21.9501 32.4007C30.6482 32.4007 38.128 34.5877 41.3237 37.6935C42.4215 35.4379 42.9918 32.962 42.9914 30.4534C42.9914 20.1774 33.5642 11.3494 21.9501 11.3494C10.3359 11.3494 0.888805 20.1774 0.888805 30.4534C0.885921 32.9623 1.45636 35.4387 2.55654 37.6935C5.76217 34.5877 13.232 32.4007 21.9501 32.4007Z" fill="#00A0D8"/>
<path id="Vector_22" d="M21.9401 32.4207C30.6183 32.4207 38.0881 34.5877 41.2737 37.6735C42.3636 35.4368 42.9305 32.9815 42.9315 30.4933C42.9315 20.3172 33.5343 11.5192 21.9601 11.5192C10.3859 11.5192 0.988678 20.2972 0.988678 30.4933C0.988639 32.9816 1.55557 35.4371 2.64642 37.6735C5.80212 34.5877 13.2519 32.4207 21.9401 32.4207Z" fill="#00A1D9"/>
<path id="Vector_23" d="M21.9401 32.4507C30.5983 32.4507 38.0381 34.5977 41.2138 37.6436C42.3033 35.4316 42.8705 32.999 42.8715 30.5333C42.8715 20.457 33.4943 11.7189 21.9001 11.7189C10.306 11.7189 0.928741 20.457 0.928741 30.5333C0.933366 32.9986 1.50033 35.4304 2.58648 37.6436C5.88199 34.5977 13.2819 32.4507 21.9401 32.4507Z" fill="#00A3DA"/>
<path id="Vector_24" d="M21.9401 32.4706C30.5683 32.4706 37.9882 34.5977 41.1639 37.6136C42.2423 35.4403 42.8093 33.0492 42.8216 30.6231C42.8216 20.6368 33.4644 11.9586 21.9401 11.9586C10.4158 11.9586 1.06854 20.6368 1.06854 30.6231C1.07739 33.0485 1.64102 35.4396 2.71629 37.6136C5.88197 34.5977 13.3019 32.4706 21.9401 32.4706Z" fill="#00A5DB"/>
<path id="Vector_25" d="M21.9401 32.4906C30.5384 32.4906 37.9183 34.5977 41.104 37.5936C42.1933 35.4243 42.7609 33.0306 42.7617 30.6032C42.7617 20.7166 33.4344 12.0784 21.9401 12.0784C10.4458 12.0784 1.1185 20.7166 1.1185 30.6032C1.11837 33.0295 1.68247 35.4227 2.76625 37.5936C5.882 34.5977 13.3218 32.4906 21.9401 32.4906Z" fill="#00A7DC"/>
<path id="Vector_26" d="M21.9301 32.5206C30.5184 32.5206 37.9083 34.5977 41.054 37.5637C42.1336 35.4233 42.6978 33.0603 42.7018 30.6631C42.7018 20.8665 33.3945 12.2782 21.9301 12.2782C10.4657 12.2782 1.17841 20.8665 1.17841 30.6631C1.17887 33.0595 1.73971 35.4226 2.81616 37.5637C5.96187 34.5977 13.3418 32.5206 21.9301 32.5206Z" fill="#00A9DD"/>
<path id="Vector_27" d="M21.9301 32.5405C30.4884 32.5405 37.8584 34.6077 40.9941 37.5337C42.0736 35.4184 42.6382 33.0779 42.6419 30.703C42.6419 20.9963 33.3645 12.4579 21.9301 12.4579C10.4957 12.4579 1.22833 20.9963 1.22833 30.703C1.23231 33.0767 1.79328 35.4163 2.86611 37.5337C6.00184 34.6077 13.3618 32.5405 21.9301 32.5405Z" fill="#00ABDE"/>
<path id="Vector_28" d="M21.9301 32.5605C30.4685 32.5605 37.8085 34.6077 40.9043 37.5537C41.9747 35.4568 42.5357 33.1372 42.542 30.7829C42.542 21.176 33.2946 12.6876 21.8902 12.6876C10.4857 12.6876 1.23834 21.176 1.23834 30.7829C1.25396 33.1245 1.81831 35.4298 2.88609 37.5138C6.05177 34.6077 13.3818 32.5605 21.9301 32.5605Z" fill="#00ADDE"/>
<path id="Vector_29" d="M21.9201 32.5805C30.4385 32.5805 37.7585 34.5778 40.8943 37.4838C41.9687 35.4135 42.5303 33.1154 42.532 30.7829C42.532 21.2759 33.3046 12.8074 21.9301 12.8074C10.5556 12.8074 1.34818 21.2559 1.34818 30.7829C1.35026 33.1142 1.90829 35.4114 2.97596 37.4838C6.09171 34.6077 13.4017 32.5805 21.9201 32.5805Z" fill="#00AFDF"/>
<path id="Vector_30" d="M21.9201 32.6104C30.4085 32.6104 37.7186 34.6077 40.8343 37.4538C41.9007 35.406 42.459 33.1317 42.4621 30.8229C42.4621 21.4057 33.2647 13.0072 21.9201 13.0072C10.5756 13.0072 1.38812 21.4057 1.38812 30.8229C1.39011 33.1319 1.94847 35.4064 3.01591 37.4538C6.13166 34.6077 13.4217 32.6104 21.9201 32.6104Z" fill="#00B1E0"/>
<path id="Vector_31" d="M21.9201 32.6304C30.3886 32.6304 37.6687 34.6277 40.7744 37.4339C41.8403 35.4073 42.3988 33.1525 42.4022 30.8628C42.4022 21.5455 33.2347 13.1969 21.9201 13.1969C10.6056 13.1969 1.43805 21.5455 1.43805 30.8628C1.44021 33.1527 1.99884 35.4078 3.06583 37.4339C6.1716 34.6177 13.4417 32.6304 21.9201 32.6304Z" fill="#00B3E1"/>
<path id="Vector_32" d="M21.9201 32.6504C30.3586 32.6504 37.6287 34.6477 40.7245 37.4039C41.7827 35.4 42.3379 33.1689 42.3423 30.9028C42.3423 21.6753 33.1947 13.3766 21.9201 13.3766C10.6455 13.3766 1.49796 21.6853 1.49796 30.9028C1.50237 33.1689 2.0576 35.4 3.11577 37.4039C6.21155 34.6177 13.4617 32.6504 21.9201 32.6504Z" fill="#0DB5E2"/>
<path id="Vector_33" d="M21.9101 32.6803C30.3286 32.6803 37.5788 34.6177 40.6646 37.374C41.7219 35.3949 42.2775 33.1865 42.2824 30.9427C42.2824 21.8152 33.1648 13.5664 21.9101 13.5664C10.6555 13.5664 1.54791 21.8152 1.54791 30.9427C1.55282 33.1865 2.10833 35.3949 3.1657 37.374C6.25149 34.6177 13.4816 32.6803 21.9101 32.6803Z" fill="#19B7E3"/>
<path id="Vector_34" d="M21.9101 32.7003C30.3087 32.7003 37.5289 34.6177 40.6146 37.354C41.6694 35.399 42.2251 33.2139 42.2324 30.9926C42.2324 22.0049 33.1348 13.7462 21.9101 13.7462C10.6854 13.7462 1.59784 21.955 1.59784 30.9926C1.60397 33.2141 2.15975 35.3995 3.21563 37.354C6.29143 34.6177 13.5016 32.7003 21.9101 32.7003Z" fill="#21B9E4"/>
<path id="Vector_35" d="M21.9101 32.7203C30.2787 32.7203 37.4889 34.6277 40.5647 37.324C41.611 35.3914 42.1633 33.2302 42.1725 31.0326C42.1725 22.0449 33.0949 13.9359 21.9101 13.9359C10.7254 13.9359 1.65775 22.0848 1.65775 31.0326C1.66222 33.2296 2.21121 35.3912 3.25557 37.324C6.33138 34.6277 13.5216 32.7203 21.9101 32.7203Z" fill="#28BBE5"/>
<path id="Vector_36" d="M21.9101 32.7702C30.2687 32.7702 37.4689 34.6676 40.5348 37.344C41.5821 35.4262 42.1347 33.2776 42.1426 31.0925C42.1426 22.2146 33.0849 14.1157 21.9101 14.1157C10.7354 14.1157 1.68771 22.2346 1.68771 31.0925C1.69086 33.2769 2.24013 35.4259 3.28554 37.344C6.35136 34.6676 13.5415 32.7702 21.9101 32.7702Z" fill="#37BDE6"/>
<path id="Vector_37" d="M21.9101 32.8302C30.2587 32.8302 37.449 34.7076 40.5048 37.374C41.5536 35.4676 42.1065 33.3282 42.1126 31.1524C42.1126 22.3345 33.0649 14.2655 21.9101 14.2655C10.7553 14.2655 1.7077 22.3345 1.7077 31.1524C1.71833 33.3264 2.26729 35.4639 3.30553 37.374C6.37135 34.7076 13.5515 32.8302 21.9101 32.8302Z" fill="#43BFE6"/>
<path id="Vector_38" d="M21.9101 32.92C30.2487 32.92 37.419 34.7875 40.4848 37.4339C41.526 35.543 42.0755 33.4208 42.0826 31.2623C42.0826 22.4942 33.0949 14.4752 21.9101 14.4752C10.7254 14.4752 1.73764 22.4643 1.73764 31.2623C1.7435 33.421 2.29301 35.5435 3.33547 37.4339C6.3913 34.7475 13.5615 32.92 21.9101 32.92Z" fill="#4DC0E7"/>
<path id="Vector_39" d="M21.9101 32.92C30.2388 32.92 37.399 34.7775 40.4548 37.4039C41.5003 35.5287 42.0535 33.4192 42.0627 31.2723C42.0627 22.5641 33.0749 14.595 21.9101 14.595C10.7453 14.595 1.76761 22.5841 1.76761 31.2723C1.77496 33.4169 2.32094 35.5253 3.35544 37.4039C6.41127 34.7875 13.5715 32.92 21.9101 32.92Z" fill="#56C2E8"/>
<path id="Vector_40" d="M21.9101 32.9899C30.2288 32.9899 37.3791 34.8274 40.4349 37.4339C41.4712 35.5735 42.0208 33.4816 42.0327 31.3521C42.0327 22.7039 33.0449 14.7747 21.9101 14.7747C10.7753 14.7747 1.79758 22.7039 1.79758 31.3521C1.80033 33.4815 2.34688 35.5749 3.38541 37.4339C6.43125 34.8274 13.5815 32.9899 21.9101 32.9899Z" fill="#5EC4E8"/>
<path id="Vector_41" d="M21.9101 33.0398C30.2088 33.0398 37.3591 34.8674 40.4049 37.4638C41.4453 35.616 41.9954 33.5326 42.0028 31.4121C42.0028 22.8238 33.015 14.9445 21.9101 14.9445C10.8053 14.9445 1.81754 22.8238 1.81754 31.4121C1.82625 33.5312 2.37258 35.6134 3.40537 37.4638C6.4612 34.9173 13.5915 33.0398 21.9101 33.0398Z" fill="#65C6E9"/>
<path id="Vector_42" d="M21.9101 33.0898C30.1988 33.0898 37.3391 34.9073 40.3849 37.4838C41.414 35.6536 41.9605 33.5916 41.9728 31.492C41.9728 22.9636 32.985 15.1343 21.9101 15.1343C10.8352 15.1343 1.88745 22.9336 1.88745 31.472C1.89844 33.5718 2.44495 35.6341 3.47528 37.4638C6.48118 34.9173 13.6115 33.0898 21.9101 33.0898Z" fill="#6DC7EA"/>
<path id="Vector_43" d="M21.9101 33.1397C30.1888 33.1397 37.3191 34.9472 40.355 37.5037C41.392 35.6768 41.939 33.6127 41.9428 31.5119C41.9428 23.0335 32.9551 15.2541 21.9101 15.2541C10.8652 15.2541 1.88745 23.0634 1.88745 31.5419C1.8878 33.6418 2.43134 35.7059 3.46529 37.5337C6.50115 34.9173 13.6214 33.1397 21.9101 33.1397Z" fill="#74C9EA"/>
<path id="Vector_44" d="M21.9101 33.1996C30.1789 33.1996 37.2992 34.9872 40.335 37.5337C41.3613 35.7241 41.9079 33.6821 41.9229 31.6018C41.9229 23.1833 32.9351 15.4538 21.9501 15.4538C10.9651 15.4538 1.97733 23.1933 1.97733 31.6018C1.98302 33.6821 2.52658 35.7255 3.55519 37.5337C6.52115 34.9872 13.6314 33.1996 21.9101 33.1996Z" fill="#7ACBEB"/>
<path id="Vector_45" d="M21.9101 33.2496C30.1689 33.2496 37.2792 35.0271 40.3051 37.5537C41.3352 35.7638 41.8824 33.7369 41.8929 31.6717C41.8929 23.3131 32.9051 15.6236 21.9201 15.6236C10.9351 15.6236 1.94736 23.3131 1.94736 31.6717C1.95803 33.7355 2.50155 35.7616 3.52522 37.5537C6.54111 35.0271 13.6414 33.2496 21.9101 33.2496Z" fill="#81CDEC"/>
<path id="Vector_46" d="M21.9101 33.2995C30.1589 33.2995 37.2592 35.0671 40.2851 37.5737C41.3076 35.7956 41.8513 33.7827 41.8629 31.7316C41.8629 23.4329 32.9251 15.7534 21.8902 15.7534C10.8552 15.7534 1.91739 23.403 1.91739 31.7316C1.92306 33.7835 2.46712 35.7979 3.49522 37.5737C6.56104 35.0671 13.6514 33.2995 21.9101 33.2995Z" fill="#87CFEC"/>
<path id="Vector_47" d="M21.9101 33.3594C30.1489 33.3594 37.2293 35.107 40.2551 37.5936C41.2782 35.8304 41.8222 33.8301 41.833 31.7916C41.833 23.5528 32.9051 15.9532 21.9101 15.9532C10.9151 15.9532 1.9873 23.5528 1.9873 31.7916C1.99459 33.8293 2.53513 35.8296 3.55517 37.5936C6.58105 35.107 13.6614 33.3594 21.9101 33.3594Z" fill="#8ED1ED"/>
<path id="Vector_48" d="M21.9101 33.4094C30.1389 33.4094 37.2093 35.147 40.2351 37.6236C41.2554 35.8737 41.7994 33.887 41.813 31.8615C41.813 23.6726 32.8951 16.1229 21.9101 16.1229C10.9251 16.1229 2.01727 23.6826 2.01727 31.8615C2.02594 33.8864 2.56663 35.8735 3.58514 37.6236C6.60103 35.147 13.6814 33.4094 21.9101 33.4094Z" fill="#94D3EE"/>
<path id="Vector_49" d="M21.9101 33.4593C30.1289 33.4593 37.1893 35.1869 40.2052 37.6436C41.2441 35.9136 41.8057 33.9391 41.833 31.9214C41.833 23.7925 32.9251 16.2927 21.9601 16.2927C10.995 16.2927 2.08719 23.8024 2.08719 31.9214C2.09581 33.9337 2.63671 35.9079 3.65503 37.6436C6.62098 35.1869 13.6913 33.4593 21.9101 33.4593Z" fill="#9AD5EF"/>
<path id="Vector_50" d="M21.9101 33.5092C30.1189 33.5092 37.1693 35.2269 40.1752 37.6635C41.1947 35.9461 41.7393 33.9885 41.7531 31.9913C41.7531 23.9223 32.8652 16.4625 21.9101 16.4625C10.9551 16.4625 2.0672 23.9223 2.0672 31.9913C2.07605 33.9878 2.61728 35.9459 3.63507 37.6635C6.64097 35.2269 13.7013 33.5092 21.9101 33.5092Z" fill="#A0D7F0"/>
<path id="Vector_51" d="M21.9101 33.5691C30.1089 33.5691 37.1494 35.2668 40.1553 37.6835C41.168 35.9783 41.7091 34.0345 41.7231 32.0512C41.7231 24.0621 32.8452 16.6322 21.9101 16.6322C10.975 16.6322 2.09714 24.0421 2.09714 32.0512C2.1028 34.0343 2.64082 35.9794 3.65501 37.6835C6.66091 35.2668 13.7113 33.5691 21.9101 33.5691Z" fill="#A6D9F0"/>
<path id="Vector_52" d="M21.9101 33.6191C30.099 33.6191 37.1294 35.3068 40.1253 37.7135C41.1454 36.0219 41.6905 34.0865 41.7031 32.1111C41.7031 24.122 32.8352 16.802 21.9101 16.802C10.985 16.802 2.12711 24.172 2.12711 32.1111C2.13373 34.0846 2.67187 36.0199 3.68498 37.7135C6.68089 35.3068 13.7213 33.6191 21.9101 33.6191Z" fill="#ACDCF1"/>
<path id="Vector_53" d="M21.9101 33.669C30.079 33.669 37.1094 35.3467 40.1053 37.7335C41.116 36.0566 41.6576 34.1389 41.6732 32.181C41.6732 24.2818 32.8153 16.9718 21.9101 16.9718C11.005 16.9718 2.15707 24.2918 2.15707 32.181C2.1657 34.1372 2.70036 36.055 3.70498 37.7335C6.71088 35.3467 13.7313 33.669 21.9101 33.669Z" fill="#B2DEF2"/>
<path id="Vector_54" d="M21.9101 33.7189C30.069 33.7189 37.0894 35.3867 40.0754 37.7135C41.086 36.0512 41.6278 34.1463 41.6432 32.201C41.6432 24.3717 32.7953 17.1016 21.9101 17.1016C11.025 17.1016 2.17706 24.3717 2.17706 32.201C2.18293 34.1463 2.72173 36.0528 3.73494 37.7135C6.73085 35.3867 13.7513 33.7189 21.9101 33.7189Z" fill="#B8E0F3"/>
<path id="Vector_55" d="M21.9101 33.7788C30.059 33.7788 37.0695 35.4266 40.0554 37.7734C41.0597 36.1235 41.5981 34.2323 41.6133 32.3009C41.6133 24.5215 32.7853 17.3213 21.9101 17.3213C11.0349 17.3213 2.207 24.5414 2.207 32.3009C2.21558 34.2333 2.75444 36.1262 3.76487 37.7734C6.7508 35.4266 13.7612 33.7788 21.9101 33.7788Z" fill="#BDE2F4"/>
<path id="Vector_56" d="M21.9101 33.8288C30.049 33.8288 37.0495 35.4665 40.0254 37.8233C41.0307 36.1886 41.5695 34.3098 41.5833 32.3907C41.5833 24.6713 32.7653 17.4911 21.9101 17.4911C11.0549 17.4911 2.23697 24.6813 2.23697 32.3907C2.24575 34.3092 2.78117 36.1884 3.78485 37.8233C6.77077 35.4665 13.7712 33.8288 21.9101 33.8288Z" fill="#C3E5F5"/>
<path id="Vector_57" d="M21.9101 33.9186C30.039 33.9186 37.0196 35.5464 40.0055 37.8633C41.0061 36.2411 41.5448 34.3765 41.5634 32.4706C41.5634 24.8111 32.7553 17.6808 21.9101 17.6808C11.0649 17.6808 2.26694 24.821 2.26694 32.4706C2.27232 34.3756 2.80459 36.242 3.80485 37.8633C6.79078 35.5065 13.7812 33.9186 21.9101 33.9186Z" fill="#C9E7F5"/>
<path id="Vector_58" d="M21.9101 33.9187C30.0291 33.9187 36.9996 35.5265 39.9755 37.8233C40.9754 36.2192 41.5144 34.3708 41.5334 32.4806C41.5334 24.871 32.7354 17.7906 21.9101 17.7906C11.0849 17.7906 2.2869 24.9309 2.2869 32.5006C2.29614 34.3908 2.83219 36.2409 3.8348 37.8433C6.81074 35.5464 13.7912 33.9187 21.9101 33.9187Z" fill="#CEE9F6"/>
<path id="Vector_59" d="M21.9101 33.9886C30.019 33.9886 36.9796 35.5864 39.9555 37.8733C40.9509 36.2787 41.4865 34.4402 41.5034 32.5605C41.5034 25.0208 32.7254 17.9804 21.9101 17.9804C11.0949 17.9804 2.31683 25.0208 2.31683 32.5605C2.32538 34.4567 2.86883 36.312 3.8847 37.9132C6.88062 35.5864 13.8012 33.9886 21.9101 33.9886Z" fill="#D4ECF7"/>
<path id="Vector_60" d="M21.9101 34.0385C30.0091 34.0385 36.9596 35.6263 39.8856 37.8932C40.8827 36.3178 41.4189 34.4948 41.4335 32.6304C41.4335 25.1406 32.6655 18.1501 21.8702 18.1501C11.0749 18.1501 2.30688 25.1406 2.30688 32.6304C2.32235 34.5052 2.86948 36.337 3.88472 37.9132C6.88063 35.6263 13.8711 34.0385 21.9101 34.0385Z" fill="#DAEEF8"/>
<path id="Vector_61" d="M21.9101 34.0884C29.9991 34.0884 36.9396 35.6663 39.8856 37.9132C40.883 36.3521 41.4227 34.5427 41.4435 32.6903C41.4435 25.2605 32.6755 18.3199 21.9002 18.3199C11.1248 18.3199 2.36679 25.3104 2.36679 32.6903C2.37398 34.539 2.89989 36.3486 3.88471 37.9132C6.88062 35.6663 13.8711 34.0884 21.9101 34.0884Z" fill="#DFF1F9"/>
<path id="Vector_62" d="M21.9101 34.1483C29.9891 34.1483 36.8897 35.7062 39.8856 37.9332C40.8807 36.3864 41.4174 34.5894 41.4335 32.7502C41.4335 25.3803 32.6854 18.4897 21.9201 18.4897C11.1548 18.4897 2.40671 25.3903 2.40671 32.7502C2.41431 34.5892 2.94795 36.3877 3.94462 37.9332C6.88062 35.7062 13.8711 34.1483 21.9101 34.1483Z" fill="#E5F3FA"/>
<path id="Vector_63" d="M21.9101 34.1983C29.9791 34.1983 36.8897 35.7462 39.8856 37.9631C40.8775 36.4297 41.4143 34.6463 41.4335 32.8201C41.4335 25.5101 32.6954 18.6595 21.9501 18.6595C11.2047 18.6595 2.46664 25.5101 2.46664 32.8201C2.47885 34.6445 3.00869 36.428 3.99456 37.9631C6.88062 35.7462 13.8711 34.1983 21.9101 34.1983Z" fill="#EBF6FB"/>
<path id="Vector_64" d="M21.9101 34.2482C29.9691 34.2482 36.8897 35.7861 39.8257 37.9831C40.8109 36.4619 41.3442 34.6923 41.3636 32.8801C41.3636 25.63 32.6455 18.8292 21.9101 18.8292C11.1748 18.8292 2.45667 25.6299 2.45667 32.92C2.46761 34.7321 2.99786 36.5031 3.98458 38.023C6.93056 35.7861 13.8711 34.2482 21.9101 34.2482Z" fill="#F1F8FD"/>
<path id="Vector_65" d="M21.9101 34.2981C29.9592 34.2981 36.8897 35.8261 39.7957 38.0031C40.789 36.4931 41.3232 34.7274 41.3337 32.92C41.3337 25.7198 32.6255 18.9391 21.9101 18.9391C11.1947 18.9391 2.48663 25.6999 2.48663 32.92C2.49574 34.7154 3.02279 36.47 4.00455 37.9731C6.96052 35.8261 13.8711 34.2981 21.9101 34.2981Z" fill="#F7FBFE"/>
<path id="Vector_66" d="M21.9101 34.3581C29.8992 34.3581 36.8298 35.866 39.7758 38.033C40.7531 36.5489 41.2866 34.8167 41.3137 33.0399C41.3137 25.8996 32.6155 19.1987 21.9101 19.1987C11.2047 19.1987 2.50659 25.9096 2.50659 33.0399C2.52508 34.8166 3.05558 36.5502 4.03451 38.033C6.98049 35.9159 13.8711 34.3581 21.9101 34.3581Z" fill="white"/>
</g>
<path id="Vector_67" d="M21.9101 27.2278C15.4466 27.1682 9.02338 28.2501 2.93597 30.4234C4.56621 34.0848 7.22275 37.1951 10.5841 39.3779C13.9454 41.5606 17.8673 42.7224 21.8752 42.7224C25.883 42.7224 29.805 41.5606 33.1663 39.3779C36.5276 37.1951 39.1841 34.0848 40.8143 30.4234C34.7498 28.2553 28.3504 27.1736 21.9101 27.2278Z" fill="#0083CA"/>
</g>
</g>
<defs>
<clipPath id="clip0_2544_7633">
<rect width="44" height="43.5306" fill="white" transform="translate(0 0.234589)"/>
</clipPath>
</defs>
</svg>
