<svg width="32" height="40" viewBox="0 0 32 40" fill="none" xmlns="http://www.w3.org/2000/svg">
<g id="Frame" clip-path="url(#clip0_2544_7846)">
<path id="Vector" d="M23.7948 0.23938L16 4.15961L8.20508 0.23938L16 15.0542L23.7948 0.23938Z" fill="#FFB71B"/>
<path id="Vector_2" d="M26.5762 11.639L32.1374 9.31419V1.47372L22.4736 5.62189L17.0946 15.7416C19.1639 15.9801 21.0637 17.001 22.4045 18.5951C23.7453 20.1893 24.4258 22.2358 24.3063 24.3154C24.1868 26.395 23.2765 28.3502 21.762 29.7803C20.2474 31.2103 18.2432 32.007 16.1602 32.007C14.0772 32.007 12.073 31.2103 10.5585 29.7803C9.04389 28.3502 8.1336 26.395 8.01412 24.3154C7.89464 22.2358 8.57494 20.1893 9.91578 18.5951C11.2566 17.001 13.1563 15.9801 15.2257 15.7416L9.84678 5.62189L0.228607 1.47372V9.31419L5.88099 11.639C3.42952 13.7818 1.69022 16.6216 0.895229 19.779C0.100234 22.9364 0.287352 26.2612 1.43178 29.3094C2.57621 32.3576 4.6234 34.9842 7.29992 36.8382C9.97645 38.6923 13.1549 39.6857 16.4109 39.6857C19.6669 39.6857 22.8453 38.6923 25.5219 36.8382C28.1984 34.9842 30.2456 32.3576 31.39 29.3094C32.5344 26.2612 32.7217 22.9364 31.9267 19.779C31.1317 16.6216 29.3923 13.7818 26.9408 11.639H26.5762Z" fill="#FFB71B"/>
</g>
<defs>
<clipPath id="clip0_2544_7846">
<rect width="32" height="39.5214" fill="white" transform="translate(0 0.23938)"/>
</clipPath>
</defs>
</svg>
