<svg width="40" height="44" viewBox="0 0 40 44" fill="none" xmlns="http://www.w3.org/2000/svg">
<g id="Frame" clip-path="url(#clip0_2544_7822)">
<path id="Vector" d="M17.9944 23.6337L19.5436 21.0027C13.7014 23.7351 10.7437 25.5097 9.00281 27.0759L10.3437 27.6787C11.8817 26.6139 14.2704 25.397 17.9944 23.6337Z" fill="url(#paint0_linear_2544_7822)"/>
<path id="Vector_2" d="M29.9045 3.22241L31.7918 -0.00012207C11.2059 8.11819 -0.320862 19.1266 0.518575 21.4872C0.631571 21.7656 0.793789 22.0213 0.997451 22.2421C1.88196 19.3069 12.0848 10.4393 29.9045 3.22241Z" fill="url(#paint1_linear_2544_7822)"/>
<path id="Vector_3" d="M20.9746 18.5182L22.6028 15.7351C13.2338 19.9999 8.58591 23.3633 6.39999 25.7858L7.63942 26.3999C9.78027 24.4112 13.8366 21.8365 20.9746 18.5182Z" fill="url(#paint2_linear_2544_7822)"/>
<path id="Vector_4" d="M23.9493 13.4196L25.6676 10.49C12.676 16.1238 6.27041 21.5548 3.93802 24.4449C4.28731 24.6534 4.67605 24.8731 5.09858 25.1041C7.58872 22.4731 13.3127 18.1914 23.9493 13.4196Z" fill="url(#paint3_linear_2544_7822)"/>
<path id="Vector_5" d="M26.9296 8.321L28.7324 5.2393C12.1803 12.0844 3.63378 19.8365 1.83096 23.0252C2.11265 23.2506 2.44506 23.4928 2.82816 23.752C5.03097 20.7097 12.7155 14.3435 26.9296 8.321Z" fill="url(#paint4_linear_2544_7822)"/>
<path id="Vector_6" d="M25.2338 43.3802C23.8576 43.6568 22.4651 43.845 21.0648 43.9436C8.99718 35.69 3.87606 30.7041 2.91832 28.0844L2.5183 26.9576C3.58309 29.4253 10.3437 34.9013 25.2338 43.3802ZM1.53803 24.2703L1.9662 25.4478C2.88451 27.983 9.69014 33.4816 27.431 42.8788C28.9915 42.49 30.5465 42.0281 32.062 41.5041C10.1746 31.9943 2.60282 26.6309 1.53803 24.2703ZM4.58592 32.6478L4.91267 33.5379C5.47603 34.9966 6.12506 36.4206 6.85634 37.8027C8.10547 39.8727 9.93523 41.53 12.1183 42.5689C8.37183 38.3661 5.40845 34.6816 4.58592 32.6478ZM3.53802 29.7745L3.89859 30.7774C4.8338 33.3407 7.84225 37.0985 14.6648 43.4816C15.9353 43.7883 17.2343 43.962 18.5408 43.9999C9.74647 37.0929 4.55774 32.1971 3.53802 29.7745ZM0.518311 21.4872L1.03099 22.89C1.89859 25.2957 9.93803 30.5407 34.3042 40.7098C36.1408 40.0168 37.9042 39.2844 39.5324 38.5633C8.89014 28.2084 1.31268 23.6731 0.518311 21.4872Z" fill="url(#paint5_linear_2544_7822)"/>
</g>
<defs>
<linearGradient id="paint0_linear_2544_7822" x1="8.82253" y1="26.5407" x2="20.0789" y2="22.4393" gradientUnits="userSpaceOnUse">
<stop stop-color="#E1F2FA"/>
<stop offset="0.12" stop-color="#A5DBF1"/>
<stop offset="0.25" stop-color="#6EC5E9"/>
<stop offset="0.36" stop-color="#46B6E4"/>
<stop offset="0.45" stop-color="#2EACE0"/>
<stop offset="0.5" stop-color="#25A9DF"/>
<stop offset="0.62" stop-color="#21A0D6"/>
<stop offset="0.83" stop-color="#1888BE"/>
<stop offset="1" stop-color="#0D6EA4"/>
</linearGradient>
<linearGradient id="paint1_linear_2544_7822" x1="-0.0598963" y1="18.4506" x2="34.2044" y2="7.31765" gradientUnits="userSpaceOnUse">
<stop stop-color="#E1F2FA"/>
<stop offset="0.12" stop-color="#A5DBF1"/>
<stop offset="0.25" stop-color="#6EC5E9"/>
<stop offset="0.36" stop-color="#46B6E4"/>
<stop offset="0.45" stop-color="#2EACE0"/>
<stop offset="0.5" stop-color="#25A9DF"/>
<stop offset="0.62" stop-color="#21A0D6"/>
<stop offset="0.83" stop-color="#1888BE"/>
<stop offset="1" stop-color="#0D6EA4"/>
</linearGradient>
<linearGradient id="paint2_linear_2544_7822" x1="6.12287" y1="24.5819" x2="23.5771" y2="18.4624" gradientUnits="userSpaceOnUse">
<stop stop-color="#E1F2FA"/>
<stop offset="0.12" stop-color="#A5DBF1"/>
<stop offset="0.25" stop-color="#6EC5E9"/>
<stop offset="0.36" stop-color="#46B6E4"/>
<stop offset="0.45" stop-color="#2EACE0"/>
<stop offset="0.5" stop-color="#25A9DF"/>
<stop offset="0.62" stop-color="#21A0D6"/>
<stop offset="0.83" stop-color="#1888BE"/>
<stop offset="1" stop-color="#0D6EA4"/>
</linearGradient>
<linearGradient id="paint3_linear_2544_7822" x1="3.56637" y1="22.6129" x2="27.0828" y2="14.5437" gradientUnits="userSpaceOnUse">
<stop stop-color="#E1F2FA"/>
<stop offset="0.12" stop-color="#A5DBF1"/>
<stop offset="0.25" stop-color="#6EC5E9"/>
<stop offset="0.36" stop-color="#46B6E4"/>
<stop offset="0.45" stop-color="#2EACE0"/>
<stop offset="0.5" stop-color="#25A9DF"/>
<stop offset="0.62" stop-color="#21A0D6"/>
<stop offset="0.83" stop-color="#1888BE"/>
<stop offset="1" stop-color="#0D6EA4"/>
</linearGradient>
<linearGradient id="paint4_linear_2544_7822" x1="1.37086" y1="20.5962" x2="30.6227" y2="10.7869" gradientUnits="userSpaceOnUse">
<stop stop-color="#E1F2FA"/>
<stop offset="0.12" stop-color="#A5DBF1"/>
<stop offset="0.25" stop-color="#6EC5E9"/>
<stop offset="0.36" stop-color="#46B6E4"/>
<stop offset="0.45" stop-color="#2EACE0"/>
<stop offset="0.5" stop-color="#25A9DF"/>
<stop offset="0.62" stop-color="#21A0D6"/>
<stop offset="0.83" stop-color="#1888BE"/>
<stop offset="1" stop-color="#0D6EA4"/>
</linearGradient>
<linearGradient id="paint5_linear_2544_7822" x1="5.57746" y1="35.4027" x2="34.5408" y2="24.8619" gradientUnits="userSpaceOnUse">
<stop stop-color="#DD224A"/>
<stop offset="0.06" stop-color="#C12348"/>
<stop offset="0.13" stop-color="#A62346"/>
<stop offset="0.2" stop-color="#962445"/>
<stop offset="0.25" stop-color="#902445"/>
<stop offset="1" stop-color="#DD224A"/>
</linearGradient>
<clipPath id="clip0_2544_7822">
<rect width="39.0535" height="44" fill="white" transform="translate(0.473236 -0.00012207)"/>
</clipPath>
</defs>
</svg>
