<svg width="40" height="40" viewBox="0 0 40 40" fill="none" xmlns="http://www.w3.org/2000/svg">
<g id="Frame" clip-path="url(#clip0_2544_7830)">
<path id="Vector" d="M40 34.2645C39.9997 35.0143 39.8517 35.7568 39.5644 36.4495C39.2771 37.1421 38.8562 37.7714 38.3257 38.3014C37.7952 38.8314 37.1655 39.2516 36.4726 39.5382C35.7797 39.8248 35.0371 39.9721 34.2872 39.9717H5.71361C4.19917 39.9724 2.74649 39.3715 1.67503 38.3012C0.603563 37.2309 0.00105434 35.7789 0 34.2645V5.73304C0.00126513 4.21882 0.603893 2.7671 1.67536 1.69712C2.74682 0.627152 4.19938 0.0265468 5.71361 0.0273909H34.2872C35.0369 0.0268685 35.7795 0.174043 36.4724 0.460506C37.1652 0.746969 37.7949 1.16711 38.3254 1.69694C38.8559 2.22677 39.2768 2.85591 39.5641 3.54843C39.8515 4.24094 39.9996 4.98328 40 5.73304V34.2645Z" fill="#FFE400"/>
<path id="Vector_2" d="M28.5792 23.9953C28.3998 22.603 27.7038 21.329 26.629 20.4259C26.47 20.2859 26.2974 20.1555 26.1065 20.0004C26.2656 19.8811 26.3976 19.7897 26.5209 19.6871C27.2944 19.0468 27.8919 18.2198 28.257 17.2844C28.6028 16.3998 28.7125 15.4405 28.5752 14.5008C28.423 13.3576 27.9178 12.2905 27.1301 11.4483C26.5687 10.8231 25.875 10.3308 25.0996 10.0072C24.3465 9.70226 23.5404 9.54954 22.728 9.55782H13.6231C13.5603 9.55423 13.4974 9.55423 13.4346 9.55782C13.3347 9.56237 13.2407 9.6059 13.1725 9.67907C13.1044 9.75223 13.0677 9.84919 13.0703 9.94912C13.0703 10.0127 13.0703 10.0756 13.0703 10.1384V29.8107C13.0703 29.9094 13.0648 30.0088 13.0703 30.1074C13.0744 30.1889 13.1069 30.2664 13.162 30.3266C13.2172 30.3867 13.2917 30.4256 13.3726 30.4367C13.4351 30.4442 13.4981 30.4466 13.5611 30.4438H22.9904C23.94 30.4475 24.8735 30.198 25.6945 29.7209C26.8676 29.0617 27.7731 28.0127 28.2539 26.7559C28.601 25.8798 28.7131 24.9281 28.5792 23.9953ZM21.333 24.7032H19.6318V15.3183H21.3139C21.3139 15.3183 21.3075 15.3136 21.3139 15.3136V15.3183H21.333V24.7032Z" fill="#1E1719"/>
</g>
<defs>
<clipPath id="clip0_2544_7830">
<rect width="40" height="39.9451" fill="white" transform="translate(0 0.0274353)"/>
</clipPath>
</defs>
</svg>
