<svg width="44" height="28" viewBox="0 0 44 28" fill="none" xmlns="http://www.w3.org/2000/svg">
<g id="Frame" clip-path="url(#clip0_2544_7859)">
<path id="Vector" d="M34.0046 21.0281H33.9681L33.9104 20.9461H33.88L33.7342 20.776L33.6431 20.6849V20.6606L33.5824 20.6059V20.5756H33.5642L33.5338 20.53H33.5004L33.4852 20.4996L33.4062 20.4723V20.4571L33.3455 20.4328V20.4176L33.2817 20.3903L33.2665 20.3599L33.1754 20.3113L33.1238 20.2931L33.1086 20.2566L33.0509 20.2323L33.0296 20.202H33.0023L32.9841 20.1716L32.9385 20.1473L32.9081 20.1017H32.8717V20.0714H32.8322L32.7714 19.9863H32.7441L32.6165 19.8314H32.5892V19.8162L32.5406 19.7798V19.6735L32.4161 19.5459V19.5186L32.3857 19.4973L32.3341 19.4275V19.4002L32.4161 19.3121H32.4465L32.4799 19.2726H32.5102L32.5285 19.2453H32.574V19.227H32.6044L32.6226 19.1997H32.6469L32.6682 19.1754H32.6955L32.7107 19.1481H32.7623L32.8049 19.0995H32.8383L32.8535 19.0721H32.8869L32.978 18.9871H33.0296V18.9598L33.1268 18.8899L33.1875 18.8565L33.2058 18.817L33.2513 18.7988V18.7654L33.2999 18.7472V18.7623H33.3303V18.735H33.3607V18.7077H33.391L33.4093 18.6682L33.4275 18.6135H33.4548L33.4761 18.5558H33.5216L33.5642 18.5042H33.5976L33.6279 18.4647H33.6583L33.6765 18.4374H33.7039L33.7677 18.3766H33.8041L33.9104 18.2825H33.9408L33.956 18.2582L34.0046 18.2369V18.2096L34.0683 18.1488H34.0987V18.1185L34.1321 18.079L34.1898 18.0486V18.0182L34.2384 17.9939V17.9696L34.287 17.9514V17.918H34.3204V17.8512H34.3538V17.8056L34.4935 17.7145V17.6872L34.6181 17.6507V17.6234L34.7153 17.5961V17.5657L34.855 17.5049V17.4776H34.8853L35.0008 17.3409H35.0281V17.3106H35.0615V17.2832H35.098L35.1587 17.2073V17.1648L35.2073 17.1435L35.2346 17.0615H35.2711L35.2984 16.9643H35.3288V16.9096H35.3591V16.8519H35.3926L35.4077 16.7821L35.426 16.6819H35.4412V16.6545H35.4563V16.5968H35.4715V16.6363H35.4867V16.5634H35.5171V16.4571H35.5475V16.3265H35.5778V16.0744H35.596V16.0137H35.6112L35.5748 15.8162V15.5642H35.5444V15.4214L35.511 15.4001V15.2969L35.4806 15.2756V15.2027H35.4655V15.1754H35.4472V15.1177H35.432V15.0721H35.4108V15.0478V14.9871H35.3895V14.9112H35.3591H35.3865L35.4077 14.9415H35.432L35.4685 14.9932H35.5019V15.0266H35.5232L35.5839 15.1116H35.6173L35.7449 15.2665L35.8421 15.3364L35.8876 15.4184H35.918L35.9332 15.4639L36.0121 15.5368V15.5672L36.0911 15.6371V15.6644L36.1245 15.6856V15.716L36.1701 15.7494V15.7798L36.2005 15.798V15.8284L36.2278 15.8466L36.243 15.8922H36.2582L37.221 16.9613L37.2513 16.9765V17.0068L37.2847 17.0281L37.2999 17.0706H37.3151L37.5338 17.3257H37.5672L37.5976 17.3683H37.6279L37.6796 17.432H37.7069L37.7585 17.4989H37.7828L37.8831 17.6173L38.0835 17.8269L38.1473 17.9119L38.4176 18.1883L38.4358 18.2187L38.4966 18.246L38.5118 18.2764L38.5725 18.3037L38.5907 18.3341L39.1982 18.9415H39.2286L39.2741 19.0235H39.2893V19.0509L39.3227 19.0721L39.3531 19.0934V19.1207L39.3834 19.145V19.1724L39.429 19.2088L39.6811 19.473H39.7084L39.7267 19.5034H39.757L39.7874 19.549H39.8178L39.8481 19.5945H39.8816L39.9301 19.6583H39.9605L40.085 19.8132H40.1185L40.164 19.8527V19.9772L40.3068 20.12L40.5163 20.3143V20.3295H40.5437V20.3478L40.571 20.3629L40.6348 20.3933L40.7168 20.448V20.4814L40.7654 20.5209H40.7957L40.8443 20.5543V20.5877L40.8899 20.6211H40.9233L40.9537 20.6576L40.9719 20.691L41.221 20.9339L41.5854 21.3014L41.6188 21.3379H41.6431L41.6644 21.3683L42.5087 22.1336L42.5573 22.1701L43.0311 22.6864H43.0615L43.1253 22.7715H43.1557L43.1708 22.8049L43.265 22.8929L43.3288 22.9658L43.4077 23.063L43.4715 23.1481L43.5171 23.2149L43.5475 23.2604L43.5991 23.3546L43.6568 23.4366L43.6902 23.5034L43.7084 23.5338L43.757 23.631V23.6735H43.7722V23.7312H43.7874V23.7737H43.8026V23.8041H43.8178V23.8497H43.836V23.8952V23.9408L43.9393 24.3721V24.5452H43.9544V24.9157V25.0129H43.9393V25.0828V25.1526H43.921V25.2073H43.9059V25.265H43.8876V25.3106H43.8724V25.4108H43.8573V25.4381H43.839V25.4806H43.8208V25.508V25.5505H43.8056L43.7753 25.6325H43.757V25.6598H43.7418V25.6932V25.7267H43.7236L43.6993 25.8056H43.6811V25.8451H43.6477V25.9028H43.6143V25.9301L43.5687 25.9514V25.9818L43.5232 26V26.0516H43.4199V26.085L43.2802 26.1671L43.1557 26.2794H43.1283L43.0797 26.325H43.0463L43.019 26.3645H42.9825L42.9552 26.3979H42.9248L42.9096 26.4222H42.8641H42.8003L42.7851 26.4465H42.691L42.6758 26.4708L42.5391 26.489V26.5042H42.4753H42.4267H42.3994H42.3478H42.3022H42.2567H42.2111H42.1473H42.0835H42.0106C42.0106 26.5042 41.5429 26.4434 41.3576 26.3979C41.1724 26.3523 40.6955 26.1731 40.6955 26.1731L40.6287 26.1519H40.6074V26.1367L40.5254 26.1093V26.0942L40.4677 26.0729V26.0547H40.4161L40.3523 26.0304V26.0121L40.2916 25.9848L40.2764 25.9544L40.1792 25.9089L39.7297 25.6234H39.6659V25.6052H39.6203V25.59H39.5718L39.5232 25.5687L38.8064 25.0737H38.773L38.7092 24.9856H38.6758L38.2384 24.6515V24.6333L38.1807 24.6059H38.1291V24.5877L38.038 24.5391H38.0046V24.5239L37.9408 24.4966L37.9226 24.4632L37.8314 24.4176L37.8132 24.3873H37.7859V24.369L37.7403 24.3508L37.7221 24.3144H37.6917L37.6553 24.2658H37.631L37.6128 24.2354H37.5824L37.5156 24.1503H37.4852L36.9689 23.7251V23.7099L36.8747 23.6614H36.8443V23.6462H36.8109L36.7198 23.6036L36.7046 23.5672L36.6408 23.5459L36.6226 23.5095L36.5619 23.4852L36.5315 23.4336H36.4981L36.4829 23.4032H36.4495L36.4161 23.3546C36.4161 23.3546 35.8876 22.9324 35.6811 22.7472C35.4746 22.5619 34.8428 21.9848 34.7699 21.9058L34.7153 21.8512V21.8208L34.6333 21.7479V21.7054L34.6029 21.6568L34.0046 21.0281Z" fill="#A3CF62"/>
<path id="Vector_2" d="M22.7183 17.6294V17.6568L22.8428 17.7418V17.7692L22.9734 17.8481V17.8785L23.019 17.8906V17.9028L23.0342 17.9362L23.0828 17.9848L23.1131 17.9939V18.0364L23.1496 18.0425L23.183 18.1215L23.1982 18.1245V18.1518L23.2285 18.1761V18.2156L23.2589 18.2247V18.2521L23.2893 18.2581L23.3257 18.3371L23.3561 18.3432V18.3705L23.3895 18.3796L23.4654 18.5102L23.4989 18.5133V18.5436L23.6264 18.6378L23.6295 18.6682L23.6598 18.6773V18.7046L23.7418 18.7471V18.7775L23.7722 18.7836V18.814L23.8815 18.8777L23.8998 18.9081L23.9453 18.9203L23.9635 18.9506L23.9939 18.9567V18.9689L24.0456 18.9962V19.0235L24.1033 19.0357V19.066L24.1853 19.1086L24.41 19.3819V19.4123L24.4434 19.4184L24.6135 19.6097V19.637L24.65 19.6431V19.6735L24.6986 19.6796V19.713L24.7259 19.719V19.7464L24.9355 19.8891L24.9992 19.9438V19.9559L25.0326 19.962V19.9742L25.0661 19.9833L25.0782 20.0106L25.1298 20.0228L25.142 20.0562L25.1906 20.0622V20.0805L25.2513 20.1048V20.1321L25.3333 20.1807V20.208L25.3667 20.2141V20.2414L25.3941 20.2475L25.4487 20.3022V20.3295L25.4761 20.3356V20.366L25.5095 20.369L25.5915 20.4571V20.4875L25.6219 20.4905L25.874 20.7152V20.7426L25.9256 20.7517V20.7821L26.0015 20.8246V20.8367L26.0501 20.8519V20.8641L26.1139 20.8884V20.9187L26.1807 20.9309V20.9613L26.29 20.9947L26.3052 21.025L26.369 21.0402V21.0645L26.448 21.0827L26.4632 21.1162L26.5482 21.1283V21.1435L26.5938 21.1526V21.1678L26.6545 21.1799V21.1921L26.7669 21.2164L26.7821 21.2468L26.9582 21.2802L26.9734 21.3136L27.1283 21.3379V21.3531L27.1769 21.3591V21.3774L27.2559 21.3895V21.4077L27.2923 21.4138L27.3075 21.4472L27.4351 21.4806V21.511L28.003 21.678L28.2065 21.7114V21.6993L28.2369 21.7054V21.6902L28.5406 21.7145V21.6872L28.8231 21.6689V21.6386L28.8656 21.6416L28.8534 21.6477V21.678L28.7745 21.7236L28.6864 21.7904V21.8147L28.6378 21.8238L28.5345 21.921L28.5011 21.9149L28.4525 21.9605L28.4222 21.9544L28.3736 22.003L28.3432 21.9969L28.3128 22.0334L28.2794 22.0304L28.2642 22.0547L28.2217 22.0607V22.0759L28.1883 22.0698L28.1762 22.0941L28.1276 22.1032V22.1154L28.0364 22.1245L28.0182 22.1518H27.9544V22.167L27.9271 22.161V22.1792L27.8967 22.1701V22.1883L27.8026 22.2004V22.2126L27.7601 22.2035V22.2156L27.7509 22.2551L27.7206 22.249L27.6446 22.3219L27.5717 22.3128V22.3402L27.4806 22.3948L27.344 22.5133L27.3075 22.5102L27.183 22.5862L27.0008 22.6712L26.9552 22.6773V22.6925L26.9218 22.6834L26.9066 22.7137H26.8428L26.8337 22.738H26.7973L26.7669 22.7593L26.7365 22.7502V22.7654L26.7061 22.7593V22.7745L26.6758 22.7684V22.7836L26.6454 22.7775V22.7927L26.612 22.7866V22.7988L26.5816 22.7957V22.8079L26.4875 22.82V22.8352L26.4389 22.8261V22.8383L26.4115 22.8352V22.8504L26.366 22.8383V22.8504L26.3204 22.8686V22.8838L26.2749 22.8747V22.8868L26.2293 22.8808V22.8929L26.0106 22.984L25.9499 23.0417L25.9165 23.0387L25.8557 23.0995L25.8223 23.0934L25.795 23.1268L25.7646 23.1238L25.7312 23.1602L25.7008 23.1541L25.6856 23.1784L25.6219 23.1815L25.6067 23.2088L25.5611 23.2149V23.2301H25.4973L25.4852 23.2604L25.388 23.2695V23.2817L25.3607 23.2786V23.2908L25.3273 23.2847V23.2999L25.2969 23.2969V23.3121L25.2027 23.3212V23.3364L25.1602 23.3212V23.3394L25.1298 23.3364V23.3485L25.0782 23.3394L25.0812 23.3546L25.0478 23.3485V23.3667L25.0023 23.3546L25.0053 23.3667L24.9598 23.3607V23.3758L24.6591 23.4913L24.6317 23.4882L24.571 23.5459L24.5406 23.5398L24.5072 23.5793L24.4768 23.5733L24.4434 23.6097L24.4131 23.6036L24.4009 23.631L24.3705 23.6249L24.3371 23.6613L24.2764 23.6644L24.2612 23.6917L24.2004 23.6947L24.1853 23.719L24.0911 23.7282L24.0759 23.7525L24.0304 23.7464L24.0121 23.7737L23.5019 23.8648L23.4411 23.8527V23.8679L23.3743 23.8557V23.8709L23.3136 23.8618V23.8709L23.2528 23.8618V23.877L23.1769 23.8618V23.877L23.0979 23.8618V23.877L22.9734 23.8527V23.8679L22.3963 23.7737V23.7616L22.2111 23.7251V23.7099L22.0835 23.6856L22.0805 23.6765L21.9924 23.6583V23.6401L21.9286 23.631V23.6158L21.8497 23.6006V23.5854L21.6765 23.5247V23.5125L21.6279 23.5034V23.4882L21.5186 23.4548V23.4427L21.4882 23.4366V23.4214L21.4427 23.4123V23.3971L21.4123 23.391V23.3789L21.3667 23.3667V23.3546L21.303 23.3303V23.3151L21.2574 23.306V23.2908L21.1602 23.2452V23.2301L21.1329 23.2209V23.2088L21.0691 23.1845L21.0539 23.1541L20.9567 23.1055L20.9415 23.0752L20.8808 23.0509V23.0326L20.8322 23.0114L20.817 22.981L20.7866 22.9749L20.7684 22.9415L20.738 22.9354L20.7077 22.8868L20.6773 22.8838L20.6439 22.8352L20.6135 22.8291L20.5831 22.7775L20.5345 22.7562L20.3948 22.5862L20.3614 22.5831L20.246 22.4313L20.2217 22.4252L20.1397 22.325V22.2946L20.1093 22.2764V22.2612L20.079 22.2399V22.2126L20.0334 22.1761V22.1458L19.9878 22.1124V22.079L19.9514 22.0607L19.9362 22.0152L19.918 22.0121V21.9818L19.8876 21.9605L19.8755 21.921L19.8572 21.9149L19.836 21.8542L19.8086 21.8299V21.8056L19.7752 21.7692V21.7449L19.7601 21.7388V21.7084H19.7449V21.678H19.7297L19.6963 21.5839H19.6811L19.6659 21.508L19.6507 21.5019V21.4715H19.6325V21.429L19.6173 21.426L19.6021 21.3652H19.5839L19.5535 21.2164L19.5383 21.2133V21.1678H19.5201V21.1253L19.5049 21.1192L19.4867 21.0159L19.4715 21.0129V20.9552L19.4563 20.9521L19.4381 20.776L19.4715 19.5672H19.4867V19.5277H19.5019V19.4852L19.5171 19.4882L19.5596 19.309L19.5809 19.3121V19.2847L19.593 19.2908V19.2452L19.6082 19.2483L19.6234 19.1906L19.6325 19.1966V19.1541L19.6538 19.1572L19.672 19.0995L19.6872 19.1055V19.06L19.7145 19.0509V19.0235L19.7449 19.0023V18.9719L19.7601 18.9749V18.9446L19.7722 18.9476V18.9203L19.8056 18.9111L19.8178 18.8565L19.8512 18.8504V18.82L19.8815 18.8079L19.8967 18.7593L19.9271 18.7471V18.7168L19.9727 18.7016V18.6682L20.0182 18.6499V18.6196L20.0941 18.5771V18.5497L20.1549 18.5193V18.489L20.1883 18.4677L20.2369 18.4616V18.4343L20.2673 18.4222L20.2946 18.3857L20.3736 18.3584V18.331L20.4039 18.3067L20.4343 18.3128L20.4829 18.2612L20.5163 18.2703L20.571 18.2065L20.6044 18.2156L20.6348 18.1761L20.6682 18.1822L20.6986 18.1458L20.732 18.1518L20.7441 18.1275L20.8049 18.1245L20.82 18.0972L20.8686 18.0941V18.0759H20.9324L20.9476 18.0486L20.9749 18.0547L21.0053 18.0304L21.0418 18.0364V18.0212L21.0691 18.0304V18.0152L21.1025 18.0212L21.1146 17.9939L21.1602 18.003V17.9878L21.224 17.9848V17.9696L21.2726 17.9787V17.9666L21.3303 17.9635V17.9484L21.3789 17.9575V17.9423L21.4123 17.9484V17.9362L21.6128 17.9301V17.9149L21.6613 17.921V17.9058L21.7069 17.918V17.9028L21.8922 17.9058L21.9104 17.8815L21.9408 17.8906L21.9681 17.8512L22.0015 17.8603L22.0288 17.8178L22.0623 17.8238L22.0926 17.7843L22.123 17.7935L22.1412 17.7692L22.202 17.7661L22.2202 17.7418L22.2475 17.7449L22.2657 17.7175L22.2931 17.7236L22.3083 17.6993L22.3417 17.7054L22.3751 17.6841L22.4024 17.6872V17.678H22.4358V17.6659L22.4662 17.672L22.691 17.6143L22.7183 17.6294Z" fill="#A3CF62"/>
<path id="Vector_3" d="M27.751 15.1572L27.7054 15.2027L27.672 15.2149L27.675 15.2392L27.6447 15.2635L27.6143 15.2604L27.5961 15.2847L27.5657 15.2787V15.2939L27.5353 15.2847V15.303L27.4867 15.2939V15.309L27.3956 15.3182V15.3333L27.3622 15.3273L27.3652 15.3455L27.2741 15.3546L27.2559 15.3789L27.1921 15.385L27.18 15.4093L27.1496 15.4032L27.1344 15.4275L27.101 15.4214L27.0858 15.4488L27.0554 15.4427L27.0403 15.467L27.0099 15.4639L26.9917 15.4882L26.9188 15.5095V15.5125V15.5459L26.9856 15.5854V15.6128L27.1101 15.71V15.7403L27.1435 15.7434V15.7737L27.1769 15.7828V15.8071L27.2073 15.8163L27.2103 15.8436L27.2407 15.8527L27.3166 15.9803L27.35 15.9863L27.3865 16.0623L27.4199 16.0744V16.0987L27.4472 16.1048L27.5262 16.2809L27.5596 16.284L27.6264 16.4146L27.6872 16.4875L27.7874 16.533V16.5634L27.8481 16.5877V16.615L27.9271 16.6606V16.6879L27.9575 16.694V16.7244L27.9909 16.7305L27.9939 16.7608L28.0729 16.8459L28.1063 16.8519V16.8823L28.1367 16.8884V16.9157L28.1671 16.9218L28.2794 17.104L28.3128 17.1071V17.1405L28.3432 17.1435V17.186L28.3736 17.1951L28.41 17.2863L28.4222 17.2893L28.4556 17.3683L28.489 17.3743L28.5194 17.4533L28.5528 17.4594L28.65 17.5353V17.5626L28.6803 17.5687V17.5991L28.7897 17.6629V17.6932L28.8231 17.6993L28.8717 17.7783L28.9021 17.7844L28.9051 17.8178L28.9355 17.8238L28.9841 17.9028L29.0144 17.9059V17.9393L29.0448 17.9423L29.0964 18.0547L29.1298 18.0608V18.0942L29.1602 18.0972L29.2088 18.2035L29.2392 18.2126V18.2551L29.2696 18.2612L29.2878 18.3068L29.303 18.3098L29.3212 18.3857L29.3516 18.407V18.4374L29.385 18.4586V18.5011L29.4184 18.5194L29.4336 18.6135L29.467 18.6287V18.6925H29.4791L29.4973 18.7684L29.5308 18.7745L29.549 18.9233L29.5642 18.9294V18.9567H29.5794V19.0448L29.6128 19.0661L29.6279 19.2027L29.6614 19.221L29.6948 19.3455L29.7282 19.3485L29.7585 19.4731L29.7889 19.4761L29.8102 19.5824L29.8406 19.5885L29.8588 19.7373L29.8891 19.7464L29.9408 20.2597H29.9256L29.9317 20.4905L29.9134 20.4875V20.5907L29.8983 20.5877V20.6758L29.8709 20.6819L29.8588 20.7973L29.8254 20.7912L29.7494 21.022L29.713 21.016L29.5945 21.2316L29.5611 21.2377L29.5429 21.2346L29.5459 21.2772L29.5125 21.2741V21.2893L29.4518 21.3227L29.4032 21.3531L29.4093 21.3986L29.2939 21.432V21.4594L29.3182 21.4624L29.3303 21.4351L29.3667 21.4412L29.3759 21.4169L29.4123 21.4229L29.4245 21.3986H29.4548V21.3865L29.5034 21.3835L29.5156 21.3592H29.549L29.5976 21.3136L29.6279 21.3227L29.6887 21.262H29.7221L29.8284 21.1678L29.8588 21.1769V21.1617L29.9043 21.1405L29.9226 21.101L30.0289 21.0342V21.0038L30.1018 20.9613V20.9339L30.1352 20.9279V20.9127L30.1686 20.9066L30.1655 20.8762L30.202 20.8671V20.8368L30.2293 20.8276V20.8003L30.2749 20.779L30.3235 20.7122L30.3812 20.6788L30.3964 20.6545L30.4267 20.6576L30.4389 20.609L30.4753 20.6181L30.4875 20.5907L30.5178 20.5968L30.533 20.5695L30.5664 20.5786L30.5816 20.5513L30.6302 20.5482L30.691 20.4875L30.7244 20.4905L30.7851 20.4298L30.8125 20.4358V20.4207L30.8428 20.4115V20.3842L30.8762 20.3903L30.9339 20.3295L30.9491 20.3326V20.3052L31.0129 20.284V20.2597L31.0919 20.2141V20.1838L31.1526 20.1534V20.126L31.1982 20.1291V20.1018L31.3197 20.0228L31.3865 20.0197L31.3986 19.9681H31.4624V19.9529L31.508 19.9499L31.5262 19.9226L31.5535 19.9286V19.9134L31.6021 19.9074L31.6143 19.8831L31.6477 19.8891L31.675 19.8497L31.7084 19.8588L31.7236 19.8284L31.7418 19.8345L31.757 19.8071L31.7874 19.8132V19.8011L31.8481 19.7828V19.7525L32.1397 19.5642V19.5368L32.1822 19.5186V19.4852L32.2278 19.467L32.2885 19.4123L32.246 19.3485L32.2248 19.3455L32.2126 19.2847L32.164 19.2483L32.1488 19.1724L32.1336 19.1693L32.0668 19.0691L31.8633 18.9294V18.899L31.8147 18.8778L31.7995 18.8444L31.7631 18.8413L31.7175 18.7745L31.6841 18.7684L31.6082 18.6773L31.5718 18.6287L31.5444 18.6226L31.4928 18.5406L31.4624 18.5376L31.3835 18.4222L31.3652 18.4161V18.3857L31.268 18.2977V18.2703L31.2407 18.246V18.2156L31.2073 18.1974V18.1701L31.1708 18.1336L31.1435 18.1276L31.0281 17.8907L31.0008 17.8816L30.8641 17.5839L30.8337 17.5596V17.5323L30.8185 17.5292L30.8033 17.4381L30.7851 17.4351V17.3926L30.7699 17.3895V17.347L30.7548 17.344V17.3014L30.7396 17.2984L30.7365 17.2377H30.7244L30.7031 17.1435L30.6879 17.1405V17.1131L30.6727 17.1071V17.0524L30.6576 17.0494L30.6545 16.9613L30.6393 16.9582L30.6363 16.8823H30.6242L30.6211 16.7639L30.6059 16.7608L30.5877 16.4115L30.5695 16.4085V16.366L30.5391 16.3447L30.5178 16.2384L30.4875 16.2324L30.4723 16.1716L30.4571 16.1686V16.1109L30.4389 16.1078V16.0623L30.4055 16.044V15.9681L30.3721 15.9651L30.3569 15.8163L30.3417 15.8132V15.7828H30.3265L30.3235 15.6796L30.2901 15.6553V15.5004L30.2567 15.4822L30.2506 15.0235L30.284 15.0205V14.8535L30.3144 14.8626L30.3265 14.7229H30.3417V14.6652L30.3569 14.6682V14.5923L30.3873 14.5862V14.5285L30.4207 14.5224L30.4358 14.4222L30.4693 14.4283L30.5087 14.2734L30.5421 14.2794V14.2369L30.5725 14.243L30.7001 14.0486L30.7305 14.0547L30.779 13.9605L30.8094 13.9666V13.9362L30.8398 13.9393L30.9188 13.839L30.9461 13.8451V13.8147L31.0008 13.8269L31.0463 13.7904L31.0402 13.7631L31.0737 13.7692V13.7388L31.104 13.7449L31.1374 13.7084L31.1648 13.7115L31.183 13.6872L31.2286 13.6781V13.6507L31.3075 13.6082L31.4503 13.59V13.5627L31.6082 13.5505V13.5171L31.7479 13.4989L31.7995 13.511V13.4958L31.8299 13.4989V13.4837L31.8876 13.4958L31.9089 13.4715L32.079 13.4898L32.0911 13.4624L32.2369 13.4898L32.2551 13.4624L32.5042 13.511L32.5406 13.4989L32.9628 13.5961V13.6264L33.3151 13.7327V13.7631L33.3941 13.7753V13.8056L33.5854 13.8846V13.9119L33.7403 13.9848V14.0182L33.8041 14.0425L33.8102 14.0577L33.8557 14.0668L33.8861 14.1154L33.9347 14.1245V14.1367L33.9711 14.1397V14.1579L34.0926 14.1792V14.1974L34.202 14.2156V14.2308L34.284 14.246V14.2612L34.3781 14.2794V14.2946L34.4419 14.3068L34.4571 14.3341L34.5209 14.3493V14.3645L34.5664 14.3736V14.3857L34.6181 14.3948V14.4131L34.6819 14.4222V14.4374L34.9036 14.5346V14.5649L35.2164 14.7411V14.7684L35.2741 14.7927L35.2528 14.7684V14.7441L35.2225 14.7229V14.6955L35.1921 14.6591V14.6317L35.1587 14.6105L35.1435 14.5497L35.1131 14.5285V14.5011L35.098 14.4951L35.0828 14.4526L35.0494 14.4313V14.404L34.9856 14.3493V14.3189L34.9188 14.2642V14.2369L34.8094 14.1306L34.7973 14.085L34.7669 14.079V14.0486L34.7335 14.0425L34.5118 13.833L34.4844 13.7844L34.4541 13.7753L34.4328 13.7449L34.4055 13.7388L34.3721 13.6902L34.3113 13.6629L34.2961 13.6325L34.2445 13.6082V13.5961L34.1503 13.5505V13.5323L34.123 13.5292V13.5141L34.0289 13.4685V13.4563L33.9499 13.4229V13.4138L33.9195 13.4047V13.3895L33.8709 13.3835V13.3683L33.8405 13.3622V13.347L33.795 13.3379V13.3227H33.7616V13.3045L33.6522 13.268V13.2559L33.6036 13.2468V13.2346L33.5429 13.2225V13.2073L33.4639 13.1951V13.1769L33.388 13.1617V13.1496L33.139 13.0888V13.0767L32.4556 12.9765V12.9886L32.3705 12.9765V12.9886L32.2976 12.9765V12.9886L32.2521 12.9825V12.9977L32.1883 12.9825V13.0008L32.1245 12.9856V13.0038L32.0911 12.9947V13.0099L32 13.0068V13.022L31.9727 13.016V13.0281L31.9241 13.0251V13.0372H31.8633V13.0524L31.8147 13.0433V13.0585L31.7206 13.0706V13.0858L31.6932 13.0767V13.0949L31.6295 13.098L31.6143 13.1192L31.5535 13.1253L31.5383 13.1496L31.5019 13.1466V13.1587L31.4563 13.1617L31.4442 13.1921L31.4108 13.183L31.3835 13.2225L31.35 13.2164L31.3197 13.2529L31.2893 13.2468L31.2407 13.2984L31.2103 13.2923L29.5459 14.2248L29.4791 14.2308V14.246L29.4336 14.2521L29.4184 14.2764L29.385 14.2673V14.2855L29.3273 14.3159L28.814 14.6257L28.8201 14.65L28.7866 14.6591L28.7411 14.7107L28.7077 14.7016L28.6803 14.7229L27.751 15.1572Z" fill="#A3CF62"/>
<path id="Vector_4" d="M8.30068 13.4989L8.33409 13.4351H8.34624L8.36143 13.3835L8.37965 13.3865L8.37661 13.3561L8.3918 13.3592V13.3136L8.40699 13.3166L8.43736 13.2377L8.45254 13.2407V13.2103L8.47077 13.2164V13.186L8.48595 13.1921L8.48292 13.1617H8.4981V13.1344L8.51936 13.1405V13.1101L8.54366 13.0858V13.0585L8.57403 13.0494L8.58922 12.9947L8.62263 12.9856L8.63478 12.9309L8.67122 12.9218L8.66515 12.8975H8.68033V12.8671L8.71374 12.8611V12.8307L8.74108 12.8246V12.7942L8.77752 12.7851L8.77145 12.7548L8.80486 12.7456V12.7183L8.85042 12.7001V12.6697L8.89901 12.6515V12.6181L8.97798 12.5786V12.5513L9.00835 12.5421V12.527L9.03569 12.5179V12.4905L9.42141 12.0167H9.4366L9.47608 11.9681L9.49127 11.9742V11.9286L9.50645 11.9317L9.50342 11.9074H9.5186V11.8618L9.53986 11.8679L9.5672 11.7859H9.58238V11.7616L9.59757 11.7646V11.7373H9.61276V11.71H9.62491V11.6826L9.64313 11.6857V11.6553L9.65831 11.6614V11.631L9.67046 11.634V11.6037L9.70387 11.5824V11.552L9.73424 11.5459L9.74943 11.4913L9.77677 11.4822L9.79803 11.4275L9.82232 11.4184V11.391H9.84055V11.3668L9.88611 11.3455L9.89825 11.2847L9.94989 11.2726L9.94685 11.2392L9.99241 11.221L10.0744 11.1359V11.1056L10.1048 11.1116L10.1321 11.063H10.1473V11.0357L10.1625 11.0387L10.2111 10.9901L10.2415 10.9841V10.9507L10.2536 10.9537L10.3022 10.9051L10.3295 10.9142L10.7396 10.4677L10.7365 10.4434L10.7547 10.4465L10.7669 10.3888L10.7821 10.3948V10.3645L10.8003 10.3675V10.3371L10.8125 10.3402V10.3128L10.8307 10.3159V10.2855L10.8459 10.2916V10.2642H10.861V10.2308L10.8732 10.2399V10.2096L10.8914 10.2126L10.8884 10.1853L10.9218 10.1579V10.1336L10.9522 10.1245L10.9674 10.0699L11.0129 10.0486L11.0251 9.99393L11.0585 9.98786V9.95749L11.0737 9.96052V9.93015L11.104 9.92408L11.1192 9.88156L11.1678 9.86333V9.836L11.2134 9.81474L11.2286 9.76007L11.3075 9.71451V9.68717L11.3804 9.64465V9.61732L11.6112 9.35308L11.6234 9.35916V9.33182L11.6386 9.33486L11.6568 9.23767L11.675 9.24071L11.6689 9.21033L11.6902 9.21337L11.7024 9.13137L11.7175 9.1344V9.10403L11.7327 9.11011V9.06758H11.7479L11.7631 9.01595H11.7752V8.97343L11.7904 8.97647L11.8238 8.8975H11.839V8.87017L11.8542 8.8732V8.84587H11.8694V8.8155L11.8846 8.82157V8.79424H11.8967V8.7669H11.915V8.73957L11.9271 8.74564V8.71527L11.9605 8.69097V8.66364L11.9909 8.65452L12.0243 8.57252L12.0516 8.56645V8.53607L12.1002 8.51785L12.1124 8.46318L12.1458 8.45407V8.42673L12.1913 8.40851V8.37814H12.2035L12.2187 8.33866L12.2521 8.32954V8.29917L12.3159 8.27184V8.24147L12.3888 8.20198V8.17161L12.4829 8.11694V8.08657L12.6621 7.80714H12.6834L12.6773 7.77981L12.6955 7.78588L12.7259 7.65832L12.7411 7.6644V7.63402L12.7563 7.63706V7.59454L12.7715 7.59758L12.7866 7.54291L12.8049 7.54594V7.50039L12.814 7.50342L12.8443 7.42446L12.8626 7.42749V7.40016L12.8778 7.4032V7.37282H12.896L12.8929 7.34549L12.9142 7.35156L12.9051 7.32119L12.9263 7.32423L12.9233 7.29386L12.9415 7.29689L12.9355 7.26956L12.9537 7.2726V7.23919L12.9841 7.22096V7.19363L13.0175 7.18148L13.0327 7.12985L13.06 7.1177L13.0752 7.06607L13.1086 7.05695V7.02962L13.139 7.02051V6.99317L13.1693 6.98406V6.95369L13.1967 6.94458V6.91421L13.2331 6.90813L13.221 6.86257L13.2635 6.84131V6.81398L13.3273 6.78361L13.3424 6.74109L13.4791 6.55278V6.48292L13.4973 6.48596V6.4404L13.5125 6.44648L13.5065 6.40092L13.5247 6.40395V6.34625L13.5399 6.35232V6.30676L13.5793 6.31284V6.27032L13.5976 6.27639L13.5945 6.23083H13.6097V6.2035L13.6249 6.20957L13.6401 6.12453L13.6583 6.12757L13.6522 6.0972L13.6705 6.10023V6.05771L13.6857 6.06075L13.7008 6.00608L13.7191 6.01216L13.716 5.97875L13.7312 5.98482V5.9423L13.7494 5.94534L13.7768 5.86637H13.792V5.83903H13.8102L13.8041 5.81474H13.8254L13.8527 5.73273L13.8861 5.72362V5.6811L13.9134 5.67199L13.9317 5.62036L13.959 5.61124V5.58087L13.9894 5.5748V5.54443L14.0228 5.53531V5.50798L14.0501 5.49887V5.47153L14.0866 5.46242V5.43509H14.1017L14.1109 5.3956L14.1473 5.38953V5.35916L14.1898 5.3379V5.31056L14.2688 5.26804V5.24071L14.4966 4.90661V4.86713H14.5118V4.82461L14.5239 4.83068V4.76994H14.5421L14.5391 4.74564L14.5543 4.74868V4.70616L14.5725 4.70919V4.67882L14.5847 4.68186V4.6363L14.5998 4.64238V4.612L14.6181 4.61504V4.57252L14.6302 4.57556L14.6454 4.52089L14.6606 4.52392V4.49659H14.6758V4.45407L14.7092 4.44496V4.40547L14.7244 4.40851V4.37814H14.7365V4.3508L14.7699 4.34169L14.7669 4.31436L14.8003 4.2931V4.26272H14.8125V4.23539L14.8307 4.24146V4.21109L14.861 4.20198L14.8762 4.14731L14.9066 4.14124V4.11086L14.937 4.10175V4.07442L14.9704 4.06531L14.9674 4.03493L14.9977 4.02886V3.99849L15.0281 3.98938V3.96204L15.0767 3.94078V3.91648L15.1192 3.89219V3.86181L15.3197 3.58239L15.3349 3.58847V3.54594L15.3531 3.54898V3.50342L15.3652 3.5095V3.46394L15.3804 3.46698V3.41231L15.3956 3.41534V3.38497H15.4108L15.4442 3.26348L15.4563 3.26652V3.23615L15.4746 3.23919L15.4715 3.19667L15.4867 3.20274L15.5019 3.14807H15.5171L15.5323 3.08429H15.5475L15.5748 3.00228L15.59 3.00532V2.97495L15.6112 2.98102L15.6082 2.95369L15.6264 2.95673L15.6234 2.92635L15.6386 2.92939V2.90206L15.672 2.87776V2.84739L15.6993 2.84131L15.7145 2.78361L15.7449 2.77753L15.7601 2.72286L15.7904 2.71071L15.8087 2.65604L15.8542 2.64086L15.8512 2.61049L15.8815 2.60137V2.571L15.915 2.56493L15.9271 2.52241L15.9727 2.50418V2.47381L16.0091 2.46774L16.003 2.45255L16.0364 2.44648V2.4161L16.0972 2.38269V2.35536L16.5103 1.79955V1.77222L16.5254 1.77829V1.74792L16.5588 1.73881V1.71147L16.5892 1.68717V1.6568L16.6014 1.65984V1.6325L16.6317 1.62339L16.6469 1.56872L16.6621 1.57176L16.6803 1.53531L16.7077 1.52317L16.7259 1.4685L16.7684 1.44724V1.4199L16.7988 1.41079V1.37738L16.8474 1.36219V1.33182L16.9051 1.30449V1.27108L16.9689 1.24071V1.21641L17.1116 1.12529L17.1055 1.09492L17.142 1.08884L17.1693 1.04936L17.2027 1.05544L17.3273 0.949133L17.3576 0.955208L17.4032 0.906612L17.4336 0.912687L17.4943 0.851943L17.5216 0.858017L17.555 0.821571L17.5885 0.824608L17.6067 0.80031L17.6492 0.794236V0.77905L17.6796 0.788161L17.6948 0.763864L17.7282 0.769938L17.7434 0.739566L17.792 0.733492V0.718306L17.8831 0.709194L17.8952 0.684896L17.9286 0.690971L17.959 0.663636L17.9894 0.66971V0.657562L18.0197 0.663636V0.651487L18.0562 0.654524L18.0683 0.62719L18.1109 0.636301V0.624152L18.1746 0.618078V0.605929L18.2202 0.615041V0.599855L18.284 0.596817V0.584669L18.3326 0.590743V0.578594L18.3629 0.584669V0.569483L18.4115 0.578594V0.566445L18.4358 0.569483V0.551259L18.7031 0.505701L18.7304 0.511776L18.7487 0.481404H18.8125L18.8246 0.454069L18.8884 0.451032V0.435846L18.9218 0.44192V0.429771L19.0099 0.417622V0.405474L19.0585 0.408511V0.396362L19.1222 0.393325V0.381176L19.1678 0.390287V0.372064L19.2012 0.381176V0.362953L19.2893 0.369027L19.2923 0.353841L19.3379 0.362953V0.347767L19.3834 0.356878V0.344729L19.432 0.350804V0.335618L19.4928 0.347767V0.332581L19.5566 0.344729V0.332581L19.6325 0.344729V0.332581L20.8626 0.618078V0.633264L20.9112 0.642376V0.654524L20.9567 0.663636V0.678822L21.0053 0.687934V0.70312L21.0539 0.709194V0.72438L21.0843 0.730455V0.742603L21.1329 0.751715V0.769938L21.1936 0.794236V0.806385L21.2422 0.815496V0.83372L21.3364 0.879278V0.891426L21.3971 0.915724L21.4123 0.946096L21.4761 0.973431L21.4913 1.0038L21.5247 1.00988L21.5399 1.04329L21.5702 1.04936L21.5885 1.07973L21.6158 1.08581L21.634 1.11618L21.6644 1.12225L21.6826 1.15566L21.713 1.16174L21.7585 1.22552L21.792 1.23159L21.8527 1.31664L21.8861 1.32271V1.33182L21.9165 1.35612V1.38649L22.1686 1.67503L22.2141 1.71451V1.73881L22.2658 1.77829V1.80563L22.2931 1.82385L22.3083 1.87548H22.3265V1.90585L22.3569 1.92408L22.3751 1.96963L22.3872 1.97571V2.00304L22.4237 2.03949V2.06379L22.4389 2.06683V2.0972L22.4541 2.10327V2.13061H22.4692V2.15794L22.4844 2.16402V2.19439H22.4966L22.533 2.2855L22.5482 2.29158V2.33106L22.5664 2.33714V2.36447L22.5786 2.36751V2.41003L22.5938 2.41307V2.44648H22.615V2.489L22.6272 2.49203V2.53455L22.6454 2.53759L22.6636 2.64086H22.6758L22.8398 3.12985L22.8489 3.13592L22.8732 3.19363L22.8853 3.19667L22.9036 3.28778H22.9188V3.31815H22.9339L22.9856 3.51557L22.9947 3.51861V3.56417H23.0159V3.60973H23.0311V3.6644L23.0463 3.67047L23.0797 3.89219V5.07973L23.0494 5.27715L23.0342 5.27108V5.31664L23.019 5.3136V5.35612L22.8853 6.10327L22.8732 6.10023L22.8793 6.27639H22.858L22.8641 6.40092L22.8459 6.39788V6.48292H22.8307V6.56493H22.8125V6.63478L22.8003 6.63175V6.68642H22.7882L22.6211 7.21793L22.609 7.21185L22.5907 7.26956L22.5756 7.26652V7.30904L22.5604 7.30601L22.5452 7.36067L22.53 7.3546V7.38497L22.5118 7.38194L22.5178 7.42446L22.4844 7.43357V7.46394L22.4541 7.4852L22.284 7.85574L22.2718 7.89219L22.2566 7.85574L22.2111 7.81929L22.1959 7.75551L22.1473 7.7221V7.69173L22.1169 7.67047V7.6401L22.0683 7.60365L22.0349 7.55506L22.0197 7.54898V7.52165L21.956 7.46698L21.877 7.35156L21.8466 7.34549L21.8284 7.29689H21.8132V7.25437L21.795 7.2483V7.20274H21.7798V7.15718L21.7616 7.15414V7.11162L21.7464 7.10859V7.06607H21.7312V7.02051L21.716 7.01747L21.6857 6.92332H21.6644V6.89295L21.6522 6.88991V6.86257L21.634 6.8565V6.82916L21.6158 6.82613V6.79575L21.6036 6.79272V6.76538L21.5702 6.73197V6.7016L21.5399 6.68034L21.5095 6.58922L21.4579 6.54974V6.51937L21.3941 6.46774L21.3789 6.41914L21.3455 6.39788V6.37055L21.2969 6.33106V6.30373L21.2513 6.26728V6.23691L21.139 6.12757L21.1238 6.08201L21.0934 6.07594V6.0486L21.0296 6.00608L20.9506 5.90585L20.9142 5.89978V5.88763L20.8352 5.82385V5.79955L20.7927 5.77222V5.76007L20.7441 5.73881L20.7289 5.7054L20.6317 5.65984L20.6166 5.62643L20.568 5.60517V5.58998L20.5406 5.58695L20.5011 5.54746L20.4738 5.54443V5.52924L20.4434 5.52317L20.4252 5.48976L20.3948 5.48672V5.47153L20.3614 5.46546L20.328 5.43205L20.2976 5.42597L20.2825 5.39257L20.1397 5.32271V5.30752L20.1093 5.30145V5.28626L20.0152 5.25589L19.6507 5.08581L19.4806 5.03721V5.0281L18.9765 4.91876L18.0319 4.93091L17.9803 4.9218V4.93698L17.8922 4.95217V4.96128L17.8284 4.96736L17.8132 4.99165L17.7828 4.98558V5.00077L17.7525 4.99469V5.00988L17.7191 5.0038L17.6856 5.0281L17.6583 5.01899L17.6401 5.04632L17.549 5.06151L17.5156 5.09492L17.4487 5.10099L17.4396 5.12529L17.388 5.13137V5.14351L17.3424 5.15263L17.3455 5.17996L17.2635 5.21033V5.22248L17.2361 5.21641L17.1572 5.29234L17.0964 5.30752V5.3379L17.0478 5.34093V5.37131L17.0175 5.37738V5.3956L16.9841 5.38953L16.9051 5.45938V5.48976L16.896 5.48672L16.8656 5.54139L16.8322 5.53228L16.817 5.57176H16.7988L16.7836 5.61124L16.7502 5.62036L16.738 5.67503L16.6955 5.69629L16.6591 5.77222L16.6257 5.78437L16.6317 5.81474L16.6014 5.83903V5.86637H16.5862V5.8937H16.568V5.918L16.5528 5.91496V5.94534L16.5376 5.9423V5.96963L16.5224 5.9666L16.489 6.0486H16.4738L16.3219 6.49507L16.2976 6.78057L16.2794 6.77753L16.2703 7.10859H16.2825L16.3007 7.4032L16.3189 7.40927L16.3371 7.58543L16.3493 7.58847L16.3523 7.64314L16.3675 7.64617V7.70388L16.3827 7.70995L16.3888 7.76462L16.4009 7.76766L16.407 7.81018L16.4191 7.81626V7.85878L16.4343 7.86485V7.90737H16.4495V7.95293H16.4677V7.99849L16.4829 8.00153V8.04405L16.4981 8.05012V8.09264H16.5133L16.5497 8.1868L16.5649 8.18983V8.21717H16.5771L16.5801 8.24754L16.5983 8.25361V8.28399H16.6135V8.3174H16.6257V8.34473L16.6591 8.38118V8.40851L16.6955 8.42977L16.7259 8.52089L16.7684 8.56037L16.7866 8.62112L16.82 8.64238L16.8352 8.68793L16.8504 8.69097L16.8686 8.73957L16.896 8.74564V8.76994L16.9446 8.80942V8.83676L16.981 8.85802V8.88839L17.0266 8.92787V8.94306L17.0569 8.9461L17.0904 8.98254L17.1055 9.02506L17.1693 9.08277V9.12529L17.1845 9.13137V9.17085L17.2027 9.17692L17.2058 9.21641L17.221 9.22248V9.265L17.2361 9.26804V9.29841H17.2513L17.2665 9.38953L17.2847 9.39257L17.3181 9.48672L17.3364 9.48976V9.51709L17.3516 9.52317V9.5505H17.3607V9.58087L17.3819 9.58695V9.61124L17.4123 9.65073V9.67806L17.4427 9.69629L17.4761 9.79044L17.5216 9.82992L17.5429 9.88763L17.5733 9.90889L17.5885 9.95749L17.6522 10.0091V10.0425L17.7312 10.1154V10.1397L17.8436 10.2491L17.8588 10.2946L17.8922 10.3007L17.9408 10.4131L17.9711 10.5467L17.9894 10.5497V10.5801L18.0046 10.5832V10.6257L18.0197 10.6287L18.0562 10.7198L18.0683 10.7259V10.7532L18.0835 10.7563V10.7866L18.1017 10.7897V10.817L18.1139 10.8201V10.8626L18.1473 10.8838L18.1655 10.9446L18.1989 10.9658L18.2293 11.057L18.2597 11.0782V11.1086L18.2931 11.1298L18.3113 11.1906L18.3386 11.2088V11.2392L18.4024 11.2908V11.3242L18.4692 11.3759V11.4093L18.5178 11.4457L18.5361 11.4761L18.5664 11.4822V11.4973L18.5938 11.5186V11.5459L18.6454 11.5672L18.6636 11.6158L18.691 11.6219L18.7092 11.6522L18.7244 11.6553V11.6857L18.7547 11.7069L18.7699 11.792L18.7882 11.8011V11.8284L18.8064 11.8314V11.874L18.8216 11.877L18.855 11.9681L18.8671 11.9742V12.0015L18.8853 12.0046V12.0349L18.9005 12.038V12.0653H18.9188V12.0987H18.9339V12.1321L18.9643 12.1655V12.1929L19.0008 12.2172L19.0281 12.3083L19.0767 12.3447L19.0919 12.3903H19.1101V12.4207L19.1557 12.4601V12.4905L19.2225 12.5452V12.5725L19.2832 12.6272V12.6576L19.3956 12.7699L19.4108 12.8125L19.4442 12.8155V12.8459L19.4897 12.8671V12.8823L19.5718 12.9582V12.9856L19.6021 13.0068V13.0342L19.6173 13.0372V13.0676L19.6325 13.0706V13.1131L19.6507 13.1162L19.6963 13.2346H19.6902L19.6781 13.3166L19.6629 13.3136V13.344L19.6477 13.3379V13.3835L19.6295 13.3774V13.4229H19.6173V13.4503L19.6021 13.4442V13.4898L19.5839 13.4837L19.5718 13.5384L19.5566 13.5353V13.5809L19.5414 13.5778L19.508 13.6568L19.4928 13.6538V13.6872L19.4806 13.6781V13.7236L19.4533 13.7327V13.7601L19.4351 13.757V13.8026L19.4047 13.8087V13.839L19.3895 13.836V13.8633L19.3592 13.8876V13.915L19.3288 13.9241L19.2984 14.003L19.265 14.0152V14.0425L19.2225 14.0608L19.2073 14.1154L19.1617 14.1367V14.1671L19.1283 14.1731L19.1131 14.2156L19.098 14.2096V14.2399L19.0494 14.2612V14.2916L18.9765 14.3614L18.8003 14.5953L18.773 14.6409L18.7608 14.6378V14.6773L18.7456 14.6743V14.732H18.7274V14.7745L18.7153 14.7684L18.691 14.8109L18.6758 14.8049V14.8504L18.6636 14.8474V14.8899L18.6454 14.8869V14.9142L18.6302 14.9112V14.9567L18.615 14.9507V14.981L18.5998 14.978L18.5573 15.0539H18.5482L18.527 15.1086L18.5178 15.1025V15.1329L18.4996 15.1298V15.1754L18.4844 15.1724L18.4541 15.1845H18.4632L18.4662 15.2149L18.445 15.2119L18.4207 15.2939L18.3872 15.2999L18.3569 15.3819L18.3235 15.391L18.2961 15.467L18.2658 15.4822V15.5034L18.2323 15.5125V15.5459L18.202 15.552V15.5824H18.1838L18.1686 15.6219L18.1382 15.6279V15.6553L18.0957 15.6765V15.7069L18.0653 15.713V15.7434L18.0319 15.7525L18.0623 15.7707L18.0258 15.7768V15.8071L17.9651 15.9074V15.9377L17.8588 15.9985V16.0319L17.798 16.0592L17.4761 16.4753L17.4609 16.4723L17.4427 16.527L17.4336 16.5239V16.5543L17.4123 16.5513V16.5907H17.4032L17.3698 16.6697H17.3516V16.694L17.3394 16.691V16.7244L17.3212 16.7183L17.3273 16.7487L17.309 16.7456V16.773L17.2787 16.7942V16.8246L17.2483 16.8337V16.8762L17.2331 16.8702L17.2149 16.9157L17.1845 16.9188L17.1693 16.9765L17.142 16.9856V17.0129L17.1238 17.0099V17.0403L17.0964 17.0494V17.0767L17.0478 17.098L17.0327 17.1526L16.9841 17.1709V17.2012L16.9415 17.2225V17.2498L16.9112 17.2589V17.2863L16.8474 17.3197V17.347L16.7684 17.3895V17.4199L16.5376 17.7024H16.5224V17.7601L16.5042 17.754V17.7844L16.489 17.7813L16.4343 17.9028L16.4191 17.8967L16.407 17.9666H16.3888V17.9939L16.3766 17.9879V18.0304H16.3614L16.328 18.1093L16.3128 18.1063V18.1336L16.2976 18.1306V18.161H16.2825V18.2005L16.2521 18.2126V18.2521L16.2248 18.2612V18.2916L16.2065 18.2855V18.3159L16.1913 18.3128V18.3432L16.1762 18.3402V18.3675L16.1458 18.3918V18.4222L16.1154 18.4313L16.1002 18.4829L16.0699 18.489L16.0547 18.5467L16.0091 18.568L15.9909 18.6196L15.9514 18.6378L15.9332 18.6803L15.9028 18.6925L15.8846 18.7472L15.836 18.7623V18.7927L15.7631 18.8383V18.8656L15.6841 18.9051V18.9385L15.426 19.2331L15.4108 19.2726L15.3956 19.2696V19.3273L15.3804 19.3212L15.3652 19.3759L15.3531 19.3728L15.3349 19.4579L15.3197 19.4548L15.3075 19.5277L15.2893 19.5216L15.2741 19.5733L15.2589 19.5702V19.6006L15.2407 19.5976V19.6431L15.2255 19.6371L15.1982 19.7221L15.183 19.7191V19.7464H15.1678L15.1344 19.8223L15.104 19.8284V19.8618L15.0767 19.8831V19.9104L15.0615 19.9074V19.9377H15.0463V19.962L15.019 19.9742L15.0008 20.0258L14.9704 20.0349V20.0623L14.937 20.0714V20.1018L14.9066 20.1078V20.1352L14.8762 20.1473V20.1746L14.8459 20.1838V20.2141L14.8003 20.2324V20.2597L14.7699 20.2688V20.3022L14.7092 20.3326V20.3599L14.6302 20.4024V20.4298L14.5725 20.4632V20.4784L14.5391 20.4875L14.2718 20.8216L14.2566 20.8459L14.2232 20.9279H14.2111L14.1989 20.9825L14.1838 20.9795V21.019L14.1655 21.016V21.0463L14.1503 21.0433V21.0858H14.1321L14.0805 21.1617L14.0653 21.1557V21.186L14.0501 21.183V21.2255L14.0228 21.2346V21.262L13.9894 21.2832V21.3136H13.9742V21.3379H13.959V21.3652L13.9286 21.3895V21.4169L13.8983 21.426L13.88 21.4806L13.8527 21.4898V21.5171L13.8223 21.5262V21.5535L13.7889 21.5627L13.7737 21.6204L13.7251 21.6386L13.716 21.6933L13.6674 21.7115L13.5885 21.7996V21.8299L13.5642 21.8208L13.5308 21.8755L13.5156 21.8724V21.8967L13.4852 21.9059V21.921L13.4518 21.9302V21.9605L13.2847 22.0729V22.1002L13.2513 22.1063L13.1784 22.1792L13.145 22.1762L13.1268 22.2005L12.6348 22.656L12.6196 22.65L12.6257 22.6773H12.6074V22.7046L12.5771 22.7289V22.7593L12.5437 22.7654L12.5285 22.8201L12.5011 22.8292L12.4829 22.8838L12.4374 22.9021L12.4252 22.9567L12.3766 22.978L12.3614 23.0327L12.3189 23.0509V23.0813L12.2703 23.1025V23.1298L12.2065 23.1602L12.1974 23.2027L12.1792 23.1997V23.227L12.1488 23.221L11.839 23.5095L11.8087 23.5034L11.7904 23.5247L11.6689 23.5915V23.6219L11.6538 23.6158L11.59 23.6492V23.6644L11.5657 23.6583V23.6857L11.4989 23.7039V23.7191L11.4715 23.71L11.4533 23.7373L11.4381 23.7343L11.4199 23.7616L11.1131 24.0623L11.0858 24.0714L11.0676 24.1261L11.0372 24.1321V24.1625L11.0038 24.1716V24.1989L10.9765 24.2081V24.2354L10.9461 24.2475V24.2718L10.9157 24.284V24.3113L10.8671 24.3295V24.3599L10.8398 24.369V24.3964L10.8094 24.4024V24.4176L10.779 24.4298V24.4571L10.7153 24.4905V24.5179L10.609 24.5847V24.612L10.4996 24.6788L10.4844 24.7183L10.4571 24.7153L10.4419 24.7517L10.3933 24.7608L10.2536 24.8459L9.8527 25.2437L9.79499 25.3227V25.35L9.76158 25.3561L9.74639 25.4138L9.71602 25.4229L9.71906 25.4503L9.68565 25.4594L9.65831 25.4989V25.5232L9.62491 25.5323L9.60061 25.5353L9.57024 25.5414V25.5687L9.53986 25.5809V25.6082L9.49127 25.6295L9.41534 25.7145V25.7449L9.38497 25.7358L9.36674 25.7783L9.32422 25.7965V25.8269L9.24526 25.8694L8.95368 26.0881V26.1154L8.92635 26.1397L8.8899 26.1336L8.86257 26.1701L8.70463 26.243L8.71071 26.2673L8.66211 26.2764L8.56796 26.3159L8.53759 26.3523L8.50721 26.3463L8.45862 26.3675L8.44343 26.3948L8.43432 26.4161L8.42217 26.4404L8.31587 26.4647V26.4951L8.25513 26.4981V26.5103L8.22172 26.5042L8.20653 26.5285L8.17312 26.5224V26.5406L8.14579 26.5315L8.11238 26.5406L7.17084 27.1541L7.14351 27.1481L7.09188 27.1997L7.06454 27.1936V27.2058L7.01898 27.2301L7.00076 27.2544L6.97039 27.2453L6.95824 27.2756L6.92179 27.2665L6.89142 27.303L6.86105 27.2969L6.83068 27.3364L6.76689 27.3394L6.73956 27.3759L6.70919 27.3728L6.694 27.3941L6.62718 27.3971L6.612 27.4245L6.55429 27.4275L6.5391 27.4518L6.5057 27.4457L6.47532 27.4731L6.44495 27.4639V27.4791L6.41458 27.4731L6.39939 27.5004L6.33257 27.5034L6.33865 27.5156L6.30828 27.5125V27.5216L6.21412 27.5368V27.5551L6.16553 27.5399V27.5581L6.13516 27.5551V27.5642L6.04404 27.5763V27.5915L5.94989 27.5854V27.6006L5.91648 27.5945V27.6128L5.77677 27.6158V27.6249L5.74639 27.6219V27.634L5.68565 27.6249V27.6371L5.64009 27.631V27.6462L5.5915 27.634V27.6522L5.54594 27.6431V27.6553L5.48519 27.6462L5.22399 27.6674L5.0691 27.6522V27.6674L4.13364 27.5368V27.5216L3.80258 27.4457L3.17692 27.2179V27.1997L2.97342 27.1207V27.1086L2.94609 27.1025V27.0843L2.89749 27.0782V27.063L2.80334 27.0327V27.0175L2.76993 27.0114V26.9993L2.72134 26.9871V26.975L2.66363 26.9476V26.9355L2.63326 26.9294V26.9142L2.58466 26.9081V26.8929L2.52088 26.8656V26.8504L2.49355 26.8474V26.8352L2.44191 26.8231L2.42976 26.7897L2.39332 26.7866V26.7715L2.36598 26.7654V26.7502L2.33257 26.7472V26.732L2.3022 26.7229L2.26879 26.6925L2.23842 26.6834L2.22323 26.653L2.12908 26.6044L2.1139 26.5771L2.05011 26.5528L2.01974 26.5011L1.98937 26.4951L1.96811 26.4647L1.94077 26.4586L1.93774 26.4434L1.89218 26.4222L1.87699 26.3888L1.84662 26.3827L1.81625 26.3341L1.78284 26.328L1.76765 26.2977L1.73424 26.2916L1.70387 26.243L1.6735 26.2399L1.60972 26.1549L1.57935 26.1488L1.50038 26.0486L1.47001 26.0425L1.26651 25.8056L1.13895 25.6781V25.6507L1.02658 25.5414V25.5141L0.968869 25.4594V25.4321L0.905087 25.3743L0.899013 25.35L0.868641 25.3288V25.2984L0.823083 25.262V25.2346L0.789674 25.2134L0.774487 25.1678L0.759301 25.1648V25.1374L0.725892 25.1162V25.0888L0.69552 25.0645V25.0372L0.668185 25.016L0.634776 24.9248L0.601367 24.9066L0.570995 24.8155L0.537585 24.7942L0.519362 24.7365L0.504176 24.7305V24.7031L0.48899 24.7001V24.6697H0.470767V24.6393L0.461655 24.6363L0.455581 24.6059L0.440395 24.6029V24.5604L0.406986 24.5421V24.4996L0.3918 24.4936L0.376614 24.4358H0.361428V24.3903H0.346241L0.331055 24.3265L0.315869 24.3235L0.297646 24.2354L0.279423 24.2293V24.202L0.264237 24.1989V24.1412L0.249051 24.1382V24.1109L0.236902 24.1078V24.0532L0.215642 24.0471V24.0046L0.200456 24.0015V23.956H0.18527L0.167046 23.8527L0.154897 23.8497L0.136674 23.7191L0.118451 23.716V23.6583L0.106302 23.6553V23.5945H0.088079V23.5095L0.0728929 23.5065L0.0546697 23.2999L0.0394837 23.2969L0 22.7472L0.0182232 22.7502L0.0394837 22.2248L0.0546697 22.2278V22.1397L0.0728929 22.1428V22.0577L0.088079 22.0608L0.100228 21.9332L0.115414 21.9393L0.112377 21.8664L0.1306 21.8694L0.127563 21.8147H0.145786L0.160972 21.7145L0.173121 21.7236V21.6781H0.188307V21.6355L0.20653 21.6386V21.5839H0.221716L0.215642 21.5535L0.236902 21.5566L0.264237 21.4321L0.279423 21.4351L0.297646 21.3835L0.309795 21.3865L0.321944 21.2984L0.343204 21.3075L0.373576 21.2255L0.3918 21.2316V21.1982L0.400911 21.2043L0.416097 21.1344L0.446469 21.1253L0.461655 21.0585L0.498102 21.0463L0.492027 21.019L0.525437 20.9977V20.9643L0.537585 20.9704V20.9431H0.552772V20.9157L0.583144 20.9097L0.61959 20.8246L0.628702 20.8276L0.643888 20.7882L0.677297 20.7821V20.7517L0.707669 20.7426V20.7153L0.756264 20.694L0.77145 20.6363L0.817008 20.6242V20.5907L0.859529 20.5725V20.5421L0.935459 20.4996V20.4723L1.01443 20.4267V20.3994L1.07213 20.369V20.3356L1.17236 20.3022V20.2718L1.27866 20.2081L1.29385 20.1807L1.32422 20.1838L1.35763 20.1625L1.35459 20.1321L1.50645 20.0592V20.0319L1.63098 19.9833L1.64617 19.959L1.67654 19.962L1.70995 19.9256L1.74032 19.9347L1.77069 19.8952L1.8041 19.8983L1.81625 19.877L1.86181 19.8679V19.8557L1.89218 19.8618L1.9104 19.8345L1.94077 19.8436L1.95596 19.8163L1.98937 19.8223L2.38724 19.549L2.61807 19.309H2.63629L2.7426 19.2027H2.75778V19.1754L2.81853 19.1298L2.86409 19.1238L2.97342 19.0296L3.42293 18.7107V18.6834L3.44723 18.6469L3.48064 18.6226V18.5923L3.49582 18.5953V18.568L3.5262 18.5589V18.5315L3.55961 18.5072L3.55353 18.4799L3.5839 18.4708V18.4404L3.61731 18.4343V18.404L3.64768 18.3675L3.68109 18.3584L3.75702 18.2734L3.84814 18.1762V18.1458L3.88155 18.1519L3.96355 18.1093L3.9757 18.1124V18.085L4.03341 18.0516V18.0365L4.06378 18.0304V18.003L4.16097 17.9453L4.34017 17.751L4.37054 17.754L4.46773 17.672L4.4981 17.6781L4.5224 17.5961L4.55581 17.6052L4.61959 17.5414L4.64996 17.5475L4.66515 17.5232L4.69856 17.5262L4.72589 17.4898L4.85649 17.3986L4.88686 17.3774L4.90509 17.3683L5.02961 17.2346L5.04176 17.1769L5.05695 17.18L5.07517 17.1405L5.10554 17.1344V17.104L5.13288 17.098V17.0676L5.1997 17.0342L5.21185 16.9795L5.24222 16.9704L5.2574 16.9339L5.33637 16.8884V16.8611L5.4123 16.8185V16.7882L5.56416 16.6879L5.57935 16.6485L6.16857 16.041L6.20197 16.0349L6.23235 15.956L6.26576 15.9438L6.29309 15.8618L6.30828 15.8649L6.32346 15.8254L6.35383 15.8163L6.36902 15.7616L6.41458 15.7434L6.42977 15.6887L6.47532 15.6674V15.6401L6.52392 15.6219V15.5885L6.55429 15.5824V15.552L6.63326 15.5095L6.62718 15.4822L6.70919 15.4366V15.4123L7.37434 14.4647L7.39256 14.4343L7.42597 14.4283L7.44115 14.3705L7.47456 14.3645L7.48975 14.3068L7.52012 14.3007V14.2703L7.55049 14.2612L7.54746 14.2308L7.57783 14.2248V14.1944L7.61124 14.1883V14.161L7.65376 14.1367V14.1124L7.70235 14.0881L7.69932 14.0608L7.78132 14.0213V13.9879L7.85725 13.9484V13.921L7.92103 13.8876L7.918 13.8573L7.95141 13.836L7.98178 13.8421" fill="#00B9AD"/>
<path id="Vector_5" d="M19.7145 13.1708L19.7601 13.0068L19.7904 13.0129L19.836 12.8216L19.8664 12.8064L19.8816 12.7699H19.8967L19.915 12.7305L19.9453 12.7335L20.0091 12.6333L20.0395 12.6393L20.0972 12.5178L20.1306 12.5239L20.1914 12.3903L20.2248 12.3964L20.2885 12.2931V12.2475L20.3189 12.2415L20.3159 12.1989L20.3432 12.1898L20.3614 12.1169L20.3766 12.123V12.0926L20.41 12.0866L20.4252 11.9985L20.4556 12.0076L20.4708 11.9074L20.4981 11.8983L20.5163 11.7859L20.5467 11.7768L20.5619 11.6614L20.5953 11.6553V11.5824L20.6044 11.5854V11.5308L20.6409 11.5186L20.653 11.3485L20.6834 11.3364L20.6803 11.221L20.6955 11.224V11.1815L20.7107 11.1845L20.7289 11.1177L20.7441 11.1207L20.7745 11.1086L20.7897 11.0418L20.8352 11.0357L20.8322 10.9932L20.8626 10.9962L20.8838 10.9264L20.9324 10.9233L20.9264 10.8778L20.9567 10.8838L20.9901 10.7897L21.0205 10.7958L21.0387 10.7107L21.0691 10.7168L21.1754 10.4768L21.2058 10.4829L21.221 10.3979L21.2513 10.404L21.2696 10.3068L21.2969 10.3128L21.3121 10.1853L21.3424 10.1913L21.388 9.99393L21.4062 9.99697L21.4214 9.85422L21.4488 9.84815L21.4609 9.64769L21.4973 9.63858V9.58087H21.5125L21.5551 9.48976L21.5885 9.49583L21.634 9.46242L21.713 9.30145L21.7403 9.30752L21.8041 9.17085L21.8345 9.17996L22.2597 7.97115L22.2779 7.97419L22.2901 7.94382H22.3052V7.97419H22.3204V8.0076H22.3356V8.03493L22.3508 8.03797V8.06834L22.369 8.07138V8.09871L22.3842 8.10175V8.13212L22.3994 8.13516V8.1625L22.4146 8.16553L22.448 8.25665L22.4632 8.26272L22.7487 8.75475V8.78816L22.8094 8.84283V8.87017L22.858 8.90661V8.93395L22.9066 8.97343V9.0038L22.937 9.02203V9.0524L22.9704 9.07062L22.9856 9.11922H23.0008V9.14959L23.0342 9.17996V9.21033L23.0494 9.21337V9.24678L23.0828 9.26196L23.098 9.32271L23.1101 9.32878L23.1435 9.4199L23.1617 9.42294V9.46849H23.1769L23.1921 9.5262L23.2073 9.53228L23.4806 9.90889V9.93926L23.5566 10.0091V10.0395L23.6204 10.0942V10.1215L23.6659 10.1579V10.1853L23.6993 10.2096V10.2399L23.7449 10.2764V10.3068L23.7783 10.3219L23.7935 10.3857L23.8238 10.404L23.8573 10.4951L23.8876 10.5194L23.9028 10.5771L23.918 10.5801L23.9393 10.6409H23.9544V10.6864H23.9696L23.9879 10.7502L24 10.7532L24.0152 10.8261L24.0334 10.8292L24.3007 11.2088V11.2392L24.3797 11.309V11.3364L24.4282 11.3759V11.4032L24.4708 11.4427V11.47L24.5042 11.4882L24.5254 11.5368L24.5406 11.5399V11.5672L24.571 11.5854L24.5862 11.6492L24.6135 11.6674L24.65 11.7616H24.6651V11.7889L24.6803 11.792V11.8254H24.6986V11.8557L24.7137 11.8588L24.7441 11.9499L24.7593 11.9529V11.9955L24.7745 11.9985V12.0258L24.7897 12.0289L24.7957 12.0714L24.8109 12.0744V12.1048L24.8261 12.1078V12.1473L24.8413 12.1534V12.1929L24.8565 12.1989V12.2415L24.8717 12.2445L24.9658 12.3903L25.0448 12.5057L25.06 12.5087L25.0782 12.5543L25.1238 12.5938V12.6181L25.1602 12.6424V12.6697L25.2027 12.7062V12.7335L25.2331 12.7548L25.2513 12.8033H25.2665L25.2847 12.8641L25.3181 12.8884V12.9157L25.3485 12.9491V12.9795H25.3667V13.0099L25.3759 13.0129L25.3789 13.0433L25.4123 13.0615V13.104L25.4275 13.1071V13.1344L25.4427 13.1405L25.4579 13.1982L25.473 13.2012V13.2468H25.4882V13.2772H25.5034L25.5247 13.3561H25.5399V13.3986L25.5551 13.4017L25.7434 13.7388L25.8041 13.7904V13.8238L25.8557 13.8603V13.8876L25.8861 13.9089V13.9362L25.9954 14.1154L26.0258 14.1336V14.164L26.0623 14.2005V14.2248L26.0774 14.2308V14.2582L26.0957 14.2612V14.2946H26.1109V14.3189L26.123 14.322L26.1564 14.4161L26.1716 14.4222L26.4389 14.7988L26.4723 14.8504H26.4875V14.8778L26.5543 14.9294V14.9628L26.5968 15.0023V15.0296L26.6484 15.0661V15.0934L26.6788 15.1177V15.145L26.7092 15.1633L26.7274 15.2088L26.7426 15.2119L26.7578 15.2756L26.7882 15.2939L26.8033 15.3546L26.8823 15.5095H26.9066L26.9036 15.5247L26.855 15.5459V15.5581L26.8276 15.5551V15.5702L26.7912 15.5611L26.7669 15.6006L26.7456 15.5976V15.6279L26.7365 15.6249L26.7122 15.6492L26.6849 15.6462L26.6697 15.6857L26.6241 15.7221L26.6029 15.716V15.7343L26.5756 15.7251V15.7403L26.53 15.7616V15.7889L26.4996 15.8011V15.8284L26.4358 15.8618L26.3569 15.9195V15.9469L26.3417 15.9438V15.9742L26.2961 15.9955V16.0076L26.2627 16.0046L26.2475 16.0319L26.1838 16.0349L26.0258 16.0775L25.9803 16.1109V16.1261L25.9499 16.12V16.1321L25.9165 16.1261L25.8861 16.1655L25.8557 16.1625L25.8375 16.1838H25.8041L25.713 16.2627L25.6826 16.2597L25.634 16.3083L25.5885 16.3144L25.5702 16.3538L25.5247 16.3599V16.3903L25.4761 16.4267L25.4639 16.4207V16.4358L25.4153 16.445L25.4032 16.4662L25.3516 16.4601L25.3394 16.4875L25.309 16.4814V16.4966L25.2756 16.4905V16.5027L25.2118 16.4905V16.5057L25.1147 16.5179V16.533L25.0691 16.5239L25.0721 16.5421L25.0418 16.533L25.0235 16.5604L24.9598 16.5634L24.7957 16.6697L24.5801 16.773L24.2217 16.9491L24.1731 16.9825L23.9879 17.1526L23.9423 17.186L23.7995 17.2043L23.7692 17.2407L23.6264 17.2589L23.6112 17.2863H23.5475L23.5201 17.3257L23.4867 17.3227L23.4715 17.347L23.4047 17.35L23.3743 17.3865L23.3136 17.4199L23.2832 17.4138V17.4412L23.2529 17.4351L23.2194 17.4776L23.183 17.4685L23.1891 17.4837L23.1557 17.4776V17.4898L23.1223 17.5019L23.1253 17.5292L23.0949 17.5384V17.5535L23.0311 17.5566L23.0159 17.5778L22.694 17.6082L22.5118 17.3774L22.4632 17.3409L22.448 17.2984L22.3812 17.2407V17.2134L22.3356 17.1708V17.1496L22.284 17.1071V17.0797L22.2536 17.0585V17.0281L22.2202 17.0099L22.205 16.9522L22.1746 16.9279L22.1595 16.8702L22.1443 16.8671L22.1291 16.8064L22.1139 16.8003V16.776L22.0957 16.7699L22.0683 16.7396L22.0592 16.7365L21.9134 16.5421L21.798 16.4024V16.3842L21.7312 16.3326V16.3083L21.5794 16.1443V16.1169L21.5399 16.0653V16.038L21.5095 16.0167V15.9894L21.47 15.9681V15.9438L21.4427 15.9195V15.8922L21.4123 15.874V15.8436L21.3789 15.8223V15.792H21.3637L21.3455 15.7312L21.3151 15.71L21.2969 15.6492H21.2847L21.224 15.552L21.2088 15.549V15.5034H21.1967L21.1784 15.4396L21.1602 15.4366L20.8626 15.0235V14.9962L20.7866 14.9264V14.896L20.738 14.8595V14.8292L20.6895 14.7927V14.7654L20.6591 14.7472V14.7137L20.6287 14.6955L20.6074 14.65L20.5953 14.6469L20.5619 14.5528L20.5315 14.5346L20.2156 13.9757L20.1974 13.9271L20.0729 13.8056V13.7753L20.0091 13.7236V13.6932L19.9453 13.6386V13.6082L19.915 13.5869L19.8967 13.5414H19.8816V13.5141L19.8512 13.4928V13.4624L19.8178 13.4442V13.4138L19.7904 13.3926V13.3683L19.7084 13.2529V13.2407L19.7175 13.2437L19.7145 13.1708Z" fill="#B2C23E"/>
<path id="Vector_6" d="M22.2901 7.89828V7.91651L22.2718 7.89828H22.2901Z" fill="#81BB45"/>
<path id="Vector_7" d="M19.7084 13.2407H19.6963V13.2346L19.7084 13.2377V13.2407Z" fill="#81BB45"/>
<path id="Vector_8" d="M19.6325 13.1132V13.0707L19.6173 13.0676V13.0372L19.6021 13.0342V13.0069L19.5718 12.9856V12.9583L19.4898 12.8823V12.8672L19.4442 12.8459V12.8155L19.4108 12.8125L19.3956 12.77L19.2832 12.6576V12.6272L19.2225 12.5725V12.5452L19.1557 12.4905V12.4602L19.1101 12.4207V12.3903H19.0919L19.0767 12.3448L19.0281 12.3083L19.0008 12.2172L18.9643 12.1929V12.1656L18.9339 12.1322V12.0987H18.9188V12.0653H18.9005V12.038L18.8853 12.035V12.0046L18.8671 12.0016V11.9742L18.855 11.9681L18.8216 11.877L18.8064 11.874V11.8315L18.7882 11.8284V11.8011L18.7699 11.792L18.5938 11.546V11.5186L18.5664 11.4974V11.4822L18.5361 11.4761L18.5178 11.4457L18.4692 11.4093V11.3759L18.4024 11.3243V11.2908L18.3386 11.2392V11.2088L18.3113 11.1906L18.2931 11.1299L18.2597 11.1086V11.0782L18.2293 11.057L18.1989 10.9659L18.1655 10.9446L18.1473 10.8839L18.1139 10.8626V10.8201L18.1017 10.817V10.7897L18.0835 10.7867V10.7563L18.0683 10.7533V10.7259L18.0562 10.7199L18.0197 10.6287L18.0046 10.6257V10.5832L17.9894 10.5801V10.5498L17.9711 10.5467L17.7312 10.1397V10.1154L17.6522 10.0426V10.0091L17.5885 9.95752L17.5733 9.90892L17.5429 9.88766L17.5216 9.82995L17.4761 9.79047L17.4427 9.69632L17.4123 9.67809V9.65076L17.3819 9.61127V9.58698L17.3607 9.5809V9.55053H17.3516V9.5232L17.3364 9.51712V9.48979L17.3181 9.48675L17.2847 9.3926L17.2665 9.38956L17.2513 9.29844H17.2361L17.221 9.26503L17.2058 9.21644L17.1055 9.02509L17.0569 8.94613L17.0266 8.94309V8.9279L16.981 8.88842V8.85805L16.9446 8.83679V8.80945L16.896 8.76997V8.74567L16.8686 8.7396L16.8504 8.691L16.8352 8.68796L16.82 8.64241L16.7866 8.62115L16.7684 8.5604L16.7259 8.52092L16.6955 8.4298L16.6591 8.40854V8.38121L16.6257 8.34476V8.31743H16.6135V8.28402H16.5983V8.25364L16.5801 8.24757L16.5771 8.2172H16.5649V8.18986L16.5497 8.18683L16.5133 8.09267H16.4981V8.05015L16.4829 8.04408V8.00156L16.4677 7.99852V7.95296H16.4495V7.9074H16.4343V7.86488L16.4191 7.85881V7.81629L16.407 7.81021L16.4009 7.76769L16.3888 7.76465L16.3827 7.70998L16.3675 7.70391V7.6462L16.3523 7.64317L16.3493 7.5885L16.3371 7.58546L16.3189 7.4093L16.3007 7.40323L16.2825 7.10862H16.2703L16.2794 6.77756L16.2976 6.7806L16.3219 6.4951L16.4738 6.04863H16.489L16.5224 5.96663L16.5376 5.96967V5.94233L16.5528 5.94537V5.915L16.568 5.91803V5.89374H16.5862V5.8664H16.6014V5.83907L16.6317 5.81477L16.6257 5.7844L16.6591 5.77225L16.6955 5.69632L16.738 5.67506L16.7502 5.62039L16.7836 5.61128L16.7988 5.57179H16.817L16.8322 5.53231L16.8656 5.54142L16.896 5.48675L16.9051 5.48979V5.45941L16.9841 5.38956L17.0175 5.39563V5.37741L17.0478 5.37134V5.34096L17.0964 5.33793V5.30755L17.1572 5.29237L17.2361 5.21644L17.2635 5.22251V5.21036L17.3455 5.17999L17.3424 5.15266L17.388 5.14355V5.1314L17.4396 5.12532L17.4487 5.10102L17.5156 5.09495L17.549 5.06154L17.6401 5.04636L17.6583 5.01902L17.6856 5.02813L17.7191 5.00383L17.7525 5.00991V4.99472L17.7828 5.0008V4.98561L17.8132 4.99169L17.8284 4.96739L17.8922 4.96131V4.9522L17.9803 4.93702V4.92183L18.0319 4.93094L18.9765 4.91879L19.4806 5.02813V5.03724L19.6507 5.08584L20.0152 5.25592L20.1093 5.28629V5.30148L20.1397 5.30755V5.32274L20.2825 5.3926L20.2976 5.42601L20.328 5.43208L20.3614 5.46549L20.3948 5.47156V5.48675L20.4252 5.48979L20.4434 5.5232L20.4738 5.52927V5.54446L20.5011 5.54749L20.5406 5.58698L20.568 5.59001V5.6052L20.6166 5.62646L20.6317 5.65987L20.7289 5.70543L20.7441 5.73884L20.7927 5.7601V5.77225L20.8352 5.79958V5.82388L20.9142 5.88766V5.89981L20.9506 5.90588L21.0296 6.00611L21.0934 6.04863V6.07597L21.1238 6.08204L21.139 6.1276L21.2513 6.23694V6.26731L21.2969 6.30376V6.33109L21.3455 6.37058V6.39791L21.3789 6.41917L21.3941 6.46777L21.4579 6.5194V6.54977L21.5095 6.58926L21.5399 6.68037L21.5702 6.70163V6.732L21.6036 6.76541V6.79275L21.6158 6.79579V6.82616L21.634 6.82919V6.85653L21.6522 6.8626V6.88994L21.6644 6.89298V6.92335H21.6857L21.7312 7.02054L22.0197 7.52168V7.54901L22.0349 7.55509L22.0683 7.60368L22.1169 7.64013V7.6705L22.1473 7.69176V7.72213L22.1959 7.75554L22.2111 7.81932L22.2566 7.85577L22.2718 7.89222V7.89829L22.2901 7.91651V7.94385L22.2779 7.97422L22.2597 7.97118L21.8345 9.17999L21.8041 9.17088L21.7403 9.30755L21.713 9.30148L21.634 9.46245L21.4488 9.84818L21.4214 9.85425L21.4062 9.997L21.388 9.99396L21.3424 10.1914L21.3121 10.1853L21.2969 10.3129L21.2696 10.3068L21.2513 10.404L21.221 10.3979L21.2058 10.483L21.1754 10.4769L21.0691 10.7168L21.0387 10.7107L21.0205 10.7958L20.9901 10.7897L20.9567 10.8839L20.9324 10.9233L20.8626 10.9962L20.8352 11.0357L20.6834 11.3364L20.6409 11.5186L20.6044 11.5308V11.5855L20.5953 11.5824V11.6553L20.5619 11.6614L20.5467 11.7768L20.5163 11.7859L20.4981 11.8983L20.4708 11.9074L20.4556 12.0076L20.4252 11.9985L20.41 12.0866L20.3766 12.0927V12.123L20.3614 12.117L20.3432 12.1899L20.3159 12.199L20.3189 12.2415L20.2885 12.2476V12.2931L20.2248 12.3964L20.1913 12.3903L20.1306 12.524L20.0972 12.5179L20.0395 12.6394L19.7904 13.0129L19.7145 13.1709L19.7175 13.2438L19.7084 13.2407V13.2377L19.6963 13.2347L19.6507 13.1162L19.6325 13.1132Z" fill="#009194"/>
<path id="Vector_9" d="M32.3098 19.4214L32.3189 19.4366L32.2946 19.4305L32.2885 19.4123L32.3098 19.4093V19.4214Z" fill="#81BB45"/>
<path id="Vector_10" d="M35.3166 14.8292L35.3318 14.8322V14.8656L35.2741 14.7927L35.3166 14.8292Z" fill="#81BB45"/>
<path id="Vector_11" d="M32.2247 19.3455L32.2126 19.2848L32.164 19.2483L32.1488 19.1724L32.1336 19.1693L32.0668 19.0691L31.8633 18.9294V18.899L31.8147 18.8778L31.7995 18.8444L31.7631 18.8413L31.7175 18.7745L31.6841 18.7684L31.6082 18.6773L31.5717 18.6287L31.5444 18.6226L31.4928 18.5406L31.4624 18.5376L31.3834 18.4222L31.3652 18.4161V18.3857L31.268 18.2977V18.2703L31.2407 18.246V18.2157L31.2073 18.1974V18.1701L31.1435 18.1397L31.0281 17.8907L31.0008 17.8816L30.8641 17.5839L30.8337 17.5596V17.5323L30.8185 17.5292L30.8033 17.4381L30.7851 17.4351V17.3926L30.7699 17.3895V17.347L30.7547 17.344V17.3015L30.7396 17.2984L30.7365 17.2377H30.7244L30.7031 17.1435L30.6879 17.1405V17.1132L30.6727 17.1071V17.0524L30.6576 17.0494L30.6545 16.9613L30.6393 16.9583L30.6363 16.8823H30.6241L30.6211 16.7639L30.6059 16.7608L30.3721 15.9651L30.3569 15.8163L30.3417 15.8132V15.7829H30.3265L30.3235 15.6796L30.29 15.6553V15.5004L30.2566 15.4822L30.2506 15.0236L30.284 15.0205V14.8535L30.3143 14.8626L30.3265 14.7229H30.3417V14.6652L30.3569 14.6682V14.5923L30.3872 14.5862V14.5285L30.4206 14.5224L30.4358 14.4222L30.4692 14.4283L30.5087 14.2734L30.5421 14.2794V14.2369L30.5725 14.243L30.7001 14.0486L30.7304 14.0547L30.779 13.9605L30.8094 13.9666V13.9362L30.8398 13.9393L30.9188 13.839L30.9461 13.8451V13.8147L31.0008 13.8269L31.0463 13.7905L31.0402 13.7631L31.0736 13.7692V13.7388L31.104 13.7449L31.1374 13.7084L31.1648 13.7115L31.183 13.6872L31.2285 13.6781V13.6507L31.3075 13.6082L31.4503 13.59V13.5627L31.6082 13.5505V13.5171L31.7479 13.4989L31.7995 13.511V13.4958L31.8299 13.4989V13.4837L31.8876 13.4958L31.9089 13.4715L32.079 13.4898L32.0911 13.4624L32.2369 13.4898L32.2551 13.4624L32.5042 13.511L32.5406 13.4989L32.9628 13.5961V13.6264L33.3151 13.7327V13.7631L33.3941 13.7753V13.8056L33.6522 13.8846L34.2718 14.2187L34.3781 14.2794V14.2946L34.4419 14.3068L34.4571 14.3341L34.5209 14.3493V14.3645L34.5664 14.3736V14.3857L34.6181 14.3949V14.4131L34.6819 14.4222V14.4374L34.9036 14.5346V14.5649L35.2164 14.7411V14.7684L35.2741 14.7927L35.3318 14.8656V14.8747L35.3652 14.8838L35.3804 14.9598H35.3986V15.0205L35.4108 15.0236V15.0479L35.432 15.0539V15.0995H35.4472V15.1633H35.4624V15.1906L35.4776 15.1936V15.2665L35.511 15.2848L35.514 15.3911L35.5444 15.4123V15.546L35.5748 15.5581L35.5778 15.8072L35.6143 16.0076L35.5991 15.9985V16.0592L35.5839 16.0562V16.3083L35.5535 16.3144V16.445L35.5262 16.451V16.5543L35.4928 16.5634V16.6393L35.4776 16.6363V16.6636L35.4624 16.6606V16.7183L35.4503 16.7153V16.7457L35.4351 16.7426L35.4169 16.8428L35.4017 16.8368L35.3895 16.9066L35.3561 16.9036V16.9613L35.3257 16.9552V17.0129L35.2923 17.0069L35.265 17.104L35.2316 17.098L35.2043 17.1769L35.1557 17.1982V17.2438L35.0919 17.3197L35.0585 17.3136L35.0615 17.3409L35.0311 17.3379V17.3683L35.0038 17.3592L34.8884 17.4989L34.858 17.4958V17.5232L34.7153 17.5839V17.6113L34.6211 17.6386V17.669L34.3569 17.8664L34.3235 17.8603L34.3265 17.9059L34.2961 17.9119V17.9423L34.2445 17.9636V17.9879L34.1959 18.0122V18.0395L34.1382 18.0729L34.1078 18.1094V18.1397L34.0774 18.1337L34.0137 18.1944L33.9985 18.1914V18.2217L33.9499 18.24L33.9347 18.2673L33.9043 18.2612L33.4032 18.6318L33.388 18.6287L33.3728 18.6712L33.3424 18.6803V18.7077L33.3121 18.7168V18.7472L33.2787 18.7563V18.7836L33.2301 18.8049V18.8383L33.1845 18.8535L33.1693 18.896L33.1055 18.9294L33.0114 18.9993L33.0144 19.0266L32.9628 19.0357L32.8717 19.1207L32.8413 19.1116L32.8231 19.139L32.7927 19.1299L32.7502 19.1815L32.6986 19.1876L32.6803 19.2149L32.656 19.2088L32.6348 19.2331L32.6074 19.2301L32.5923 19.2544L32.5619 19.2483V19.2635L32.5163 19.2696L32.4981 19.2969L32.4647 19.2908L32.4343 19.3273L32.4039 19.3212L32.3189 19.4062L32.325 19.4366H32.3189L32.3098 19.4214V19.4093L32.2885 19.4123L32.246 19.3485L32.2247 19.3455Z" fill="#59B35A"/>
<path id="Vector_12" d="M22.691 17.6143L22.6849 17.6082H22.694L22.7001 17.6143H22.691Z" fill="#81BB45"/>
<path id="Vector_13" d="M23.0311 17.5566L23.0949 17.5536V17.5384L23.1253 17.5293L23.1222 17.5019L23.1557 17.4898V17.4776L23.1891 17.4837L23.183 17.4685L23.2194 17.4776L23.2528 17.4351L23.2832 17.4412V17.4138L23.3136 17.4199L23.3743 17.3865L23.4047 17.3501L23.4715 17.347L23.4867 17.3227L23.5201 17.3258L23.5475 17.2863H23.6112L23.6264 17.259L23.7692 17.2407L23.7995 17.2043L23.9423 17.1861L23.9879 17.1526L24.1731 16.9826L24.2217 16.9492L24.5042 16.7821L24.5558 16.7912V16.7639L24.7714 16.6606L24.9598 16.5634L25.0235 16.5604L25.0418 16.5331L25.0721 16.5422L25.0691 16.5239L25.1147 16.5331V16.5179L25.2118 16.5057V16.4905L25.2756 16.5027V16.4905L25.309 16.4966V16.4814L25.3394 16.4875L25.3516 16.4602L25.4032 16.4662L25.4153 16.445L25.4639 16.4359V16.4207L25.4761 16.4268L25.5247 16.3903V16.3599L25.5702 16.3539L25.5885 16.3144L25.634 16.3083L25.6826 16.2597L25.713 16.2627L25.8041 16.1838H25.8375L25.8557 16.1625L25.8861 16.1656L25.9165 16.1261L25.9499 16.1321V16.12L25.9803 16.1261V16.1109L26.0258 16.0775L26.1838 16.035L26.4358 15.8618L26.4996 15.8284V15.8011L26.53 15.7889V15.7616L26.5756 15.7403V15.7252L26.6029 15.7343V15.7161L26.6241 15.7221L26.6697 15.6857L26.6849 15.6462L26.7122 15.6492L26.7365 15.6249L26.7456 15.628V15.5976L26.7669 15.6006L26.7912 15.5612L26.8276 15.5703V15.5551L26.855 15.5581V15.546L26.9036 15.5247L26.9066 15.5095H26.9188V15.5126V15.546L26.9856 15.5855V15.6128L27.1101 15.71V15.7403L27.1435 15.7434V15.7738L27.1769 15.7829V15.8072L27.2073 15.8163L27.2103 15.8436L27.2407 15.8527L27.3166 15.9803L27.35 15.9864L27.3865 16.0623L27.4199 16.0744V16.0987L27.4472 16.1048L27.5596 16.284L27.7874 16.5331V16.5634L27.8481 16.5877V16.6151L27.9271 16.6606V16.688L27.9575 16.694V16.7244L27.9909 16.7305L27.9939 16.7608L28.0729 16.8459L28.1063 16.852V16.8823L28.1367 16.8884V16.9157L28.167 16.9218L28.2794 17.1041L28.3128 17.1071V17.1405L28.3432 17.1435V17.1861L28.3736 17.1952L28.7897 17.6629V17.6933L28.8231 17.6993L28.8717 17.7783L28.9021 17.7844L28.9051 17.8178L28.9355 17.8239L28.9841 17.9028L29.0144 17.9059V17.9393L29.0448 17.9423L29.0964 18.0547L29.1298 18.0608V18.0942L29.1602 18.0972L29.2088 18.2035L29.2392 18.2126V18.2552L29.2696 18.2612L29.2878 18.3068L29.303 18.3098L29.3212 18.3858L29.3516 18.407V18.4374L29.385 18.4586V18.5012L29.4184 18.5194L29.4336 18.6135L29.467 18.6287V18.6925H29.4791L29.4973 18.7684L29.5308 18.7745L29.549 18.9233L29.5642 18.9294V18.9567H29.5793V19.0448L29.6128 19.0661L29.6948 19.3455L29.7282 19.3485L29.7585 19.4731L29.7889 19.4761L29.8102 19.5824L29.8405 19.5885L29.8588 19.7373L29.8891 19.7464L29.9408 20.2597H29.9256L29.9317 20.4905L29.9134 20.4875V20.5908L29.8983 20.5877V20.6758L29.8709 20.6819L29.8588 20.7973L29.8254 20.7912L29.7494 21.022L29.713 21.016L29.5945 21.2316L29.5611 21.2377L29.5429 21.2347L29.5459 21.2772L29.5125 21.2741V21.2893L29.4518 21.3227L29.4032 21.3531L29.4093 21.3987L29.2938 21.4321V21.4594L29.2878 21.4564L29.2817 21.4624H29.2787L29.2513 21.4776H29.2392L29.2118 21.4989L29.1815 21.4959V21.508L29.1481 21.5019V21.5171L29.1177 21.511L29.1025 21.5384L29.0084 21.5505L28.9901 21.5748L28.9628 21.5687L28.9476 21.5961L28.8656 21.6416L28.8231 21.6386V21.669L28.5406 21.6872V21.7145L28.2369 21.6902V21.7054L28.2065 21.6993V21.7115L28.003 21.6781L27.4351 21.511V21.4807L27.3075 21.4473L27.2923 21.4138L27.2559 21.4078V21.3896L27.1769 21.3774V21.3592L27.1283 21.3531V21.3379L26.9734 21.3136L26.9582 21.2802L26.7821 21.2468L26.7669 21.2164L26.6545 21.1921V21.18L26.5938 21.1678V21.1526L26.5482 21.1435V21.1284L26.4632 21.1162L26.448 21.0828L26.369 21.0646V21.0403L26.3052 21.0251L26.2901 20.9947L26.1807 20.9613V20.9309L26.1139 20.9188V20.8884L26.0501 20.8641V20.852L26.0015 20.8368V20.8246L25.9256 20.7821V20.7517L25.874 20.7426V20.7153L25.6219 20.4905L25.5915 20.4875V20.4571L25.5095 20.3691L25.4761 20.366V20.3356L25.4487 20.3296V20.3022L25.142 20.0562L25.0782 20.0107L25.0661 19.9833L25.0326 19.9742V19.9621L24.9992 19.956V19.9438L24.9355 19.8892L24.7259 19.7464V19.7191L24.6986 19.713V19.6796L24.65 19.6735V19.6432L24.6135 19.6371V19.6097L24.4434 19.4184L24.41 19.4123V19.382L24.1033 19.0661V19.0357L24.0456 19.0236V18.9962L23.9939 18.9689V18.9567L23.9636 18.9507L23.9453 18.9203L23.8998 18.9082L23.8815 18.8778L23.7722 18.814V18.7836L23.7418 18.7776V18.7472L23.6598 18.7047V18.6773L23.6295 18.6682L23.6264 18.6378L23.4989 18.5437V18.5133L23.4655 18.5103L23.3895 18.3797L23.3561 18.3706V18.3432L23.3257 18.3372L23.2893 18.2582L23.2589 18.2521V18.2248L23.2286 18.2157V18.1762L23.1982 18.1519V18.1246L23.183 18.1215L23.1496 18.0426L23.1131 18.0365V17.994L23.0828 17.9848L23.0342 17.9362L23.019 17.9028V17.8907L22.9734 17.8785V17.8482L22.8428 17.7692V17.7419L22.7183 17.6568V17.6295L22.691 17.6143H22.7001L22.694 17.6082L23.0159 17.5779L23.0311 17.5566Z" fill="#5CA038"/>
</g>
<defs>
<clipPath id="clip0_2544_7859">
<rect width="44" height="27.3349" fill="white" transform="translate(0 0.332581)"/>
</clipPath>
</defs>
</svg>
