<svg width="44" height="26" viewBox="0 0 44 26" fill="none" xmlns="http://www.w3.org/2000/svg">
<g id="Frame" clip-path="url(#clip0_2544_7733)">
<path id="Vector" d="M9.61863 20.5011C9.30017 22.2504 10.1952 22.8133 11.7497 22.8133C12.8515 22.8133 14.0876 22.3953 14.3366 21.292C14.6385 19.9819 12.684 19.7314 10.7944 19.1247C8.90474 18.5179 7.03927 17.5641 7.65807 14.8353C8.3946 11.5873 11.7693 10.315 14.4045 10.315C17.1982 10.315 19.687 11.7533 18.9445 15.1085H15.2875C15.6527 13.7501 14.5509 13.3154 13.4311 13.3154C12.6432 13.3154 11.5943 13.6052 11.3739 14.5863C11.1128 15.7318 13.0915 15.9446 14.9962 16.5483C16.9009 17.152 18.703 18.1497 18.0962 20.8362C17.2405 24.6094 13.9382 25.8168 10.8517 25.8168C7.62487 25.8168 5.11645 24.3181 5.95561 20.5072L9.61863 20.5011Z" fill="#005EA1"/>
<path id="Vector_2" d="M34.9292 10.6274H38.5862L35.216 25.4983H31.556L34.9292 10.6274Z" fill="#005EA1"/>
<path id="Vector_3" d="M21.5978 10.6289H28.1646C30.5931 10.5882 33.097 11.2522 32.3906 14.3568C32.0888 15.6895 31.0957 16.7717 29.8626 17.3558C31.2541 17.8086 31.8669 19.1895 31.485 20.8754C30.6851 24.4177 27.982 25.5044 24.9725 25.5044H18.2276L21.5978 10.6289ZM23.9281 16.4819H26.7595C27.3889 16.4819 28.3337 16.1257 28.5706 15.0647C28.8076 14.0037 28.1707 13.6263 27.404 13.6263H24.5741L23.9281 16.4819ZM22.5863 22.3953H25.5189C26.678 22.3953 27.5821 21.9561 27.8628 20.735C28.1646 19.422 27.3934 18.9843 26.2916 18.9843H23.3606L22.5863 22.3953Z" fill="#005EA1"/>
<path id="Vector_4" d="M43.6951 4.65783C41.6727 -0.712181 30.1026 -1.32495 17.8563 3.28741C9.12208 6.57764 2.40428 11.6382 0 16.2204C3.32041 12.7491 8.69043 9.33811 15.1667 6.8961C27.4145 2.28223 38.9832 2.89651 41.0056 8.26803C41.5882 9.80749 41.318 11.5718 40.3506 13.4162C43.3118 10.3252 44.6475 7.18739 43.6951 4.66236" fill="#EE303C"/>
</g>
<defs>
<clipPath id="clip0_2544_7733">
<rect width="44" height="25.6215" fill="white" transform="translate(0 0.189224)"/>
</clipPath>
</defs>
</svg>
