<svg width="44" height="40" viewBox="0 0 44 40" fill="none" xmlns="http://www.w3.org/2000/svg">
<g id="Frame" clip-path="url(#clip0_2544_7703)">
<path id="Vector" d="M28.8062 23.6931C28.7036 23.0937 28.5291 22.5086 28.2865 21.9505C27.5816 20.2934 26.3727 18.8977 24.8298 17.9595C23.6111 17.2448 22.2205 16.8726 20.806 16.8825C19.3916 16.8924 18.0063 17.284 16.7979 18.0157C15.6722 18.6872 14.7598 19.6615 14.1658 20.8263C13.9637 21.2244 13.7937 21.638 13.6575 22.063C13.2898 23.1667 13.1493 24.3328 13.2444 25.4918C13.3395 26.6507 13.6683 27.7787 14.211 28.8084C14.5824 29.4386 15.1492 29.9318 15.8264 30.2138C16.1644 30.3539 16.5308 30.4127 16.8959 30.3853C17.261 30.358 17.6145 30.2453 17.9276 30.0564C18.2721 29.7844 18.5293 29.4182 18.6678 29.0028C18.8062 28.5875 18.8199 28.1409 18.7071 27.7179C18.4447 26.6432 18.472 25.5185 18.7861 24.4576C18.9108 24.1108 19.1115 23.7959 19.3735 23.5357C19.5363 23.3797 19.7232 23.2506 19.9271 23.1535C20.3527 22.9406 20.8336 22.8621 21.3053 22.9286C21.7145 23.0166 22.0969 23.2001 22.421 23.464C22.745 23.7279 23.0015 24.0646 23.1692 24.4464C23.4829 25.1947 23.6479 25.9965 23.6549 26.8073C23.6607 30.4686 23.1162 34.1102 22.0395 37.6113C21.9379 37.971 21.8362 38.3196 21.7458 38.6793C21.6554 39.0391 21.5199 39.2977 21.7458 39.5675C21.8247 39.6789 21.9347 39.7649 22.0621 39.8148C22.6044 40.0284 23.0336 39.7024 23.3951 39.3426C25.4471 37.1552 26.9593 34.5225 27.8121 31.6528C28.167 30.6012 28.4501 29.527 28.6593 28.4375C28.982 26.8652 29.0393 25.2504 28.8287 23.6594" fill="#008375"/>
<path id="Vector_2" d="M43.9887 7.03185C43.9846 6.90821 43.9552 6.78669 43.9023 6.67473C43.8494 6.56277 43.7741 6.46272 43.6811 6.38066C43.5881 6.2986 43.4793 6.23626 43.3612 6.19745C43.2432 6.15864 43.1184 6.14418 42.9946 6.15494C42.4741 6.2266 41.9698 6.38627 41.5035 6.6271C31.9869 10.0167 21.7677 10.9754 11.7823 9.41524C10.0991 9.16791 8.39332 8.84188 6.69884 8.57206C5.63696 8.40342 4.58639 8.16734 3.52451 8.08864C2.56439 7.9053 1.57015 8.09434 0.745568 8.61704C0.321982 9.08063 0.0592951 9.6674 -0.00375638 10.2909C-0.0668079 10.9143 0.0731163 11.5414 0.395378 12.0797C1.11489 13.3061 2.15797 14.3131 3.41155 14.9915C4.57501 15.812 5.95192 16.2805 7.37663 16.3406C11.1421 16.0933 14.9077 15.7185 18.6732 15.2164C25.0557 14.3957 31.732 13.6199 37.7304 11.1578C39.7149 10.3724 41.5843 9.32494 43.2883 8.04366C43.5933 7.81881 44.0339 7.43658 44.0339 6.99812" fill="#008375"/>
<path id="Vector_3" d="M17.2159 3.85021C17.2159 4.81925 17.6027 5.74861 18.2912 6.43383C18.9797 7.11905 19.9136 7.504 20.8873 7.504C21.861 7.504 22.7948 7.11905 23.4833 6.43383C24.1719 5.74861 24.5587 4.81925 24.5587 3.85021C24.5581 3.54763 24.4926 3.24866 24.3666 2.9733C24.0503 2.30999 23.6888 1.98396 23.734 1.18575C23.734 0.117718 22.3897 0.0615055 21.6442 0.0615055C20.8153 0.0346288 19.9915 0.200164 19.238 0.544957C18.6528 0.841362 18.1576 1.28763 17.8033 1.83783C17.4319 2.39941 17.2282 3.05434 17.2159 3.72656V3.81648" fill="#D50037"/>
</g>
<defs>
<clipPath id="clip0_2544_7703">
<rect width="44" height="39.8095" fill="white" transform="translate(0 0.0952454)"/>
</clipPath>
</defs>
</svg>
