<svg width="44" height="32" viewBox="0 0 44 32" fill="none" xmlns="http://www.w3.org/2000/svg">
<g id="Frame" clip-path="url(#clip0_2544_7742)">
<path id="Vector" d="M22.0084 0.45636C8.74716 0.45636 0.00561523 7.41586 0.00561523 16.0056C0.00561523 24.5954 8.74154 31.5492 22.0084 31.5492C35.2753 31.5492 44.0056 24.5841 44.0056 16.0056C44.0056 7.4271 35.2641 0.45636 22.0084 0.45636Z" fill="white"/>
<path id="Vector_2" d="M25.9435 21.8127C29.7212 21.1549 42.4765 18.5297 40.9025 11.2554C40.3403 8.64134 37.6532 5.76872 33.5945 3.77306C29.9227 2.19548 25.9594 1.4101 21.9635 1.46822C9.65785 1.46822 1.09619 7.978 1.09619 16.0056C1.09619 21.5934 5.25053 26.4448 11.9346 28.8734C13.3343 25.1406 18.9784 23.0157 25.9435 21.8127Z" fill="#007DC5"/>
<path id="Vector_3" d="M22.0084 24.3874C16.4824 25.0788 13.9527 26.8609 12.3281 29.0252C15.4218 30.0532 18.6642 30.5623 21.9241 30.5318C34.2353 30.5318 42.797 24.0276 42.797 16.0056C42.7969 15.3021 42.7311 14.6001 42.6002 13.9088C42.2124 23.3305 28.0685 23.6341 22.0084 24.3874Z" fill="url(#paint0_linear_2544_7742)"/>
<path id="Vector_4" d="M10.0682 8.41653H5.94202L5.98698 8.53458C6.15098 9.17861 6.20608 9.84555 6.15001 10.5078C6.15001 10.6764 6.15001 20.0644 6.15001 20.0644H6.2287C6.2287 20.0644 8.11194 20.1319 9.87711 20.1319C13.5649 20.1319 16.0608 17.6359 16.0608 13.9144C16.0384 10.564 13.6942 8.41653 10.0682 8.41653ZM7.91517 9.45653C8.15128 9.45653 8.88208 9.38344 9.40489 9.38344C12.5586 9.38344 14.0258 10.9125 14.0258 14.1899C14.0258 17.5628 12.7216 19.2493 10.0401 19.2493C8.07258 19.2493 7.91517 19.1537 7.91517 17.9901V9.45653Z" fill="white"/>
<path id="Vector_5" d="M27.1184 19.9576C27.0566 19.2718 27.0285 18.8333 27.0285 18.4117V14.336H25.0722L25.134 14.4653C25.29 14.862 25.3571 15.2879 25.3308 15.7133C25.3308 15.7414 25.3308 18.5241 25.2633 19.2043C24.7648 19.3137 24.2558 19.3683 23.7455 19.3673C20.6311 19.3673 19.0515 17.5797 19.0515 14.0606C19.0515 11.3735 20.8279 9.36656 23.3745 9.18105C24.6043 9.05296 25.8363 9.40324 26.8149 10.1592L26.9554 10.2829V8.63575H26.8879C26.0043 8.44458 25.1046 8.33731 24.2008 8.31534C19.7036 8.31534 17.0446 10.6708 17.0446 14.6227C17.0446 18.8277 20.3107 20.3286 23.3688 20.3286C24.5994 20.3326 25.8285 20.2424 27.0453 20.0588H27.124L27.1184 19.9576Z" fill="white"/>
<path id="Vector_6" d="M34.1173 13.6558C34.733 13.5073 35.2823 13.1594 35.6798 12.6663C36.0774 12.1732 36.3008 11.5626 36.3153 10.9294C36.3153 9.35534 34.8931 8.41653 32.5151 8.41653H28.9848V8.51772C29.0744 9.02598 29.1102 9.54228 29.0916 10.058V20.1375H29.1759C29.1759 20.1375 30.5645 20.1094 32.2678 20.1094C35.236 20.1094 36.9393 18.8221 36.9393 16.5734C36.9618 15.1849 35.8094 14.0212 34.1173 13.6558ZM30.8736 14.218H31.7844C33.8868 14.218 34.9549 15.0444 34.9549 16.6746C34.9549 18.3049 34.0386 19.2268 32.1441 19.2268C31.2334 19.2268 30.8736 18.8951 30.8736 18.0463V14.218ZM30.8736 9.3216H32.0261C33.8418 9.3216 34.6176 9.88377 34.6176 11.1599C34.6176 12.6215 33.6676 13.3073 31.6213 13.3073H30.868L30.8736 9.3216Z" fill="white"/>
</g>
<defs>
<linearGradient id="paint0_linear_2544_7742" x1="11.8278" y1="22.2175" x2="43.05" y2="22.2175" gradientUnits="userSpaceOnUse">
<stop offset="0.1" stop-color="#007DC5"/>
<stop offset="0.23" stop-color="#0083CB"/>
<stop offset="0.4" stop-color="#0095DA"/>
<stop offset="0.75" stop-color="#00B49D"/>
<stop offset="1" stop-color="#72BF44"/>
</linearGradient>
<clipPath id="clip0_2544_7742">
<rect width="44" height="31.0873" fill="white" transform="translate(0 0.45636)"/>
</clipPath>
</defs>
</svg>
