<svg width="44" height="34" viewBox="0 0 44 34" fill="none" xmlns="http://www.w3.org/2000/svg">
<g id="Frame 694">
<path id="Vector" d="M43.2397 17.4237L42.8623 17.1629C42.1241 16.4369 41.2476 15.8951 40.2947 15.5756C39.3417 15.2562 38.3355 15.167 37.3472 15.3143C35.6267 15.468 33.9689 16.0839 32.5242 17.1061V17.0154C32.5377 16.3024 32.5867 15.5907 32.6709 14.8833C32.7339 14.1462 32.8072 13.4091 32.8072 12.7059C32.8295 12.0327 32.7261 11.3616 32.5032 10.7326C32.4765 10.6582 32.4286 10.595 32.3663 10.5521C32.3041 10.5093 32.2308 10.4891 32.1572 10.4945C31.3704 10.5745 30.6105 10.8459 29.9344 11.2883L29.7666 11.6739C29.7638 12.7532 29.6548 13.829 29.4416 14.8833C29.4184 14.9757 29.3904 15.0666 29.3577 15.1555C29.0958 17.8699 29.0958 20.6065 29.3577 23.3209C29.3577 23.5477 29.8086 23.8993 30.1231 24.0354C30.8435 24.0545 31.5591 23.9035 32.2201 23.5931H32.4612C32.5093 23.5863 32.5556 23.5689 32.5973 23.5421C32.639 23.5153 32.6751 23.4796 32.7036 23.4371C32.732 23.3946 32.7522 23.3463 32.7628 23.2952C32.7734 23.244 32.7743 23.191 32.7653 23.1395V22.4703C33.0522 21.3062 33.623 20.2468 34.4179 19.403C35.2129 18.5591 36.2028 17.9616 37.2843 17.6732C37.8248 17.5466 38.3866 17.5764 38.9131 17.7596C39.4396 17.9428 39.9121 18.2729 40.283 18.7165C40.5231 19.844 40.3462 21.0283 39.7902 22.0167C39.007 23.4036 37.7908 24.4415 36.3616 24.9426C34.6822 25.5899 32.8984 25.86 31.1192 25.7365C31.0248 25.6798 29.1795 24.3303 29.1795 24.3303C27.4737 22.9211 25.6231 21.73 23.6644 20.7806C23.2143 20.5089 22.7925 20.1858 22.4062 19.8166L22.228 19.6465C21.1795 18.7166 19.1349 17.2649 17.5098 16.0968L16.6395 15.4504V15.2576C16.6395 15.2009 17.688 14.5431 17.688 14.5431C18.4854 14.1172 19.2318 13.5878 19.9108 12.9667L20.11 12.842L23.6539 10.6646C27.051 8.6459 30.9095 6.35507 32.9331 4.08691L33.0274 3.73534V3.42912C33.1476 3.01183 33.1476 2.56492 33.0274 2.14764C33.0142 2.07478 32.9812 2.00782 32.9326 1.95531C32.8841 1.9028 32.8222 1.86712 32.7548 1.85276C31.1716 1.68265 29.1375 2.70333 27.2817 4.5859C26.9385 4.92767 26.554 5.21758 26.1389 5.44778L25.8558 5.60657C23.7588 6.8654 19.1979 9.96145 16.7863 11.6399C17.0143 8.23758 17.4239 4.85237 18.0131 1.5012L17.9501 1.10427L17.6985 0.605268L17.5098 0.242354C17.1467 0.0508425 16.7284 0.022334 16.346 0.162995L15.8637 0.355769L15.2241 0.605268C15.1631 0.619286 15.1063 0.649399 15.0588 0.692934C15.0112 0.736469 14.9743 0.792073 14.9515 0.854767C13.6454 4.6892 12.8579 8.70747 12.6133 12.7853C10.8456 11.5856 9.01853 10.4915 7.14022 9.50781H7.0144C6.55522 9.38397 6.12142 9.1686 5.73524 8.87273L4.86499 8.26031L3.52293 7.33036L3.16644 7.23965C2.38456 7.50702 1.6897 8.0107 1.16382 8.69127C1.1238 8.76327 1.1021 8.84542 1.10092 8.92942C1.11074 9.04491 1.13182 9.15897 1.16382 9.26966L1.22674 9.5645L1.28965 9.74596C2.47876 10.8246 3.78503 11.7424 5.17954 12.4791L7.0144 13.5338L9.83484 15.1896L10.3171 15.6092L10.6422 15.8133H10.7051C9.95017 16.3463 5.58845 19.5104 5.58845 19.5104L2.84141 21.5517C2.33796 21.8502 1.81995 22.119 1.28965 22.3569C0.77966 22.5501 0.348983 22.9316 0.073394 23.4343L0 23.6044L0.073394 23.7178L0.283097 23.8879L0.555698 24.0808L0.859761 24.2962L1.13237 24.3529C2.00517 24.2249 2.84804 23.921 3.61729 23.457C4.82306 22.8786 8.09435 20.7465 9.49932 19.8393L10.097 19.4424C10.3814 19.4008 10.6459 19.2616 10.8519 19.0454C11.2474 18.7292 11.6685 18.4521 12.1101 18.2175C12.1101 18.2175 12.3407 18.0815 12.5399 17.968V18.1495C12.5155 21.6979 12.7751 25.2419 13.3158 28.7418V28.8552C13.6397 29.6326 13.8824 30.4466 14.0393 31.2821L14.5635 33.2101L14.7208 33.3916C15.2777 33.7524 15.917 33.9371 16.5661 33.9246H16.7234L16.8178 33.6864C16.8696 33.395 16.8942 33.0986 16.8912 32.8018C16.8912 32.4503 16.8912 32.0647 16.8912 31.5884V30.8966C16.692 27.6644 16.5032 22.958 16.5032 19.896V19.6465L19.2293 21.5064C23.0039 24.1488 28.6657 28.1634 32.1572 29.2181C32.2439 29.2461 32.3358 29.2493 32.424 29.2274C32.5122 29.2056 32.5937 29.1594 32.6605 29.0934L33.1952 28.7305H33.2896C33.4074 28.6272 33.5012 28.4954 33.5631 28.3456C33.625 28.1959 33.6535 28.0324 33.646 27.8686C36.5504 27.7212 40.608 26.5077 42.7784 23.5591C43.5537 22.4904 43.9812 21.1749 43.9946 19.8166C44.041 18.9887 43.785 18.1742 43.2817 17.5484" fill="#FCAF17"/>
</g>
</svg>
