<svg width="44" height="30" viewBox="0 0 44 30" fill="none" xmlns="http://www.w3.org/2000/svg">
<g id="Frame" clip-path="url(#clip0_2544_7724)">
<path id="Vector" d="M13.4188 23.7102L13.3344 23.7886C12.7962 24.39 12.1415 24.8759 11.4099 25.2168C10.6784 25.5577 9.88521 25.7465 9.07851 25.7718C5.91973 25.7718 3.62296 23.3967 3.62296 20.1234C3.62296 16.8501 5.91973 14.481 9.07851 14.481C9.88521 14.5063 10.6784 14.6951 11.4099 15.036C12.1415 15.3769 12.7962 15.8628 13.3344 16.4642L13.4188 16.5486L15.4503 14.0831L15.3961 14.0228C14.6593 13.0819 13.7149 12.3241 12.6368 11.8086C11.5587 11.293 10.3759 11.0337 9.18098 11.0509C6.81202 10.9992 4.51074 11.843 2.73681 13.414C0.983082 15.2082 0.00119019 17.6175 0.00119019 20.1264C0.00119019 22.6353 0.983082 25.0446 2.73681 26.8388C4.50918 28.4124 6.81152 29.2566 9.18098 29.2019C10.3753 29.2189 11.5574 28.9601 12.6353 28.4457C13.7133 27.9313 14.658 27.1751 15.3961 26.236L15.4503 26.1697L13.4188 23.7102Z" fill="#004785"/>
<path id="Vector_2" d="M21.0987 11.3168H17.5059V28.8529H21.0987V11.3168Z" fill="#004785"/>
<path id="Vector_3" d="M35.1686 25.0307C34.3826 25.563 33.4646 25.8676 32.5162 25.9108C31.3528 25.9108 30.8343 25.308 30.8343 23.9336V14.632H34.4935V11.3286H30.8343V5.87299L27.3078 7.75383V11.3286H24.2937V14.632H27.3078V24.5303C27.3078 27.225 28.9053 29.0636 31.2925 29.1118C32.4118 29.17 33.5227 28.8907 34.4814 28.31H34.5176L35.4098 24.9162L35.1686 25.0307Z" fill="#004785"/>
<path id="Vector_4" d="M41.7335 11.3168H38.1407V28.8529H41.7335V11.3168Z" fill="#004785"/>
<path id="Vector_5" d="M43.8493 8.23675C42.2412 5.94456 40.1047 4.0734 37.6205 2.78162C35.1363 1.48983 32.3775 0.815414 29.5775 0.815414C26.7775 0.815414 24.0187 1.48983 21.5344 2.78162C19.0502 4.0734 16.9137 5.94456 15.3056 8.23675L15.1369 8.47182H19.2662L19.3144 8.42362C20.6317 7.02276 22.2219 5.90639 23.9869 5.14331C25.752 4.38022 27.6545 3.98656 29.5775 3.98656C31.5004 3.98656 33.403 4.38022 35.168 5.14331C36.9331 5.90639 38.5232 7.02276 39.8405 8.42362L39.8887 8.47182H44.0181L43.8493 8.23675Z" fill="#ED1C2E"/>
</g>
<defs>
<clipPath id="clip0_2544_7724">
<rect width="44" height="28.3688" fill="white" transform="translate(0 0.815475)"/>
</clipPath>
</defs>
</svg>
