<svg width="44" height="44" viewBox="0 0 44 44" fill="none" xmlns="http://www.w3.org/2000/svg">
<g id="Frame" clip-path="url(#clip0_2544_7708)">
<path id="Vector" d="M43.7446 15.9921C44.1596 14.7389 44.0602 13.3722 43.4681 12.1923C42.8759 11.0124 41.8396 10.1159 40.5868 9.69973L14.5119 0.946158C13.8912 0.735524 13.2349 0.650659 12.5811 0.696505C11.9273 0.74235 11.2891 0.918002 10.704 1.21319" fill="white"/>
<path id="Vector_2" d="M10.704 1.21317C9.5232 1.80408 8.6254 2.83968 8.20793 4.09232L0.255422 27.9963C-0.156419 29.2495 -0.0554615 30.6148 0.536235 31.7939C1.12793 32.9729 2.16226 33.8698 3.41321 34.2886L29.4998 43.0422C30.1208 43.2503 30.7769 43.3338 31.4303 43.288C32.0837 43.2421 32.7217 43.0679 33.3077 42.7752C33.8924 42.4845 34.4133 42.0802 34.8399 41.5858C35.2665 41.0915 35.5902 40.517 35.7921 39.896L43.7562 15.992" fill="white"/>
<path id="Vector_3" d="M23.4628 24.1768C22.0273 25.7854 20.2338 27.0341 18.2269 27.8221L17.066 28.2749V17.1994L18.2269 17.6522C20.2364 18.4361 22.0337 19.6808 23.4744 21.286C24.3862 19.7943 24.9611 18.1215 25.159 16.3844C25.3569 14.6474 25.173 12.8881 24.6201 11.2295C24.0673 9.57095 23.1588 8.05317 21.9583 6.78228C20.7577 5.51138 19.2941 4.51806 17.6697 3.87175L13.8618 2.57149C13.4585 2.43917 13.0332 2.38766 12.61 2.41993C12.1868 2.4522 11.7742 2.56762 11.3957 2.75957C11.0172 2.95152 10.6803 3.21623 10.4042 3.53856C10.1281 3.86088 9.91832 4.23448 9.78682 4.63798L1.8111 28.5652C1.55069 29.3889 1.62519 30.282 2.01848 31.0512C2.41176 31.8204 3.09218 32.4037 3.91242 32.6749L22.0116 38.7119C23.8168 36.7844 24.9352 34.3149 25.1934 31.6867C25.4516 29.0586 24.8351 26.4187 23.4396 24.1768H23.4628ZM12.991 16.5377V28.9599H11.1916V16.5725L12.991 16.5377Z" fill="#2293C8"/>
<path id="Vector_4" d="M22.418 22.7256C21.3986 21.535 20.1613 20.5499 18.7726 19.8232V25.6279C20.1672 24.8953 21.4055 23.8976 22.418 22.6907" fill="#E43D30"/>
<path id="Vector_5" d="M40.018 11.2902L23.4048 5.74088C25.4916 8.02288 26.7427 10.9452 26.9535 14.0303C27.1644 17.1154 26.3226 20.1808 24.5657 22.7256C26.2729 25.1943 27.1205 28.156 26.9778 31.1541C26.8351 34.1522 25.7101 37.0201 23.7763 39.3155L30.0222 41.3937C30.4253 41.5276 30.8511 41.5803 31.2747 41.5487C31.6984 41.5172 32.1116 41.402 32.4904 41.2099C32.8693 41.0178 33.2064 40.7525 33.4822 40.4293C33.7579 40.1061 33.9669 39.7316 34.0971 39.3272L42.1077 15.4116C42.3718 14.5894 42.3003 13.6962 41.9089 12.9265C41.5175 12.1567 40.8379 11.5728 40.018 11.3018V11.2902ZM35.618 28.9366H33.3657L28.7219 22.7256L33.3657 16.5261H35.6876L31.0438 22.7488L35.618 28.9366Z" fill="#215C9C"/>
</g>
<defs>
<clipPath id="clip0_2544_7708">
<rect width="44" height="42.6185" fill="white" transform="translate(1.52588e-05 0.690735)"/>
</clipPath>
</defs>
</svg>
