<svg width="44" height="40" viewBox="0 0 44 40" fill="none" xmlns="http://www.w3.org/2000/svg">
<g id="Frame 696">
<path id="Vector" d="M25.0312 0.829865C34.5523 0.932242 42.7425 8.09865 43.8686 17.7733C45.0972 28.3182 37.5724 37.8392 26.9764 39.0166C26.2598 39.119 25.4919 39.1701 24.7753 39.1701H24.5705C17.916 39.0678 11.9781 35.1774 8.85563 29.2395L0 34.3584C0 25.1956 3.94152 10.1462 14.8959 3.59405C14.9471 3.59405 14.9983 3.54286 15.0495 3.54286C15.1006 3.49167 15.1518 3.49168 15.203 3.44049C17.4041 2.16077 19.9124 1.29056 22.6254 0.983424C23.342 0.881047 24.1098 0.829865 24.8265 0.829865H25.0312Z" fill="#0064FF"/>
</g>
</svg>
