<svg width="30" height="44" viewBox="0 0 30 44" fill="none" xmlns="http://www.w3.org/2000/svg">
<g id="Frame" clip-path="url(#clip0_2544_7715)">
<path id="Vector" fill-rule="evenodd" clip-rule="evenodd" d="M9.40283 42.5048C8.42375 43.1684 7.27937 43.5464 6.09768 43.5967C4.72144 43.5717 3.40542 43.0277 2.41314 42.0738C1.42087 41.1198 0.825597 39.8262 0.74646 38.452L6.2944 35.1567L14.9016 39.0127L9.40283 42.5048Z" fill="#72A3B6"/>
<path id="Vector_2" fill-rule="evenodd" clip-rule="evenodd" d="M12.6785 28.3201L8.56673 26.5102C6.72725 25.7035 4.99597 25.0051 4.99597 22.9886C4.96878 22.5957 5.02678 22.2016 5.166 21.8332C5.30521 21.4647 5.52236 21.1307 5.80259 20.854L14.4885 24.6707L12.3539 25.9298C11.7539 26.2839 11.3702 26.6085 11.3702 27.0709C11.3702 27.5332 11.9309 27.9857 12.708 28.3201H12.6785Z" fill="#96CE8E"/>
<path id="Vector_3" fill-rule="evenodd" clip-rule="evenodd" d="M16.7116 9.34495L12.4916 11.9123C12.1178 12.1386 11.6063 12.4927 11.6063 13.0633C11.6063 13.6338 12.59 14.1847 13.4458 14.5978L8.1831 12.2763C6.63872 11.5877 5.07467 10.8205 5.07467 8.94164C5.06411 8.24072 5.27024 7.55364 5.66488 6.97428L17.0755 0.0098114C17.8742 0.448914 18.5424 1.09155 19.0124 1.87246C19.4823 2.65338 19.7372 3.54477 19.7512 4.45606C19.7581 5.47871 19.4766 6.48258 18.9389 7.35253C18.4013 8.22247 17.6293 8.92325 16.7116 9.37446V9.34495Z" fill="#72A3B6"/>
<path id="Vector_4" fill-rule="evenodd" clip-rule="evenodd" d="M25.6729 17.5685L24.6302 18.1685L15.9049 14.3224L26.0369 8.2137C26.8378 8.65528 27.5091 9.29909 27.9837 10.0809C28.4584 10.8628 28.7198 11.7554 28.742 12.6698C28.7582 13.698 28.4772 14.7091 27.9328 15.5816C27.3884 16.4541 26.6037 17.1508 25.6729 17.5882V17.5685Z" fill="#96CE8E"/>
<path id="Vector_5" fill-rule="evenodd" clip-rule="evenodd" d="M18.3051 24.9855L23.4695 27.2479C25.4368 28.1136 25.9975 29.1366 25.9975 30.4154C25.9805 30.7939 25.8841 31.1646 25.7147 31.5036C25.5452 31.8425 25.3064 32.142 25.0138 32.3827L16.3476 28.5267L17.8035 27.7201C19.0429 27.0217 19.4659 26.6184 19.4659 26.1659C19.4659 25.7134 19.161 25.3888 18.315 24.9953L18.3051 24.9855Z" fill="#72A3B6"/>
<path id="Vector_6" fill-rule="evenodd" clip-rule="evenodd" d="M27.5223 44C25.2272 42.3453 22.7441 40.9684 20.125 39.8981L7.00267 34.0648C3.69751 32.5893 1.50391 30.6416 1.50391 27.3365C1.50391 24.0313 3.05813 22.5755 5.07467 21.2967L5.80258 20.854C5.52235 21.1307 5.3052 21.4647 5.16599 21.8332C5.02677 22.2016 4.96877 22.5957 4.99596 22.9886C4.99596 25.0051 6.72724 25.7035 8.56672 26.5102L23.8335 33.2385C26.5091 34.3894 28.9289 36.3568 28.9289 39.6817C28.9619 41.2388 28.466 42.761 27.5223 44Z" fill="#4C9847"/>
<path id="Vector_7" fill-rule="evenodd" clip-rule="evenodd" d="M25.9484 31.7728L24.9647 32.3729C25.2573 32.1321 25.496 31.8326 25.6655 31.4937C25.8349 31.1548 25.9313 30.784 25.9484 30.4055C25.9484 29.1267 25.3483 28.1037 23.4203 27.2381L7.0912 20.0671C3.78603 18.5817 1.73016 16.7029 1.73016 13.4174C1.71935 12.0867 2.07649 10.7789 2.76217 9.63843C3.44784 8.49795 4.43535 7.56915 5.61568 6.95459C5.22103 7.53395 5.0149 8.22103 5.02546 8.92195C5.02546 10.8008 6.58952 11.5681 8.13389 12.2566L24.0007 19.2604C26.9025 20.5491 29.2437 22.4967 29.2437 25.9986C29.2773 27.1741 28.9819 28.3356 28.391 29.3523C27.8001 30.369 26.9371 31.2005 25.8991 31.7532L25.9484 31.7728Z" fill="#296085"/>
</g>
<defs>
<clipPath id="clip0_2544_7715">
<rect width="28.5661" height="44" fill="white" transform="translate(0.716949 -1.52588e-05)"/>
</clipPath>
</defs>
</svg>
