<svg width="44" height="14" viewBox="0 0 44 14" fill="none" xmlns="http://www.w3.org/2000/svg">
<g id="Frame" clip-path="url(#clip0_2544_7808)">
<path id="Vector" d="M41.3403 2.66771H42.474C42.5098 2.66771 42.5441 2.65348 42.5694 2.62816C42.5948 2.60284 42.609 2.56849 42.609 2.53268V0.395224C42.609 0.37761 42.6055 0.360175 42.5987 0.343934C42.5919 0.327693 42.5819 0.312972 42.5693 0.300637C42.5567 0.288301 42.5418 0.278601 42.5255 0.272096C42.5091 0.26559 42.4916 0.262412 42.474 0.26275H40.8817C39.0398 0.26275 38.064 0.851252 37.5061 2.10213L34.0439 10.5832C33.9742 10.8169 33.8258 11.0193 33.6237 11.1558C33.4216 11.2924 33.1785 11.3547 32.9357 11.3322V0.395224C32.9357 0.37761 32.9322 0.360175 32.9253 0.343934C32.9185 0.327693 32.9085 0.312972 32.896 0.300637C32.8834 0.288301 32.8685 0.278601 32.8521 0.272096C32.8358 0.26559 32.8183 0.262412 32.8006 0.26275H30.253C30.2354 0.262412 30.2179 0.26559 30.2015 0.272096C30.1852 0.278601 30.1703 0.288301 30.1577 0.300637C30.1451 0.312972 30.1351 0.327693 30.1283 0.343934C30.1215 0.360175 30.118 0.37761 30.118 0.395224V13.5027C30.1187 13.5651 30.1439 13.6248 30.1883 13.6686C30.2326 13.7125 30.2925 13.7371 30.3549 13.7371H33.2108C35.0502 13.7371 35.8935 13.1486 36.4488 11.8977L39.8678 3.52116C40.1429 2.92757 40.5378 2.66771 41.3403 2.66771Z" fill="#D71920"/>
<path id="Vector_2" d="M10.2388 7.00128C11.2579 6.57583 12.1037 5.62047 12.1037 4.04094C12.1037 1.68948 10.086 0.262817 7.65298 0.262817H0.132395C0.0972603 0.262817 0.0635636 0.276777 0.0387194 0.301621C0.0138753 0.326465 -8.231e-05 0.360156 -8.231e-05 0.395291V2.53275C-0.000421032 2.55036 0.00275523 2.56786 0.00926097 2.58423C0.0157667 2.60059 0.0254724 2.6155 0.0378078 2.62808C0.0501433 2.64065 0.0648622 2.65063 0.0811034 2.65745C0.0973445 2.66427 0.114782 2.66778 0.132395 2.66777H7.13326C8.26186 2.66777 9.02615 3.35818 9.02615 4.19635C9.02615 5.03452 8.26186 5.73766 7.13326 5.73766H2.973V4.15559C2.97334 4.13776 2.97009 4.12005 2.96342 4.10351C2.95676 4.08697 2.94683 4.07194 2.93422 4.05933C2.92161 4.04673 2.90659 4.0368 2.89005 4.03013C2.87351 4.02347 2.8558 4.02022 2.83797 4.02056H0.132395C0.114782 4.02056 0.0973445 4.02407 0.0811034 4.03089C0.0648622 4.0377 0.0501433 4.04769 0.0378078 4.06026C0.0254724 4.07283 0.0157667 4.08774 0.00926097 4.10411C0.00275523 4.12048 -0.000421032 4.13797 -8.231e-05 4.15559V13.5996C-8.231e-05 13.6348 0.0138753 13.6685 0.0387194 13.6933C0.0635636 13.7181 0.0972603 13.7321 0.132395 13.7321H7.54598C10.3178 13.7321 12.3024 12.4405 12.3024 9.80367C12.3081 9.17615 12.11 8.56372 11.7379 8.0584C11.3658 7.55307 10.8397 7.18213 10.2388 7.00128ZM7.27848 11.3908H2.973V8.23178H7.27848C8.4351 8.23178 9.21977 8.94002 9.21977 9.81131C9.21977 10.6826 8.4351 11.3908 7.27848 11.3908Z" fill="#D71920"/>
<path id="Vector_3" d="M43.9745 13.5818L39.6104 8.00255C39.6087 7.99937 39.6061 7.99671 39.603 7.99486C39.5998 7.99302 39.5962 7.99203 39.5926 7.99203C39.589 7.99203 39.5854 7.99302 39.5823 7.99486C39.5791 7.99671 39.5765 7.99937 39.5748 8.00255L38.4003 10.8763C38.3959 10.8845 38.3935 10.8937 38.3935 10.903C38.3935 10.9124 38.3959 10.9216 38.4003 10.9298L40.3085 13.4774C40.3637 13.5608 40.4398 13.6282 40.5292 13.6729C40.6186 13.7176 40.7182 13.738 40.818 13.7322H43.8905C43.909 13.7351 43.928 13.7323 43.9449 13.7241C43.9618 13.7159 43.9758 13.7028 43.985 13.6864C43.9942 13.67 43.9981 13.6512 43.9962 13.6325C43.9943 13.6138 43.9868 13.5961 43.9745 13.5818Z" fill="#D71920"/>
<path id="Vector_4" d="M17.0793 4.02563H14.5316C14.4958 4.02563 14.4615 4.03986 14.4362 4.06518C14.4108 4.09051 14.3966 4.12485 14.3966 4.16066V13.6047C14.3966 13.6223 14.4001 13.6397 14.4069 13.656C14.4138 13.6722 14.4237 13.6869 14.4363 13.6993C14.4489 13.7116 14.4638 13.7213 14.4802 13.7278C14.4965 13.7343 14.514 13.7375 14.5316 13.7372H17.0793C17.1146 13.7372 17.1486 13.7233 17.1739 13.6985C17.1991 13.6738 17.2136 13.6401 17.2143 13.6047V4.15557C17.213 4.12065 17.1982 4.0876 17.173 4.06337C17.1478 4.03914 17.1142 4.02561 17.0793 4.02563Z" fill="#D71920"/>
<path id="Vector_5" d="M27.5627 0.26275H25.0151C24.9977 0.26275 24.9805 0.266177 24.9644 0.272834C24.9483 0.279492 24.9337 0.289252 24.9214 0.301554C24.9091 0.313856 24.8994 0.32846 24.8927 0.344533C24.8861 0.360605 24.8826 0.377827 24.8826 0.395224V11.3322C24.6398 11.3547 24.3967 11.2924 24.1946 11.1558C23.9926 11.0193 23.8441 10.8169 23.7744 10.5832L20.3071 2.10213C19.7517 0.851252 18.7785 0.26275 16.9341 0.26275H14.5342C14.5166 0.262412 14.4991 0.26559 14.4827 0.272096C14.4663 0.278601 14.4514 0.288301 14.4389 0.300637C14.4263 0.312972 14.4163 0.327693 14.4095 0.343934C14.4027 0.360175 14.3992 0.37761 14.3992 0.395224V2.53268C14.3992 2.56849 14.4134 2.60284 14.4387 2.62816C14.464 2.65348 14.4984 2.66771 14.5342 2.66771H16.4729C17.278 2.66771 17.6703 2.92247 17.9455 3.52116L21.3644 11.8977C21.9223 13.1486 22.763 13.7371 24.6049 13.7371H27.4583C27.5207 13.7371 27.5806 13.7125 27.6249 13.6686C27.6693 13.6248 27.6945 13.5651 27.6952 13.5027V0.395224C27.6952 0.360089 27.6813 0.326398 27.6564 0.301554C27.6316 0.27671 27.5979 0.26275 27.5627 0.26275Z" fill="#D71920"/>
</g>
<defs>
<clipPath id="clip0_2544_7808">
<rect width="44" height="13.4744" fill="white" transform="translate(0 0.262817)"/>
</clipPath>
</defs>
</svg>
