<svg width="44" height="22" viewBox="0 0 44 22" fill="none" xmlns="http://www.w3.org/2000/svg">
<g id="Frame" clip-path="url(#clip0_2544_7790)">
<path id="Vector" d="M0.0627106 10.9295C0.0451701 10.9349 0.0298383 10.9459 0.018952 10.9607C0.00806579 10.9755 0.00219727 10.9934 0.00219727 11.0118C0.00219727 11.0301 0.00806579 11.048 0.018952 11.0628C0.0298383 11.0776 0.0451701 11.0886 0.0627106 11.0941L6.85003 15.5771L8.79375 6.43073L0.0627106 10.9295Z" fill="#E72511"/>
<path id="Vector_2" d="M40.285 6.42288H38.5607C38.4548 6.42943 38.3511 6.45603 38.2551 6.50126L29.6338 10.9373C29.5554 10.9373 29.5476 11.047 29.6338 11.1019L36.3035 15.4909C36.3949 15.5422 36.4968 15.5717 36.6014 15.5771H38.3178C38.4118 15.5771 38.4197 15.5771 38.3178 15.4909L31.4991 11.0079L40.285 6.50126C40.3555 6.46207 40.3477 6.42288 40.285 6.42288Z" fill="#F08300"/>
<path id="Vector_3" d="M36.5778 6.42288H24.6099L22.6662 15.5771H34.6185C34.7125 15.5771 34.7203 15.5771 34.6185 15.4909L27.8155 11.0079L36.5543 6.50126C36.6797 6.46207 36.6719 6.42288 36.5778 6.42288Z" fill="#E72511"/>
<path id="Vector_4" d="M43.9295 6.42288H42.213C42.1069 6.42801 42.0029 6.45468 41.9074 6.50126L33.2861 10.9373C33.2077 10.9373 33.2077 11.047 33.2861 11.1019L39.9637 15.4909C40.0518 15.5429 40.1514 15.5725 40.2537 15.5771H41.9779C42.0641 15.5771 42.0798 15.5771 41.9779 15.4909L35.1671 11.0079L43.9138 6.50126C44.0235 6.46207 44.0157 6.42288 43.9295 6.42288Z" fill="#FABE00"/>
<path id="Vector_5" d="M36.0527 0.434987H7.90025C7.23035 0.402609 6.57028 0.605985 6.03477 1.00977C5.49926 1.41355 5.12216 1.99219 4.96902 2.64516C4.89947 2.95542 4.92172 3.27921 5.03306 3.57704C5.14439 3.87486 5.34001 4.13385 5.59602 4.32241L15.7143 11L36.0919 0.513344C36.1468 0.466318 36.139 0.434987 36.0527 0.434987Z" fill="#E72511"/>
<path id="Vector_6" d="M31.5853 21.4788L15.7221 11L2.76665 17.6854C2.43945 17.8572 2.1514 18.0949 1.92072 18.3836C1.69004 18.6722 1.52173 19.0056 1.42643 19.3627C1.15995 20.5775 1.84183 21.565 3.41717 21.565H31.5697C31.6637 21.565 31.6637 21.5258 31.5853 21.4788Z" fill="#E72511"/>
</g>
<defs>
<clipPath id="clip0_2544_7790">
<rect width="44" height="21.13" fill="white" transform="translate(0 0.434998)"/>
</clipPath>
</defs>
</svg>
