<svg width="19" height="23" viewBox="0 0 19 23" fill="none" xmlns="http://www.w3.org/2000/svg">
<circle cx="9.32242" cy="19.1816" r="3.41593" fill="#9AF2E3"/>
<path d="M6.48297 18.6637C4.71576 18.6607 2.94656 18.6756 1.17935 18.6528C0.303664 18.3585 -0.270879 17.3095 0.13031 16.4305C0.290786 16.0786 0.653343 15.836 0.893066 15.5466C1.55874 14.7403 2.13428 13.6366 2.39876 12.6632C2.89208 10.8486 2.42056 8.62837 3.11199 6.81777C3.80342 5.00718 5.55875 3.38848 7.52012 3.02855C7.57362 2.83565 7.44088 2.84957 7.37847 2.70441C7.00898 1.84733 7.40819 0.811286 8.17094 0.332039C9.67268 -0.610545 11.5796 0.57564 11.325 2.3574C11.3022 2.51748 11.0694 2.87145 11.1516 2.9848C11.1972 3.04744 11.5172 3.07329 11.6232 3.10709C13.4023 3.68378 14.8664 5.01215 15.54 6.76806C16.1779 8.4315 15.8441 10.2143 16.1353 11.9274C16.3463 13.1703 17.0149 14.5841 17.8064 15.5605C18.0501 15.8608 18.5801 16.2555 18.6425 16.6572C18.7812 17.5461 18.3413 18.3913 17.4726 18.6528L12.17 18.6647C10.2759 18.6687 8.37897 18.6687 6.48495 18.6647L6.48297 18.6637Z" fill="#FFEC6B"/>
<circle cx="9.32264" cy="2.36487" r="2.36487" fill="#00DDAC"/>
</svg>
