<svg width="20" height="18" viewBox="0 0 20 18" fill="none" xmlns="http://www.w3.org/2000/svg">
<path d="M9.99854 14.3487C11.2164 14.3487 12.2521 13.9225 13.1055 13.07C13.9587 12.2176 14.3853 11.1825 14.3853 9.96481C14.3853 8.74691 13.9591 7.71127 13.1067 6.85788C12.2542 6.00465 11.2192 5.57803 10.0014 5.57803C8.78354 5.57803 7.74789 6.00424 6.8945 6.85667C6.04127 7.7091 5.61465 8.74418 5.61465 9.96192C5.61465 11.1798 6.04087 12.2155 6.89329 13.0688C7.74572 13.9221 8.7808 14.3487 9.99854 14.3487ZM9.99998 12.2704C9.35182 12.2704 8.80531 12.0479 8.36045 11.6029C7.91544 11.158 7.69293 10.6115 7.69293 9.96336C7.69293 9.3152 7.91544 8.76869 8.36045 8.32383C8.80531 7.87882 9.35182 7.65631 9.99998 7.65631C10.6481 7.65631 11.1947 7.87882 11.6395 8.32383C12.0845 8.76869 12.307 9.3152 12.307 9.96336C12.307 10.6115 12.0845 11.158 11.6395 11.6029C11.1947 12.0479 10.6481 12.2704 9.99998 12.2704ZM2.35488 17.8736C1.7477 17.8736 1.23028 17.6598 0.802624 17.2321C0.374963 16.8045 0.161133 16.2871 0.161133 15.6799V4.24683C0.161133 3.63965 0.374963 3.12223 0.802624 2.69457C1.23028 2.26691 1.7477 2.05308 2.35488 2.05308H5.21953L6.43622 0.791556C6.63615 0.583431 6.87409 0.420226 7.15003 0.30194C7.42614 0.183654 7.71229 0.124512 8.00849 0.124512H11.9915C12.2877 0.124512 12.5738 0.183654 12.8499 0.30194C13.1259 0.420226 13.3638 0.583431 13.5637 0.791556L14.7804 2.05308H17.6451C18.2523 2.05308 18.7697 2.26691 19.1973 2.69457C19.625 3.12223 19.8388 3.63965 19.8388 4.24683V15.6799C19.8388 16.2871 19.625 16.8045 19.1973 17.2321C18.7697 17.6598 18.2523 17.8736 17.6451 17.8736H2.35488ZM2.35488 15.6799H17.6451V4.24683H13.8263L12.003 2.31826H8.01428L6.15658 4.24683H2.35488V15.6799Z" fill="#1C1B1F"/>
</svg>
