<svg width="28" height="28" viewBox="0 0 28 28" fill="none" xmlns="http://www.w3.org/2000/svg">
<g id="camera_2_line 2" clip-path="url(#clip0_2239_15131)">
<g id="Group">
<path id="Vector" fill-rule="evenodd" clip-rule="evenodd" d="M17.2582 3.5C17.6623 3.50027 18.054 3.64043 18.3665 3.89667L18.4948 4.01333L20.3172 5.83333H23.333C23.9217 5.83315 24.4887 6.05547 24.9203 6.45575C25.352 6.85602 25.6164 7.40465 25.6605 7.99167L25.6663 8.16667V22.1667C25.6665 22.7553 25.4442 23.3223 25.0439 23.754C24.6437 24.1856 24.095 24.45 23.508 24.4942L23.333 24.5H4.66634C4.07767 24.5002 3.51068 24.2779 3.07904 23.8776C2.64739 23.4773 2.38299 22.9287 2.33884 22.3417L2.33301 22.1667V8.16667C2.33282 7.57799 2.55515 7.01101 2.95542 6.57936C3.35569 6.14772 3.90433 5.88332 4.49134 5.83917L4.66634 5.83333H7.68334L9.50334 4.01333C9.78929 3.72682 10.1657 3.5483 10.5685 3.50817L10.7412 3.5H17.2582ZM17.0167 5.83333H10.9827L9.16267 7.65333C8.87673 7.93984 8.5003 8.11837 8.09751 8.1585L7.92484 8.16667H4.66634V22.1667H23.333V8.16667H20.0745C19.6703 8.1664 19.2787 8.02624 18.9662 7.77L18.8378 7.65333L17.0155 5.83333H17.0167ZM13.9997 8.75C15.5468 8.75 17.0305 9.36458 18.1245 10.4585C19.2184 11.5525 19.833 13.0362 19.833 14.5833C19.833 16.1304 19.2184 17.6142 18.1245 18.7081C17.0305 19.8021 15.5468 20.4167 13.9997 20.4167C12.4526 20.4167 10.9688 19.8021 9.87489 18.7081C8.78092 17.6142 8.16634 16.1304 8.16634 14.5833C8.16634 13.0362 8.78092 11.5525 9.87489 10.4585C10.9688 9.36458 12.4526 8.75 13.9997 8.75ZM13.9997 11.0833C13.54 11.0833 13.0849 11.1739 12.6603 11.3498C12.2356 11.5256 11.8498 11.7835 11.5248 12.1085C11.1998 12.4335 10.942 12.8193 10.7661 13.2439C10.5902 13.6686 10.4997 14.1237 10.4997 14.5833C10.4997 15.043 10.5902 15.4981 10.7661 15.9227C10.942 16.3474 11.1998 16.7332 11.5248 17.0582C11.8498 17.3832 12.2356 17.641 12.6603 17.8169C13.0849 17.9928 13.54 18.0833 13.9997 18.0833C14.9279 18.0833 15.8182 17.7146 16.4745 17.0582C17.1309 16.4018 17.4997 15.5116 17.4997 14.5833C17.4997 13.6551 17.1309 12.7648 16.4745 12.1085C15.8182 11.4521 14.9279 11.0833 13.9997 11.0833Z" fill="#66D760"/>
</g>
</g>
<defs>
<clipPath id="clip0_2239_15131">
<rect width="28" height="28" fill="white"/>
</clipPath>
</defs>
</svg>
