<svg width="19" height="19" viewBox="0 0 19 19" fill="none" xmlns="http://www.w3.org/2000/svg">
<g id="camera_2_line 1" clip-path="url(#clip0_2210_15567)">
<g id="Group">
<path id="Vector" fill-rule="evenodd" clip-rule="evenodd" d="M11.3156 2.53333C11.5735 2.5335 11.8235 2.62295 12.0229 2.78649L12.1048 2.86095L13.2679 4.02254H15.1927C15.5684 4.02242 15.9303 4.16432 16.2058 4.41979C16.4813 4.67525 16.6501 5.02541 16.6782 5.40006L16.682 5.51176V14.447C16.6821 14.8228 16.5402 15.1846 16.2847 15.4601C16.0292 15.7356 15.6791 15.9044 15.3044 15.9325L15.1927 15.9363H3.27901C2.9033 15.9364 2.54143 15.7945 2.26594 15.539C1.99044 15.2836 1.8217 14.9334 1.79352 14.5587L1.78979 14.447V5.51176C1.78968 5.13604 1.93157 4.77417 2.18704 4.49868C2.44251 4.22319 2.79267 4.05444 3.16732 4.02626L3.27901 4.02254H5.20457L6.36615 2.86095C6.54866 2.67809 6.7889 2.56415 7.04598 2.53854L7.15618 2.53333H11.3156ZM11.1614 4.02254H7.31032L6.14873 5.18413C5.96623 5.36699 5.72598 5.48093 5.4689 5.50654L5.3587 5.51176H3.27901V14.447H15.1927V5.51176H13.113C12.8551 5.51158 12.6052 5.42213 12.4057 5.25859L12.3238 5.18413L11.1607 4.02254H11.1614ZM9.23587 5.88406C10.2233 5.88406 11.1703 6.27631 11.8685 6.97451C12.5667 7.67272 12.9589 8.61969 12.9589 9.6071C12.9589 10.5945 12.5667 11.5415 11.8685 12.2397C11.1703 12.9379 10.2233 13.3301 9.23587 13.3301C8.24846 13.3301 7.30149 12.9379 6.60329 12.2397C5.90508 11.5415 5.51283 10.5945 5.51283 9.6071C5.51283 8.61969 5.90508 7.67272 6.60329 6.97451C7.30149 6.27631 8.24846 5.88406 9.23587 5.88406ZM9.23587 7.37328C8.94252 7.37328 8.65205 7.43105 8.38103 7.54331C8.11001 7.65557 7.86375 7.82012 7.65632 8.02755C7.44889 8.23498 7.28435 8.48123 7.17209 8.75225C7.05983 9.02327 7.00205 9.31375 7.00205 9.6071C7.00205 9.90045 7.05983 10.1909 7.17209 10.4619C7.28435 10.733 7.44889 10.9792 7.65632 11.1867C7.86375 11.3941 8.11001 11.5586 8.38103 11.6709C8.65205 11.7831 8.94252 11.8409 9.23587 11.8409C9.82832 11.8409 10.3965 11.6056 10.8154 11.1867C11.2343 10.7677 11.4697 10.1995 11.4697 9.6071C11.4697 9.01465 11.2343 8.44647 10.8154 8.02755C10.3965 7.60862 9.82832 7.37328 9.23587 7.37328Z" fill="#121212"/>
</g>
</g>
<defs>
<clipPath id="clip0_2210_15567">
<rect width="17.8706" height="17.8706" fill="white" transform="translate(0.300537 0.299561)"/>
</clipPath>
</defs>
</svg>
