<svg width="20" height="20" viewBox="0 0 20 20" fill="none" xmlns="http://www.w3.org/2000/svg">
<g id="close_line 1" clip-path="url(#clip0_2499_7434)">
<g id="Group">
<path id="Vector" fill-rule="evenodd" clip-rule="evenodd" d="M10.0004 11.1784L14.7146 15.8925C14.8718 16.0443 15.0823 16.1283 15.3008 16.1264C15.5193 16.1245 15.7283 16.0369 15.8828 15.8824C16.0373 15.7279 16.1249 15.5189 16.1268 15.3004C16.1287 15.0819 16.0447 14.8714 15.8929 14.7142L11.1788 10L15.8929 5.28586C16.0447 5.12869 16.1287 4.91819 16.1268 4.69969C16.1249 4.48119 16.0373 4.27218 15.8828 4.11767C15.7283 3.96317 15.5193 3.87553 15.3008 3.87363C15.0823 3.87173 14.8718 3.95572 14.7146 4.10752L10.0004 8.82169L5.28626 4.10752C5.12838 3.95948 4.9191 3.87866 4.7027 3.88217C4.4863 3.88569 4.27975 3.97326 4.12676 4.12635C3.97378 4.27944 3.88636 4.48605 3.88299 4.70246C3.87963 4.91886 3.9606 5.12809 4.10876 5.28586L8.82209 10L4.10792 14.7142C4.02833 14.7911 3.96485 14.883 3.92117 14.9847C3.8775 15.0864 3.85451 15.1957 3.85355 15.3064C3.85259 15.417 3.87367 15.5267 3.91557 15.6292C3.95747 15.7316 4.01935 15.8246 4.09759 15.9029C4.17584 15.9811 4.26888 16.043 4.37129 16.0849C4.47371 16.1268 4.58344 16.1479 4.69409 16.1469C4.80474 16.1459 4.91409 16.1229 5.01576 16.0793C5.11743 16.0356 5.20938 15.9721 5.28626 15.8925L10.0004 11.1784Z" fill="#121212"/>
</g>
</g>
<defs>
<clipPath id="clip0_2499_7434">
<rect width="20" height="20" fill="white"/>
</clipPath>
</defs>
</svg>
