<svg width="18" height="18" viewBox="0 0 18 18" fill="none" xmlns="http://www.w3.org/2000/svg">
<mask id="mask0_1475_156" style="mask-type:alpha" maskUnits="userSpaceOnUse" x="0" y="0" width="18" height="18">
<rect width="18" height="18" fill="#D9D9D9"/>
</mask>
<g mask="url(#mask0_1475_156)">
<path d="M9.0004 10.0989L11.1036 12.2021C11.2501 12.3486 11.4333 12.4211 11.6533 12.4196C11.8733 12.4181 12.0565 12.3442 12.2029 12.1978C12.3494 12.0513 12.4226 11.868 12.4226 11.648C12.4226 11.428 12.3494 11.2448 12.2029 11.0983L10.0997 8.9996L12.2029 6.89642C12.3494 6.74992 12.4226 6.56667 12.4226 6.34667C12.4226 6.12667 12.3494 5.94348 12.2029 5.79711C12.0565 5.65061 11.8733 5.57735 11.6533 5.57735C11.4333 5.57735 11.2501 5.65061 11.1036 5.79711L9.0004 7.90029L6.89721 5.79711C6.75071 5.65061 6.56821 5.57735 6.34971 5.57735C6.13121 5.57735 5.94871 5.65061 5.80221 5.79711C5.65584 5.94348 5.58265 6.12667 5.58265 6.34667C5.58265 6.56667 5.65584 6.74992 5.80221 6.89642L7.90109 8.9996L5.7979 11.1028C5.6514 11.2493 5.5789 11.4318 5.5804 11.6503C5.5819 11.8688 5.65584 12.0513 5.80221 12.1978C5.94871 12.3442 6.13196 12.4174 6.35196 12.4174C6.57196 12.4174 6.75521 12.3442 6.90171 12.1978L9.0004 10.0989ZM9.0004 16.652C7.93902 16.652 6.94309 16.4514 6.01259 16.0502C5.08221 15.6489 4.27277 15.1041 3.58427 14.4157C2.8959 13.7272 2.35109 12.9178 1.94984 11.9874C1.54859 11.0569 1.34796 10.061 1.34796 8.9996C1.34796 7.93823 1.54859 6.94229 1.94984 6.01179C2.35109 5.08142 2.8959 4.27198 3.58427 3.58348C4.27277 2.89511 5.08221 2.35029 6.01259 1.94904C6.94309 1.54779 7.93902 1.34717 9.0004 1.34717C10.0618 1.34717 11.0577 1.54779 11.9882 1.94904C12.9186 2.35029 13.728 2.89511 14.4165 3.58348C15.1049 4.27198 15.6497 5.08142 16.051 6.01179C16.4522 6.94229 16.6528 7.93823 16.6528 8.9996C16.6528 10.061 16.4522 11.0569 16.051 11.9874C15.6497 12.9178 15.1049 13.7272 14.4165 14.4157C13.728 15.1041 12.9186 15.6489 11.9882 16.0502C11.0577 16.4514 10.0618 16.652 9.0004 16.652Z" fill="#777E91"/>
</g>
</svg>
