<svg width="20" height="20" viewBox="0 0 20 20" fill="none" xmlns="http://www.w3.org/2000/svg">
<g clip-path="url(#clip0_2245_12481)">
<path d="M13.1367 3.33331C13.6009 3.33333 14.056 3.46259 14.4509 3.70662C14.8458 3.95065 15.1649 4.29981 15.3726 4.71498L16.5251 7.01915C16.7284 6.93581 16.9309 6.85165 17.1276 6.75415C17.3254 6.65535 17.5543 6.63918 17.764 6.7092C17.9738 6.77921 18.1471 6.92967 18.2459 7.12748C18.3447 7.32529 18.3609 7.55424 18.2908 7.76397C18.2208 7.97369 18.0704 8.14702 17.8726 8.24581C17.4609 8.45081 17.2726 8.51415 17.2726 8.51415L18.0692 10.1083C18.2434 10.4558 18.3334 10.8383 18.3334 11.2266V13.3333C18.3334 14.0741 18.0117 14.7391 17.5001 15.1966V16.25C17.5001 16.5815 17.3684 16.8994 17.1339 17.1339C16.8995 17.3683 16.5816 17.5 16.2501 17.5C15.9185 17.5 15.6006 17.3683 15.3662 17.1339C15.1318 16.8994 15.0001 16.5815 15.0001 16.25V15.8333H5.00006V16.25C5.00006 16.5815 4.86837 16.8994 4.63394 17.1339C4.39952 17.3683 4.08158 17.5 3.75006 17.5C3.41854 17.5 3.1006 17.3683 2.86618 17.1339C2.63176 16.8994 2.50006 16.5815 2.50006 16.25V15.1966C1.98839 14.7383 1.66673 14.0733 1.66673 13.3333V11.2266C1.66688 10.8387 1.75732 10.4561 1.93089 10.1091L2.72756 8.51415C2.52589 8.42998 2.32589 8.34165 2.12923 8.24665C2.031 8.19791 1.94336 8.13027 1.87132 8.04761C1.79929 7.96494 1.74427 7.86887 1.70944 7.7649C1.6746 7.66093 1.66062 7.55111 1.66831 7.44172C1.676 7.33234 1.70519 7.22556 1.75423 7.12748C1.8552 6.9307 2.02951 6.78152 2.23952 6.71214C2.44953 6.64276 2.6784 6.65875 2.87673 6.75665C3.07256 6.85165 3.27339 6.93748 3.47506 7.01915L4.62756 4.71498C4.83522 4.29981 5.15437 3.95065 5.54926 3.70662C5.94415 3.46259 6.39919 3.33333 6.86339 3.33331H13.1367ZM15.6951 9.08665C14.2784 9.53415 12.2626 9.99998 10.0001 9.99998C7.73756 9.99998 5.72173 9.53331 4.30506 9.08665L3.42173 10.8533C3.36365 10.9692 3.3334 11.097 3.33339 11.2266V13.3333C3.33339 13.5543 3.42119 13.7663 3.57747 13.9226C3.73375 14.0788 3.94571 14.1666 4.16673 14.1666H15.8334C16.0544 14.1666 16.2664 14.0788 16.4227 13.9226C16.5789 13.7663 16.6667 13.5543 16.6667 13.3333V11.2266C16.6666 11.0973 16.6363 10.9698 16.5784 10.8541L15.6951 9.08665ZM6.25006 10.8333C6.58158 10.8333 6.89952 10.965 7.13394 11.1994C7.36837 11.4338 7.50006 11.7518 7.50006 12.0833C7.50006 12.4148 7.36837 12.7328 7.13394 12.9672C6.89952 13.2016 6.58158 13.3333 6.25006 13.3333C5.91854 13.3333 5.6006 13.2016 5.36618 12.9672C5.13176 12.7328 5.00006 12.4148 5.00006 12.0833C5.00006 11.7518 5.13176 11.4338 5.36618 11.1994C5.6006 10.965 5.91854 10.8333 6.25006 10.8333ZM13.7501 10.8333C14.0816 10.8333 14.3995 10.965 14.6339 11.1994C14.8684 11.4338 15.0001 11.7518 15.0001 12.0833C15.0001 12.4148 14.8684 12.7328 14.6339 12.9672C14.3995 13.2016 14.0816 13.3333 13.7501 13.3333C13.4185 13.3333 13.1006 13.2016 12.8662 12.9672C12.6318 12.7328 12.5001 12.4148 12.5001 12.0833C12.5001 11.7518 12.6318 11.4338 12.8662 11.1994C13.1006 10.965 13.4185 10.8333 13.7501 10.8333ZM13.1367 4.99998H6.86339C6.70868 5.00006 6.55704 5.04322 6.42546 5.12461C6.29388 5.206 6.18755 5.32241 6.11839 5.46081L5.06006 7.57498C6.35006 7.96248 8.0884 8.33331 10.0001 8.33331C11.9117 8.33331 13.6501 7.96248 14.9392 7.57498L13.8817 5.46081C13.8126 5.32241 13.7062 5.206 13.5747 5.12461C13.4431 5.04322 13.2914 5.00006 13.1367 4.99998Z" fill="#66D760"/>
</g>
<defs>
<clipPath id="clip0_2245_12481">
<rect width="20" height="20" fill="white"/>
</clipPath>
</defs>
</svg>
