<svg width="20" height="20" viewBox="0 0 20 20" fill="none" xmlns="http://www.w3.org/2000/svg">
<g clip-path="url(#clip0_3238_17803)">
<path d="M13.1367 3.33337C13.6009 3.33339 14.056 3.46265 14.4509 3.70668C14.8458 3.95071 15.1649 4.29987 15.3726 4.71504L16.5251 7.01921C16.7284 6.93587 16.9309 6.85171 17.1276 6.75421C17.3254 6.65541 17.5543 6.63925 17.764 6.70926C17.9738 6.77927 18.1471 6.92973 18.2459 7.12754C18.3447 7.32535 18.3609 7.5543 18.2908 7.76403C18.2208 7.97376 18.0704 8.14708 17.8726 8.24587C17.4609 8.45087 17.2726 8.51421 17.2726 8.51421L18.0692 10.1084C18.2434 10.4559 18.3334 10.8384 18.3334 11.2267V13.3334C18.3334 14.0742 18.0117 14.7392 17.5001 15.1967V16.25C17.5001 16.5816 17.3684 16.8995 17.1339 17.1339C16.8995 17.3683 16.5816 17.5 16.2501 17.5C15.9185 17.5 15.6006 17.3683 15.3662 17.1339C15.1318 16.8995 15.0001 16.5816 15.0001 16.25V15.8334H5.00006V16.25C5.00006 16.5816 4.86837 16.8995 4.63394 17.1339C4.39952 17.3683 4.08158 17.5 3.75006 17.5C3.41854 17.5 3.1006 17.3683 2.86618 17.1339C2.63176 16.8995 2.50006 16.5816 2.50006 16.25V15.1967C1.98839 14.7384 1.66673 14.0734 1.66673 13.3334V11.2267C1.66688 10.8388 1.75732 10.4562 1.93089 10.1092L2.72756 8.51421C2.52589 8.43004 2.32589 8.34171 2.12923 8.24671C2.031 8.19797 1.94336 8.13034 1.87132 8.04767C1.79929 7.965 1.74427 7.86893 1.70944 7.76496C1.6746 7.66099 1.66062 7.55117 1.66831 7.44179C1.676 7.3324 1.70519 7.22562 1.75423 7.12754C1.8552 6.93076 2.02951 6.78158 2.23952 6.7122C2.44953 6.64282 2.6784 6.65881 2.87673 6.75671C3.07256 6.85171 3.27339 6.93754 3.47506 7.01921L4.62756 4.71504C4.83522 4.29987 5.15437 3.95071 5.54926 3.70668C5.94415 3.46265 6.39919 3.33339 6.86339 3.33337H13.1367ZM15.6951 9.08671C14.2784 9.53421 12.2626 10 10.0001 10C7.73756 10 5.72173 9.53337 4.30506 9.08671L3.42173 10.8534C3.36365 10.9693 3.3334 11.0971 3.33339 11.2267V13.3334C3.33339 13.5544 3.42119 13.7663 3.57747 13.9226C3.73375 14.0789 3.94571 14.1667 4.16673 14.1667H15.8334C16.0544 14.1667 16.2664 14.0789 16.4227 13.9226C16.5789 13.7663 16.6667 13.5544 16.6667 13.3334V11.2267C16.6666 11.0974 16.6363 10.9698 16.5784 10.8542L15.6951 9.08671ZM6.25006 10.8334C6.58158 10.8334 6.89952 10.9651 7.13394 11.1995C7.36837 11.4339 7.50006 11.7519 7.50006 12.0834C7.50006 12.4149 7.36837 12.7328 7.13394 12.9673C6.89952 13.2017 6.58158 13.3334 6.25006 13.3334C5.91854 13.3334 5.6006 13.2017 5.36618 12.9673C5.13176 12.7328 5.00006 12.4149 5.00006 12.0834C5.00006 11.7519 5.13176 11.4339 5.36618 11.1995C5.6006 10.9651 5.91854 10.8334 6.25006 10.8334ZM13.7501 10.8334C14.0816 10.8334 14.3995 10.9651 14.6339 11.1995C14.8684 11.4339 15.0001 11.7519 15.0001 12.0834C15.0001 12.4149 14.8684 12.7328 14.6339 12.9673C14.3995 13.2017 14.0816 13.3334 13.7501 13.3334C13.4185 13.3334 13.1006 13.2017 12.8662 12.9673C12.6318 12.7328 12.5001 12.4149 12.5001 12.0834C12.5001 11.7519 12.6318 11.4339 12.8662 11.1995C13.1006 10.9651 13.4185 10.8334 13.7501 10.8334ZM13.1367 5.00004H6.86339C6.70868 5.00012 6.55704 5.04328 6.42546 5.12467C6.29388 5.20606 6.18755 5.32247 6.11839 5.46087L5.06006 7.57504C6.35006 7.96254 8.0884 8.33337 10.0001 8.33337C11.9117 8.33337 13.6501 7.96254 14.9392 7.57504L13.8817 5.46087C13.8126 5.32247 13.7062 5.20606 13.5747 5.12467C13.4431 5.04328 13.2914 5.00012 13.1367 5.00004Z" fill="#9C9C9C"/>
</g>
<defs>
<clipPath id="clip0_3238_17803">
<rect width="20" height="20" fill="white"/>
</clipPath>
</defs>
</svg>
