<svg width="276" height="161" viewBox="0 0 276 161" fill="none" xmlns="http://www.w3.org/2000/svg">
<path d="M44.0313 161H4.31189L11.2794 158.381H50.9947L44.0313 161Z" fill="#E8E9EA"/>
<path d="M115.92 161H76.2051L83.1685 158.381H122.888L115.92 161Z" fill="#E8E9EA"/>
<path d="M187.813 161H148.094L155.062 158.381H194.781L187.813 161Z" fill="#E8E9EA"/>
<path d="M259.707 161H219.987L226.955 158.381H266.67L259.707 161Z" fill="#E8E9EA"/>
<g opacity="0.6">
<g style="mix-blend-mode:multiply">
<path d="M26.3958 120.691C26.3958 120.691 34.1274 89.1922 76.7462 87.1646C119.361 85.1411 115.817 65.0756 135.493 30.2868C152.625 0.000216961 188.759 -6.20689 215.919 9.31088C243.079 24.8287 266.356 66.4122 264.01 128.074H26.3958V120.691Z" fill="#FFEB99"/>
</g>
<g style="mix-blend-mode:multiply">
<path d="M23.0668 84.1562C23.0668 84.1562 25.549 37.0484 64.9339 10.3578C104.315 -16.3328 128.678 12.4103 132.296 52.6572C135.91 92.9082 167.237 88.3398 212.351 74.4317C261.512 59.274 265.055 130.838 265.055 130.838H21.5345L23.0668 84.1562Z" fill="#DAFFCD"/>
</g>
</g>
<path d="M110.543 48.1177H88.7977V141.564H110.543V48.1177Z" fill="#66D760"/>
<path d="M154.037 86.8667H132.292V141.564H154.037V86.8667Z" fill="#66D760"/>
<path d="M150.841 59.5181H135.493V86.8666H150.841V59.5181Z" fill="#66D760"/>
<path d="M147.297 43.2886H139.037V59.5181H147.297V43.2886Z" fill="#66D760"/>
<path d="M144.716 27.0591H141.614V43.2886H144.716V27.0591Z" fill="#66D760"/>
<path d="M132.292 141.564H110.547V114.215L132.292 107.201V141.564Z" fill="#66D760"/>
<path d="M107.503 48.1178H91.8417V36.2002L107.503 48.1178Z" fill="#66D760"/>
<path d="M187.244 120.116H154.037V141.568H187.244V120.116Z" fill="#66D760"/>
<path d="M170.64 120.116H156.767V108.497L170.64 114.215V120.116Z" fill="#66D760"/>
<path d="M219.463 66.5278H187.244V141.564H219.463V66.5278Z" fill="#66D760"/>
<path d="M215.919 46.5161H190.787V66.5278H215.919V46.5161Z" fill="#66D760"/>
<path d="M213.02 40.061V46.5164H204.322L213.02 40.061Z" fill="#66D760"/>
<path d="M251.037 141.564H219.463V89.4487L235.248 102.037H251.037V141.564Z" fill="#66D760"/>
<path d="M271.981 65.895H251.037V141.564H271.981V65.895Z" fill="#66D760"/>
<path d="M33.2393 75.5202L12.2996 65.895V141.564H33.2393V75.5202Z" fill="#66D760"/>
<path d="M268.111 52.6611H254.903V65.8947H268.111V52.6611Z" fill="#66D760"/>
<path d="M266.608 32.9683H265.051V52.6614H266.608V32.9683Z" fill="#66D760"/>
<path d="M88.7977 101.068H53.2167V141.564H88.7977V101.068Z" fill="#66D760"/>
<path d="M33.2393 117.857L53.2167 111.079V141.564H33.2393V117.857Z" fill="#66D760"/>
<path d="M73.029 94.8408H56.4382V101.069H73.029V94.8408Z" fill="#66D760"/>
<path d="M71.0093 89.4487H58.8544V94.8406H71.0093V89.4487Z" fill="#66D760"/>
<path d="M12.2995 129.241H0V141.564H12.2995V129.241Z" fill="#66D760"/>
<path d="M75.3749 149.219C75.3749 149.922 60.304 150.493 41.7102 150.493C23.1164 150.493 8.04553 149.922 8.04553 149.219C8.04553 148.515 23.1164 147.944 41.7102 147.944C60.304 147.944 75.3749 148.515 75.3749 149.219Z" fill="#E8E9EA"/>
<path d="M276 149.219C276 149.922 260.929 150.493 242.335 150.493C223.741 150.493 208.671 149.922 208.671 149.219C208.671 148.515 223.741 147.944 242.335 147.944C260.929 147.944 276 148.515 276 149.219Z" fill="#E8E9EA"/>
<path d="M228.59 128.847V131.049C228.59 133.457 226.645 135.406 224.241 135.406H62.9142C60.5146 135.406 58.5652 133.457 58.5652 131.049V128.847C58.5652 127.978 59.2673 127.275 60.1346 127.275H227.021C227.888 127.275 228.59 127.978 228.59 128.847Z" fill="#FF9F48"/>
<path d="M226.525 108.612V127.275H60.6302V107.888C60.6302 106.129 61.6876 104.544 63.3066 103.87L80.4549 96.7026H181.783L222.969 104.329C225.03 104.71 226.525 106.51 226.525 108.612Z" fill="#FFD757"/>
<path d="M128.369 101.068V123.745" stroke="#FFA84A" stroke-width="2" stroke-miterlimit="10"/>
<path d="M91.8417 151.367C102.172 151.367 110.547 142.976 110.547 132.626C110.547 122.275 102.172 113.884 91.8417 113.884C81.511 113.884 73.1364 122.275 73.1364 132.626C73.1364 142.976 81.511 151.367 91.8417 151.367Z" fill="#565F68"/>
<path d="M91.8417 147.336C99.9506 147.336 106.524 140.75 106.524 132.625C106.524 124.501 99.9506 117.915 91.8417 117.915C83.7327 117.915 77.1591 124.501 77.1591 132.625C77.1591 140.75 83.7327 147.336 91.8417 147.336Z" fill="#30363D"/>
<path d="M91.8417 144.903C98.6095 144.903 104.096 139.407 104.096 132.626C104.096 125.845 98.6095 120.348 91.8417 120.348C85.074 120.348 79.5876 125.845 79.5876 132.626C79.5876 139.407 85.074 144.903 91.8417 144.903Z" fill="#E0E1E2"/>
<path d="M94.2372 132.626C94.2372 133.95 93.1634 135.026 91.8418 135.026C90.5201 135.026 89.4463 133.95 89.4463 132.626C89.4463 131.301 90.5201 130.226 91.8418 130.226C93.1634 130.226 94.2372 131.301 94.2372 132.626Z" fill="#30363D"/>
<path d="M91.3668 126.344V122.231C85.8531 122.479 81.4545 127.035 81.4545 132.622H85.5474C85.5474 129.299 88.1122 126.584 91.3668 126.344Z" fill="#30363D"/>
<path d="M192.381 151.367C202.712 151.367 211.087 142.976 211.087 132.626C211.087 122.275 202.712 113.884 192.381 113.884C182.051 113.884 173.676 122.275 173.676 132.626C173.676 142.976 182.051 151.367 192.381 151.367Z" fill="#565F68"/>
<path d="M206.83 135.311C208.307 127.322 203.04 119.646 195.066 118.167C187.093 116.688 179.432 121.965 177.956 129.954C176.48 137.943 181.747 145.618 189.72 147.097C197.693 148.576 205.354 143.299 206.83 135.311Z" fill="#30363D"/>
<path d="M192.381 144.903C199.149 144.903 204.635 139.407 204.635 132.626C204.635 125.845 199.149 120.348 192.381 120.348C185.614 120.348 180.127 125.845 180.127 132.626C180.127 139.407 185.614 144.903 192.381 144.903Z" fill="#E0E1E2"/>
<path d="M192.381 135.026C191.06 135.026 189.986 133.95 189.986 132.626C189.986 131.301 191.06 130.226 192.381 130.226C193.703 130.226 194.777 131.301 194.777 132.626C194.777 133.95 193.703 135.026 192.381 135.026Z" fill="#30363D"/>
<path d="M198.651 132.15H202.756C202.508 126.625 197.961 122.218 192.385 122.218V126.319C195.702 126.319 198.411 128.889 198.651 132.15Z" fill="#30363D"/>
<path d="M80.455 96.7027H181.784L163.227 72.0398C161.901 70.2769 159.824 69.2383 157.618 69.2383H100.953C98.4912 69.2383 96.2073 70.5294 94.9352 72.6439L80.455 96.7068V96.7027Z" fill="#FFD757"/>
<path d="M129.537 96.7025H174.634L158.696 75.5197C157.556 74.0052 155.772 73.1113 153.876 73.1113H129.533V96.7025H129.537Z" fill="#F2EEC5"/>
<path d="M127.196 73.1116H105.211C103.096 73.1116 101.134 74.2206 100.044 76.033L87.6041 96.6986H127.196V73.1074V73.1116Z" fill="#F2EEC5"/>
<path d="M131.962 101.068H140.842V101.776C140.842 102.604 140.172 103.274 139.346 103.274H133.457C132.631 103.274 131.962 102.604 131.962 101.776V101.068Z" fill="#4A5DBA"/>
<path d="M115.99 101.068H124.87V101.776C124.87 102.604 124.201 103.274 123.375 103.274H117.486C116.66 103.274 115.99 102.604 115.99 101.776V101.068Z" fill="#4A5DBA"/>
<path d="M162.231 96.703H154.657L143.505 73.1118H151.08L162.231 96.703Z" fill="white"/>
<path d="M151.014 96.703H147.896L136.744 73.1118H139.863L151.014 96.703Z" fill="white"/>
<path d="M125.82 96.703H122.702L111.551 73.1118H114.669L125.82 96.703Z" fill="white"/>
<path d="M120.794 96.703H119.228L108.077 73.1118H109.642L120.794 96.703Z" fill="white"/>
<path d="M220.846 111.554C220.128 113.611 217.212 114.459 214.333 113.45C211.454 112.44 209.699 109.957 210.418 107.9C211.136 105.844 214.052 104.995 216.931 106.005C219.81 107.015 221.565 109.498 220.846 111.554Z" fill="white"/>
<path d="M137.843 114.215H133.11V118.958H137.843V114.215Z" fill="white"/>
<path d="M142.572 118.954H137.839V123.696H142.572V118.954Z" fill="white"/>
<path d="M147.305 114.215H142.572V118.958H147.305V114.215Z" fill="white"/>
<path d="M152.034 118.954H147.301V123.696H152.034V118.954Z" fill="white"/>
<path d="M156.767 114.215H152.034V118.958H156.767V114.215Z" fill="white"/>
<path d="M161.496 118.954H156.763V123.696H161.496V118.954Z" fill="white"/>
<path d="M166.229 114.215H161.496V118.958H166.229V114.215Z" fill="white"/>
<path d="M170.958 118.954H166.225V123.696H170.958V118.954Z" fill="white"/>
<path d="M68.4073 114.215H63.6742V118.958H68.4073V114.215Z" fill="white"/>
<path d="M73.1322 118.954H68.399V123.696H73.1322V118.954Z" fill="white"/>
<path d="M77.8695 114.215H73.1364V118.958H77.8695V114.215Z" fill="white"/>
<path d="M111.257 114.215H106.524V118.958H111.257V114.215Z" fill="white"/>
<path d="M115.986 118.954H111.253V123.696H115.986V118.954Z" fill="white"/>
<path d="M120.72 114.215H115.986V118.958H120.72V114.215Z" fill="white"/>
<path d="M125.449 118.954H120.715V123.696H125.449V118.954Z" fill="white"/>
<path d="M123.735 66.6606H132.998C133.899 66.6606 134.63 67.3931 134.63 68.2952V69.2345H122.103V68.2952C122.103 67.3931 122.834 66.6606 123.735 66.6606Z" fill="#4A5DBA"/>
<path d="M131.02 66.6603H125.713V59.9484C125.713 58.4794 126.902 57.2876 128.369 57.2876C129.835 57.2876 131.024 58.4794 131.024 59.9484V66.6603H131.02Z" fill="#FFD757"/>
</svg>
