<svg width="12" height="12" viewBox="0 0 12 12" fill="none" xmlns="http://www.w3.org/2000/svg">
<g clip-path="url(#clip0_2329_160)">
<path fill-rule="evenodd" clip-rule="evenodd" d="M7 2C7.39782 2 7.77936 2.15804 8.06066 2.43934C8.34196 2.72064 8.5 3.10218 8.5 3.5H10C10.2652 3.5 10.5196 3.60536 10.7071 3.79289C10.8946 3.98043 11 4.23478 11 4.5V9.5C11 9.76522 10.8946 10.0196 10.7071 10.2071C10.5196 10.3946 10.2652 10.5 10 10.5H2C1.73478 10.5 1.48043 10.3946 1.29289 10.2071C1.10536 10.0196 1 9.76522 1 9.5V4.5C1 4.23478 1.10536 3.98043 1.29289 3.79289C1.48043 3.60536 1.73478 3.5 2 3.5H3.5C3.5 3.10218 3.65804 2.72064 3.93934 2.43934C4.22064 2.15804 4.60218 2 5 2H7ZM7.5 4.5H4.5V9.5H7.5V4.5ZM10 4.5H8.5V9.5H10V4.5ZM3.5 4.5H2V9.5H3.5V4.5ZM7 3H5C4.87753 3.00002 4.75933 3.04498 4.66781 3.12636C4.5763 3.20774 4.51783 3.31987 4.5035 3.4415L4.5 3.5H7.5C7.49998 3.37753 7.45502 3.25933 7.37364 3.16781C7.29226 3.0763 7.18013 3.01783 7.0585 3.0035L7 3Z" fill="white"/>
</g>
<defs>
<clipPath id="clip0_2329_160">
<rect width="12" height="12" fill="white"/>
</clipPath>
</defs>
</svg>
