<svg width="20" height="20" viewBox="0 0 20 20" fill="none" xmlns="http://www.w3.org/2000/svg">
<g id="check_circle_line 1" clip-path="url(#clip0_2246_19985)">
<g id="Group">
<path id="Vector" d="M10.0001 1.66675C14.6026 1.66675 18.3334 5.39758 18.3334 10.0001C18.3334 14.6026 14.6026 18.3334 10.0001 18.3334C5.39758 18.3334 1.66675 14.6026 1.66675 10.0001C1.66675 5.39758 5.39758 1.66675 10.0001 1.66675ZM10.0001 3.33341C8.23197 3.33341 6.53628 4.03579 5.28604 5.28604C4.03579 6.53628 3.33341 8.23197 3.33341 10.0001C3.33341 11.7682 4.03579 13.4639 5.28604 14.7141C6.53628 15.9644 8.23197 16.6667 10.0001 16.6667C11.7682 16.6667 13.4639 15.9644 14.7141 14.7141C15.9644 13.4639 16.6667 11.7682 16.6667 10.0001C16.6667 8.23197 15.9644 6.53628 14.7141 5.28604C13.4639 4.03579 11.7682 3.33341 10.0001 3.33341ZM12.9459 6.98425C13.0955 6.8332 13.2972 6.74505 13.5097 6.73784C13.7222 6.73064 13.9294 6.80491 14.0889 6.94547C14.2484 7.08603 14.3482 7.28224 14.3678 7.49393C14.3873 7.70563 14.3253 7.91681 14.1942 8.08425L14.1251 8.16258L9.47008 12.8184C9.3112 12.9773 9.09952 13.0722 8.87522 13.0853C8.65093 13.0984 8.42965 13.0286 8.25341 12.8892L8.17341 12.8184L5.87508 10.5201C5.72404 10.3705 5.63589 10.1688 5.62868 9.95629C5.62147 9.74381 5.69575 9.53661 5.8363 9.3771C5.97686 9.21759 6.17307 9.11783 6.38477 9.09824C6.59647 9.07866 6.80765 9.14073 6.97508 9.27175L7.05341 9.34175L8.82175 11.1092L12.9467 6.98425H12.9459Z" fill="#D7D7D7"/>
</g>
</g>
<defs>
<clipPath id="clip0_2246_19985">
<rect width="20" height="20" fill="white"/>
</clipPath>
</defs>
</svg>
