<svg width="24" height="24" viewBox="0 0 24 24" fill="none" xmlns="http://www.w3.org/2000/svg">
<mask id="mask0_1098_17455" style="mask-type:alpha" maskUnits="userSpaceOnUse" x="0" y="0" width="24" height="24">
<rect width="24" height="24" fill="#D9D9D9"/>
</mask>
<g mask="url(#mask0_1098_17455)">
<path d="M10.582 13.5909L8.5875 11.5964C8.38034 11.389 8.11909 11.2854 7.80375 11.2854C7.48859 11.2854 7.22734 11.389 7.02 11.5964C6.81284 11.8035 6.71025 12.0648 6.71225 12.3801C6.71425 12.6953 6.81884 12.9565 7.026 13.1636L9.7805 15.9181C10.0098 16.146 10.2774 16.2599 10.5833 16.2599C10.8889 16.2599 11.1558 16.146 11.3838 15.9181L16.944 10.3576C17.1513 10.1505 17.255 9.89029 17.255 9.57713C17.255 9.26379 17.1513 9.00354 16.944 8.79637C16.7368 8.58904 16.4756 8.48537 16.1603 8.48537C15.8451 8.48537 15.5839 8.58904 15.3768 8.79637L10.582 13.5909ZM12 22.2034C10.5848 22.2034 9.257 21.9357 8.0165 21.4004C6.77584 20.865 5.69667 20.1386 4.779 19.2211C3.8615 18.3035 3.13509 17.2243 2.59975 15.9836C2.06442 14.7431 1.79675 13.4153 1.79675 12.0001C1.79675 10.585 2.06442 9.25712 2.59975 8.01662C3.13509 6.77596 3.8615 5.69679 4.779 4.77912C5.69667 3.86162 6.77584 3.13521 8.0165 2.59987C9.257 2.06454 10.5848 1.79688 12 1.79688C13.4152 1.79688 14.743 2.06454 15.9835 2.59987C17.2242 3.13521 18.3033 3.86162 19.221 4.77912C20.1385 5.69679 20.8649 6.77596 21.4003 8.01662C21.9356 9.25712 22.2033 10.585 22.2033 12.0001C22.2033 13.4153 21.9356 14.7431 21.4003 15.9836C20.8649 17.2243 20.1385 18.3035 19.221 19.2211C18.3033 20.1386 17.2242 20.865 15.9835 21.4004C14.743 21.9357 13.4152 22.2034 12 22.2034Z" fill="#2186FF"/>
</g>
</svg>
