<svg width="26" height="26" viewBox="0 0 26 26" fill="none" xmlns="http://www.w3.org/2000/svg">
<g id="check_circle_fill 1" clip-path="url(#clip0_2638_5461)">
<g id="Group">
<path id="Vector" d="M13 2.16669C18.9833 2.16669 23.8334 7.01677 23.8334 13C23.8334 18.9833 18.9833 23.8334 13 23.8334C7.01677 23.8334 2.16669 18.9833 2.16669 13C2.16669 7.01677 7.01677 2.16669 13 2.16669ZM16.8296 9.07944L11.4671 14.4419L9.17044 12.1442C9.06986 12.0435 8.95043 11.9637 8.81899 11.9092C8.68755 11.8547 8.54666 11.8266 8.40436 11.8266C8.11699 11.8265 7.84134 11.9405 7.63806 12.1436C7.43479 12.3468 7.32053 12.6223 7.32043 12.9097C7.32033 13.1971 7.43439 13.4727 7.63752 13.676L10.6254 16.6639C10.736 16.7746 10.8674 16.8624 11.012 16.9223C11.1566 16.9822 11.3117 17.0131 11.4682 17.0131C11.6247 17.0131 11.7797 16.9822 11.9243 16.9223C12.069 16.8624 12.2004 16.7746 12.311 16.6639L18.3625 10.6124C18.5658 10.4091 18.68 10.1334 18.68 9.8459C18.68 9.55842 18.5658 9.28271 18.3625 9.07944C18.1592 8.87616 17.8835 8.76196 17.5961 8.76196C17.3086 8.76196 17.0329 8.87616 16.8296 9.07944Z" fill="#66D760"/>
</g>
</g>
<defs>
<clipPath id="clip0_2638_5461">
<rect width="26" height="26" fill="white"/>
</clipPath>
</defs>
</svg>
