<svg width="18" height="18" viewBox="0 0 18 18" fill="none" xmlns="http://www.w3.org/2000/svg">
<mask id="mask0_1116_2243" style="mask-type:alpha" maskUnits="userSpaceOnUse" x="0" y="0" width="18" height="18">
<rect width="18" height="18" fill="#D9D9D9"/>
</mask>
<g mask="url(#mask0_1116_2243)">
<path d="M7.93598 10.1925L6.44011 8.69667C6.28473 8.54117 6.0888 8.46342 5.8523 8.46342C5.61592 8.46342 5.41998 8.54117 5.26448 8.69667C5.10911 8.85205 5.03217 9.04798 5.03367 9.28448C5.03517 9.52086 5.11361 9.71673 5.26898 9.87211L7.33486 11.938C7.50686 12.1089 7.70755 12.1943 7.93692 12.1943C8.16617 12.1943 8.3663 12.1089 8.5373 11.938L12.7075 7.76761C12.863 7.61223 12.9407 7.41711 12.9407 7.18223C12.9407 6.94723 12.863 6.75205 12.7075 6.59667C12.5521 6.44117 12.3562 6.36342 12.1197 6.36342C11.8833 6.36342 11.6874 6.44117 11.532 6.59667L7.93598 10.1925ZM8.99948 16.6519C7.93811 16.6519 6.94223 16.4512 6.01186 16.0497C5.08136 15.6482 4.27198 15.1034 3.58373 14.4152C2.89561 13.727 2.3508 12.9176 1.9493 11.9871C1.5478 11.0567 1.34705 10.0609 1.34705 8.99948C1.34705 7.93811 1.5478 6.94223 1.9493 6.01186C2.3508 5.08136 2.89561 4.27198 3.58373 3.58373C4.27198 2.89561 5.08136 2.3508 6.01186 1.9493C6.94223 1.5478 7.93811 1.34705 8.99948 1.34705C10.0609 1.34705 11.0567 1.5478 11.9871 1.9493C12.9176 2.3508 13.727 2.89561 14.4152 3.58373C15.1034 4.27198 15.6482 5.08136 16.0497 6.01186C16.4512 6.94223 16.6519 7.93811 16.6519 8.99948C16.6519 10.0609 16.4512 11.0567 16.0497 11.9871C15.6482 12.9176 15.1034 13.727 14.4152 14.4152C13.727 15.1034 12.9176 15.6482 11.9871 16.0497C11.0567 16.4512 10.0609 16.6519 8.99948 16.6519Z" fill="#00DDAC"/>
</g>
</svg>
