<svg width="16" height="16" viewBox="0 0 16 16" fill="none" xmlns="http://www.w3.org/2000/svg">
<path d="M8 0.5C12.1423 0.5 15.5 3.85775 15.5 8C15.5 12.1423 12.1423 15.5 8 15.5C3.85775 15.5 0.5 12.1423 0.5 8C0.5 3.85775 3.85775 0.5 8 0.5ZM10.6512 5.28575L6.93875 8.99825L5.34875 7.4075C5.27912 7.33782 5.19644 7.28253 5.10544 7.2448C5.01444 7.20707 4.9169 7.18763 4.81839 7.1876C4.61944 7.18753 4.42861 7.26649 4.28787 7.40713C4.14714 7.54776 4.06804 7.73853 4.06797 7.93748C4.0679 8.13644 4.14687 8.32727 4.2875 8.468L6.356 10.5365C6.43261 10.6131 6.52358 10.674 6.6237 10.7154C6.72382 10.7569 6.83113 10.7783 6.9395 10.7783C7.04787 10.7783 7.15518 10.7569 7.2553 10.7154C7.35542 10.674 7.44639 10.6131 7.523 10.5365L11.7125 6.347C11.8532 6.20627 11.9323 6.0154 11.9323 5.81637C11.9323 5.61735 11.8532 5.42648 11.7125 5.28575C11.5718 5.14502 11.3809 5.06596 11.1819 5.06596C10.9829 5.06596 10.792 5.14502 10.6512 5.28575Z" fill="#D7D7D7"/>
</svg>
