<svg width="26" height="26" viewBox="0 0 26 26" fill="none" xmlns="http://www.w3.org/2000/svg">
<g id="check_circle_line 1" clip-path="url(#clip0_2638_5455)">
<g id="Group">
<path id="Vector" d="M13 2.16669C18.9833 2.16669 23.8334 7.01677 23.8334 13C23.8334 18.9833 18.9833 23.8334 13 23.8334C7.01677 23.8334 2.16669 18.9833 2.16669 13C2.16669 7.01677 7.01677 2.16669 13 2.16669ZM13 4.33335C10.7015 4.33335 8.49708 5.24645 6.87176 6.87176C5.24645 8.49708 4.33335 10.7015 4.33335 13C4.33335 15.2986 5.24645 17.503 6.87176 19.1283C8.49708 20.7536 10.7015 21.6667 13 21.6667C15.2986 21.6667 17.503 20.7536 19.1283 19.1283C20.7536 17.503 21.6667 15.2986 21.6667 13C21.6667 10.7015 20.7536 8.49708 19.1283 6.87176C17.503 5.24645 15.2986 4.33335 13 4.33335ZM16.8296 9.07944C17.0241 8.88308 17.2863 8.76849 17.5625 8.75911C17.8388 8.74974 18.1081 8.8463 18.3155 9.02903C18.5228 9.21175 18.6525 9.46682 18.678 9.74203C18.7035 10.0172 18.6228 10.2918 18.4524 10.5094L18.3625 10.6113L12.311 16.6639C12.1045 16.8704 11.8293 16.9938 11.5377 17.0108C11.2461 17.0278 10.9585 16.9371 10.7294 16.7559L10.6254 16.6639L7.63752 13.676C7.44116 13.4815 7.32657 13.2193 7.3172 12.9431C7.30783 12.6669 7.40438 12.3975 7.58711 12.1901C7.76983 11.9828 8.0249 11.8531 8.30011 11.8276C8.57532 11.8022 8.84986 11.8829 9.06752 12.0532L9.16935 12.1442L11.4682 14.4419L16.8307 9.07944H16.8296Z" fill="#D7D7D7"/>
</g>
</g>
<defs>
<clipPath id="clip0_2638_5455">
<rect width="26" height="26" fill="white"/>
</clipPath>
</defs>
</svg>
