<svg width="30" height="30" viewBox="0 0 30 30" fill="none" xmlns="http://www.w3.org/2000/svg">
<g clip-path="url(#clip0_2158_12298)">
<path fill-rule="evenodd" clip-rule="evenodd" d="M13.5 3.3125C13.9327 2.98794 14.4591 2.8125 15 2.8125C15.5409 2.8125 16.0673 2.98794 16.5 3.3125L25.25 9.875C25.5605 10.1079 25.8125 10.4098 25.9861 10.757C26.1596 11.1041 26.25 11.4869 26.25 11.875V23.75C26.25 24.413 25.9866 25.0489 25.5178 25.5178C25.0489 25.9866 24.413 26.25 23.75 26.25H17.625C17.2603 26.25 16.9106 26.1051 16.6527 25.8473C16.3949 25.5894 16.25 25.2397 16.25 24.875V17.5C16.25 17.1685 16.1183 16.8505 15.8839 16.6161C15.6495 16.3817 15.3315 16.25 15 16.25C14.6685 16.25 14.3505 16.3817 14.1161 16.6161C13.8817 16.8505 13.75 17.1685 13.75 17.5V24.875C13.75 25.0556 13.7144 25.2344 13.6453 25.4012C13.5762 25.568 13.475 25.7196 13.3473 25.8473C13.2196 25.975 13.068 26.0762 12.9012 26.1453C12.7344 26.2144 12.5556 26.25 12.375 26.25H6.25C5.58696 26.25 4.95107 25.9866 4.48223 25.5178C4.01339 25.0489 3.75 24.413 3.75 23.75V11.875C3.75 11.4869 3.84036 11.1041 4.01393 10.757C4.1875 10.4098 4.43951 10.1079 4.75 9.875L13.5 3.3125ZM15 5.3125L6.25 11.875V23.75H11.25V17.5C11.25 16.5054 11.6451 15.5516 12.3483 14.8483C13.0516 14.1451 14.0054 13.75 15 13.75C15.9946 13.75 16.9484 14.1451 17.6517 14.8483C18.3549 15.5516 18.75 16.5054 18.75 17.5V23.75H23.75V11.875L15 5.3125Z" fill="#66D760"/>
</g>
<defs>
<clipPath id="clip0_2158_12298">
<rect width="30" height="30" fill="white"/>
</clipPath>
</defs>
</svg>
