<svg width="30" height="30" viewBox="0 0 30 30" fill="none" xmlns="http://www.w3.org/2000/svg">
<g clip-path="url(#clip0_2158_12305)">
<path d="M16.875 3.75C19.6929 3.75 22.3954 4.86942 24.388 6.86199C26.3806 8.85456 27.5 11.5571 27.5 14.375C27.5 17.1929 26.3806 19.8954 24.388 21.888C22.3954 23.8806 19.6929 25 16.875 25H16.25V26.2375C16.25 26.4034 16.2173 26.5677 16.1538 26.7209C16.0903 26.8742 15.9971 27.0134 15.8798 27.1307C15.7624 27.2479 15.6231 27.3409 15.4698 27.4043C15.3165 27.4676 15.1522 27.5002 14.9863 27.5C11.9113 27.4975 8.79625 26.4712 6.4325 24.37C4.0475 22.2475 2.5025 19.0937 2.5 15.0112V14.375C2.5 11.5571 3.61942 8.85456 5.61199 6.86199C7.60457 4.86942 10.3071 3.75 13.125 3.75H16.875ZM16.875 6.25H13.125C10.9701 6.25 8.90349 7.10602 7.37976 8.62976C5.85602 10.1535 5 12.2201 5 14.375L5.00125 15.2062C5.05125 18.5087 6.3025 20.9087 8.095 22.5012C9.6425 23.8787 11.6463 24.7 13.75 24.9312V23.7625C13.75 23.065 14.315 22.5 15.0125 22.5H16.875C19.0299 22.5 21.0965 21.644 22.6202 20.1202C24.144 18.5965 25 16.5299 25 14.375C25 12.2201 24.144 10.1535 22.6202 8.62976C21.0965 7.10602 19.0299 6.25 16.875 6.25ZM10.625 12.5C11.1223 12.5 11.5992 12.6975 11.9508 13.0492C12.3025 13.4008 12.5 13.8777 12.5 14.375C12.5 14.8723 12.3025 15.3492 11.9508 15.7008C11.5992 16.0525 11.1223 16.25 10.625 16.25C10.1277 16.25 9.65081 16.0525 9.29918 15.7008C8.94754 15.3492 8.75 14.8723 8.75 14.375C8.75 13.8777 8.94754 13.4008 9.29918 13.0492C9.65081 12.6975 10.1277 12.5 10.625 12.5ZM19.375 12.5C19.8723 12.5 20.3492 12.6975 20.7008 13.0492C21.0525 13.4008 21.25 13.8777 21.25 14.375C21.25 14.8723 21.0525 15.3492 20.7008 15.7008C20.3492 16.0525 19.8723 16.25 19.375 16.25C18.8777 16.25 18.4008 16.0525 18.0492 15.7008C17.6975 15.3492 17.5 14.8723 17.5 14.375C17.5 13.8777 17.6975 13.4008 18.0492 13.0492C18.4008 12.6975 18.8777 12.5 19.375 12.5Z" fill="#66D760"/>
</g>
<defs>
<clipPath id="clip0_2158_12305">
<rect width="30" height="30" fill="white"/>
</clipPath>
</defs>
</svg>
