<svg width="20" height="20" viewBox="0 0 20 20" fill="none" xmlns="http://www.w3.org/2000/svg">
<path d="M10.0001 1.66666C14.6026 1.66666 18.3334 5.39749 18.3334 9.99999C18.3334 14.6025 14.6026 18.3333 10.0001 18.3333C5.39758 18.3333 1.66675 14.6025 1.66675 9.99999C1.66675 5.39749 5.39758 1.66666 10.0001 1.66666ZM10.0001 3.33332C8.23197 3.33332 6.53628 4.0357 5.28604 5.28595C4.03579 6.53619 3.33342 8.23188 3.33342 9.99999C3.33342 11.7681 4.03579 13.4638 5.28604 14.714C6.53628 15.9643 8.23197 16.6667 10.0001 16.6667C11.7682 16.6667 13.4639 15.9643 14.7141 14.714C15.9644 13.4638 16.6668 11.7681 16.6668 9.99999C16.6668 8.23188 15.9644 6.53619 14.7141 5.28595C13.4639 4.0357 11.7682 3.33332 10.0001 3.33332ZM10.0001 4.99999C10.2042 5.00002 10.4012 5.07495 10.5537 5.21059C10.7063 5.34622 10.8037 5.53311 10.8276 5.73582L10.8334 5.83332V9.65499L13.0892 11.9108C13.2387 12.0608 13.3255 12.262 13.3319 12.4736C13.3384 12.6853 13.2641 12.8914 13.124 13.0502C12.984 13.209 12.7888 13.3086 12.578 13.3287C12.3673 13.3487 12.1567 13.2878 11.9893 13.1583L11.9109 13.0892L9.41092 10.5892C9.2814 10.4595 9.19822 10.2908 9.17425 10.1092L9.16675 9.99999V5.83332C9.16675 5.61231 9.25455 5.40035 9.41083 5.24407C9.56711 5.08779 9.77907 4.99999 10.0001 4.99999Z" fill="#66D760"/>
</svg>
