<svg width="22" height="22" viewBox="0 0 22 22" fill="none" xmlns="http://www.w3.org/2000/svg">
<mask id="mask0_855_18308" style="mask-type:alpha" maskUnits="userSpaceOnUse" x="0" y="0" width="22" height="22">
<rect width="22" height="22" fill="#D9D9D9"/>
</mask>
<g mask="url(#mask0_855_18308)">
<path d="M10.9983 12.4575L6.59444 16.8616C6.40072 17.0552 6.15758 17.152 5.86501 17.152C5.57244 17.152 5.32929 17.0552 5.13557 16.8616C4.942 16.6679 4.84521 16.4247 4.84521 16.1322C4.84521 15.8396 4.942 15.5964 5.13557 15.4027L9.53969 10.9988L5.13557 6.59493C4.942 6.40121 4.84521 6.15806 4.84521 5.86549C4.84521 5.57293 4.942 5.32978 5.13557 5.13606C5.32929 4.94249 5.57244 4.8457 5.86501 4.8457C6.15758 4.8457 6.40072 4.94249 6.59444 5.13606L10.9983 9.54018L15.4022 5.13606C15.596 4.94249 15.8391 4.8457 16.1317 4.8457C16.4242 4.8457 16.6674 4.94249 16.8611 5.13606C17.0547 5.32978 17.1515 5.57293 17.1515 5.86549C17.1515 6.15806 17.0547 6.40121 16.8611 6.59493L12.457 10.9988L16.8611 15.4027C17.0547 15.5964 17.1515 15.8396 17.1515 16.1322C17.1515 16.4247 17.0547 16.6679 16.8611 16.8616C16.6674 17.0552 16.4242 17.152 16.1317 17.152C15.8391 17.152 15.596 17.0552 15.4022 16.8616L10.9983 12.4575Z" fill="white"/>
</g>
</svg>
