<svg width="14" height="14" viewBox="0 0 14 14" fill="none" xmlns="http://www.w3.org/2000/svg">
<path d="M6.99998 8.59086L2.19573 13.3954C1.98439 13.6065 1.71914 13.7121 1.39998 13.7121C1.08081 13.7121 0.815559 13.6065 0.604226 13.3954C0.393059 13.184 0.287476 12.9188 0.287476 12.5996C0.287476 12.2804 0.393059 12.0152 0.604226 11.8039L5.40873 6.99961L0.604226 2.19536C0.393059 1.98403 0.287476 1.71878 0.287476 1.39961C0.287476 1.08044 0.393059 0.815192 0.604226 0.603859C0.815559 0.392692 1.08081 0.287109 1.39998 0.287109C1.71914 0.287109 1.98439 0.392692 2.19573 0.603859L6.99998 5.40836L11.8042 0.603859C12.0156 0.392692 12.2808 0.287109 12.6 0.287109C12.9191 0.287109 13.1844 0.392692 13.3957 0.603859C13.6069 0.815192 13.7125 1.08044 13.7125 1.39961C13.7125 1.71878 13.6069 1.98403 13.3957 2.19536L8.59123 6.99961L13.3957 11.8039C13.6069 12.0152 13.7125 12.2804 13.7125 12.5996C13.7125 12.9188 13.6069 13.184 13.3957 13.3954C13.1844 13.6065 12.9191 13.7121 12.6 13.7121C12.2808 13.7121 12.0156 13.6065 11.8042 13.3954L6.99998 8.59086Z" fill="#191919"/>
</svg>
