<svg width="35" height="31" viewBox="0 0 35 31" fill="none" xmlns="http://www.w3.org/2000/svg">
<rect x="17.0421" y="3.81432" width="8.06282" height="3.08761" rx="1.54381" fill="#21232A"/>
<path d="M28.6783 30.5128C32.1698 30.5128 35.0003 27.7074 35.0003 24.2467C35.0003 20.7861 32.1698 17.9807 28.6783 17.9807C25.1868 17.9807 22.3563 20.7861 22.3563 24.2467C22.3563 27.7074 25.1868 30.5128 28.6783 30.5128Z" fill="#21232A"/>
<path d="M28.6781 27.0621C30.2468 27.0621 31.5185 25.8017 31.5185 24.2469C31.5185 22.6921 30.2468 21.4317 28.6781 21.4317C27.1095 21.4317 25.8378 22.6921 25.8378 24.2469C25.8378 25.8017 27.1095 27.0621 28.6781 27.0621Z" fill="white"/>
<path d="M7.9714 30.5128C11.4629 30.5128 14.2934 27.7074 14.2934 24.2467C14.2934 20.7861 11.4629 17.9807 7.9714 17.9807C4.47986 17.9807 1.64941 20.7861 1.64941 24.2467C1.64941 27.7074 4.47986 30.5128 7.9714 30.5128Z" fill="#21232A"/>
<path d="M7.97123 27.0621C9.53989 27.0621 10.8115 25.8017 10.8115 24.2469C10.8115 22.6922 9.53989 21.4318 7.97123 21.4318C6.40257 21.4318 5.13092 22.6922 5.13092 24.2469C5.13092 25.8017 6.40257 27.0621 7.97123 27.0621Z" fill="white"/>
<path d="M27.6701 8.71801C29.7953 8.71801 31.5182 6.96972 31.5182 4.81309C31.5182 2.65647 29.7953 0.908173 27.6701 0.908173C25.5448 0.908173 23.8219 2.65647 23.8219 4.81309C23.8219 6.96972 25.5448 8.71801 27.6701 8.71801Z" fill="white" stroke="#E3E5EB"/>
<path d="M25.2217 0.208998C26.5946 -0.462081 28.1994 0.568587 28.1994 2.08023V8.47267C29.5863 10.2271 30.4188 12.49 30.4188 14.9613C30.4188 20.5406 26.1609 25.0641 20.9058 25.0641H2.31814C0.69012 25.0641 -0.430011 23.4494 0.159043 21.9492L3.19012 14.2284C3.53567 13.3489 4.39374 12.7671 5.34922 12.7671H14.1456C15.1475 12.7671 16.038 13.4038 16.3488 14.3475L16.7106 15.4469C16.9077 16.0446 17.5222 16.4042 18.1461 16.2851C20.1684 15.9026 22.3274 14.5078 22.0747 12.6709L21.6387 10.1653L21.5042 9.18039C21.4717 8.9399 21.4624 8.69942 21.4763 8.46809C21.3302 7.8932 21.2537 7.28854 21.2537 6.66785C21.2537 3.81634 22.8771 1.35419 25.224 0.206708L25.2217 0.208998Z" fill="#FF4A4A"/>
<path d="M11.2105 5.08554H3.4492C1.54426 5.08554 0 6.62765 0 8.52993V14.3548C0 16.2571 1.54426 17.7992 3.4492 17.7992H11.2105C13.1154 17.7992 14.6597 16.2571 14.6597 14.3548V8.52993C14.6597 6.62765 13.1154 5.08554 11.2105 5.08554Z" fill="#00DDAC"/>
</svg>
