<svg width="42" height="42" viewBox="0 0 42 42" fill="none" xmlns="http://www.w3.org/2000/svg">
<circle cx="21" cy="21" r="21" fill="#F4F7FA"/>
<rect x="21.0287" y="13.4229" width="5.46191" height="2.09161" rx="1.0458" fill="#21232A"/>
<path d="M28.9111 31.508C31.2763 31.508 33.1937 29.6076 33.1937 27.2633C33.1937 24.919 31.2763 23.0186 28.9111 23.0186C26.5458 23.0186 24.6284 24.919 24.6284 27.2633C24.6284 29.6076 26.5458 31.508 28.9111 31.508Z" fill="#21232A"/>
<path d="M28.9109 29.1706C29.9735 29.1706 30.835 28.3167 30.835 27.2635C30.835 26.2103 29.9735 25.3564 28.9109 25.3564C27.8483 25.3564 26.9868 26.2103 26.9868 27.2635C26.9868 28.3167 27.8483 29.1706 28.9109 29.1706Z" fill="white"/>
<path d="M14.8835 31.508C17.2488 31.508 19.1662 29.6076 19.1662 27.2633C19.1662 24.919 17.2488 23.0186 14.8835 23.0186C12.5183 23.0186 10.6009 24.919 10.6009 27.2633C10.6009 29.6076 12.5183 31.508 14.8835 31.508Z" fill="#21232A"/>
<path d="M14.8836 29.1706C15.9462 29.1706 16.8076 28.3167 16.8076 27.2635C16.8076 26.2103 15.9462 25.3564 14.8836 25.3564C13.8209 25.3564 12.9595 26.2103 12.9595 27.2635C12.9595 28.3167 13.8209 29.1706 14.8836 29.1706Z" fill="white"/>
<path d="M28.2283 16.7446C29.668 16.7446 30.8352 15.5603 30.8352 14.0994C30.8352 12.6384 29.668 11.4541 28.2283 11.4541C26.7886 11.4541 25.6215 12.6384 25.6215 14.0994C25.6215 15.5603 26.7886 16.7446 28.2283 16.7446Z" fill="white" stroke="#E3E5EB"/>
<path d="M26.5692 10.9804C27.4992 10.5258 28.5864 11.224 28.5864 12.2481V16.5784C29.5258 17.7669 30.0898 19.2998 30.0898 20.9739C30.0898 24.7535 27.2054 27.8178 23.6455 27.8178H11.0539C9.95102 27.8178 9.19222 26.724 9.59126 25.7077L11.6446 20.4774C11.8787 19.8817 12.4599 19.4876 13.1072 19.4876H19.066C19.7447 19.4876 20.348 19.9189 20.5585 20.5581L20.8036 21.3029C20.9371 21.7078 21.3534 21.9514 21.776 21.8707C23.146 21.6116 24.6086 20.6667 24.4373 19.4224L24.142 17.725L24.0509 17.0578C24.0289 16.8949 24.0226 16.732 24.032 16.5753C23.933 16.1859 23.8812 15.7763 23.8812 15.3558C23.8812 13.4241 24.9809 11.7562 26.5708 10.9789L26.5692 10.9804Z" fill="#D2D6DE"/>
<path d="M17.0778 14.2832H11.8202C10.5298 14.2832 9.48364 15.3279 9.48364 16.6165V20.5624C9.48364 21.8511 10.5298 22.8957 11.8202 22.8957H17.0778C18.3683 22.8957 19.4144 21.8511 19.4144 20.5624V16.6165C19.4144 15.3279 18.3683 14.2832 17.0778 14.2832Z" fill="#777E91"/>
</svg>
