<svg width="22" height="22" viewBox="0 0 22 22" fill="none" xmlns="http://www.w3.org/2000/svg">
<mask id="mask0_840_7968" style="mask-type:alpha" maskUnits="userSpaceOnUse" x="0" y="0" width="22" height="22">
<rect width="22" height="22" fill="#D9D9D9"/>
</mask>
<g mask="url(#mask0_840_7968)">
<path d="M10.9998 13.825C10.8629 13.825 10.7319 13.8013 10.6068 13.754C10.4815 13.7068 10.3675 13.6318 10.2649 13.5292L6.0537 9.31799C5.86013 9.12427 5.76044 8.88403 5.75463 8.59726C5.74883 8.3105 5.84852 8.06445 6.0537 7.85912C6.24742 7.66555 6.49056 7.56876 6.78313 7.56876C7.0757 7.56876 7.31885 7.66555 7.51257 7.85912L10.9998 11.3292L14.487 7.85912C14.6808 7.66555 14.921 7.56586 15.2078 7.56005C15.4945 7.55425 15.7406 7.65394 15.9459 7.85912C16.1395 8.05284 16.2363 8.29598 16.2363 8.58855C16.2363 8.88112 16.1395 9.12427 15.9459 9.31799L11.7347 13.5292C11.6321 13.6318 11.5181 13.7068 11.3928 13.754C11.2677 13.8013 11.1367 13.825 10.9998 13.825Z" fill="#1C1B1F"/>
</g>
</svg>
