<svg width="20" height="20" viewBox="0 0 20 20" fill="none" xmlns="http://www.w3.org/2000/svg">
<mask id="mask0_593_1136" style="mask-type:alpha" maskUnits="userSpaceOnUse" x="0" y="0" width="20" height="20">
<rect width="20" height="20" fill="#D9D9D9"/>
</mask>
<g mask="url(#mask0_593_1136)">
<path d="M4.22677 17.6689C3.70204 17.6689 3.25489 17.4841 2.88531 17.1145C2.51572 16.7449 2.33093 16.2978 2.33093 15.773V4.22595C2.33093 3.70123 2.51572 3.25408 2.88531 2.88449C3.25489 2.51491 3.70204 2.33012 4.22677 2.33012H9.38031C9.69628 2.33012 9.93322 2.42859 10.0911 2.62553C10.2492 2.82262 10.3282 3.03935 10.3282 3.27574C10.3282 3.51213 10.247 3.72963 10.0845 3.92824C9.92211 4.12672 9.68211 4.22595 9.36448 4.22595H4.22677V15.773H15.7739V10.6245C15.7739 10.3085 15.8727 10.0716 16.0705 9.91366C16.2683 9.7556 16.4859 9.67658 16.7232 9.67658C16.9604 9.67658 17.1775 9.7556 17.3745 9.91366C17.5713 10.0716 17.6697 10.3085 17.6697 10.6245V15.773C17.6697 16.2978 17.4849 16.7449 17.1153 17.1145C16.7457 17.4841 16.2986 17.6689 15.7739 17.6689H4.22677ZM7.42052 11.6314V9.70512C7.42052 9.4522 7.46802 9.21116 7.56302 8.98199C7.65802 8.75269 7.7935 8.55005 7.96947 8.37408L14.9918 1.35678C15.1816 1.16692 15.394 1.02533 15.6288 0.931993C15.8639 0.83866 16.1004 0.791992 16.3386 0.791992C16.5874 0.791992 16.8266 0.83866 17.0561 0.931993C17.2859 1.02533 17.4957 1.16692 17.6855 1.35678L18.643 2.33012C18.8223 2.51998 18.9586 2.72991 19.052 2.95991C19.1453 3.18991 19.192 3.42387 19.192 3.66178C19.192 3.89956 19.1482 4.13387 19.0607 4.3647C18.9731 4.5954 18.8338 4.80623 18.643 4.9972L11.6257 12.0145C11.4498 12.1905 11.2471 12.3286 11.0178 12.4289C10.7886 12.5291 10.5476 12.5793 10.2947 12.5793H8.36843C8.10246 12.5793 7.87802 12.4878 7.6951 12.3047C7.51204 12.1218 7.42052 11.8973 7.42052 11.6314ZM9.21677 10.783H10.3136L15.1022 5.99449L14.5555 5.44595L13.9895 4.89762L9.21677 9.66533V10.783Z" fill="#777E91"/>
</g>
</svg>
