<svg width="20" height="20" viewBox="0 0 20 20" fill="none" xmlns="http://www.w3.org/2000/svg">
<mask id="mask0_495_7644" style="mask-type:alpha" maskUnits="userSpaceOnUse" x="0" y="0" width="20" height="20">
<rect width="20" height="20" fill="#D9D9D9"/>
</mask>
<g mask="url(#mask0_495_7644)">
<path d="M9.05222 16.0187H8.30847C8.04916 16.0187 7.83055 15.9288 7.65263 15.7491C7.47458 15.5695 7.38555 15.35 7.38555 15.0906C7.38555 14.8313 7.47534 14.6126 7.65492 14.4347C7.83465 14.2567 8.05416 14.1676 8.31347 14.1676H9.05222V12.5072C7.95166 12.2896 7.05152 11.7479 6.3518 10.882C5.65208 10.0163 5.30222 9.01764 5.30222 7.88598C5.30222 6.58889 5.7609 5.48688 6.67826 4.57993C7.59576 3.67313 8.70305 3.21973 10.0001 3.21973C11.2972 3.21973 12.4045 3.67313 13.322 4.57993C14.2394 5.48688 14.698 6.58889 14.698 7.88598C14.698 9.01764 14.3482 10.0163 13.6485 10.882C12.9487 11.7479 12.0486 12.2896 10.948 12.5072V14.1676H11.6918C11.9511 14.1676 12.1697 14.2567 12.3476 14.4347C12.5257 14.6126 12.6147 14.8313 12.6147 15.0906C12.6147 15.35 12.5257 15.5695 12.3476 15.7491C12.1697 15.9288 11.9511 16.0187 11.6918 16.0187H10.948V16.7374C10.948 17.0034 10.8566 17.2278 10.6737 17.4108C10.4906 17.5938 10.2661 17.6853 10.0001 17.6853C9.73416 17.6853 9.50965 17.5938 9.32659 17.4108C9.14367 17.2278 9.05222 17.0034 9.05222 16.7374V16.0187ZM10.0001 10.7197C10.7758 10.7197 11.4367 10.4466 11.9828 9.90035C12.5291 9.35424 12.8022 8.69334 12.8022 7.91764C12.8022 7.14195 12.5291 6.48105 11.9828 5.93494C11.4367 5.38868 10.7758 5.11556 10.0001 5.11556C9.22444 5.11556 8.56353 5.38868 8.01742 5.93494C7.47117 6.48105 7.19805 7.14195 7.19805 7.91764C7.19805 8.69334 7.47117 9.35424 8.01742 9.90035C8.56353 10.4466 9.22444 10.7197 10.0001 10.7197Z" fill="#FFC2C3"/>
</g>
</svg>
