<svg width="12" height="12" viewBox="0 0 12 12" fill="none" xmlns="http://www.w3.org/2000/svg">
<g clip-path="url(#clip0_2245_11997)">
<path fill-rule="evenodd" clip-rule="evenodd" d="M8 7.5C8.653 7.5 9.209 7.9175 9.415 8.5H10C10.1326 8.5 10.2598 8.55268 10.3536 8.64645C10.4473 8.74021 10.5 8.86739 10.5 9C10.5 9.13261 10.4473 9.25979 10.3536 9.35355C10.2598 9.44732 10.1326 9.5 10 9.5H9.415C9.3117 9.79277 9.12013 10.0463 8.8667 10.2256C8.61327 10.4049 8.31046 10.5012 8 10.5012C7.68954 10.5012 7.38673 10.4049 7.1333 10.2256C6.87987 10.0463 6.6883 9.79277 6.585 9.5H2C1.86739 9.5 1.74021 9.44732 1.64645 9.35355C1.55268 9.25979 1.5 9.13261 1.5 9C1.5 8.86739 1.55268 8.74021 1.64645 8.64645C1.74021 8.55268 1.86739 8.5 2 8.5H6.585C6.68851 8.20746 6.88016 7.95421 7.13357 7.77512C7.38699 7.59603 7.68969 7.49991 8 7.5ZM8 8.5C7.86739 8.5 7.74021 8.55268 7.64645 8.64645C7.55268 8.74021 7.5 8.86739 7.5 9C7.5 9.13261 7.55268 9.25979 7.64645 9.35355C7.74021 9.44732 7.86739 9.5 8 9.5C8.13261 9.5 8.25979 9.44732 8.35355 9.35355C8.44732 9.25979 8.5 9.13261 8.5 9C8.5 8.86739 8.44732 8.74021 8.35355 8.64645C8.25979 8.55268 8.13261 8.5 8 8.5ZM4 4.5C4.29449 4.49996 4.58249 4.58661 4.82807 4.74914C5.07365 4.91168 5.26595 5.14291 5.381 5.414L5.4145 5.5H10C10.1274 5.50014 10.25 5.54894 10.3427 5.63642C10.4354 5.72391 10.4911 5.84348 10.4986 5.9707C10.5061 6.09792 10.4647 6.22319 10.3829 6.32092C10.3011 6.41864 10.185 6.48145 10.0585 6.4965L10 6.5H5.415C5.3142 6.78514 5.12959 7.03317 4.88537 7.21156C4.64115 7.38995 4.34872 7.49038 4.04643 7.49968C3.74413 7.50898 3.44609 7.42671 3.19136 7.26367C2.93664 7.10062 2.73713 6.86441 2.619 6.586L2.585 6.5H2C1.87256 6.49986 1.74998 6.45106 1.65732 6.36358C1.56465 6.27609 1.50888 6.15652 1.50141 6.0293C1.49395 5.90208 1.53534 5.77681 1.61713 5.67908C1.69893 5.58136 1.81495 5.51855 1.9415 5.5035L2 5.5H2.585C2.68851 5.20746 2.88016 4.95421 3.13357 4.77512C3.38699 4.59603 3.68969 4.49991 4 4.5ZM4 5.5C3.86739 5.5 3.74021 5.55268 3.64645 5.64645C3.55268 5.74021 3.5 5.86739 3.5 6C3.5 6.13261 3.55268 6.25979 3.64645 6.35355C3.74021 6.44732 3.86739 6.5 4 6.5C4.13261 6.5 4.25979 6.44732 4.35355 6.35355C4.44732 6.25979 4.5 6.13261 4.5 6C4.5 5.86739 4.44732 5.74021 4.35355 5.64645C4.25979 5.55268 4.13261 5.5 4 5.5ZM8 1.5C8.653 1.5 9.209 1.9175 9.415 2.5H10C10.1326 2.5 10.2598 2.55268 10.3536 2.64645C10.4473 2.74022 10.5 2.86739 10.5 3C10.5 3.13261 10.4473 3.25979 10.3536 3.35355C10.2598 3.44732 10.1326 3.5 10 3.5H9.415C9.3117 3.79277 9.12013 4.04628 8.8667 4.22561C8.61327 4.40493 8.31046 4.50123 8 4.50123C7.68954 4.50123 7.38673 4.40493 7.1333 4.22561C6.87987 4.04628 6.6883 3.79277 6.585 3.5H2C1.86739 3.5 1.74021 3.44732 1.64645 3.35355C1.55268 3.25979 1.5 3.13261 1.5 3C1.5 2.86739 1.55268 2.74022 1.64645 2.64645C1.74021 2.55268 1.86739 2.5 2 2.5H6.585C6.68851 2.20746 6.88016 1.95421 7.13357 1.77512C7.38699 1.59603 7.68969 1.49991 8 1.5ZM8 2.5C7.86739 2.5 7.74021 2.55268 7.64645 2.64645C7.55268 2.74022 7.5 2.86739 7.5 3C7.5 3.13261 7.55268 3.25979 7.64645 3.35355C7.74021 3.44732 7.86739 3.5 8 3.5C8.13261 3.5 8.25979 3.44732 8.35355 3.35355C8.44732 3.25979 8.5 3.13261 8.5 3C8.5 2.86739 8.44732 2.74022 8.35355 2.64645C8.25979 2.55268 8.13261 2.5 8 2.5Z" fill="#121212"/>
</g>
<defs>
<clipPath id="clip0_2245_11997">
<rect width="12" height="12" fill="white"/>
</clipPath>
</defs>
</svg>
