<svg width="30" height="30" viewBox="0 0 30 30" fill="none" xmlns="http://www.w3.org/2000/svg">
<g id="fullscreen_exit_line" clip-path="url(#clip0_2197_13611)">
<g id="Group">
<path id="Vector" fill-rule="evenodd" clip-rule="evenodd" d="M25 8.75H21.25V5C21.25 4.66848 21.1183 4.35054 20.8839 4.11612C20.6495 3.8817 20.3315 3.75 20 3.75C19.6685 3.75 19.3505 3.8817 19.1161 4.11612C18.8817 4.35054 18.75 4.66848 18.75 5V8.75C18.75 9.41304 19.0134 10.0489 19.4822 10.5178C19.9511 10.9866 20.587 11.25 21.25 11.25H25C25.3315 11.25 25.6495 11.1183 25.8839 10.8839C26.1183 10.6495 26.25 10.3315 26.25 10C26.25 9.66848 26.1183 9.35054 25.8839 9.11612C25.6495 8.8817 25.3315 8.75 25 8.75ZM8.75 11.25C9.41304 11.25 10.0489 10.9866 10.5178 10.5178C10.9866 10.0489 11.25 9.41304 11.25 8.75V5C11.25 4.66848 11.1183 4.35054 10.8839 4.11612C10.6495 3.8817 10.3315 3.75 10 3.75C9.66848 3.75 9.35054 3.8817 9.11612 4.11612C8.8817 4.35054 8.75 4.66848 8.75 5V8.75H5C4.66848 8.75 4.35054 8.8817 4.11612 9.11612C3.8817 9.35054 3.75 9.66848 3.75 10C3.75 10.3315 3.8817 10.6495 4.11612 10.8839C4.35054 11.1183 4.66848 11.25 5 11.25H8.75ZM8.75 21.25H5C4.66848 21.25 4.35054 21.1183 4.11612 20.8839C3.8817 20.6495 3.75 20.3315 3.75 20C3.75 19.6685 3.8817 19.3505 4.11612 19.1161C4.35054 18.8817 4.66848 18.75 5 18.75H8.75C9.41304 18.75 10.0489 19.0134 10.5178 19.4822C10.9866 19.9511 11.25 20.587 11.25 21.25V25C11.25 25.3315 11.1183 25.6495 10.8839 25.8839C10.6495 26.1183 10.3315 26.25 10 26.25C9.66848 26.25 9.35054 26.1183 9.11612 25.8839C8.8817 25.6495 8.75 25.3315 8.75 25V21.25ZM21.25 18.75C20.587 18.75 19.9511 19.0134 19.4822 19.4822C19.0134 19.9511 18.75 20.587 18.75 21.25V25C18.75 25.3315 18.8817 25.6495 19.1161 25.8839C19.3505 26.1183 19.6685 26.25 20 26.25C20.3315 26.25 20.6495 26.1183 20.8839 25.8839C21.1183 25.6495 21.25 25.3315 21.25 25V21.25H25C25.3315 21.25 25.6495 21.1183 25.8839 20.8839C26.1183 20.6495 26.25 20.3315 26.25 20C26.25 19.6685 26.1183 19.3505 25.8839 19.1161C25.6495 18.8817 25.3315 18.75 25 18.75H21.25Z" fill="white"/>
</g>
</g>
<defs>
<clipPath id="clip0_2197_13611">
<rect width="30" height="30" fill="white"/>
</clipPath>
</defs>
</svg>
