<svg width="89" height="40" viewBox="0 0 89 40" fill="none" xmlns="http://www.w3.org/2000/svg">
<g clip-path="url(#clip0_1060_9240)">
<path d="M6.86577 36.5645C8.34181 36.5645 10.0198 35.8917 10.7266 34.4841C10.9525 33.9878 11.2747 33.2196 10.8804 32.7568C10.4429 32.3464 9.10627 32.8904 8.34181 32.8761C4.75988 33.3103 0.932752 31.2442 0.245215 27.5749C-1.56738 19.9928 7.01 15.3787 13.6161 16.9868C14.2652 17.1728 14.6306 17.2015 14.7604 17.5593C14.8085 17.8934 14.77 18.6473 14.7845 19.6875C14.7845 23.5238 14.7845 31.039 14.7845 32.7377C14.8085 33.7254 14.5873 34.8753 14.1065 35.8344C12.4815 39.2938 8.1543 40.5821 4.58199 39.7757C3.89445 39.6231 3.08671 39.4894 2.48091 39.1459C2.3511 39.0552 2.25975 38.9455 2.22128 38.7928C2.10589 38.4206 2.46168 37.6858 2.73093 37.0178C3.16364 35.844 3.71656 36.0444 4.91374 36.3593C5.52915 36.4977 6.14938 36.5788 6.77922 36.574H6.87057L6.86577 36.5645ZM4.68776 28.5339C6.25516 30.0752 9.01011 29.6219 10.89 28.7391C11.0583 28.6246 11.1304 28.4958 11.1448 28.3097C11.1497 27.0595 11.1689 22.5122 11.14 20.4366C11.015 19.8354 9.74573 20.2028 9.26013 20.2171C6.80326 20.5845 4.06273 22.2355 3.71656 24.8932C3.55789 26.11 3.78387 27.5701 4.63007 28.4767L4.68776 28.5339Z" fill="#191919"/>
<path d="M38.9059 33.315C35.5452 33.3341 33.1845 31.2346 33.2566 27.9661C33.2614 23.0085 33.2374 8.66993 33.2662 7.3482C33.3335 7.1812 33.6172 7.22891 33.7903 7.20983C34.4153 7.20506 35.9827 7.20506 36.6126 7.20983C36.8049 7.22414 37.1414 7.16688 37.1462 7.41978C37.2568 9.78647 36.9251 26.0766 37.2857 28.7487C37.579 29.8461 38.805 30.0322 39.9637 29.8557C40.8772 29.6553 41.257 30.0799 41.459 30.9531C41.5888 31.4971 41.8821 32.0744 41.8148 32.6279C41.7426 33.0765 41.0984 33.1337 40.4156 33.2339C39.9445 33.2912 39.4781 33.3246 39.0069 33.3198H38.9108L38.9059 33.315Z" fill="#191919"/>
<path d="M53.4067 16.8245C53.6039 16.7148 53.6856 16.5573 53.7144 16.3378C53.7673 15.1688 53.676 11.9909 53.7577 10.841C53.9164 10.3877 54.4693 10.5929 54.9357 10.5404C55.5078 10.5404 56.1425 10.5404 56.7098 10.5404C57.4887 10.5404 57.2964 10.6263 57.3252 11.0605C57.3252 15.9227 57.3252 29.4405 57.3252 32.208C57.2964 32.4371 57.1569 32.4609 56.8829 32.5611C55.4934 32.9285 54.0221 33.1337 52.5894 33.2053C48.5892 33.4152 43.3004 32.375 42.834 27.613C42.1128 20.9901 47.0602 18.1462 53.349 16.8579L53.4067 16.8245ZM47.6853 29.1017C48.9786 29.9034 50.7095 29.9845 52.2961 29.8986C52.7721 29.8079 53.6471 29.9654 53.7337 29.3976C53.7481 28.0997 53.7385 22.1066 53.7337 20.6895C53.7096 20.1074 52.8154 20.5034 52.4211 20.5511C50.4402 21.0521 49.0796 21.5675 47.8151 22.746C46.2669 24.168 45.5553 27.6751 47.618 29.0588L47.6853 29.1065V29.1017Z" fill="#191919"/>
<path d="M66.5949 16.4762C72.3212 16.3903 72.9078 21.0378 72.8837 25.5899C72.9607 27.2838 73.0857 28.8107 73.4992 30.4426C73.5953 31.0629 74.0473 31.7166 73.903 32.3226C73.7251 32.6804 73.2828 32.8283 72.927 33.0001C72.2154 33.3007 71.4846 33.7063 71.0952 33.6347C70.1817 33.4248 70.398 31.6116 69.0759 32.4371C67.2536 33.6157 64.917 33.7206 62.8015 33.3437C61.0273 33.0526 59.7725 31.7547 59.4407 29.9177C58.6474 25.5422 63.013 23.7767 66.518 22.8892C67.3065 22.6506 68.5902 22.5552 68.8355 21.9396C69.1239 20.9567 68.1912 20.074 67.2152 19.8879C65.6862 19.5491 64.1092 20.1694 62.5803 20.4986C61.9793 20.5893 61.7341 20.2696 61.5178 19.6827C61.3495 19.1817 61.0947 18.6043 61.0081 18.089C60.8879 17.2158 61.8687 17.2063 62.7294 16.9486C63.9746 16.6575 65.2151 16.4523 66.494 16.4667H66.5901L66.5949 16.4762ZM64.8449 30.2088C66.1718 30.2231 67.4748 29.9177 68.6287 29.2401C69.5567 28.8011 69.4124 28.3335 69.3211 27.2838C69.2153 26.8162 69.4701 25.7998 69.0037 25.5851C68.2441 25.5279 67.3883 25.9048 66.7055 26.0814C65.4891 26.5013 64.3016 26.9498 63.4457 27.9089C62.4409 29.1638 63.2582 30.2374 64.7487 30.2088H64.8449Z" fill="#191919"/>
<path d="M50.8393 7.16211C51.6374 6.91399 52.4499 6.62293 53.2625 6.42729C54.1808 6.20303 55.503 5.91196 56.4261 5.86902C56.6136 5.85948 57.2339 5.83562 57.3685 5.87856C57.5031 5.92151 57.5031 6.16009 57.4069 6.25552C56.7867 6.47501 56.1376 6.60384 55.5318 6.85673C51.8826 8.38363 47.9064 10.569 44.8149 13.0073C43.3052 14.2002 41.4013 15.77 40.257 17.2874C40.1031 17.4878 39.8483 18.1462 39.5887 18.1272C39.2858 18.1033 39.3579 17.5737 39.3675 17.3446C39.5021 14.7918 42.7042 9.29023 44.4832 7.39592C48.5651 3.04426 53.3875 0.796851 59.3301 0.0668016C59.5657 0.0811163 60.6523 -0.109746 60.7148 0.0906594C60.7917 0.353095 59.9888 0.515328 59.7773 0.625074C57.3156 1.85614 54.0125 4.38507 51.8778 6.16486C51.5124 6.47024 51.1518 6.79948 50.8393 7.16211Z" fill="#191919"/>
<path d="M24.2225 16.4762C29.9487 16.3903 30.5353 21.0378 30.5113 25.5899C30.5882 27.2838 30.7132 28.8107 31.1267 30.4426C31.2228 31.0629 31.6748 31.7166 31.5306 32.3226C31.3527 32.6804 30.9103 32.8283 30.5545 33.0001C29.843 33.3007 29.1122 33.7063 28.7227 33.6347C27.8092 33.4248 28.0256 31.6116 26.7034 32.4371C24.8812 33.6157 22.5445 33.7206 20.429 33.3437C18.6549 33.0526 17.4 31.7547 17.0682 29.9177C16.2749 25.5422 20.6405 23.7767 24.1455 22.8892C24.934 22.6506 26.2178 22.5552 26.463 21.9396C26.7514 20.9567 25.8187 20.074 24.8427 19.8879C23.3138 19.5491 21.7368 20.1694 20.2078 20.4986C19.6068 20.5893 19.3616 20.2696 19.1453 19.6827C18.977 19.1817 18.7222 18.6043 18.6356 18.089C18.5154 17.2158 19.4962 17.2063 20.3569 16.9486C21.6021 16.6575 22.8426 16.4523 24.1215 16.4667H24.2177L24.2225 16.4762ZM22.4724 30.2088C23.7994 30.2231 25.1023 29.9177 26.2562 29.2401C27.1842 28.8011 27.0399 28.3335 26.9486 27.2838C26.8428 26.8162 27.0976 25.7998 26.6312 25.5851C25.8716 25.5279 25.0158 25.9048 24.333 26.0814C23.1166 26.5013 21.9291 26.9498 21.0733 27.9089C20.0684 29.1638 20.8857 30.2374 22.3762 30.2088H22.4724Z" fill="#191919"/>
<path d="M75.8983 20.575C77.3119 17.8075 80.6774 16.1994 83.8363 16.9629C87.4951 17.9029 89.2933 22.3786 88.6106 25.776C88.5288 26.0241 88.375 26.1148 88.1298 26.1291C86.9759 26.1434 83.2016 26.1291 80.7832 26.1338C80.1918 26.2054 78.6821 25.9239 78.6629 26.401C78.6437 26.4965 78.6485 26.6158 78.6725 26.7589C79.3937 30.6334 83.3555 30.8529 86.0047 28.5196C86.721 27.9375 87.2884 27.8134 87.8846 28.6246C88.2548 29.159 89.0529 29.7364 89 30.3901C88.9135 30.8195 88.149 31.2633 87.5817 31.6736C85.8989 32.8761 83.8843 33.6825 81.7785 33.4868C75.4945 33.1337 73.3597 25.5374 75.8599 20.6465L75.9031 20.5654L75.8983 20.575ZM84.87 22.894C84.7306 21.3098 83.3651 19.7781 81.5958 20.2648C80.3072 20.5082 79.3312 21.4482 78.9177 22.6363C78.8745 22.789 78.7879 22.9369 78.8985 23.0276C80.1678 23.0848 82.3025 23.0276 83.6728 23.0466C84.2209 23.0419 84.6392 23.0562 84.7931 23.0371C84.8363 23.018 84.8604 22.9846 84.87 22.9417V22.8987V22.894Z" fill="#191919"/>
</g>
<defs>
<clipPath id="clip0_1060_9240">
<rect width="89" height="40" fill="white"/>
</clipPath>
</defs>
</svg>
