<svg width="12" height="12" viewBox="0 0 12 12" fill="none" xmlns="http://www.w3.org/2000/svg">
<g id="pic_line 2" clip-path="url(#clip0_2547_303)">
<g id="Group">
<path id="Vector" d="M10 1.5C10.2523 1.49992 10.4953 1.5952 10.6803 1.76675C10.8653 1.93829 10.9786 2.17342 10.9975 2.425L11 2.5V9.5C11.0001 9.75229 10.9048 9.99528 10.7333 10.1803C10.5617 10.3653 10.3266 10.4786 10.075 10.4975L10 10.5H2C1.74771 10.5001 1.50472 10.4048 1.31973 10.2333C1.13474 10.0617 1.02142 9.82658 1.0025 9.575L1 9.5V2.5C0.99992 2.24771 1.0952 2.00472 1.26675 1.81973C1.43829 1.63474 1.67342 1.52142 1.925 1.5025L2 1.5H10ZM4.9395 6.025L2.111 8.8535C2.07809 8.88653 2.04073 8.9148 2 8.9375V9.5H10V8.9375C9.95926 8.91481 9.9219 8.88654 9.889 8.8535L8.475 7.44L8.1215 7.7935L8.225 7.897C8.27142 7.94345 8.30824 7.9986 8.33335 8.05928C8.35846 8.11997 8.37138 8.185 8.37135 8.25068C8.37133 8.31635 8.35837 8.38138 8.33322 8.44204C8.30806 8.50271 8.2712 8.55783 8.22475 8.60425C8.1783 8.65067 8.12315 8.68749 8.06247 8.7126C8.00178 8.73771 7.93675 8.75062 7.87107 8.7506C7.8054 8.75058 7.74037 8.73762 7.67971 8.71246C7.61904 8.68731 7.56392 8.65046 7.5175 8.604L4.94 6.025H4.9395ZM10 2.5H2V7.55L4.4975 5.053C4.60637 4.94416 4.75158 4.87932 4.9053 4.87093C5.05901 4.86253 5.21042 4.91116 5.3305 5.0075L5.381 5.0525L7.414 7.086L8.033 6.467C8.14187 6.35816 8.28708 6.29332 8.4408 6.28493C8.59451 6.27653 8.74592 6.32516 8.866 6.4215L8.917 6.467L10 7.5505V2.5ZM7.75 3.5C7.94891 3.5 8.13968 3.57902 8.28033 3.71967C8.42098 3.86032 8.5 4.05109 8.5 4.25C8.5 4.44891 8.42098 4.63968 8.28033 4.78033C8.13968 4.92098 7.94891 5 7.75 5C7.55109 5 7.36032 4.92098 7.21967 4.78033C7.07902 4.63968 7 4.44891 7 4.25C7 4.05109 7.07902 3.86032 7.21967 3.71967C7.36032 3.57902 7.55109 3.5 7.75 3.5Z" fill="#121212"/>
</g>
</g>
<defs>
<clipPath id="clip0_2547_303">
<rect width="12" height="12" fill="white"/>
</clipPath>
</defs>
</svg>
