<svg width="58" height="18" viewBox="0 0 58 18" fill="none" xmlns="http://www.w3.org/2000/svg">
<rect width="58" height="18" rx="9" fill="#EFF1F5"/>
<path d="M12.96 10.56V7.88H11.13V7.04H12.96V5.23H13.99V10.56H12.96ZM11.87 9.39L11.32 10.2C10.35 9.85 9.65 9.17 9.26 8.29C8.86 9.29 8.1 10.08 7.01 10.47L6.47 9.64C7.92 9.15 8.71 7.93 8.71 6.61V5.72H9.75V6.56C9.75 7.81 10.5 8.94 11.87 9.39ZM10.98 13.46C12.26 13.46 13 13.13 13 12.54C13 11.95 12.26 11.62 10.98 11.62C9.7 11.62 8.97 11.95 8.97 12.54C8.97 13.13 9.7 13.46 10.98 13.46ZM10.98 10.81C12.87 10.81 14.03 11.45 14.03 12.54C14.03 13.63 12.87 14.27 10.98 14.27C9.1 14.27 7.94 13.63 7.94 12.54C7.94 11.45 9.1 10.81 10.98 10.81ZM21.6492 7.25H19.7792V8.1H21.6492V7.25ZM18.7692 8.79V7.61H16.6392V8.79H18.7692ZM19.7792 8.9V9.61H15.6192V5.64H16.6392V6.82H18.7692V5.64H19.7792V6.46H21.6492V5.24H22.6892V9.92H21.6492V8.9H19.7792ZM17.8392 13.35H22.9892V14.16H16.8192V11.82H21.6692V11.13H16.8092V10.32H22.6892V12.58H17.8392V13.35ZM32.0445 5.23H33.0845V14.29H32.0445V5.23ZM26.1345 5.98H27.1545V8.28H29.4445V5.98H30.4745V12.14H26.1345V5.98ZM27.1545 9.1V11.31H29.4445V9.1H27.1545ZM41.2538 8.83L40.2438 8.72C40.4738 7.83 40.4838 7.18 40.4838 6.5H35.3038V5.67H41.5038V6.43C41.5038 7.15 41.5038 7.9 41.2538 8.83ZM38.4038 13.48C39.7338 13.48 40.5338 13.15 40.5338 12.58C40.5338 12.02 39.7338 11.69 38.4038 11.69C37.0638 11.69 36.2438 12.02 36.2438 12.58C36.2438 13.15 37.0638 13.48 38.4038 13.48ZM38.4038 10.9C40.3238 10.9 41.5638 11.54 41.5638 12.58C41.5638 13.63 40.3238 14.27 38.4038 14.27C36.4538 14.27 35.2238 13.63 35.2238 12.58C35.2238 11.54 36.4538 10.9 38.4038 10.9ZM38.6038 9.37H42.5038V10.2H34.3638V9.37H37.5638V7.71H38.6038V9.37ZM43.383 6.38H46.933C46.933 8.79 46.143 10.92 43.603 12.38L43.003 11.65C44.953 10.52 45.773 9.04 45.913 7.22H43.383V6.38ZM49.753 5.24H50.733V14.27H49.753V9.61H48.723V13.85H47.753V5.48H48.723V8.77H49.753V5.24Z" fill="#3D3F4D"/>
</svg>
