<svg width="12" height="13" viewBox="0 0 12 13" fill="none" xmlns="http://www.w3.org/2000/svg">
<path d="M7 1.5C7.25229 1.49992 7.49528 1.5952 7.68027 1.76675C7.86526 1.93829 7.97858 2.17342 7.9975 2.425L8 2.5V3.5H8.5C8.75229 3.49992 8.99528 3.5952 9.18027 3.76675C9.36526 3.93829 9.47858 4.17342 9.4975 4.425L9.5 4.5V10C9.5 10.2652 9.39464 10.5196 9.20711 10.7071C9.01957 10.8946 8.76522 11 8.5 11C8.49986 11.1274 8.45106 11.25 8.36358 11.3427C8.27609 11.4354 8.15652 11.4911 8.0293 11.4986C7.90208 11.5061 7.77681 11.4647 7.67908 11.3829C7.58136 11.3011 7.51855 11.185 7.5035 11.0585L7.5 11H4.5C4.5 11.1326 4.44732 11.2598 4.35355 11.3536C4.25979 11.4473 4.13261 11.5 4 11.5C3.86739 11.5 3.74021 11.4473 3.64645 11.3536C3.55268 11.2598 3.5 11.1326 3.5 11C3.24771 11.0001 3.00472 10.9048 2.81973 10.7333C2.63474 10.5617 2.52142 10.3266 2.5025 10.075L2.5 10V4.5C2.49992 4.24771 2.5952 4.00472 2.76675 3.81973C2.93829 3.63474 3.17342 3.52142 3.425 3.5025L3.5 3.5H4V2.5C3.99992 2.24771 4.0952 2.00472 4.26675 1.81973C4.43829 1.63474 4.67342 1.52142 4.925 1.5025L5 1.5H7ZM8.5 4.5H3.5V10H8.5V4.5ZM5 5.5C5.13261 5.5 5.25979 5.55268 5.35355 5.64645C5.44732 5.74021 5.5 5.86739 5.5 6V8.5C5.5 8.63261 5.44732 8.75979 5.35355 8.85355C5.25979 8.94732 5.13261 9 5 9C4.86739 9 4.74021 8.94732 4.64645 8.85355C4.55268 8.75979 4.5 8.63261 4.5 8.5V6C4.5 5.86739 4.55268 5.74021 4.64645 5.64645C4.74021 5.55268 4.86739 5.5 5 5.5ZM7 5.5C7.13261 5.5 7.25979 5.55268 7.35355 5.64645C7.44732 5.74021 7.5 5.86739 7.5 6V8.5C7.5 8.63261 7.44732 8.75979 7.35355 8.85355C7.25979 8.94732 7.13261 9 7 9C6.86739 9 6.74021 8.94732 6.64645 8.85355C6.55268 8.75979 6.5 8.63261 6.5 8.5V6C6.5 5.86739 6.55268 5.74021 6.64645 5.64645C6.74021 5.55268 6.86739 5.5 7 5.5ZM7 2.5H5V3.5H7V2.5Z" fill="#66D760"/>
</svg>
