<svg width="134" height="239" viewBox="0 0 134 239" fill="none" xmlns="http://www.w3.org/2000/svg">
<g clip-path="url(#clip0_2338_5069)">
<path d="M66.5119 175.427C68.3721 180.482 70.4792 190.552 69.0745 195.271C68.5324 197.1 66.33 197.793 64.8742 196.567C59.6836 192.195 52.7508 171.044 50.6507 162.111C50.4037 161.044 47.5594 154.088 47.0188 153.137C45.3937 150.248 -15.6736 73.6751 -22.3081 67.3584" stroke="#231815" stroke-width="3" stroke-linecap="round" stroke-linejoin="round"/>
<path d="M78.1353 170.345C80.4041 175.674 86.8593 189.836 84.8863 194.194C81.636 201.401 71.1702 187.078 68.2169 181.347" stroke="#231815" stroke-width="3" stroke-linecap="round" stroke-linejoin="round"/>
<path d="M89.4024 163.646C95.0848 171.107 100.612 177.787 102.39 186.993C106.157 206.424 83.7994 182.78 79.5137 173.559" stroke="#231815" stroke-width="3" stroke-linecap="round" stroke-linejoin="round"/>
<path d="M-11.4053 16.0093C4.88574 28.8112 79.6987 120.805 79.6987 120.805C79.6987 120.805 94.7787 111.748 101.716 112.336C106.514 112.741 105.579 116.272 105.308 117.857C104.014 125.255 97.5998 129.028 92.9837 134.961C92.5785 135.483 92.1498 136.026 92.0745 136.681C91.9976 137.382 92.3357 138.05 92.6665 138.667C96.1451 145.146 99.6148 151.619 103.093 158.097C105.912 163.347 111.421 171.254 110.297 177.105C108.8 184.928 95.339 170.251 92.7316 168.023" stroke="#231815" stroke-width="3" stroke-linecap="round" stroke-linejoin="round"/>
<path d="M96.2376 158.647C86.1473 166.914 73.9574 172.602 61.1348 175.028" stroke="#231815" stroke-width="3" stroke-linecap="round" stroke-linejoin="round"/>
</g>
<defs>
<clipPath id="clip0_2338_5069">
<rect width="111.318" height="215.342" fill="white" transform="translate(-34 31.4297) rotate(-16.4)"/>
</clipPath>
</defs>
</svg>
