<svg width="26" height="26" viewBox="0 0 26 26" fill="none" xmlns="http://www.w3.org/2000/svg">
<mask id="mask0_1549_3380" style="mask-type:alpha" maskUnits="userSpaceOnUse" x="0" y="0" width="26" height="26">
<rect width="26" height="26" fill="#D9D9D9"/>
</mask>
<g mask="url(#mask0_1549_3380)">
<path d="M5.49425 21.5889C4.81211 21.5889 4.23081 21.3487 3.75035 20.8682C3.26989 20.3878 3.02966 19.8065 3.02966 19.1243V11.7352C3.02966 10.3698 3.29273 9.0829 3.81887 7.87444C4.34519 6.6658 5.06064 5.60946 5.96523 4.70542C6.86999 3.8012 7.92705 3.0862 9.13641 2.56042C10.3458 2.03446 11.6336 1.77148 12.9998 1.77148C14.3661 1.77148 15.6536 2.03311 16.8622 2.55636C18.0707 3.07961 19.1281 3.79335 20.0345 4.69757C20.9407 5.60161 21.6565 6.65795 22.1819 7.86659C22.7073 9.07505 22.97 10.3646 22.97 11.7352V22.5493C22.97 23.2314 22.7298 23.8127 22.2493 24.2932C21.7689 24.7736 21.1876 25.0139 20.5055 25.0139H14.1674C13.8388 25.0139 13.5621 24.9013 13.3373 24.6761C13.1123 24.4512 12.9998 24.1723 12.9998 23.8395C12.9998 23.5068 13.1123 23.2291 13.3373 23.0064C13.5625 22.7836 13.8413 22.6722 14.1739 22.6722H20.5055V21.5889H18.533C17.8508 21.5889 17.2695 21.3487 16.7891 20.8682C16.3086 20.3878 16.0684 19.8065 16.0684 19.1243V15.0889C16.0684 14.4068 16.3086 13.8255 16.7891 13.345C17.2695 12.8645 17.8508 12.6243 18.533 12.6243H20.5055V11.7352C20.5055 9.65806 19.7738 7.88898 18.3106 6.42792C16.8472 4.96669 15.077 4.23607 12.9998 4.23607C10.9312 4.23607 9.16314 4.96669 7.69558 6.42792C6.22802 7.88898 5.49425 9.65806 5.49425 11.7352V12.6243H7.46673C8.14886 12.6243 8.73016 12.8645 9.21062 13.345C9.69108 13.8255 9.93131 14.4068 9.93131 15.0889V19.1243C9.93131 19.8065 9.69108 20.3878 9.21062 20.8682C8.73016 21.3487 8.14886 21.5889 7.46673 21.5889H5.49425ZM5.49425 19.1243H7.46673V15.0889H5.49425V19.1243ZM18.533 19.1243H20.5055V15.0889H18.533V19.1243Z" fill="white"/>
</g>
</svg>
