<svg width="30" height="30" viewBox="0 0 30 30" fill="none" xmlns="http://www.w3.org/2000/svg">
<mask id="mask0_539_557" style="mask-type:alpha" maskUnits="userSpaceOnUse" x="0" y="0" width="30" height="30">
<rect width="30" height="30" fill="#D9D9D9"/>
</mask>
<g mask="url(#mask0_539_557)">
<path d="M7.58984 23.66H11.0783V17.4997C11.0783 17.1008 11.2155 16.764 11.4898 16.4894C11.7644 16.215 12.1012 16.0778 12.5002 16.0778H17.5002C17.8991 16.0778 18.2359 16.215 18.5105 16.4894C18.7848 16.764 18.922 17.1008 18.922 17.4997V23.66H22.4105V12.5444L15.0002 6.9869L7.58984 12.5444V23.66ZM4.74609 23.66V12.5444C4.74609 12.095 4.84589 11.6693 5.04547 11.2672C5.24484 10.8651 5.52318 10.5321 5.88047 10.2682L13.2908 4.71034C13.7931 4.32721 14.3629 4.13565 15.0002 4.13565C15.6374 4.13565 16.2072 4.32721 16.7095 4.71034L24.1198 10.2682C24.4771 10.5321 24.7555 10.8651 24.9548 11.2672C25.1544 11.6693 25.2542 12.095 25.2542 12.5444V23.66C25.2542 24.4471 24.977 25.1178 24.4227 25.6722C23.8683 26.2266 23.1975 26.5038 22.4105 26.5038H17.6123C17.2132 26.5038 16.8764 26.3666 16.602 26.0922C16.3277 25.8176 16.1905 25.4809 16.1905 25.0819V18.8094H13.8098V25.0819C13.8098 25.4809 13.6727 25.8176 13.3983 26.0922C13.1239 26.3666 12.7871 26.5038 12.388 26.5038H7.58984C6.80276 26.5038 6.13203 26.2266 5.57766 25.6722C5.02328 25.1178 4.74609 24.4471 4.74609 23.66Z" fill="#00DDAC"/>
</g>
</svg>
