<svg width="28" height="28" viewBox="0 0 28 28" fill="none" xmlns="http://www.w3.org/2000/svg">
<mask id="mask0_539_75" style="mask-type:alpha" maskUnits="userSpaceOnUse" x="0" y="0" width="28" height="28">
<rect width="28" height="28" fill="#D9D9D9"/>
</mask>
<g mask="url(#mask0_539_75)">
<path d="M7.00008 22.1667H10.5001V16.3334C10.5001 16.0028 10.6119 15.7257 10.8355 15.5021C11.0591 15.2785 11.3362 15.1667 11.6667 15.1667H16.3334C16.664 15.1667 16.9411 15.2785 17.1647 15.5021C17.3883 15.7257 17.5001 16.0028 17.5001 16.3334V22.1667H21.0001V11.6667L14.0001 6.41671L7.00008 11.6667V22.1667ZM4.66675 22.1667V11.6667C4.66675 11.2973 4.74939 10.9473 4.91466 10.6167C5.07994 10.2862 5.30841 10.0139 5.60008 9.80004L12.6001 4.55004C13.0084 4.23893 13.4751 4.08337 14.0001 4.08337C14.5251 4.08337 14.9917 4.23893 15.4001 4.55004L22.4001 9.80004C22.6917 10.0139 22.9202 10.2862 23.0855 10.6167C23.2508 10.9473 23.3334 11.2973 23.3334 11.6667V22.1667C23.3334 22.8084 23.1049 23.3577 22.648 23.8146C22.1911 24.2716 21.6417 24.5 21.0001 24.5H16.3334C16.0029 24.5 15.7258 24.3882 15.5022 24.1646C15.2786 23.941 15.1667 23.6639 15.1667 23.3334V17.5H12.8334V23.3334C12.8334 23.6639 12.7216 23.941 12.498 24.1646C12.2744 24.3882 11.9973 24.5 11.6667 24.5H7.00008C6.35841 24.5 5.80911 24.2716 5.35216 23.8146C4.89522 23.3577 4.66675 22.8084 4.66675 22.1667Z" fill="#777E91"/>
</g>
</svg>
