<svg width="32" height="32" viewBox="0 0 32 32" fill="none" xmlns="http://www.w3.org/2000/svg">
<g id="information_line 2" clip-path="url(#clip0_2638_5713)">
<g id="Group">
<path id="Vector" d="M16 2.66666C23.364 2.66666 29.3333 8.63599 29.3333 16C29.3333 23.364 23.364 29.3333 16 29.3333C8.63599 29.3333 2.66666 23.364 2.66666 16C2.66666 8.63599 8.63599 2.66666 16 2.66666ZM16 5.33332C13.171 5.33332 10.4579 6.45713 8.45752 8.45752C6.45713 10.4579 5.33332 13.171 5.33332 16C5.33332 18.829 6.45713 21.5421 8.45752 23.5425C10.4579 25.5428 13.171 26.6667 16 26.6667C18.829 26.6667 21.5421 25.5428 23.5425 23.5425C25.5428 21.5421 26.6667 18.829 26.6667 16C26.6667 13.171 25.5428 10.4579 23.5425 8.45752C21.5421 6.45713 18.829 5.33332 16 5.33332ZM15.9867 13.3333C16.7307 13.3333 17.3333 13.936 17.3333 14.68V21.512C17.5875 21.6588 17.7861 21.8853 17.8985 22.1564C18.0108 22.4276 18.0305 22.7283 17.9545 23.0118C17.8785 23.2953 17.7111 23.5458 17.4783 23.7244C17.2455 23.9031 16.9602 24 16.6667 24H16.0133C15.8365 24 15.6614 23.9652 15.498 23.8975C15.3346 23.8298 15.1861 23.7306 15.0611 23.6056C14.936 23.4805 14.8368 23.3321 14.7692 23.1687C14.7015 23.0053 14.6667 22.8302 14.6667 22.6533V16C14.313 16 13.9739 15.8595 13.7238 15.6095C13.4738 15.3594 13.3333 15.0203 13.3333 14.6667C13.3333 14.313 13.4738 13.9739 13.7238 13.7238C13.9739 13.4738 14.313 13.3333 14.6667 13.3333H15.9867ZM16 9.33332C16.3536 9.33332 16.6927 9.4738 16.9428 9.72385C17.1928 9.9739 17.3333 10.313 17.3333 10.6667C17.3333 11.0203 17.1928 11.3594 16.9428 11.6095C16.6927 11.8595 16.3536 12 16 12C15.6464 12 15.3072 11.8595 15.0572 11.6095C14.8071 11.3594 14.6667 11.0203 14.6667 10.6667C14.6667 10.313 14.8071 9.9739 15.0572 9.72385C15.3072 9.4738 15.6464 9.33332 16 9.33332Z" fill="#9C9C9C"/>
</g>
</g>
<defs>
<clipPath id="clip0_2638_5713">
<rect width="32" height="32" fill="white"/>
</clipPath>
</defs>
</svg>
