<svg width="30" height="30" viewBox="0 0 30 30" fill="none" xmlns="http://www.w3.org/2000/svg">
<g id="more_2_line 1" clip-path="url(#clip0_2547_3978)">
<g id="Group">
<path id="Vector" d="M15 20.625C15.4973 20.625 15.9742 20.8225 16.3258 21.1742C16.6775 21.5258 16.875 22.0027 16.875 22.5C16.875 22.9973 16.6775 23.4742 16.3258 23.8258C15.9742 24.1775 15.4973 24.375 15 24.375C14.5027 24.375 14.0258 24.1775 13.6742 23.8258C13.3225 23.4742 13.125 22.9973 13.125 22.5C13.125 22.0027 13.3225 21.5258 13.6742 21.1742C14.0258 20.8225 14.5027 20.625 15 20.625ZM15 13.125C15.4973 13.125 15.9742 13.3225 16.3258 13.6742C16.6775 14.0258 16.875 14.5027 16.875 15C16.875 15.4973 16.6775 15.9742 16.3258 16.3258C15.9742 16.6775 15.4973 16.875 15 16.875C14.5027 16.875 14.0258 16.6775 13.6742 16.3258C13.3225 15.9742 13.125 15.4973 13.125 15C13.125 14.5027 13.3225 14.0258 13.6742 13.6742C14.0258 13.3225 14.5027 13.125 15 13.125ZM15 5.625C15.4973 5.625 15.9742 5.82254 16.3258 6.17417C16.6775 6.52581 16.875 7.00272 16.875 7.5C16.875 7.99728 16.6775 8.47419 16.3258 8.82583C15.9742 9.17746 15.4973 9.375 15 9.375C14.5027 9.375 14.0258 9.17746 13.6742 8.82583C13.3225 8.47419 13.125 7.99728 13.125 7.5C13.125 7.00272 13.3225 6.52581 13.6742 6.17417C14.0258 5.82254 14.5027 5.625 15 5.625Z" fill="#121212"/>
</g>
</g>
<defs>
<clipPath id="clip0_2547_3978">
<rect width="30" height="30" fill="white"/>
</clipPath>
</defs>
</svg>
