<svg width="18" height="18" viewBox="0 0 18 18" fill="none" xmlns="http://www.w3.org/2000/svg">
<g clip-path="url(#clip0_2521_11270)">
<path fill-rule="evenodd" clip-rule="evenodd" d="M9 1.5C10.7902 1.5 12.5071 2.21116 13.773 3.47703C15.0388 4.7429 15.75 6.45979 15.75 8.25C15.75 10.5555 14.493 12.4425 13.1685 13.7963C12.5066 14.4652 11.7846 15.0717 11.0115 15.6083L10.692 15.8258L10.542 15.9255L10.2592 16.1055L10.0073 16.2593L9.69525 16.4408C9.48338 16.5613 9.24379 16.6248 9 16.6248C8.75621 16.6248 8.51662 16.5613 8.30475 16.4408L7.99275 16.2593L7.60275 16.0192L7.45875 15.9255L7.15125 15.7208C6.31723 15.1562 5.5403 14.5117 4.8315 13.7963C3.507 12.4418 2.25 10.5555 2.25 8.25C2.25 6.45979 2.96116 4.7429 4.22703 3.47703C5.4929 2.21116 7.20979 1.5 9 1.5ZM9 3C7.60761 3 6.27226 3.55312 5.28769 4.53769C4.30312 5.52226 3.75 6.85761 3.75 8.25C3.75 9.9915 4.704 11.52 5.90325 12.747C6.41897 13.2689 6.97631 13.748 7.56975 14.1795L7.91325 14.424C8.02425 14.5013 8.13075 14.5733 8.2335 14.64L8.526 14.8275L8.78325 14.9843L9 15.111L9.34125 14.9093L9.6165 14.7367C9.76275 14.6438 9.92025 14.5395 10.0868 14.424L10.4303 14.1795C11.0237 13.748 11.581 13.2689 12.0968 12.747C13.296 11.5208 14.25 9.9915 14.25 8.25C14.25 6.85761 13.6969 5.52226 12.7123 4.53769C11.7277 3.55312 10.3924 3 9 3ZM9 5.25C9.79565 5.25 10.5587 5.56607 11.1213 6.12868C11.6839 6.69129 12 7.45435 12 8.25C12 9.04565 11.6839 9.80871 11.1213 10.3713C10.5587 10.9339 9.79565 11.25 9 11.25C8.20435 11.25 7.44129 10.9339 6.87868 10.3713C6.31607 9.80871 6 9.04565 6 8.25C6 7.45435 6.31607 6.69129 6.87868 6.12868C7.44129 5.56607 8.20435 5.25 9 5.25ZM9 6.75C8.60218 6.75 8.22064 6.90804 7.93934 7.18934C7.65804 7.47064 7.5 7.85218 7.5 8.25C7.5 8.64782 7.65804 9.02936 7.93934 9.31066C8.22064 9.59196 8.60218 9.75 9 9.75C9.39782 9.75 9.77936 9.59196 10.0607 9.31066C10.342 9.02936 10.5 8.64782 10.5 8.25C10.5 7.85218 10.342 7.47064 10.0607 7.18934C9.77936 6.90804 9.39782 6.75 9 6.75Z" fill="#121212"/>
</g>
<defs>
<clipPath id="clip0_2521_11270">
<rect width="18" height="18" fill="white"/>
</clipPath>
</defs>
</svg>
