<svg width="16" height="17" viewBox="0 0 16 17" fill="none" xmlns="http://www.w3.org/2000/svg">
<g id="location_line 5" clip-path="url(#clip0_2239_14764)">
<g id="Group">
<path id="Vector" fill-rule="evenodd" clip-rule="evenodd" d="M8 1.83337C9.5913 1.83337 11.1174 2.46551 12.2426 3.59073C13.3679 4.71595 14 6.24207 14 7.83337C14 9.88271 12.8827 11.56 11.7053 12.7634C11.117 13.358 10.4752 13.8971 9.788 14.374L9.504 14.5674L9.37067 14.656L9.11933 14.816L8.89533 14.9527L8.618 15.114C8.42967 15.2212 8.2167 15.2776 8 15.2776C7.7833 15.2776 7.57033 15.2212 7.382 15.114L7.10467 14.9527L6.758 14.7394L6.63 14.656L6.35667 14.474C5.61532 13.9723 4.92471 13.3993 4.29467 12.7634C3.11733 11.5594 2 9.88271 2 7.83337C2 6.24207 2.63214 4.71595 3.75736 3.59073C4.88258 2.46551 6.4087 1.83337 8 1.83337ZM8 3.16671C6.76232 3.16671 5.57534 3.65837 4.70017 4.53354C3.825 5.40871 3.33333 6.5957 3.33333 7.83337C3.33333 9.38137 4.18133 10.74 5.24733 11.8307C5.70575 12.2946 6.20116 12.7205 6.72867 13.104L7.034 13.3214C7.13267 13.39 7.22733 13.454 7.31867 13.5134L7.57867 13.68L7.80733 13.8194L8 13.932L8.30333 13.7527L8.548 13.5994C8.678 13.5167 8.818 13.424 8.966 13.3214L9.27133 13.104C9.79884 12.7205 10.2943 12.2946 10.7527 11.8307C11.8187 10.7407 12.6667 9.38137 12.6667 7.83337C12.6667 6.5957 12.175 5.40871 11.2998 4.53354C10.4247 3.65837 9.23768 3.16671 8 3.16671ZM8 5.16671C8.70724 5.16671 9.38552 5.44766 9.88562 5.94776C10.3857 6.44785 10.6667 7.12613 10.6667 7.83337C10.6667 8.54062 10.3857 9.21889 9.88562 9.71899C9.38552 10.2191 8.70724 10.5 8 10.5C7.29276 10.5 6.61448 10.2191 6.11438 9.71899C5.61428 9.21889 5.33333 8.54062 5.33333 7.83337C5.33333 7.12613 5.61428 6.44785 6.11438 5.94776C6.61448 5.44766 7.29276 5.16671 8 5.16671ZM8 6.50004C7.64638 6.50004 7.30724 6.64052 7.05719 6.89056C6.80714 7.14061 6.66667 7.47975 6.66667 7.83337C6.66667 8.187 6.80714 8.52613 7.05719 8.77618C7.30724 9.02623 7.64638 9.16671 8 9.16671C8.35362 9.16671 8.69276 9.02623 8.94281 8.77618C9.19286 8.52613 9.33333 8.187 9.33333 7.83337C9.33333 7.47975 9.19286 7.14061 8.94281 6.89056C8.69276 6.64052 8.35362 6.50004 8 6.50004Z" fill="#121212"/>
</g>
</g>
<defs>
<clipPath id="clip0_2239_14764">
<rect width="16" height="16" fill="white" transform="translate(0 0.5)"/>
</clipPath>
</defs>
</svg>
