<svg width="20" height="21" viewBox="0 0 20 21" fill="none" xmlns="http://www.w3.org/2000/svg">
<g clip-path="url(#clip0_2245_12473)">
<path fill-rule="evenodd" clip-rule="evenodd" d="M10 2.16669C11.9891 2.16669 13.8968 2.95686 15.3033 4.36339C16.7098 5.76991 17.5 7.67756 17.5 9.66669C17.5 12.2284 16.1033 14.325 14.6317 15.8292C13.8963 16.5724 13.094 17.2464 12.235 17.8425L11.88 18.0842L11.7133 18.195L11.3992 18.395L11.1192 18.5659L10.7725 18.7675C10.5371 18.9015 10.2709 18.972 10 18.972C9.72913 18.972 9.46291 18.9015 9.2275 18.7675L8.88083 18.5659L8.4475 18.2992L8.2875 18.195L7.94583 17.9675C7.01915 17.3403 6.15589 16.6241 5.36833 15.8292C3.89667 14.3242 2.5 12.2284 2.5 9.66669C2.5 7.67756 3.29018 5.76991 4.6967 4.36339C6.10322 2.95686 8.01088 2.16669 10 2.16669ZM10 3.83335C8.4529 3.83335 6.96917 4.44794 5.87521 5.5419C4.78125 6.63586 4.16667 8.11959 4.16667 9.66669C4.16667 11.6017 5.22667 13.3 6.55917 14.6634C7.13218 15.2433 7.75145 15.7756 8.41083 16.255L8.7925 16.5267C8.91583 16.6125 9.03417 16.6925 9.14833 16.7667L9.47333 16.975L9.75917 17.1492L10 17.29L10.3792 17.0659L10.685 16.8742C10.8475 16.7709 11.0225 16.655 11.2075 16.5267L11.5892 16.255C12.2485 15.7756 12.8678 15.2433 13.4408 14.6634C14.7733 13.3009 15.8333 11.6017 15.8333 9.66669C15.8333 8.11959 15.2188 6.63586 14.1248 5.5419C13.0308 4.44794 11.5471 3.83335 10 3.83335ZM10 6.33335C10.8841 6.33335 11.7319 6.68454 12.357 7.30966C12.9821 7.93479 13.3333 8.78263 13.3333 9.66669C13.3333 10.5507 12.9821 11.3986 12.357 12.0237C11.7319 12.6488 10.8841 13 10 13C9.11594 13 8.2681 12.6488 7.64298 12.0237C7.01786 11.3986 6.66667 10.5507 6.66667 9.66669C6.66667 8.78263 7.01786 7.93479 7.64298 7.30966C8.2681 6.68454 9.11594 6.33335 10 6.33335ZM10 8.00002C9.55797 8.00002 9.13405 8.17562 8.82149 8.48818C8.50893 8.80074 8.33333 9.22466 8.33333 9.66669C8.33333 10.1087 8.50893 10.5326 8.82149 10.8452C9.13405 11.1578 9.55797 11.3334 10 11.3334C10.442 11.3334 10.866 11.1578 11.1785 10.8452C11.4911 10.5326 11.6667 10.1087 11.6667 9.66669C11.6667 9.22466 11.4911 8.80074 11.1785 8.48818C10.866 8.17562 10.442 8.00002 10 8.00002Z" fill="#66D760"/>
</g>
<defs>
<clipPath id="clip0_2245_12473">
<rect width="20" height="20" fill="white" transform="translate(0 0.5)"/>
</clipPath>
</defs>
</svg>
