<svg width="21" height="20" viewBox="0 0 21 20" fill="none" xmlns="http://www.w3.org/2000/svg">
<mask id="mask0_495_7805" style="mask-type:alpha" maskUnits="userSpaceOnUse" x="0" y="0" width="21" height="20">
<rect x="0.983887" width="20" height="20" fill="#D9D9D9"/>
</mask>
<g mask="url(#mask0_495_7805)">
<path d="M17.8059 4.09196V7.42529C17.8059 7.6914 17.7144 7.91592 17.5315 8.09884C17.3486 8.28175 17.1241 8.37321 16.858 8.37321C16.592 8.37321 16.3676 8.28175 16.1847 8.09884C16.0016 7.91592 15.9101 7.6914 15.9101 7.42529V6.38696L12.7819 9.49425C13.0392 9.88314 13.2331 10.2955 13.3636 10.7313C13.4943 11.1672 13.5597 11.6179 13.5597 12.0834C13.5597 13.3911 13.1035 14.501 12.1913 15.4132C11.2792 16.3253 10.1694 16.7813 8.86174 16.7813C7.55396 16.7813 6.44403 16.3253 5.53194 15.4132C4.61986 14.501 4.16382 13.3911 4.16382 12.0834C4.16382 10.7758 4.61986 9.66585 5.53194 8.75363C6.44403 7.84154 7.55396 7.3855 8.86174 7.3855C9.31674 7.3855 9.76479 7.44898 10.2059 7.57592C10.647 7.70286 11.0551 7.90029 11.4301 8.16821L14.5582 5.03988H13.5247C13.2587 5.03988 13.0342 4.94842 12.8513 4.7655C12.6683 4.58259 12.5767 4.35807 12.5767 4.09196C12.5767 3.82599 12.6683 3.60154 12.8513 3.41863C13.0342 3.23557 13.2587 3.14404 13.5247 3.14404H16.858C17.1241 3.14404 17.3486 3.23557 17.5315 3.41863C17.7144 3.60154 17.8059 3.82599 17.8059 4.09196ZM8.86174 9.28134C8.08604 9.28134 7.42507 9.55446 6.87882 10.1007C6.33271 10.6468 6.05965 11.3077 6.05965 12.0834C6.05965 12.8591 6.33271 13.52 6.87882 14.0661C7.42507 14.6124 8.08604 14.8855 8.86174 14.8855C9.63729 14.8855 10.2982 14.6124 10.8444 14.0661C11.3907 13.52 11.6638 12.8591 11.6638 12.0834C11.6638 11.3077 11.3907 10.6468 10.8444 10.1007C10.2982 9.55446 9.63729 9.28134 8.86174 9.28134Z" fill="#2186FF"/>
</g>
</svg>
