<svg width="28" height="28" viewBox="0 0 28 28" fill="none" xmlns="http://www.w3.org/2000/svg">
<g clip-path="url(#clip0_539_398)">
<path d="M15.75 3.5C18.3801 3.5 20.9024 4.54479 22.7622 6.40452C24.6219 8.26426 25.6667 10.7866 25.6667 13.4167C25.6667 16.0467 24.6219 18.5691 22.7622 20.4288C20.9024 22.2885 18.3801 23.3333 15.75 23.3333H15.1667V24.4883C15.1667 24.6432 15.1362 24.7965 15.0769 24.9395C15.0176 25.0826 14.9307 25.2125 14.8212 25.322C14.7116 25.4314 14.5816 25.5182 14.4385 25.5773C14.2954 25.6365 14.142 25.6668 13.9872 25.6667C11.1172 25.6643 8.20987 24.7065 6.00371 22.7453C3.77771 20.7643 2.33571 17.8208 2.33337 14.0105V13.4167C2.33337 10.7866 3.37816 8.26426 5.2379 6.40452C7.09763 4.54479 9.61998 3.5 12.25 3.5H15.75ZM15.75 5.83333H12.25C10.2388 5.83333 8.30997 6.63229 6.88781 8.05444C5.46566 9.47659 4.66671 11.4054 4.66671 13.4167L4.66787 14.1925C4.71454 17.2748 5.88237 19.5148 7.55537 21.0012C8.99971 22.2868 10.8699 23.0533 12.8334 23.2692V22.1783C12.8334 21.5273 13.3607 21 14.0117 21H15.75C17.7613 21 19.6901 20.201 21.1123 18.7789C22.5344 17.3567 23.3334 15.4279 23.3334 13.4167C23.3334 11.4054 22.5344 9.47659 21.1123 8.05444C19.6901 6.63229 17.7613 5.83333 15.75 5.83333ZM9.91671 11.6667C10.3808 11.6667 10.826 11.851 11.1541 12.1792C11.4823 12.5074 11.6667 12.9525 11.6667 13.4167C11.6667 13.8808 11.4823 14.3259 11.1541 14.6541C10.826 14.9823 10.3808 15.1667 9.91671 15.1667C9.45258 15.1667 9.00746 14.9823 8.67927 14.6541C8.35108 14.3259 8.16671 13.8808 8.16671 13.4167C8.16671 12.9525 8.35108 12.5074 8.67927 12.1792C9.00746 11.851 9.45258 11.6667 9.91671 11.6667ZM18.0834 11.6667C18.5475 11.6667 18.9926 11.851 19.3208 12.1792C19.649 12.5074 19.8334 12.9525 19.8334 13.4167C19.8334 13.8808 19.649 14.3259 19.3208 14.6541C18.9926 14.9823 18.5475 15.1667 18.0834 15.1667C17.6192 15.1667 17.1741 14.9823 16.8459 14.6541C16.5177 14.3259 16.3334 13.8808 16.3334 13.4167C16.3334 12.9525 16.5177 12.5074 16.8459 12.1792C17.1741 11.851 17.6192 11.6667 18.0834 11.6667Z" fill="#777E91"/>
</g>
<defs>
<clipPath id="clip0_539_398">
<rect width="28" height="28" fill="white"/>
</clipPath>
</defs>
</svg>
