<svg width="28" height="28" viewBox="0 0 28 28" fill="none" xmlns="http://www.w3.org/2000/svg">
<g id="currency_won_2_line 1" clip-path="url(#clip0_2239_15145)">
<g id="Group">
<path id="Vector" d="M6.77166 4.69002C7.07504 4.62922 7.39016 4.69143 7.64768 4.86296C7.90519 5.03449 8.08402 5.3013 8.14483 5.60468L10.6263 18.018L12.8687 9.04985C12.9319 8.79759 13.0776 8.57368 13.2826 8.41369C13.4876 8.2537 13.7403 8.16681 14.0003 8.16681C14.2604 8.16681 14.513 8.2537 14.718 8.41369C14.9231 8.57368 15.0688 8.79759 15.132 9.04985L17.3743 18.0169L19.8558 5.60352C19.9166 5.29998 20.0955 5.03302 20.3531 4.86138C20.6108 4.68974 20.926 4.62747 21.2296 4.68827C21.5331 4.74907 21.8001 4.92796 21.9717 5.18559C22.1434 5.44322 22.2056 5.75848 22.1448 6.06202L21.257 10.5H22.167C22.4764 10.5 22.7732 10.6229 22.992 10.8417C23.2107 11.0605 23.3337 11.3573 23.3337 11.6667C23.3337 11.9761 23.2107 12.2728 22.992 12.4916C22.7732 12.7104 22.4764 12.8334 22.167 12.8334H21.0003C20.9303 12.8334 20.8603 12.8275 20.7938 12.8147L20.3237 15.1667H22.167C22.4764 15.1667 22.7732 15.2896 22.992 15.5084C23.2107 15.7272 23.3337 16.0239 23.3337 16.3334C23.3337 16.6428 23.2107 16.9395 22.992 17.1583C22.7732 17.3771 22.4764 17.5 22.167 17.5H19.857L18.8478 22.5447C18.555 24.0089 16.4795 24.059 16.1178 22.61L14.0003 14.1435L11.884 22.61C11.5223 24.059 9.44566 24.01 9.15283 22.5447L8.14366 17.5H5.83366C5.52424 17.5 5.22749 17.3771 5.0087 17.1583C4.78991 16.9395 4.66699 16.6428 4.66699 16.3334C4.66699 16.0239 4.78991 15.7272 5.0087 15.5084C5.22749 15.2896 5.52424 15.1667 5.83366 15.1667H7.67699L7.20683 12.8147C7.14033 12.8264 7.07033 12.8334 7.00033 12.8334H5.83366C5.52424 12.8334 5.22749 12.7104 5.0087 12.4916C4.78991 12.2728 4.66699 11.9761 4.66699 11.6667C4.66699 11.3573 4.78991 11.0605 5.0087 10.8417C5.22749 10.6229 5.52424 10.5 5.83366 10.5H6.74366L5.85699 6.06202C5.79619 5.75863 5.8584 5.44352 6.02994 5.186C6.20147 4.92848 6.46827 4.75082 6.77166 4.69002Z" fill="#66D760"/>
</g>
</g>
<defs>
<clipPath id="clip0_2239_15145">
<rect width="28" height="28" fill="white"/>
</clipPath>
</defs>
</svg>
