<svg width="28" height="28" viewBox="0 0 28 28" fill="none" xmlns="http://www.w3.org/2000/svg">
<g clip-path="url(#clip0_855_18044)">
<path d="M6.77117 4.68953C7.07456 4.62873 7.38967 4.69094 7.64719 4.86247C7.90471 5.034 8.08354 5.30081 8.14434 5.60419L10.6258 18.0175L12.8682 9.04936C12.9314 8.7971 13.0771 8.57319 13.2821 8.4132C13.4872 8.25321 13.7398 8.16632 13.9998 8.16632C14.2599 8.16632 14.5125 8.25321 14.7175 8.4132C14.9226 8.57319 15.0683 8.7971 15.1315 9.04936L17.3738 18.0164L19.8553 5.60303C19.9161 5.29949 20.095 5.03253 20.3527 4.86089C20.6103 4.68925 20.9255 4.62698 21.2291 4.68778C21.5326 4.74858 21.7996 4.92747 21.9712 5.1851C22.1429 5.44273 22.2051 5.75799 22.1443 6.06153L21.2565 10.4995H22.1665C22.4759 10.4995 22.7727 10.6224 22.9915 10.8412C23.2103 11.06 23.3332 11.3568 23.3332 11.6662C23.3332 11.9756 23.2103 12.2724 22.9915 12.4912C22.7727 12.7099 22.4759 12.8329 22.1665 12.8329H20.9998C20.9298 12.8329 20.8598 12.827 20.7933 12.8142L20.3232 15.1662H22.1665C22.4759 15.1662 22.7727 15.2891 22.9915 15.5079C23.2103 15.7267 23.3332 16.0234 23.3332 16.3329C23.3332 16.6423 23.2103 16.939 22.9915 17.1578C22.7727 17.3766 22.4759 17.4995 22.1665 17.4995H19.8565L18.8473 22.5442C18.5545 24.0084 16.479 24.0585 16.1173 22.6095L13.9998 14.143L11.8835 22.6095C11.5218 24.0585 9.44517 24.0095 9.15234 22.5442L8.14317 17.4995H5.83317C5.52375 17.4995 5.22701 17.3766 5.00821 17.1578C4.78942 16.939 4.6665 16.6423 4.6665 16.3329C4.6665 16.0234 4.78942 15.7267 5.00821 15.5079C5.22701 15.2891 5.52375 15.1662 5.83317 15.1662H7.6765L7.20634 12.8142C7.13984 12.8259 7.06984 12.8329 6.99984 12.8329H5.83317C5.52375 12.8329 5.22701 12.7099 5.00821 12.4912C4.78942 12.2724 4.6665 11.9756 4.6665 11.6662C4.6665 11.3568 4.78942 11.06 5.00821 10.8412C5.22701 10.6224 5.52375 10.4995 5.83317 10.4995H6.74317L5.8565 6.06153C5.7957 5.75814 5.85791 5.44303 6.02945 5.18551C6.20098 4.92799 6.46779 4.75033 6.77117 4.68953Z" fill="#00DDAC"/>
</g>
<defs>
<clipPath id="clip0_855_18044">
<rect width="28" height="28" fill="white"/>
</clipPath>
</defs>
</svg>
