<svg width="18" height="18" viewBox="0 0 18 18" fill="none" xmlns="http://www.w3.org/2000/svg">
<mask id="mask0_490_6465" style="mask-type:alpha" maskUnits="userSpaceOnUse" x="0" y="0" width="18" height="18">
<rect width="18" height="18" fill="#D9D9D9"/>
</mask>
<g mask="url(#mask0_490_6465)">
<path d="M10.7119 9.00007L5.27107 3.55938C5.06569 3.35388 4.96538 3.10882 4.97013 2.82419C4.97488 2.53957 5.07994 2.2945 5.28532 2.089C5.49082 1.88363 5.73663 1.78094 6.02276 1.78094C6.30888 1.78094 6.55469 1.88363 6.76019 2.089L12.4491 7.78788C12.62 7.95875 12.7474 8.14988 12.8314 8.36125C12.9154 8.57275 12.9574 8.78569 12.9574 9.00007C12.9574 9.21444 12.9154 9.42738 12.8314 9.63888C12.7474 9.85026 12.62 10.0414 12.4491 10.2123L6.74594 15.9156C6.54044 16.121 6.29776 16.2206 6.01788 16.2143C5.73801 16.2081 5.49532 16.1023 5.28982 15.8969C5.08444 15.6914 4.98176 15.4456 4.98176 15.1594C4.98176 14.8733 5.08444 14.6275 5.28982 14.422L10.7119 9.00007Z" fill="#3D3F4D"/>
</g>
</svg>
