<svg width="55" height="55" viewBox="0 0 55 55" fill="none" xmlns="http://www.w3.org/2000/svg">
<path d="M22.9166 34.375H13.7499C11.3188 34.375 8.98719 35.3408 7.26811 37.0599C5.54902 38.7789 4.58325 41.1105 4.58325 43.5417V48.125" stroke="#777E91" stroke-width="5.75" stroke-linecap="round" stroke-linejoin="round"/>
<path d="M32.7822 37.8823L34.8974 37.0068" stroke="#777E91" stroke-width="5.75" stroke-linecap="round" stroke-linejoin="round"/>
<path d="M34.8974 31.7434L32.7822 30.8657" stroke="#777E91" stroke-width="5.75" stroke-linecap="round" stroke-linejoin="round"/>
<path d="M38.6192 28.0219L37.7415 25.9067" stroke="#777E91" stroke-width="5.75" stroke-linecap="round" stroke-linejoin="round"/>
<path d="M38.6192 40.7285L37.7415 42.846" stroke="#777E91" stroke-width="5.75" stroke-linecap="round" stroke-linejoin="round"/>
<path d="M43.8809 28.0219L44.7586 25.9067" stroke="#777E91" stroke-width="5.75" stroke-linecap="round" stroke-linejoin="round"/>
<path d="M44.7563 42.846L43.8809 40.7285" stroke="#777E91" stroke-width="5.75" stroke-linecap="round" stroke-linejoin="round"/>
<path d="M47.6025 31.7434L49.72 30.8657" stroke="#777E91" stroke-width="5.75" stroke-linecap="round" stroke-linejoin="round"/>
<path d="M47.6025 37.0068L49.72 37.8845" stroke="#777E91" stroke-width="5.75" stroke-linecap="round" stroke-linejoin="round"/>
<path d="M41.25 41.25C45.047 41.25 48.125 38.172 48.125 34.375C48.125 30.578 45.047 27.5 41.25 27.5C37.453 27.5 34.375 30.578 34.375 34.375C34.375 38.172 37.453 41.25 41.25 41.25Z" stroke="#777E91" stroke-width="5.75" stroke-linecap="round" stroke-linejoin="round"/>
<path d="M20.6249 25.2083C25.6875 25.2083 29.7916 21.1043 29.7916 16.0417C29.7916 10.9791 25.6875 6.875 20.6249 6.875C15.5623 6.875 11.4583 10.9791 11.4583 16.0417C11.4583 21.1043 15.5623 25.2083 20.6249 25.2083Z" stroke="#777E91" stroke-width="5.75" stroke-linecap="round" stroke-linejoin="round"/>
</svg>
