<svg width="26" height="26" viewBox="0 0 26 26" fill="none" xmlns="http://www.w3.org/2000/svg">
<mask id="mask0_539_203" style="mask-type:alpha" maskUnits="userSpaceOnUse" x="0" y="0" width="26" height="26">
<rect width="26" height="26" fill="#D9D9D9"/>
</mask>
<g mask="url(#mask0_539_203)">
<path d="M5.34557 20.8035C4.99981 20.8035 4.70794 20.6846 4.46997 20.4469C4.23218 20.2089 4.11328 19.917 4.11328 19.5713C4.11328 19.2255 4.23218 18.9336 4.46997 18.6956C4.70794 18.4579 4.99981 18.339 5.34557 18.339H6.20222V10.9758C6.20222 9.42105 6.66552 8.03438 7.59214 6.81581C8.51857 5.59724 9.72991 4.801 11.2262 4.42707V3.72046C11.2262 3.22772 11.3986 2.80884 11.7435 2.46379C12.0885 2.11893 12.5074 1.9465 13.0001 1.9465C13.4929 1.9465 13.9118 2.11893 14.2568 2.46379C14.6017 2.80884 14.7741 3.22772 14.7741 3.72046V4.42707C16.2747 4.801 17.4871 5.59616 18.4114 6.81256C19.3358 8.02897 19.7981 9.41672 19.7981 10.9758V18.339H20.6547C21.0005 18.339 21.2923 18.4579 21.5303 18.6956C21.7681 18.9336 21.887 19.2255 21.887 19.5713C21.887 19.917 21.7681 20.2089 21.5303 20.4469C21.2923 20.6846 21.0005 20.8035 20.6547 20.8035H5.34557ZM13.0066 24.1248C12.3895 24.1248 11.8611 23.9057 11.4214 23.4675C10.982 23.0293 10.7622 22.5024 10.7622 21.8869H15.2445C15.2445 22.5044 15.0254 23.0317 14.5872 23.4688C14.1488 23.9061 13.622 24.1248 13.0066 24.1248ZM8.6668 18.339H17.3335V10.9758C17.3335 9.78415 16.9092 8.76401 16.0606 7.9154C15.2119 7.06679 14.1918 6.64248 13.0001 6.64248C11.8085 6.64248 10.7883 7.06679 9.93972 7.9154C9.09111 8.76401 8.6668 9.78415 8.6668 10.9758V18.339Z" fill="white"/>
</g>
</svg>
