<svg width="50" height="50" viewBox="0 0 50 50" fill="none" xmlns="http://www.w3.org/2000/svg">
<g clip-path="url(#clip0_2117_1240)">
<path fill-rule="evenodd" clip-rule="evenodd" d="M28.7501 33.75C28.7503 34.3807 28.512 34.9882 28.0832 35.4507C27.6543 35.9132 27.0665 36.1964 26.4376 36.2438L26.2501 36.25H23.7501C23.1193 36.2502 22.5118 36.012 22.0494 35.5831C21.5869 35.1543 21.3036 34.5664 21.2563 33.9375L21.2501 33.75H28.7501ZM25.0001 12.5C27.2688 12.5 29.4488 13.3811 31.0803 14.9576C32.7119 16.5341 33.6673 18.6826 33.7451 20.95L33.7501 21.25V25.955L36.0276 30.51C36.127 30.7088 36.1767 30.9286 36.1725 31.1508C36.1684 31.373 36.1104 31.5908 36.0036 31.7857C35.8968 31.9806 35.7444 32.1467 35.5594 32.2698C35.3744 32.3929 35.1623 32.4693 34.9413 32.4925L34.7976 32.5H15.2026C14.9803 32.5001 14.7613 32.4462 14.5643 32.3431C14.3674 32.24 14.1984 32.0907 14.0718 31.9079C13.9452 31.7252 13.8649 31.5145 13.8376 31.2939C13.8103 31.0733 13.8368 30.8493 13.9151 30.6413L13.9726 30.51L16.2501 25.955V21.25C16.2501 18.9294 17.1719 16.7038 18.8129 15.0628C20.4538 13.4219 22.6794 12.5 25.0001 12.5ZM25.0001 15C23.3895 15.0001 21.8411 15.6219 20.6778 16.7358C19.5146 17.8497 18.8262 19.3697 18.7563 20.9788L18.7501 21.25V25.955C18.7501 26.265 18.6924 26.5723 18.5801 26.8612L18.4863 27.0738L17.0238 30H32.9776L31.5151 27.0725C31.3763 26.7953 31.2903 26.4948 31.2613 26.1863L31.2501 25.955V21.25C31.2501 19.5924 30.5916 18.0027 29.4195 16.8306C28.2474 15.6585 26.6577 15 25.0001 15Z" fill="#121212"/>
</g>
<defs>
<clipPath id="clip0_2117_1240">
<rect width="30" height="30" fill="white" transform="translate(10 10)"/>
</clipPath>
</defs>
</svg>
