<svg width="40" height="32" viewBox="0 0 40 32" fill="none" xmlns="http://www.w3.org/2000/svg">
<path d="M31.3486 0C32.8907 2.51393e-05 34.1409 1.27399 34.1409 2.8455V23.201C34.1409 24.7725 32.8907 26.0465 31.3486 26.0465H20.8132V27.907H23.5303C24.1472 27.907 24.6473 28.4166 24.6473 29.0452V30.8618C24.6473 31.4904 24.1472 32 23.5303 32H10.6106C9.99376 32 9.49365 31.4904 9.49365 30.8618V29.0452C9.49365 28.4166 9.99376 27.907 10.6106 27.907H13.5102V26.0465H2.79236C1.25018 26.0465 0 24.7725 0 23.201V2.8455C4.61126e-07 1.27397 1.25018 0 2.79236 0H31.3486Z" fill="#2186FF"/>
<path d="M2.52193 4.31685C2.52193 3.26917 3.35538 2.41985 4.3835 2.41985H30.0318C31.0599 2.41985 31.8934 3.26917 31.8934 4.31685V20.2286C31.8934 21.2763 31.0599 22.1256 30.0318 22.1256H4.3835C3.35538 22.1256 2.52193 21.2763 2.52193 20.2286V4.31685Z" fill="#E8EDFF"/>
<path d="M34.6781 13.7632C35.6428 13.4011 36.713 13.9045 37.0683 14.8876L37.4057 15.8209C37.761 16.804 37.267 17.8945 36.3023 18.2567L35.8098 18.4415C35.6168 18.5139 35.518 18.732 35.5891 18.9287L36.1866 20.5817C36.2577 20.7783 36.4717 20.879 36.6647 20.8066L37.1572 20.6217C38.1219 20.2596 39.1921 20.763 39.5474 21.7461L39.8848 22.6794C40.2401 23.6625 39.7461 24.753 38.7814 25.1152L25.8367 29.974C24.872 30.3361 23.8018 29.8327 23.4464 28.8496L23.1091 27.9163C22.7537 26.9332 23.2477 25.8426 24.2125 25.4805L24.705 25.2956C24.8979 25.2232 24.9967 25.0051 24.9256 24.8085L24.3281 23.1555C24.2571 22.9589 24.043 22.8582 23.8501 22.9306L23.3576 23.1155C22.3928 23.4776 21.3227 22.9742 20.9673 21.9911L20.63 21.0577C20.2746 20.0746 20.7686 18.9841 21.7334 18.622L34.6781 13.7632Z" fill="#00DDAC"/>
<path d="M10.8231 13.9141C8.82646 13.9141 7.46913 12.4649 7.46913 10.043C7.46913 7.62107 8.82646 6.25128 10.8231 6.25128C12.8198 6.25128 14.1771 7.63099 14.1771 10.043C14.1771 12.4649 12.8198 13.9141 10.8231 13.9141ZM10.8231 12.3855C11.787 12.3855 12.387 11.4823 12.387 10.043C12.387 8.61366 11.787 7.76996 10.8231 7.76996C9.85921 7.76996 9.26907 8.61366 9.26907 10.043C9.26907 11.4823 9.85921 12.3855 10.8231 12.3855Z" fill="#FF4A4A"/>
<path d="M16.9978 13.7752C16.7922 13.7752 16.6255 13.6053 16.6255 13.3958V8.23869C16.6255 8.02915 16.4588 7.85929 16.2532 7.85929H15.0208C14.8152 7.85929 14.6485 7.68943 14.6485 7.47989V6.76964C14.6485 6.56011 14.8152 6.39024 15.0208 6.39024H20.0006C20.2062 6.39024 20.3729 6.56011 20.3729 6.76964V7.47989C20.3729 7.68943 20.2062 7.85929 20.0006 7.85929H18.7584C18.5528 7.85929 18.3861 8.02915 18.3861 8.23869V13.3958C18.3861 13.6053 18.2194 13.7752 18.0138 13.7752H16.9978Z" fill="#FF4A4A"/>
<path d="M23.2892 13.7752C23.0836 13.7752 22.9169 13.6053 22.9169 13.3958V8.23869C22.9169 8.02915 22.7502 7.85929 22.5446 7.85929H21.3122C21.1066 7.85929 20.9399 7.68943 20.9399 7.47989V6.76964C20.9399 6.56011 21.1066 6.39024 21.3122 6.39024H26.292C26.4976 6.39024 26.6643 6.56011 26.6643 6.76964V7.47989C26.6643 7.68943 26.4976 7.85929 26.292 7.85929H25.0498C24.8442 7.85929 24.6775 8.02915 24.6775 8.23869V13.3958C24.6775 13.6053 24.5108 13.7752 24.3052 13.7752H23.2892Z" fill="#FF4A4A"/>
</svg>
