<svg width="28" height="28" viewBox="0 0 28 28" fill="none" xmlns="http://www.w3.org/2000/svg">
<mask id="mask0_539_406" style="mask-type:alpha" maskUnits="userSpaceOnUse" x="0" y="0" width="28" height="28">
<rect width="28" height="28" fill="#D9D9D9"/>
</mask>
<g mask="url(#mask0_539_406)">
<path d="M14.0001 14C12.7167 14 11.6181 13.543 10.7042 12.6291C9.79036 11.7152 9.33341 10.6166 9.33341 9.33329C9.33341 8.04996 9.79036 6.95135 10.7042 6.03746C11.6181 5.12357 12.7167 4.66663 14.0001 4.66663C15.2834 4.66663 16.382 5.12357 17.2959 6.03746C18.2098 6.95135 18.6667 8.04996 18.6667 9.33329C18.6667 10.6166 18.2098 11.7152 17.2959 12.6291C16.382 13.543 15.2834 14 14.0001 14ZM4.66675 21V20.0666C4.66675 19.4055 4.83689 18.7979 5.17716 18.2437C5.51744 17.6895 5.96953 17.2666 6.53341 16.975C7.73897 16.3722 8.96397 15.9201 10.2084 15.6187C11.4529 15.3173 12.7167 15.1666 14.0001 15.1666C15.2834 15.1666 16.5473 15.3173 17.7917 15.6187C19.0362 15.9201 20.2612 16.3722 21.4667 16.975C22.0306 17.2666 22.4827 17.6895 22.823 18.2437C23.1633 18.7979 23.3334 19.4055 23.3334 20.0666V21C23.3334 21.6416 23.1049 22.1909 22.648 22.6479C22.1911 23.1048 21.6417 23.3333 21.0001 23.3333H7.00008C6.35841 23.3333 5.80911 23.1048 5.35216 22.6479C4.89522 22.1909 4.66675 21.6416 4.66675 21ZM7.00008 21H21.0001V20.0666C21.0001 19.8527 20.9466 19.6583 20.8397 19.4833C20.7327 19.3083 20.5917 19.1722 20.4167 19.075C19.3667 18.55 18.307 18.1562 17.2376 17.8937C16.1681 17.6312 15.089 17.5 14.0001 17.5C12.9112 17.5 11.832 17.6312 10.7626 17.8937C9.69314 18.1562 8.63341 18.55 7.58341 19.075C7.40841 19.1722 7.26744 19.3083 7.1605 19.4833C7.05355 19.6583 7.00008 19.8527 7.00008 20.0666V21ZM14.0001 11.6666C14.6417 11.6666 15.1911 11.4382 15.648 10.9812C16.1049 10.5243 16.3334 9.97496 16.3334 9.33329C16.3334 8.69163 16.1049 8.14232 15.648 7.68538C15.1911 7.22843 14.6417 6.99996 14.0001 6.99996C13.3584 6.99996 12.8091 7.22843 12.3522 7.68538C11.8952 8.14232 11.6667 8.69163 11.6667 9.33329C11.6667 9.97496 11.8952 10.5243 12.3522 10.9812C12.8091 11.4382 13.3584 11.6666 14.0001 11.6666Z" fill="#777E91"/>
</g>
</svg>
