<svg width="28" height="28" viewBox="0 0 28 28" fill="none" xmlns="http://www.w3.org/2000/svg">
<mask id="mask0_539_358" style="mask-type:alpha" maskUnits="userSpaceOnUse" x="0" y="0" width="28" height="28">
<rect width="28" height="28" fill="#D9D9D9"/>
</mask>
<g mask="url(#mask0_539_358)">
<path d="M14.0001 13.8814C12.647 13.8814 11.4914 13.4024 10.5334 12.4444C9.57537 11.4863 9.09635 10.3307 9.09635 8.9776C9.09635 7.62466 9.57537 6.47024 10.5334 5.51435C11.4914 4.55866 12.647 4.08081 14.0001 4.08081C15.3533 4.08081 16.5089 4.55866 17.4669 5.51435C18.4249 6.47024 18.9039 7.62466 18.9039 8.9776C18.9039 10.3307 18.4249 11.4863 17.4669 12.4444C16.5089 13.4024 15.3533 13.8814 14.0001 13.8814ZM4.42969 21.0351V20.1715C4.42969 19.467 4.61188 18.8196 4.97627 18.2293C5.34066 17.6387 5.82483 17.1881 6.42877 16.8774C7.64833 16.2699 8.88956 15.8132 10.1525 15.5071C11.4152 15.2011 12.6978 15.0481 14.0001 15.0481C15.3113 15.0481 16.5984 15.1999 17.8615 15.5036C19.1246 15.8074 20.3613 16.2629 21.5715 16.8704C22.1755 17.1805 22.6596 17.6302 23.024 18.2194C23.3884 18.8085 23.5706 19.4592 23.5706 20.1715V21.0351C23.5706 21.7697 23.3119 22.3957 22.7945 22.9131C22.2771 23.4306 21.651 23.6893 20.9164 23.6893H7.08385C6.34924 23.6893 5.72323 23.4306 5.20581 22.9131C4.6884 22.3957 4.42969 21.7697 4.42969 21.0351ZM7.08385 21.0351H20.9164V20.2062C20.9164 19.9968 20.863 19.8064 20.756 19.6351C20.6491 19.4638 20.5081 19.3306 20.3331 19.2355C19.3111 18.7292 18.2723 18.3471 17.2166 18.0893C16.1612 17.8312 15.089 17.7022 14.0001 17.7022C12.9206 17.7022 11.8484 17.8312 10.7836 18.0893C9.71887 18.3471 8.68005 18.7292 7.66719 19.2355C7.49219 19.3306 7.35122 19.4638 7.24427 19.6351C7.13733 19.8064 7.08385 19.9968 7.08385 20.2062V21.0351ZM13.9999 11.2272C14.6184 11.2272 15.148 11.007 15.5889 10.5666C16.0295 10.1262 16.2498 9.59662 16.2498 8.97789C16.2498 8.35937 16.0296 7.83096 15.5891 7.39269C15.1485 6.95421 14.619 6.73498 14.0004 6.73498C13.3819 6.73498 12.8522 6.9546 12.4114 7.39385C11.9708 7.8331 11.7505 8.36102 11.7505 8.9776C11.7505 9.59632 11.9707 10.126 12.4111 10.5666C12.8518 11.007 13.3813 11.2272 13.9999 11.2272Z" fill="#00DDAC"/>
</g>
</svg>
