<svg width="18" height="18" viewBox="0 0 18 18" fill="none" xmlns="http://www.w3.org/2000/svg">
<mask id="mask0_615_1615" style="mask-type:alpha" maskUnits="userSpaceOnUse" x="0" y="0" width="18" height="18">
<rect width="18" height="18" fill="#D9D9D9"/>
</mask>
<g mask="url(#mask0_615_1615)">
<path d="M8.9994 8.92431C8.20452 8.92431 7.5304 8.64763 6.97702 8.09425C6.42365 7.54088 6.14696 6.86675 6.14696 6.07188C6.14696 5.27713 6.42365 4.60375 6.97702 4.05175C7.5304 3.49988 8.20452 3.22394 8.9994 3.22394C9.79427 3.22394 10.4684 3.49988 11.0218 4.05175C11.5751 4.60375 11.8518 5.27713 11.8518 6.07188C11.8518 6.86675 11.5751 7.54088 11.0218 8.09425C10.4684 8.64763 9.79427 8.92431 8.9994 8.92431ZM3.44696 13.0731V12.6679C3.44696 12.3534 3.53259 12.0561 3.70384 11.776C3.87496 11.4959 4.11146 11.2623 4.41334 11.0753C5.10984 10.6723 5.84846 10.3631 6.62921 10.1476C7.40984 9.93206 8.1999 9.82431 8.9994 9.82431C9.80477 9.82431 10.5978 9.93131 11.3786 10.1453C12.1593 10.3593 12.895 10.6678 13.5855 11.0708C13.8873 11.2453 14.1238 11.475 14.295 11.7599C14.4662 12.0449 14.5518 12.3476 14.5518 12.6679V13.0731C14.5518 13.5079 14.4011 13.8759 14.0998 14.1773C13.7984 14.4787 13.4303 14.6294 12.9956 14.6294H5.00321C4.56846 14.6294 4.2004 14.4787 3.89902 14.1773C3.59765 13.8759 3.44696 13.5079 3.44696 13.0731Z" fill="#777E91"/>
</g>
</svg>
