<svg width="28" height="28" viewBox="0 0 28 28" fill="none" xmlns="http://www.w3.org/2000/svg">
<mask id="mask0_855_18035" style="mask-type:alpha" maskUnits="userSpaceOnUse" x="0" y="0" width="28" height="28">
<rect width="28" height="28" fill="#D9D9D9"/>
</mask>
<g mask="url(#mask0_855_18035)">
<path d="M5.91735 24.7369C5.18274 24.7369 4.55673 24.4782 4.03931 23.9608C3.52189 23.4434 3.26318 22.8174 3.26318 22.0828V5.91686C3.26318 5.18225 3.52189 4.55624 4.03931 4.03882C4.55673 3.5214 5.18274 3.2627 5.91735 3.2627H22.0833C22.8179 3.2627 23.4439 3.5214 23.9613 4.03882C24.4787 4.55624 24.7374 5.18225 24.7374 5.91686V22.0828C24.7374 22.8174 24.4787 23.4434 23.9613 23.9608C23.4439 24.4782 22.8179 24.7369 22.0833 24.7369H5.91735ZM5.91735 22.0828H22.0833V5.91686H5.91735V22.0828ZM8.19498 19.9169H19.8056C20.0763 19.9169 20.2745 19.7959 20.4004 19.554C20.5264 19.3123 20.5047 19.0804 20.3353 18.8581L17.1547 14.5706C17.024 14.3917 16.8476 14.3011 16.6253 14.2988C16.4031 14.2964 16.2243 14.3847 16.0889 14.5636L13.1253 18.5271L11.0367 15.7303C10.9014 15.5514 10.7226 15.4631 10.5003 15.4654C10.2781 15.4678 10.1016 15.5584 9.97093 15.7373L7.66531 18.8581C7.49595 19.0804 7.47427 19.3123 7.60027 19.554C7.72607 19.7959 7.92431 19.9169 8.19498 19.9169Z" fill="#00DDAC"/>
</g>
</svg>
