<svg width="28" height="28" viewBox="0 0 28 28" fill="none" xmlns="http://www.w3.org/2000/svg">
<mask id="mask0_855_18027" style="mask-type:alpha" maskUnits="userSpaceOnUse" x="0" y="0" width="28" height="28">
<rect width="28" height="28" fill="#D9D9D9"/>
</mask>
<g mask="url(#mask0_855_18027)">
<path d="M13.9982 20.4722C15.4717 20.4722 16.7247 19.9565 17.7572 18.9252C18.7895 17.8939 19.3057 16.6415 19.3057 15.1682C19.3057 13.6947 18.79 12.4417 17.7587 11.4092C16.7274 10.3769 15.475 9.86078 14.0017 9.86078C12.5282 9.86078 11.2752 10.3764 10.2427 11.4078C9.21043 12.4391 8.69427 13.6914 8.69427 15.1647C8.69427 16.6382 9.20994 17.8912 10.2413 18.9237C11.2726 19.956 12.5249 20.4722 13.9982 20.4722ZM14 17.9577C13.2158 17.9577 12.5546 17.6885 12.0164 17.1501C11.4779 16.6119 11.2087 15.9507 11.2087 15.1665C11.2087 14.3823 11.4779 13.7211 12.0164 13.1829C12.5546 12.6444 13.2158 12.3752 14 12.3752C14.7842 12.3752 15.4454 12.6444 15.9836 13.1829C16.522 13.7211 16.7912 14.3823 16.7912 15.1665C16.7912 15.9507 16.522 16.6119 15.9836 17.1501C15.4454 17.6885 14.7842 17.9577 14 17.9577ZM4.75036 24.7369C4.01575 24.7369 3.38973 24.4782 2.87232 23.9608C2.3549 23.4434 2.09619 22.8174 2.09619 22.0828V8.2502C2.09619 7.51558 2.3549 6.88957 2.87232 6.37215C3.38973 5.85474 4.01575 5.59603 4.75036 5.59603H8.21623L9.68828 4.06974C9.93016 3.81793 10.218 3.62047 10.5519 3.47736C10.886 3.33425 11.2322 3.2627 11.5905 3.2627H16.4094C16.7678 3.2627 17.114 3.33425 17.4481 3.47736C17.7819 3.62047 18.0698 3.81793 18.3117 4.06974L19.7837 5.59603H23.2496C23.9842 5.59603 24.6102 5.85474 25.1276 6.37215C25.6451 6.88957 25.9038 7.51558 25.9038 8.2502V22.0828C25.9038 22.8174 25.6451 23.4434 25.1276 23.9608C24.6102 24.4782 23.9842 24.7369 23.2496 24.7369H4.75036ZM4.75036 22.0828H23.2496V8.2502H18.6293L16.4234 5.91686H11.5975L9.34994 8.2502H4.75036V22.0828Z" fill="#00DDAC"/>
</g>
</svg>
