<svg width="29" height="29" viewBox="0 0 29 29" fill="none" xmlns="http://www.w3.org/2000/svg">
<g id="pic_line 2" clip-path="url(#clip0_2331_17135)">
<g id="Group">
<path id="Vector" d="M24 3.8125C24.5992 3.81231 25.1763 4.03861 25.6157 4.44603C26.055 4.85345 26.3241 5.41188 26.3691 6.00938L26.375 6.1875V22.8125C26.3752 23.4117 26.1489 23.9888 25.7415 24.4282C25.3341 24.8675 24.7756 25.1366 24.1781 25.1816L24 25.1875H5C4.40082 25.1877 3.8237 24.9614 3.38435 24.554C2.945 24.1466 2.67588 23.5881 2.63094 22.9906L2.625 22.8125V6.1875C2.62481 5.58832 2.85111 5.0112 3.25853 4.57185C3.66595 4.1325 4.22438 3.86338 4.82188 3.81844L5 3.8125H24ZM11.9813 14.5594L5.26363 21.2771C5.18546 21.3555 5.09673 21.4227 5 21.4766V22.8125H24V21.4766C23.9033 21.4227 23.8145 21.3555 23.7364 21.2771L20.3781 17.92L19.5386 18.7596L19.7844 19.0054C19.8946 19.1157 19.9821 19.2467 20.0417 19.3908C20.1013 19.5349 20.132 19.6894 20.132 19.8454C20.1319 20.0013 20.1011 20.1558 20.0414 20.2999C19.9816 20.4439 19.8941 20.5748 19.7838 20.6851C19.6734 20.7953 19.5425 20.8828 19.3984 20.9424C19.2542 21.0021 19.0998 21.0327 18.9438 21.0327C18.7878 21.0326 18.6334 21.0018 18.4893 20.9421C18.3452 20.8824 18.2143 20.7948 18.1041 20.6845L11.9825 14.5594H11.9813ZM24 6.1875H5V18.1813L10.9316 12.2509C11.1901 11.9924 11.535 11.8384 11.9001 11.8185C12.2652 11.7985 12.6248 11.914 12.9099 12.1428L13.0299 12.2497L17.8582 17.0793L19.3284 15.6091C19.5869 15.3506 19.9318 15.1966 20.2969 15.1767C20.662 15.1568 21.0216 15.2723 21.3068 15.5011L21.4279 15.6091L24 18.1824V6.1875ZM18.6562 8.5625C19.1287 8.5625 19.5817 8.75017 19.9158 9.08422C20.2498 9.41826 20.4375 9.87133 20.4375 10.3438C20.4375 10.8162 20.2498 11.2692 19.9158 11.6033C19.5817 11.9373 19.1287 12.125 18.6562 12.125C18.1838 12.125 17.7308 11.9373 17.3967 11.6033C17.0627 11.2692 16.875 10.8162 16.875 10.3438C16.875 9.87133 17.0627 9.41826 17.3967 9.08422C17.7308 8.75017 18.1838 8.5625 18.6562 8.5625Z" fill="#6C6C6C"/>
</g>
</g>
<defs>
<clipPath id="clip0_2331_17135">
<rect width="28.5" height="28.5" fill="white" transform="translate(0.25 0.25)"/>
</clipPath>
</defs>
</svg>
