<svg width="20" height="20" viewBox="0 0 20 20" fill="none" xmlns="http://www.w3.org/2000/svg">
<g id="pic_line 2" clip-path="url(#clip0_2499_7919)">
<g id="Group">
<path id="Vector" d="M16.667 2.5C17.0875 2.49987 17.4925 2.65867 17.8008 2.94458C18.1091 3.23049 18.298 3.62237 18.3295 4.04167L18.3337 4.16667V15.8333C18.3338 16.2538 18.175 16.6588 17.8891 16.9671C17.6032 17.2754 17.2113 17.4643 16.792 17.4958L16.667 17.5H3.33366C2.91318 17.5001 2.50819 17.3413 2.19987 17.0554C1.89155 16.7695 1.7027 16.3776 1.67116 15.9583L1.66699 15.8333V4.16667C1.66686 3.74619 1.82566 3.34119 2.11157 3.03288C2.39748 2.72456 2.78936 2.5357 3.20866 2.50417L3.33366 2.5H16.667ZM8.23283 10.0417L3.51866 14.7558C3.46381 14.8109 3.40154 14.858 3.33366 14.8958V15.8333H16.667V14.8958C16.5991 14.858 16.5368 14.8109 16.482 14.7558L14.1253 12.4L13.5362 12.9892L13.7087 13.1617C13.786 13.2391 13.8474 13.331 13.8892 13.4321C13.9311 13.5333 13.9526 13.6417 13.9526 13.7511C13.9525 13.8606 13.9309 13.969 13.889 14.0701C13.8471 14.1712 13.7857 14.263 13.7082 14.3404C13.6308 14.4178 13.5389 14.4791 13.4378 14.521C13.3366 14.5629 13.2282 14.5844 13.1188 14.5843C13.0093 14.5843 12.9009 14.5627 12.7998 14.5208C12.6987 14.4789 12.6069 14.4174 12.5295 14.34L8.23366 10.0417H8.23283ZM16.667 4.16667H3.33366V12.5833L7.49616 8.42167C7.67761 8.24026 7.91963 8.13221 8.17582 8.11821C8.43202 8.10422 8.68436 8.18527 8.88449 8.34583L8.96866 8.42083L12.357 11.81L13.3887 10.7783C13.5701 10.5969 13.8121 10.4889 14.0683 10.4749C14.3245 10.4609 14.5769 10.5419 14.777 10.7025L14.862 10.7783L16.667 12.5842V4.16667ZM12.917 5.83333C13.2485 5.83333 13.5665 5.96503 13.8009 6.19945C14.0353 6.43387 14.167 6.75181 14.167 7.08333C14.167 7.41485 14.0353 7.7328 13.8009 7.96722C13.5665 8.20164 13.2485 8.33333 12.917 8.33333C12.5855 8.33333 12.2675 8.20164 12.0331 7.96722C11.7987 7.7328 11.667 7.41485 11.667 7.08333C11.667 6.75181 11.7987 6.43387 12.0331 6.19945C12.2675 5.96503 12.5855 5.83333 12.917 5.83333Z" fill="#6C6C6C"/>
</g>
</g>
<defs>
<clipPath id="clip0_2499_7919">
<rect width="20" height="20" fill="white"/>
</clipPath>
</defs>
</svg>
