<svg width="28" height="28" viewBox="0 0 28 28" fill="none" xmlns="http://www.w3.org/2000/svg">
<g id="pic_line 2" clip-path="url(#clip0_2239_15138)">
<g id="Group">
<path id="Vector" d="M23.333 3.5C23.9217 3.49981 24.4887 3.72214 24.9203 4.12241C25.352 4.52269 25.6164 5.07132 25.6605 5.65833L25.6663 5.83333V22.1667C25.6665 22.7553 25.4442 23.3223 25.0439 23.754C24.6437 24.1856 24.095 24.45 23.508 24.4942L23.333 24.5H4.66634C4.07767 24.5002 3.51068 24.2779 3.07904 23.8776C2.64739 23.4773 2.38299 22.9287 2.33884 22.3417L2.33301 22.1667V5.83333C2.33282 5.24466 2.55515 4.67767 2.95542 4.24603C3.35569 3.81438 3.90433 3.54998 4.49134 3.50583L4.66634 3.5H23.333ZM11.5252 14.0583L4.92534 20.6582C4.84855 20.7352 4.76137 20.8012 4.66634 20.8542V22.1667H23.333V20.8542C23.238 20.8012 23.1508 20.7353 23.074 20.6582L19.7747 17.36L18.9498 18.1848L19.1913 18.4263C19.2997 18.5347 19.3856 18.6634 19.4442 18.805C19.5028 18.9466 19.5329 19.0983 19.5328 19.2516C19.5328 19.4048 19.5025 19.5565 19.4438 19.6981C19.3852 19.8397 19.2992 19.9683 19.1908 20.0766C19.0824 20.1849 18.9537 20.2708 18.8121 20.3294C18.6705 20.388 18.5188 20.4181 18.3655 20.4181C18.2123 20.418 18.0605 20.3878 17.919 20.3291C17.7774 20.2704 17.6488 20.1844 17.5405 20.076L11.5263 14.0583H11.5252ZM23.333 5.83333H4.66634V17.6167L10.4938 11.7903C10.7479 11.5364 11.0867 11.3851 11.4454 11.3655C11.804 11.3459 12.1573 11.4594 12.4375 11.6842L12.5553 11.7892L17.299 16.534L18.7433 15.0897C18.9974 14.8357 19.3362 14.6844 19.6949 14.6648C20.0535 14.6452 20.4068 14.7587 20.687 14.9835L20.806 15.0897L23.333 17.6178V5.83333ZM18.083 8.16667C18.5471 8.16667 18.9923 8.35104 19.3204 8.67923C19.6486 9.00742 19.833 9.45254 19.833 9.91667C19.833 10.3808 19.6486 10.8259 19.3204 11.1541C18.9923 11.4823 18.5471 11.6667 18.083 11.6667C17.6189 11.6667 17.1738 11.4823 16.8456 11.1541C16.5174 10.8259 16.333 10.3808 16.333 9.91667C16.333 9.45254 16.5174 9.00742 16.8456 8.67923C17.1738 8.35104 17.6189 8.16667 18.083 8.16667Z" fill="#66D760"/>
</g>
</g>
<defs>
<clipPath id="clip0_2239_15138">
<rect width="28" height="28" fill="white"/>
</clipPath>
</defs>
</svg>
