<svg width="14" height="14" viewBox="0 0 14 14" fill="none" xmlns="http://www.w3.org/2000/svg">
<g id="add_line 3" clip-path="url(#clip0_2148_12225)">
<g id="Group">
<path id="Vector" d="M6.42191 11.6222C6.42191 11.7754 6.48278 11.9224 6.59113 12.0308C6.69949 12.1391 6.84645 12.2 6.99968 12.2C7.15292 12.2 7.29988 12.1391 7.40823 12.0308C7.51659 11.9224 7.57746 11.7754 7.57746 11.6222V7.57777H11.6219C11.7751 7.57777 11.9221 7.51689 12.0305 7.40854C12.1388 7.30018 12.1997 7.15322 12.1997 6.99999C12.1997 6.84675 12.1388 6.69979 12.0305 6.59144C11.9221 6.48308 11.7751 6.42221 11.6219 6.42221H7.57746V2.37777C7.57746 2.22453 7.51659 2.07757 7.40823 1.96921C7.29988 1.86086 7.15292 1.79999 6.99968 1.79999C6.84645 1.79999 6.69949 1.86086 6.59113 1.96921C6.48278 2.07757 6.42191 2.22453 6.42191 2.37777V6.42221H2.37746C2.22422 6.42221 2.07726 6.48308 1.96891 6.59144C1.86056 6.69979 1.79968 6.84675 1.79968 6.99999C1.79968 7.15322 1.86056 7.30018 1.96891 7.40854C2.07726 7.51689 2.22422 7.57777 2.37746 7.57777H6.42191V11.6222Z" fill="white"/>
</g>
</g>
<defs>
<clipPath id="clip0_2148_12225">
<rect width="13.8667" height="13.8667" fill="white" transform="translate(0.0664062 0.0666504)"/>
</clipPath>
</defs>
</svg>
