<svg width="14" height="14" viewBox="0 0 14 14" fill="none" xmlns="http://www.w3.org/2000/svg">
<path d="M3.92004 9.70666C4.06856 9.66334 4.22821 9.68079 4.36386 9.75518C4.49951 9.82957 4.60005 9.9548 4.64337 10.1033C4.68669 10.2518 4.66924 10.4115 4.59485 10.5471C4.52046 10.6828 4.39523 10.7833 4.24671 10.8267C3.95504 10.9118 3.74504 11.0017 3.61029 11.0833C3.74912 11.1667 3.96846 11.2601 4.27296 11.347C4.94671 11.5395 5.91096 11.6667 7.00004 11.6667C8.08912 11.6667 9.05337 11.5395 9.72712 11.347C10.0322 11.2601 10.251 11.1667 10.3898 11.0833C10.2556 11.0017 10.0456 10.9118 9.75396 10.8267C9.60777 10.7814 9.48521 10.6806 9.4127 10.5458C9.34018 10.4111 9.32351 10.2532 9.36629 10.1063C9.40906 9.9594 9.50785 9.83517 9.64137 9.76041C9.77488 9.68565 9.93243 9.66634 10.08 9.70666C10.4697 9.82041 10.8267 9.96624 11.1009 10.1535C11.3546 10.3279 11.6667 10.6318 11.6667 11.0833C11.6667 11.5401 11.347 11.8463 11.0892 12.0207C10.8104 12.2086 10.4458 12.355 10.0474 12.4687C9.24354 12.6992 8.16671 12.8333 7.00004 12.8333C5.83337 12.8333 4.75654 12.6992 3.95271 12.4687C3.55429 12.355 3.18971 12.2086 2.91087 12.0207C2.65304 11.8457 2.33337 11.5401 2.33337 11.0833C2.33337 10.6318 2.64546 10.3279 2.89921 10.1535C3.17337 9.96624 3.53037 9.82041 3.92004 9.70666ZM7.00004 1.16666C8.16036 1.16666 9.27316 1.62759 10.0936 2.44806C10.9141 3.26854 11.375 4.38133 11.375 5.54166C11.375 7.03966 10.5584 8.25766 9.71254 9.12332C9.35379 9.48966 8.97754 9.80524 8.63162 10.0654C8.28512 10.3256 7.49296 10.8132 7.49296 10.8132C7.34271 10.8986 7.17286 10.9435 7.00004 10.9435C6.82722 10.9435 6.65737 10.8986 6.50712 10.8132C6.11382 10.5856 5.73366 10.3359 5.36846 10.0654C4.98494 9.77905 4.62361 9.46412 4.28754 9.12332C3.44171 8.25766 2.62504 7.03966 2.62504 5.54166C2.62504 4.38133 3.08598 3.26854 3.90645 2.44806C4.72692 1.62759 5.83972 1.16666 7.00004 1.16666ZM7.00004 2.33332C6.14914 2.33332 5.33308 2.67134 4.73141 3.27302C4.12973 3.8747 3.79171 4.69075 3.79171 5.54166C3.79171 6.60099 4.37271 7.54132 5.12171 8.30666C5.68521 8.88299 6.30587 9.32166 6.73579 9.59116L7.00004 9.75099L7.26429 9.59116C7.69362 9.32166 8.31487 8.88299 8.87837 8.30724C9.62737 7.54132 10.2084 6.60157 10.2084 5.54166C10.2084 4.69075 9.87035 3.8747 9.26867 3.27302C8.66699 2.67134 7.85094 2.33332 7.00004 2.33332ZM7.00004 3.79166C7.22985 3.79166 7.45742 3.83692 7.66974 3.92487C7.88206 4.01281 8.07497 4.14172 8.23748 4.30422C8.39998 4.46672 8.52888 4.65964 8.61683 4.87196C8.70477 5.08428 8.75004 5.31184 8.75004 5.54166C8.75004 5.77147 8.70477 5.99903 8.61683 6.21135C8.52888 6.42367 8.39998 6.61659 8.23748 6.77909C8.07497 6.9416 7.88206 7.0705 7.66974 7.15845C7.45742 7.24639 7.22985 7.29166 7.00004 7.29166C6.53591 7.29166 6.09079 7.10728 5.7626 6.77909C5.43441 6.4509 5.25004 6.00578 5.25004 5.54166C5.25004 5.07753 5.43441 4.63241 5.7626 4.30422C6.09079 3.97603 6.53591 3.79166 7.00004 3.79166ZM7.00004 4.95832C6.84533 4.95832 6.69696 5.01978 6.58756 5.12918C6.47816 5.23857 6.41671 5.38695 6.41671 5.54166C6.41671 5.69637 6.47816 5.84474 6.58756 5.95413C6.69696 6.06353 6.84533 6.12499 7.00004 6.12499C7.15475 6.12499 7.30312 6.06353 7.41252 5.95413C7.52191 5.84474 7.58337 5.69637 7.58337 5.54166C7.58337 5.38695 7.52191 5.23857 7.41252 5.12918C7.30312 5.01978 7.15475 4.95832 7.00004 4.95832Z" fill="#121212"/>
</svg>
