<svg width="32" height="32" viewBox="0 0 32 32" fill="none" xmlns="http://www.w3.org/2000/svg">
<g id="sandglass_line" clip-path="url(#clip0_2246_20328)">
<g id="Group">
<path id="Vector" fill-rule="evenodd" clip-rule="evenodd" d="M6.66669 5.33342C6.66669 4.62617 6.94764 3.94789 7.44774 3.4478C7.94783 2.9477 8.62611 2.66675 9.33335 2.66675H22.6667C23.3739 2.66675 24.0522 2.9477 24.5523 3.4478C25.0524 3.94789 25.3334 4.62617 25.3334 5.33342V7.81342C25.3332 8.91094 25.0621 9.99146 24.5441 10.9591C24.0262 11.9267 23.2773 12.7514 22.364 13.3601L18.404 16.0001L22.364 18.6401C23.2773 19.2488 24.0262 20.0735 24.5441 21.0411C25.0621 22.0087 25.3332 23.0892 25.3334 24.1868V26.6668C25.3334 27.374 25.0524 28.0523 24.5523 28.5524C24.0522 29.0525 23.3739 29.3334 22.6667 29.3334H9.33335C8.62611 29.3334 7.94783 29.0525 7.44774 28.5524C6.94764 28.0523 6.66669 27.374 6.66669 26.6668V24.1868C6.66667 23.0893 6.93756 22.0089 7.45531 21.0413C7.97306 20.0737 8.72167 19.2489 9.63469 18.6401L13.5974 16.0001L9.63735 13.3601C8.72384 12.7515 7.97471 11.9269 7.45648 10.9593C6.93826 9.99166 6.66696 8.91106 6.66669 7.81342V5.33342ZM16 14.3974L20.8854 11.1401C21.4331 10.775 21.8822 10.2803 22.193 9.70001C22.5037 9.11971 22.6664 8.47168 22.6667 7.81342V5.33342H9.33335V7.81342C9.33362 8.47168 9.49634 9.11971 9.80708 9.70001C10.1178 10.2803 10.567 10.775 11.1147 11.1401L16 14.3974ZM16 17.6028L11.1147 20.8601C10.567 21.2252 10.1178 21.7199 9.80708 22.3002C9.49634 22.8805 9.33362 23.5285 9.33335 24.1868V26.6668H22.6667V24.1868C22.6664 23.5285 22.5037 22.8805 22.193 22.3002C21.8822 21.7199 21.4331 21.2252 20.8854 20.8601L16 17.6028Z" fill="#66D760"/>
</g>
</g>
<defs>
<clipPath id="clip0_2246_20328">
<rect width="32" height="32" fill="white"/>
</clipPath>
</defs>
</svg>
