<svg width="14" height="15" viewBox="0 0 14 15" fill="none" xmlns="http://www.w3.org/2000/svg">
<g id="arrow_right_line 2" clip-path="url(#clip0_2239_14769)">
<g id="Group">
<path id="Vector" d="M8.57908 3.7877L11.879 7.08762C11.9884 7.19701 12.0498 7.34536 12.0498 7.50004C12.0498 7.65472 11.9884 7.80306 11.879 7.91245L8.57908 11.2124C8.46907 11.3186 8.32171 11.3774 8.16877 11.3761C8.01582 11.3748 7.86951 11.3134 7.76136 11.2053C7.6532 11.0971 7.59185 10.9508 7.59052 10.7979C7.58919 10.6449 7.64799 10.4976 7.75425 10.3875L10.0584 8.08337H2.33333C2.17862 8.08337 2.03025 8.02191 1.92085 7.91252C1.81146 7.80312 1.75 7.65475 1.75 7.50004C1.75 7.34533 1.81146 7.19695 1.92085 7.08756C2.03025 6.97816 2.17862 6.9167 2.33333 6.9167H10.0584L7.75425 4.61254C7.69854 4.55873 7.6541 4.49436 7.62352 4.42319C7.59295 4.35202 7.57686 4.27548 7.57619 4.19802C7.57551 4.12057 7.59027 4.04375 7.6196 3.97206C7.64893 3.90037 7.69225 3.83524 7.74702 3.78047C7.80179 3.7257 7.86692 3.68239 7.93861 3.65306C8.0103 3.62373 8.08711 3.60897 8.16457 3.60964C8.24202 3.61031 8.31857 3.62641 8.38974 3.65698C8.4609 3.68755 8.52527 3.73199 8.57908 3.7877Z" fill="#121212"/>
</g>
</g>
<defs>
<clipPath id="clip0_2239_14769">
<rect width="14" height="14" fill="white" transform="translate(0 0.5)"/>
</clipPath>
</defs>
</svg>
