<svg width="22" height="22" viewBox="0 0 22 22" fill="none" xmlns="http://www.w3.org/2000/svg">
<mask id="mask0_657_724" style="mask-type:alpha" maskUnits="userSpaceOnUse" x="0" y="0" width="22" height="22">
<rect width="22" height="22" fill="#D9D9D9"/>
</mask>
<g mask="url(#mask0_657_724)">
<path d="M8.66482 14.7928C6.96654 14.7928 5.52791 14.2033 4.34892 13.0243C3.16994 11.8452 2.58044 10.4065 2.58044 8.7084C2.58044 7.01027 3.16994 5.57164 4.34892 4.3925C5.52791 3.21352 6.96654 2.62402 8.66482 2.62402C10.3629 2.62402 11.8015 3.21352 12.9805 4.3925C14.1596 5.57164 14.7492 7.01027 14.7492 8.7084C14.7492 9.38795 14.6459 10.0229 14.4394 10.6132C14.2327 11.2036 13.9533 11.7242 13.6013 12.1752L18.6909 17.2703C18.8844 17.4675 18.9812 17.7115 18.9812 18.0023C18.9812 18.2931 18.8826 18.5354 18.6854 18.7289C18.4916 18.9225 18.2485 19.0193 17.9559 19.0193C17.6634 19.0193 17.4203 18.9225 17.2267 18.7289L12.1427 13.6449C11.688 13.997 11.1637 14.2764 10.5697 14.4829C9.97565 14.6895 9.34071 14.7928 8.66482 14.7928ZM8.66482 12.7074C9.77765 12.7074 10.7224 12.3191 11.4989 11.5425C12.2755 10.7661 12.6638 9.82138 12.6638 8.7084C12.6638 7.59541 12.2755 6.65071 11.4989 5.87429C10.7224 5.09773 9.77765 4.70944 8.66482 4.70944C7.55183 4.70944 6.60706 5.09773 5.83049 5.87429C5.05407 6.65071 4.66586 7.59541 4.66586 8.7084C4.66586 9.82138 5.05407 10.7661 5.83049 11.5425C6.60706 12.3191 7.55183 12.7074 8.66482 12.7074Z" fill="#D2D6DE"/>
</g>
</svg>
