<svg width="19" height="20" viewBox="0 0 19 20" fill="none" xmlns="http://www.w3.org/2000/svg">
<g id="send_line 1" clip-path="url(#clip0_2509_3315)">
<g id="Group">
<path id="Vector" fill-rule="evenodd" clip-rule="evenodd" d="M14.2432 5.00834L4.27456 8.8025L7.5956 10.8258L10.524 7.7425C10.6725 7.58625 10.874 7.49851 11.084 7.49858C11.294 7.49866 11.4953 7.58655 11.6438 7.74292C11.7922 7.89929 11.8756 8.11132 11.8755 8.33238C11.8754 8.55344 11.7919 8.76541 11.6434 8.92167L8.71423 12.005L10.638 15.5L14.2432 5.00834ZM14.4989 3.13833C15.445 2.7775 16.3617 3.7425 16.0189 4.73833L11.8374 16.9092C11.4938 17.9075 10.1986 18.0292 9.69273 17.11L7.14594 12.4783L2.74585 9.7975C1.87264 9.265 1.98823 7.90167 2.93664 7.54L14.4989 3.13833Z" fill="white"/>
</g>
</g>
<defs>
<clipPath id="clip0_2509_3315">
<rect width="19" height="20" fill="white"/>
</clipPath>
</defs>
</svg>
