<svg width="28" height="28" viewBox="0 0 28 28" fill="none" xmlns="http://www.w3.org/2000/svg">
<g id="service_line 1" clip-path="url(#clip0_2501_16253)">
<g id="Group">
<path id="Vector" fill-rule="evenodd" clip-rule="evenodd" d="M5.8335 10.5C5.8335 8.33405 6.69391 6.25682 8.22546 4.72527C9.757 3.19373 11.8342 2.33331 14.0002 2.33331C16.1661 2.33331 18.2433 3.19373 19.7749 4.72527C21.3064 6.25682 22.1668 8.33405 22.1668 10.5V11.7075C24.1455 11.991 25.6668 13.6931 25.6668 15.75V16.0416C25.6667 16.5475 25.5653 17.0483 25.3687 17.5144C25.172 17.9805 24.8841 18.4025 24.5218 18.7556C24.1596 19.1088 23.7303 19.3858 23.2594 19.5705C22.7884 19.7552 22.2852 19.8437 21.7795 19.831C20.9162 22.3043 18.7205 23.9715 16.351 24.3938C15.8027 24.5945 15.154 24.5 14.5835 24.5C14.1194 24.5 13.6742 24.3156 13.3461 23.9874C13.0179 23.6592 12.8335 23.2141 12.8335 22.75C12.8335 22.2859 13.0179 21.8407 13.3461 21.5125C13.6742 21.1844 14.1194 21 14.5835 21H15.7502C16.0241 20.9999 16.2943 21.0642 16.5388 21.1876C16.7834 21.311 16.9956 21.4901 17.1583 21.7105C18.6703 20.9906 19.8335 19.4705 19.8335 17.5V10.5C19.8335 8.95288 19.2189 7.46915 18.125 6.37519C17.031 5.28123 15.5473 4.66665 14.0002 4.66665C12.4531 4.66665 10.9693 5.28123 9.87537 6.37519C8.78141 7.46915 8.16683 8.95288 8.16683 10.5V17.7916C8.16683 18.3331 7.95173 18.8524 7.56884 19.2353C7.18595 19.6182 6.66665 19.8333 6.12516 19.8333C5.11955 19.8333 4.15513 19.4338 3.44405 18.7228C2.73297 18.0117 2.3335 17.0473 2.3335 16.0416V15.75C2.33324 14.7679 2.68695 13.8186 3.32978 13.0762C3.9726 12.3337 4.86149 11.8478 5.8335 11.7075V10.5ZM5.8335 14.0991C5.49216 14.2198 5.19665 14.4434 4.9877 14.7391C4.77875 15.0347 4.66664 15.3879 4.66683 15.75V16.0416C4.66683 16.7475 5.1685 17.3366 5.8335 17.4708V14.0991ZM22.1668 14.0991V17.4708C22.8318 17.3355 23.3335 16.7475 23.3335 16.0416V15.75C23.3337 15.3879 23.2216 15.0347 23.0126 14.7391C22.8037 14.4434 22.5082 14.2198 22.1668 14.0991Z" fill="white"/>
</g>
</g>
<defs>
<clipPath id="clip0_2501_16253">
<rect width="28" height="28" fill="white"/>
</clipPath>
</defs>
</svg>
