<svg width="375" height="812" viewBox="0 0 375 812" fill="none" xmlns="http://www.w3.org/2000/svg">
<rect width="375" height="812" fill="white"/>
<path d="M143.839 295.53L143.137 293.766C146.737 293.532 148.357 292.47 148.627 291.318H143.929V289.482H148.789V287.988H151.165V289.482H156.043V291.318H151.345C151.615 292.47 153.217 293.532 156.817 293.766L156.115 295.53C153.073 295.314 151.021 294.45 149.995 293.136C148.951 294.45 146.881 295.314 143.839 295.53ZM157.483 298.014H151.165V299.436H155.683V304.548H153.307V301.308H144.163V299.436H148.789V298.014H142.507V296.124H157.483V298.014ZM163.854 299.22C164.97 299.22 165.78 298.464 165.78 297.186C165.78 295.944 164.97 295.17 163.854 295.17C162.738 295.17 161.91 295.944 161.91 297.204C161.91 298.464 162.738 299.22 163.854 299.22ZM163.854 293.244C166.248 293.244 168.03 294.882 168.03 297.186C168.03 299.526 166.248 301.164 163.854 301.164C161.442 301.164 159.642 299.526 159.642 297.186C159.642 294.882 161.442 293.244 163.854 293.244ZM165.024 288.258V290.418H168.624V292.308H158.976V290.418H162.648V288.258H165.024ZM174.456 294.45V296.412H172.08V304.548H169.704V287.97H172.08V294.45H174.456ZM185.399 289.428L185.381 291.282H175.607V289.428H179.297V287.844H181.691V289.428H185.399ZM178.703 294.666C178.703 295.458 179.441 295.872 180.503 295.872C181.565 295.872 182.303 295.458 182.303 294.666C182.303 293.874 181.565 293.46 180.503 293.46C179.441 293.46 178.703 293.874 178.703 294.666ZM184.571 294.666C184.571 296.412 182.897 297.6 180.503 297.6C178.109 297.6 176.435 296.412 176.435 294.666C176.435 292.902 178.109 291.732 180.503 291.732C182.897 291.732 184.571 292.902 184.571 294.666ZM186.317 302.514V301.362H180.251V302.514H186.317ZM186.317 299.562V298.302H188.675V304.368H177.893V298.302H180.251V299.562H186.317ZM190.871 291.948V293.892H188.675V297.672H186.299V287.97H188.675V291.948H190.871ZM195.405 289.536V298.428C197.583 298.374 199.941 298.194 202.371 297.708L202.623 299.688C199.797 300.282 197.043 300.462 194.523 300.462H193.047V289.536H195.405ZM203.649 287.952H206.025V304.53H203.649V287.952ZM211.748 291.426V298.626C214.106 298.59 216.068 298.464 218.21 298.104L218.444 300.066C215.942 300.516 213.674 300.606 210.794 300.606H209.372V289.5H217.112V291.426H211.748ZM224.132 294.09V296.052H221.72V304.584H219.344V287.97H221.72V294.09H224.132ZM226.992 298.464L226.614 291.822L226.524 289.32H229.188L229.098 291.822L228.72 298.464H226.992ZM227.856 303.252C226.92 303.252 226.218 302.496 226.218 301.524C226.218 300.552 226.92 299.796 227.856 299.796C228.792 299.796 229.512 300.552 229.512 301.524C229.512 302.496 228.792 303.252 227.856 303.252ZM95.3246 316.806V318.66H85.3706V316.806H89.1686V315.024H91.5446V316.806H95.3246ZM88.5026 322.44C88.5026 323.286 89.2586 323.754 90.3566 323.754C91.4726 323.754 92.2106 323.286 92.2106 322.44C92.2106 321.576 91.4726 321.108 90.3566 321.108C89.2586 321.108 88.5026 321.576 88.5026 322.44ZM91.5446 325.428V326.742C92.8946 326.67 94.2446 326.58 95.5406 326.4L95.7206 328.11C92.1026 328.776 88.2686 328.794 85.3346 328.794L85.0466 326.868C86.2886 326.868 87.6926 326.868 89.1686 326.832V325.428C87.3866 325.086 86.2346 323.97 86.2346 322.44C86.2346 320.568 87.9266 319.308 90.3566 319.308C92.7686 319.308 94.4606 320.568 94.4606 322.44C94.4606 323.97 93.3086 325.086 91.5446 325.428ZM96.4046 314.97H98.7806V331.548H96.4046V314.97ZM109.975 324.6H113.089V314.97H115.465V327.534H113.089V326.22H109.975V324.6ZM106.789 317.256C105.673 317.256 104.899 317.688 104.899 318.498C104.899 319.308 105.673 319.722 106.789 319.722C107.887 319.722 108.661 319.308 108.661 318.498C108.661 317.688 107.887 317.256 106.789 317.256ZM106.789 321.45C104.359 321.45 102.649 320.262 102.649 318.498C102.649 316.734 104.359 315.528 106.789 315.528C109.201 315.528 110.911 316.734 110.911 318.498C110.911 320.262 109.201 321.45 106.789 321.45ZM105.907 329.37H115.825V331.26H103.531V326.328H105.835V324.114C104.377 324.186 102.991 324.204 101.749 324.204L101.443 322.314C104.467 322.296 108.499 322.26 111.991 321.81L112.153 323.502C110.857 323.736 109.525 323.88 108.193 323.97V327.102H105.907V329.37ZM118.83 316.662H126.642C126.642 321.63 124.752 325.896 119.244 328.686L117.912 326.868C121.764 324.888 123.816 322.26 124.248 318.588H118.83V316.662ZM133.374 321.288V323.25H131.052V331.512H128.676V314.952H131.052V321.288H133.374ZM146.008 314.97H148.402V323.88H146.008V314.97ZM137.386 324.6H139.744V326.148H146.044V324.6H148.402V331.35H137.386V324.6ZM139.744 327.966V329.478H146.044V327.966H139.744ZM139.384 315.654C141.958 315.654 143.884 317.292 143.884 319.56C143.884 321.846 141.958 323.484 139.384 323.484C136.81 323.484 134.866 321.846 134.866 319.56C134.866 317.292 136.81 315.654 139.384 315.654ZM139.384 317.616C138.124 317.616 137.188 318.354 137.188 319.56C137.188 320.802 138.124 321.522 139.384 321.522C140.644 321.522 141.562 320.802 141.562 319.56C141.562 318.354 140.644 317.616 139.384 317.616ZM162.549 314.952H164.925V331.584H162.549V314.952ZM156.015 316.122C158.517 316.122 160.371 318.39 160.371 322.026C160.371 325.68 158.517 327.966 156.015 327.966C153.513 327.966 151.659 325.68 151.659 322.026C151.659 318.39 153.513 316.122 156.015 316.122ZM156.015 318.264C154.791 318.264 153.945 319.578 153.945 322.026C153.945 324.492 154.791 325.806 156.015 325.806C157.239 325.806 158.085 324.492 158.085 322.026C158.085 319.578 157.239 318.264 156.015 318.264ZM174.852 319.002C174.852 320.01 175.626 320.586 176.76 320.586C177.894 320.586 178.704 320.01 178.704 319.002C178.704 317.994 177.894 317.418 176.76 317.418C175.626 317.418 174.852 317.994 174.852 319.002ZM181.728 323.106L181.872 324.78C178.524 325.41 174.798 325.464 172.062 325.464L171.774 323.574C172.908 323.574 174.222 323.574 175.59 323.538V322.26C173.826 321.882 172.638 320.64 172.638 319.002C172.638 317.022 174.366 315.636 176.76 315.636C179.172 315.636 180.9 317.022 180.9 319.002C180.9 320.622 179.73 321.864 177.966 322.26V323.448C179.244 323.376 180.54 323.286 181.728 323.106ZM176.31 326.544V329.37H185.526V331.26H173.934V326.544H176.31ZM184.968 320.172H187.056V322.134H184.968V327.624H182.592V314.97H184.968V320.172ZM194.524 325.266V327.786H197.422V325.266H194.524ZM199.762 327.786H203.398V329.73H188.368V327.786H192.184V325.266H190.114V319.686H199.366V317.922H190.096V316.032H201.706V321.54H192.472V323.358H202.084V325.266H199.762V327.786ZM211.569 323.592V326.292C212.901 326.22 214.233 326.13 215.493 326.004L215.637 327.732C212.091 328.29 208.383 328.326 205.305 328.326L205.017 326.382C206.313 326.382 207.735 326.382 209.193 326.346V323.592H206.079V316.446H214.629V318.336H208.455V321.684H214.737V323.592H211.569ZM216.393 314.97H218.769V331.584H216.393V314.97ZM226.075 317.778C224.869 317.778 223.987 318.552 223.987 319.794C223.987 321.054 224.869 321.792 226.075 321.792C227.281 321.792 228.163 321.054 228.163 319.794C228.163 318.552 227.281 317.778 226.075 317.778ZM232.987 320.748H230.341C229.891 322.548 228.217 323.772 226.075 323.772C223.609 323.772 221.737 322.116 221.737 319.794C221.737 317.472 223.609 315.816 226.075 315.816C228.199 315.816 229.873 317.022 230.323 318.822H232.987V314.97H235.363V324.24H232.987V320.748ZM233.815 324.888V325.5C233.815 327.264 234.697 328.902 236.911 329.604L235.723 331.314C234.157 330.792 233.167 329.784 232.591 328.488C232.051 329.784 231.097 330.9 229.603 331.494C228.073 330.918 227.137 329.838 226.597 328.542C226.021 329.784 225.031 330.792 223.537 331.314L222.367 329.604C224.527 328.83 225.427 327.156 225.427 325.5V324.888H227.731V325.5C227.731 326.868 228.271 328.254 229.585 329.19C230.935 328.2 231.475 326.742 231.475 325.5V324.888H233.815ZM252.3 319.614L251.454 321.45C248.628 321.108 246.612 319.938 245.55 318.354C244.506 319.938 242.454 321.09 239.628 321.45L238.8 319.614C242.526 319.182 244.326 317.346 244.326 315.654V315.15H246.774V315.654C246.774 317.328 248.574 319.2 252.3 319.614ZM248.808 329.514V328.074H242.166V329.514H248.808ZM248.808 326.292V324.906H251.148V331.35H239.808V324.906H242.166V326.292H248.808ZM238.062 322.206H253.038V324.078H238.062V322.206ZM257.843 316.536V325.428C260.021 325.374 262.379 325.194 264.809 324.708L265.061 326.688C262.235 327.282 259.481 327.462 256.961 327.462H255.485V316.536H257.843ZM266.087 314.952H268.463V331.53H266.087V314.952ZM274.185 318.426V325.626C276.543 325.59 278.505 325.464 280.647 325.104L280.881 327.066C278.379 327.516 276.111 327.606 273.231 327.606H271.809V316.5H279.549V318.426H274.185ZM286.569 321.09V323.052H284.157V331.584H281.781V314.97H284.157V321.09H286.569ZM289.88 330.252C288.944 330.252 288.242 329.496 288.242 328.524C288.242 327.552 288.944 326.796 289.88 326.796C290.834 326.796 291.536 327.552 291.536 328.524C291.536 329.496 290.834 330.252 289.88 330.252Z" fill="#121212"/>
<path d="M154.758 369.982H160.666C160.666 373.244 158.454 375.302 154.73 376.128L154.198 374.952C157.222 374.322 158.86 372.88 159.056 371.158H154.758V369.982ZM157.362 379.656V380.804H164.502V381.966H155.948V378.564H162.654V377.5H155.92V376.338H164.082V379.656H157.362ZM164.082 372.124H165.874V373.314H164.082V375.82H162.64V369.436H164.082V372.124ZM168.645 372.11V377.878C170.101 377.864 171.249 377.794 172.551 377.528L172.677 378.718C171.151 379.012 169.849 379.068 168.071 379.068H167.231V370.934H171.907V372.11H168.645ZM176.219 369.422H177.591V382.064H176.219V375.596H174.721V381.448H173.363V369.688H174.721V374.42H176.219V369.422ZM181.174 373.258C181.174 374.364 182.014 375.05 183.162 375.05C184.31 375.05 185.136 374.364 185.136 373.258C185.136 372.152 184.31 371.452 183.162 371.452C182.014 371.452 181.174 372.152 181.174 373.258ZM183.89 376.226V378.172C184.968 378.13 186.046 378.046 187.054 377.906L187.18 378.97C184.534 379.432 181.636 379.446 179.466 379.446L179.27 378.256C180.222 378.256 181.314 378.256 182.448 378.228V376.24C180.88 375.96 179.774 374.812 179.774 373.258C179.774 371.466 181.216 370.22 183.162 370.22C185.108 370.22 186.536 371.466 186.536 373.258C186.536 374.812 185.458 375.946 183.89 376.226ZM191.1 374.532V375.736H189.238V382.064H187.796V369.436H189.238V374.532H191.1ZM202.349 370.682V371.83H194.887V370.682H197.897V369.338H199.339V370.682H202.349ZM196.931 374.616C196.931 375.358 197.603 375.806 198.611 375.806C199.619 375.806 200.305 375.358 200.305 374.616C200.305 373.888 199.619 373.44 198.611 373.44C197.603 373.44 196.931 373.888 196.931 374.616ZM201.677 374.616C201.677 375.988 200.445 376.884 198.611 376.884C196.791 376.884 195.545 375.988 195.545 374.616C195.545 373.258 196.791 372.348 198.611 372.348C200.445 372.348 201.677 373.258 201.677 374.616ZM198.093 378.83V380.776H203.329V378.83H198.093ZM196.665 381.924V377.696H204.743V381.924H196.665ZM206.535 372.684V373.874H204.743V377.052H203.301V369.436H204.743V372.684H206.535ZM207.738 370.906H210.552C210.552 373.832 210.216 376.744 208.508 379.236L207.402 378.606C208.83 376.618 209.236 374.49 209.334 372.082H207.738V370.906ZM214.57 374.294V369.73H215.928V381.462H214.57V375.47H213.044C212.764 377.038 212.26 378.578 211.322 379.964L210.202 379.334C211.784 377.108 212.078 374.546 212.12 372.082H210.958V370.906H213.352C213.352 371.998 213.324 373.146 213.198 374.294H214.57ZM216.964 369.422H218.336V382.092H216.964V369.422ZM123.186 401.082V398.548H121.254V397.386H123.186V395.874H121.254V394.698H123.186V391.436H124.628V401.082H123.186ZM121.198 392.878V394.026H114.184V392.878H117.026V391.408H118.468V392.878H121.198ZM116.2 397.064C116.2 397.89 116.83 398.38 117.74 398.38C118.664 398.38 119.294 397.89 119.294 397.064C119.294 396.252 118.664 395.734 117.74 395.734C116.83 395.734 116.2 396.252 116.2 397.064ZM120.652 397.064C120.652 398.52 119.462 399.514 117.74 399.514C116.032 399.514 114.842 398.52 114.842 397.064C114.842 395.594 116.032 394.614 117.74 394.614C119.462 394.614 120.652 395.594 120.652 397.064ZM117.852 402.664H124.922V403.84H116.396V400.27H117.852V402.664ZM131.753 396.924V393.522H128.715V396.924H131.753ZM135.785 394.558H133.153V395.888H135.785V394.558ZM133.153 397.064V398.072H127.301V392.374H133.153V393.382H135.785V391.436H137.227V398.884H135.785V397.064H133.153ZM133.013 402.958C134.805 402.958 135.841 402.496 135.841 401.656C135.841 400.83 134.805 400.368 133.013 400.368C131.221 400.368 130.199 400.83 130.199 401.656C130.199 402.496 131.221 402.958 133.013 402.958ZM133.013 399.234C135.659 399.234 137.283 400.13 137.283 401.656C137.283 403.182 135.659 404.078 133.013 404.078C130.381 404.078 128.757 403.182 128.757 401.656C128.757 400.13 130.381 399.234 133.013 399.234ZM146.83 392.878V394.026H139.368V392.878H142.378V391.422H143.82V392.878H146.83ZM141.412 397.008C141.412 397.806 142.098 398.282 143.092 398.282C144.1 398.282 144.786 397.806 144.786 397.008C144.786 396.21 144.1 395.734 143.092 395.734C142.098 395.734 141.412 396.21 141.412 397.008ZM146.158 397.008C146.158 398.45 144.912 399.402 143.092 399.402C141.286 399.402 140.026 398.45 140.026 397.008C140.026 395.58 141.286 394.614 143.092 394.614C144.912 394.614 146.158 395.58 146.158 397.008ZM142.672 400.186V402.664H149.728V403.84H141.216V400.186H142.672ZM149.224 395.468H151.016V396.658H149.224V400.914H147.782V391.436H149.224V395.468ZM165.779 397.414L165.177 398.618C163.105 398.212 161.313 396.952 160.501 395.272C159.661 396.952 157.869 398.212 155.811 398.618L155.195 397.414C157.701 396.994 159.731 395.104 159.731 393.158V392.206H161.257V393.158C161.257 395.118 163.287 396.994 165.779 397.414ZM161.201 401.32H166.269V402.51H154.817V401.32H159.759V398.366H161.201V401.32ZM176.362 391.422H177.818V404.106H176.362V391.422ZM168.088 392.472H169.516V395.692H172.722V392.472H174.164V401.096H168.088V392.472ZM169.516 396.84V399.934H172.722V396.84H169.516ZM188.597 393.592V392.738H181.443V391.744H190.025V394.53H182.885V395.426H190.249V396.434H181.471V393.592H188.597ZM182.787 401.978V402.944H190.445V403.938H181.359V401.04H188.639V400.144H181.331V399.15H190.067V401.978H182.787ZM180.001 397.232H191.467V398.296H180.001V397.232ZM200.141 392.486V394.558C200.141 396.882 201.429 399.206 203.417 400.102L202.577 401.25C201.121 400.564 200.015 399.164 199.441 397.456C198.867 399.29 197.747 400.788 196.221 401.53L195.367 400.326C197.383 399.416 198.699 396.994 198.699 394.558V392.486H200.141ZM204.425 391.422H205.881V404.106H204.425V391.422ZM215.511 397.442L214.769 398.548C213.355 398.086 212.347 397.12 211.801 395.916C211.241 397.246 210.191 398.282 208.707 398.8L207.951 397.666C209.953 396.994 211.059 395.384 211.059 393.648V393.424H208.371V392.248H215.161V393.424H212.515V393.648C212.515 395.244 213.579 396.798 215.511 397.442ZM209.631 400.83V399.668H217.947V404.078H216.505V400.83H209.631ZM219.739 394.656V395.846H217.947V399.052H216.505V391.422H217.947V394.656H219.739ZM223.756 400.046C224.61 400.046 225.212 399.36 225.212 398.31C225.212 397.26 224.61 396.56 223.756 396.56C222.902 396.56 222.3 397.26 222.3 398.31C222.3 399.36 222.902 400.046 223.756 400.046ZM223.756 395.37C225.352 395.37 226.5 396.56 226.5 398.31C226.5 400.046 225.352 401.25 223.756 401.25C222.16 401.25 221.012 400.046 221.012 398.31C221.012 396.56 222.16 395.37 223.756 395.37ZM224.47 391.8V393.494H226.836V394.656H220.648V393.494H223.042V391.8H224.47ZM230.07 391.436H231.442V404.078H230.07V397.862H228.726V403.49H227.382V391.702H228.726V396.672H230.07V391.436ZM235.347 395.328V397.05H238.805V395.328H235.347ZM237.811 398.212V400.298C238.861 400.256 239.925 400.186 240.919 400.046L241.045 401.096C238.385 401.572 235.501 401.6 233.331 401.586L233.121 400.396C234.101 400.396 235.207 400.382 236.369 400.354V398.212H233.919V392.458H235.347V394.194H238.805V392.458H240.233V398.212H237.811ZM244.965 396.644V397.834H243.103V404.078H241.661V391.422H243.103V396.644H244.965ZM249.99 398.604V401.348H253.182V398.59C252.692 398.716 252.146 398.772 251.586 398.772C251.026 398.772 250.48 398.716 249.99 398.604ZM251.586 393.298C249.668 393.298 248.338 394.138 248.338 395.468C248.338 396.812 249.668 397.652 251.586 397.652C253.49 397.652 254.82 396.812 254.82 395.468C254.82 394.138 253.49 393.298 251.586 393.298ZM254.624 401.348H257.326V402.524H245.874V401.348H248.548V398.058C247.54 397.498 246.938 396.588 246.938 395.468C246.938 393.452 248.884 392.164 251.586 392.164C254.274 392.164 256.234 393.452 256.234 395.468C256.234 396.588 255.632 397.484 254.624 398.058V401.348ZM259.621 399.71L259.397 394.11L259.355 392.458H260.979L260.923 394.11L260.699 399.71H259.621ZM260.153 403.182C259.551 403.182 259.089 402.72 259.089 402.062C259.089 401.404 259.551 400.914 260.153 400.914C260.769 400.914 261.245 401.404 261.245 402.062C261.245 402.72 260.769 403.182 260.153 403.182Z" fill="#777E91"/>
<path d="M238.963 85.4436C238.963 81.6282 240.062 77.4494 242.231 73.2176C244.18 69.4173 246.812 65.9501 249.731 63.2626C250.3 51.1349 262.464 44.7683 269.358 43.0196L271.565 42.4594L272.687 46.8577L270.48 47.4179C270.351 47.4482 265.756 48.6746 261.501 51.6573C258.316 53.8981 256.17 56.4947 255.093 59.4169C260.978 56.3585 266.529 57.335 270.002 62.074C273.006 66.162 273.461 70.409 271.261 73.7172C268.888 77.2828 263.92 78.9861 259.173 77.8582C254.828 76.8286 251.665 73.6339 250.376 69.1144C245.242 75.1404 241.943 83.7479 244.286 89.895L245.098 92.0147L240.844 93.6271L240.032 91.5074C239.319 89.6376 238.97 87.5936 238.97 85.4361L238.963 85.4436ZM268.091 69.1296C268.091 67.5701 267.219 65.9803 266.332 64.7615C264.148 61.7864 261.001 61.3851 256.966 63.573C256.071 64.0575 255.176 64.648 254.312 65.3217C254.327 65.5564 254.35 65.7911 254.38 66.0258C255.032 71.431 258.316 72.998 260.227 73.4447C263.063 74.1184 266.18 73.157 267.469 71.2114C267.909 70.5452 268.091 69.8412 268.091 69.1296Z" fill="#FF4A4A"/>
<path d="M23.7253 175.212L24.0514 170.678L26.3189 170.837C26.6071 170.859 33.4323 171.374 40.3561 174.213C50.0025 178.165 55.0986 184.69 55.0986 193.071C55.0986 197.499 53.544 201.322 50.7532 204.063C51.868 208.037 51.8604 212.436 50.101 215.956L49.0848 217.985L45.0125 215.956L46.0287 213.927C47.0752 211.838 47.2041 209.294 46.7567 206.841C46.2182 207.099 45.6495 207.333 45.0656 207.538C40.3865 209.165 35.6012 208.385 33.4323 205.653C32.6285 204.638 31.0511 201.822 33.766 197.56C36.443 193.358 40.2879 192.109 44.0342 194.229C45.8618 195.266 47.515 197.083 48.7967 199.331C49.8205 197.817 50.5561 195.788 50.5561 193.078C50.5561 177.309 26.2507 175.394 26.0004 175.379L23.7329 175.22L23.7253 175.212ZM45.3158 202.466C44.3527 200.497 43.0786 198.915 41.7894 198.188C41.1221 197.81 39.5599 196.932 37.6033 200.005C37.2241 200.603 36.3975 202.079 36.9966 202.836C37.808 203.858 40.6367 204.267 43.5716 203.253C44.0418 203.086 44.656 202.836 45.3234 202.473L45.3158 202.466Z" fill="#FFEC6B"/>
<path d="M302.877 711.146L305.668 707.557L307.465 708.95C312.539 712.887 316.649 712.395 319.493 710.926C316.513 707.368 316.164 702.334 317.491 698.821C318.803 695.346 321.654 693.265 325.12 693.265C327.964 693.265 330.065 694.764 330.884 697.383C332.029 701.032 330.398 706.202 327.221 710.215C329.723 710.502 332.87 709.685 336.427 707.792C339.658 706.074 341.667 703.765 342.562 700.737C344.549 694.06 340.31 686.262 340.264 686.179L339.165 684.195L343.139 682L344.238 683.983C344.451 684.37 349.441 693.484 346.923 702.008C345.679 706.217 342.866 709.511 338.558 711.804C331.384 715.627 326.477 715.203 323.391 713.863C323.361 713.886 323.33 713.909 323.3 713.924C317.635 717.845 310.84 717.346 304.659 712.546L302.862 711.153L302.877 711.146ZM326.697 699.911C326.697 699.472 326.644 699.071 326.546 698.738C326.364 698.147 326.068 697.807 325.12 697.807C323.148 697.807 322.2 699.23 321.753 700.419C320.919 702.644 321.222 705.952 323.065 708.102C325.439 705.453 326.697 702.099 326.697 699.904L326.697 699.911Z" fill="#00DDAC"/>
<path d="M17.4331 421.275L21.7711 422.634L21.0952 424.805C19.1829 430.935 21.0822 434.614 23.4532 436.764C25.7433 432.727 30.3372 430.638 34.0921 430.652C37.8063 430.665 40.7544 432.608 41.9672 435.854C42.9623 438.518 42.2933 441.011 40.1262 442.695C37.1087 445.044 31.6945 445.326 26.824 443.754C27.4303 446.199 29.2975 448.861 32.315 451.53C35.0554 453.955 37.9216 455.03 41.0714 454.809C48.0216 454.333 53.8425 447.633 53.9046 447.562L55.3778 445.838L58.825 448.792L57.3518 450.516C57.0644 450.85 50.2722 458.714 41.4059 459.338C37.0278 459.646 32.9583 458.163 29.3022 454.931C23.2104 449.548 21.8905 444.803 22.0656 441.443C22.0338 441.423 22.0019 441.402 21.9771 441.379C16.3212 437.444 14.4114 430.904 16.7447 423.435L17.4207 421.264L17.4331 421.275ZM36.2926 439.658C36.704 439.504 37.0613 439.314 37.3388 439.105C37.8283 438.728 38.0439 438.332 37.7122 437.444C37.0222 435.597 35.3572 435.207 34.0872 435.204C31.7104 435.201 28.7175 436.643 27.3483 439.122C30.661 440.418 34.2432 440.424 36.2997 439.655L36.2926 439.658Z" fill="#00DDAC"/>
<path d="M125.072 793.067L127.294 792.575C133.05 791.296 136.759 786.936 138.693 782.461C133.96 779.32 130.32 775.33 130.313 771.628L130.313 771.621C130.313 770.205 130.866 767.601 134.529 766.079C138.344 764.49 140.801 765.875 141.923 766.836C144.797 769.312 145.669 774.505 144.183 780.395C144.183 780.41 144.176 780.433 144.168 780.448C145.139 780.963 146.178 781.447 147.27 781.901C154.33 784.816 160.329 784.77 163.316 781.78L164.924 780.175L168.14 783.385L166.532 784.99C162.133 789.381 154.474 789.79 145.525 786.095C144.555 785.694 143.584 785.247 142.628 784.763C140.141 790.183 135.47 795.414 128.265 797.012L126.043 797.504L125.057 793.067L125.072 793.067ZM140.346 774.974C140.346 772.658 139.769 770.977 138.958 770.273C138.738 770.084 138.078 769.516 136.289 770.266C134.87 770.856 134.87 771.401 134.87 771.621C134.87 772.983 136.759 775.451 140.08 777.889C140.27 776.837 140.353 775.86 140.353 774.974L140.346 774.974Z" fill="#00DDAC"/>
<path d="M116.988 32.527L117.367 28L119.635 28.1893C120.151 28.2347 132.368 29.3324 138.526 37.1677C141.46 40.8998 142.53 45.4799 141.688 50.7715C140.96 55.3667 141.574 58.5765 143.5 60.3026C146.208 62.7251 151.357 62.0134 153.116 61.5365L155.308 60.9385L156.521 65.3065L154.337 65.9122C153.981 66.0106 145.609 68.259 140.49 63.7016C137.32 60.8779 136.213 56.2903 137.198 50.0599C137.836 46.0098 137.1 42.7091 134.946 39.9687C129.994 33.6777 119.362 32.7239 119.256 32.7163L116.988 32.527Z" fill="#00DDAC"/>
<path d="M292.761 149.087C292.761 136.649 305.517 129.874 312.994 127.928L315.193 127.353L316.338 131.751L314.139 132.327C314.048 132.349 308.899 133.735 304.318 137.035C298.562 141.176 296.333 146.362 297.69 152.456L298.183 154.674L293.739 155.658L293.246 153.44C292.905 151.919 292.753 150.473 292.753 149.095L292.761 149.087Z" fill="#FFEC6B"/>
<path d="M320.008 437.734C320.008 425.296 332.763 418.521 340.241 416.575L342.44 416L343.585 420.398L341.386 420.974C341.295 420.996 336.145 422.382 331.565 425.682C325.809 429.823 323.579 435.009 324.937 441.103L325.43 443.321L320.986 444.305L320.493 442.087C320.152 440.566 320 439.12 320 437.742L320.008 437.734Z" fill="#2186FF"/>
<path d="M14.0076 673.734C14.0076 661.296 26.7632 654.521 34.2406 652.575L36.4398 652L37.585 656.398L35.3857 656.974C35.2947 656.996 30.1455 658.382 25.565 661.682C19.809 665.823 17.5794 671.009 18.9369 677.103L19.4298 679.321L14.9859 680.305L14.4929 678.087C14.1517 676.566 14 675.12 14 673.742L14.0076 673.734Z" fill="#2186FF"/>
<path d="M235.345 776.307L235.535 771.772L237.81 771.863C239.023 771.916 267.667 773.317 272.505 792.651L273.059 794.854L268.645 795.959L268.091 793.756C264.072 777.715 237.886 776.413 237.62 776.405L235.353 776.307L235.345 776.307Z" fill="#2186FF"/>
<path d="M40.3484 106.322L44.8379 107.034L44.4815 109.275C44.2919 110.479 39.5673 138.708 19.7665 141.259L17.5066 141.547L16.9227 137.043L19.1826 136.748C35.6087 134.628 39.9465 108.813 39.992 108.548L40.3484 106.307L40.3484 106.322Z" fill="#FF4A4A"/>
<path d="M37.4256 327.015L41.915 327.727L41.5586 329.968C41.369 331.171 36.6444 359.401 16.8437 361.952L14.5838 362.24L13.9998 357.735L16.2598 357.44C32.6858 355.321 37.0236 329.506 37.0691 329.241L37.4256 327L37.4256 327.015Z" fill="#FF4A4A"/>
<path d="M328.896 569.749L331.141 569.385C331.285 569.363 338.983 567.985 342.752 562.337C344.89 559.135 345.398 555.062 344.268 550.24L343.753 548.03L348.181 547L348.697 549.211C350.123 555.32 349.387 560.596 346.513 564.889C341.606 572.209 332.271 573.807 331.877 573.867L329.632 574.23L328.896 569.749Z" fill="#FF4A4A"/>
<path d="M40.0757 780.735L39.7041 778.502C39.6814 778.358 38.286 770.682 32.6211 766.927C29.4056 764.8 25.3332 764.3 20.4949 765.436L18.2805 765.958L17.2339 761.537L19.4484 761.015C25.5683 759.576 30.8541 760.303 35.1616 763.165C42.5025 768.047 44.1254 777.359 44.186 777.753L44.5576 779.993L40.0681 780.735L40.0757 780.735Z" fill="#FF4A4A"/>
<path d="M333.735 218.556L335.828 217.662C339.749 215.982 344.693 217.572 348.136 221.607C351.48 225.528 353.498 232.167 349.122 239.026C343.533 247.8 352.246 256.74 352.625 257.119L354.226 258.731L351.01 261.934L349.402 260.329C345.33 256.264 339.233 246.081 345.285 236.588C349.114 230.585 345.785 225.854 344.67 224.544C342.562 222.068 339.665 220.956 337.625 221.826L335.532 222.719L333.742 218.541L333.735 218.556Z" fill="#00DDAC"/>
<path d="M48.3364 682.337L44.4346 680L30.6669 702.909L34.5688 705.246L48.3364 682.337Z" fill="#FFEC6B"/>
<path d="M326.409 44.7834L327.554 40.3851L329.754 40.9604C353.361 47.1075 349.562 74.5878 349.524 74.8603L349.19 77.1087L344.693 76.4425L345.027 74.2017C345.171 73.2327 348.25 50.4687 328.609 45.3588L326.409 44.7834Z" fill="#00DDAC"/>
<path d="M340.886 766.814C340.886 765.882 340.962 764.959 341.106 764.035C342.592 754.709 351.154 749.727 351.518 749.523L353.49 748.395L355.75 752.339L353.778 753.467C353.634 753.55 346.71 757.661 345.596 764.792C344.799 769.887 347.097 775.459 352.428 781.349L353.953 783.037L350.578 786.088L349.054 784.399C343.624 778.411 340.886 772.506 340.886 766.821L340.886 766.814Z" fill="#FFEC6B"/>
<path d="M307.921 77.4644C304.152 77.4644 301.088 74.4136 301.088 70.6436C301.088 66.8735 304.144 63.8227 307.921 63.8227C311.697 63.8227 314.753 66.8735 314.753 70.6436C314.753 74.4136 311.697 77.4644 307.921 77.4644Z" fill="#FFEC6B"/>
<path d="M356.167 634.642C352.398 634.642 349.334 631.591 349.334 627.821C349.334 624.051 352.391 621 356.167 621C359.944 621 363 624.051 363 627.821C363 631.591 359.944 634.642 356.167 634.642Z" fill="#FFEC6B"/>
<path d="M57.3662 795.664C57.3662 797.55 58.8974 799.078 60.7863 799.078C62.6753 799.078 64.2065 797.55 64.2065 795.664C64.2065 793.778 62.6753 792.25 60.7863 792.25C58.8974 792.25 57.3662 793.778 57.3662 795.664Z" fill="#FFEC6B"/>
<path d="M14.7009 577.828C12.8126 577.828 11.2807 576.299 11.2807 574.414C11.2807 572.529 12.8126 571 14.7009 571C16.5892 571 18.1211 572.529 18.1211 574.414C18.1211 576.299 16.5892 577.828 14.7009 577.828Z" fill="#2186FF"/>
<path d="M352.42 368.828C350.532 368.828 349 367.299 349 365.414C349 363.529 350.532 362 352.42 362C354.308 362 355.84 363.529 355.84 365.414C355.84 367.299 354.308 368.828 352.42 368.828Z" fill="#FFEC6B"/>
<path d="M291.517 177.809C289.151 177.809 287.232 175.894 287.232 173.532C287.232 171.17 289.151 169.255 291.517 169.255C293.883 169.255 295.802 171.17 295.802 173.532C295.802 175.894 293.883 177.809 291.517 177.809Z" fill="#FF4A4A"/>
<path d="M37.5575 50.7337C35.1915 50.7337 33.2728 48.8184 33.2728 46.4564C33.2728 44.0945 35.1915 42.1792 37.5575 42.1792C39.9236 42.1792 41.8423 44.0945 41.8423 46.4564C41.8423 48.8184 39.9236 50.7337 37.5575 50.7337Z" fill="#00DDAC"/>
<path d="M347.583 105.952C347.583 107.595 348.917 108.927 350.563 108.927C352.209 108.927 353.543 107.595 353.543 105.952C353.543 104.308 352.209 102.976 350.563 102.976C348.917 102.976 347.583 104.308 347.583 105.952Z" fill="#FF4A4A"/>
<path d="M290.44 783.279C290.44 784.922 291.775 786.254 293.421 786.254C295.067 786.254 296.401 784.922 296.401 783.279C296.401 781.636 295.067 780.304 293.421 780.304C291.775 780.304 290.44 781.636 290.44 783.279Z" fill="#FF4A4A"/>
<path d="M11.0002 628.975C11.0002 630.618 12.3346 631.95 13.9806 631.95C15.6266 631.95 16.9609 630.618 16.9609 628.975C16.9609 627.332 15.6266 626 13.9806 626C12.3346 626 11.0002 627.332 11.0002 628.975Z" fill="#FF4A4A"/>
<path d="M321.639 643.296C321.639 644.939 322.973 646.271 324.619 646.271C326.265 646.271 327.6 644.939 327.6 643.296C327.6 641.653 326.265 640.321 324.619 640.321C322.973 640.321 321.639 641.653 321.639 643.296Z" fill="#FF4A4A"/>
<path d="M132.155 80.3865C128.811 80.3865 126.104 77.6839 126.104 74.3454C126.104 71.0069 128.811 68.3043 132.155 68.3043C135.5 68.3043 138.207 71.0069 138.207 74.3454C138.207 77.6839 135.5 80.3865 132.155 80.3865Z" fill="#FF4A4A"/>
<path d="M21.0518 278.082C17.7075 278.082 15.0001 275.38 15.0001 272.041C15.0001 268.703 17.7075 266 21.0518 266C24.3962 266 27.1035 268.703 27.1035 272.041C27.1035 275.38 24.3962 278.082 21.0518 278.082Z" fill="#2186FF"/>
<path d="M101.685 790.675C98.3403 790.675 95.6329 787.973 95.6329 784.634C95.6329 781.296 98.3403 778.593 101.685 778.593C105.029 778.593 107.736 781.296 107.736 784.634C107.736 787.973 105.029 790.675 101.685 790.675Z" fill="#2186FF"/>
<path d="M172.038 37.0087C172.038 39.1619 173.786 40.9074 175.943 40.9074C178.1 40.9074 179.849 39.1619 179.849 37.0087C179.849 34.8555 178.1 33.11 175.943 33.11C173.786 33.11 172.038 34.8555 172.038 37.0087Z" fill="#2186FF"/>
<path d="M11.0002 110.471C11.0002 112.114 12.3346 113.446 13.9806 113.446C15.6266 113.446 16.9609 112.114 16.9609 110.471C16.9609 108.828 15.6266 107.496 13.9806 107.496C12.3346 107.496 11.0002 108.828 11.0002 110.471Z" fill="#FFEC6B"/>
<path d="M219.056 66.548C217.41 66.548 216.075 65.2156 216.075 63.5729C216.075 61.9301 217.41 60.5977 219.056 60.5977C220.701 60.5977 222.036 61.9301 222.036 63.5729C222.036 65.2156 220.701 66.548 219.056 66.548Z" fill="#00DDAC"/>
<path d="M43.9054 731.112C42.2598 731.112 40.925 729.78 40.925 728.137C40.925 726.494 42.2598 725.162 43.9054 725.162C45.551 725.162 46.8857 726.494 46.8857 728.137C46.8857 729.78 45.551 731.112 43.9054 731.112Z" fill="#00DDAC"/>
<path d="M339.772 314.95C338.126 314.95 336.791 313.618 336.791 311.975C336.791 310.332 338.126 309 339.772 309C341.417 309 342.752 310.332 342.752 311.975C342.752 313.618 341.417 314.95 339.772 314.95Z" fill="#FFEC6B"/>
<path d="M311.274 733.941C311.283 735.584 312.624 736.909 314.27 736.901C315.916 736.893 317.243 735.554 317.235 733.911C317.226 732.268 315.885 730.943 314.239 730.951C312.593 730.959 311.266 732.298 311.274 733.941Z" fill="#FFEC6B"/>
<path d="M232.471 800.199C230.826 800.199 229.491 798.866 229.491 797.224C229.491 795.581 230.826 794.249 232.471 794.249C234.117 794.249 235.452 795.581 235.452 797.224C235.452 798.866 234.117 800.199 232.471 800.199Z" fill="#FFEC6B"/>
<path d="M338.505 169.309C334.827 169.309 331.839 166.326 331.839 162.654C331.839 158.983 334.827 156 338.505 156C342.183 156 345.171 158.983 345.171 162.654C345.171 166.326 342.183 169.309 338.505 169.309Z" fill="#00DDAC"/>
<path d="M349.107 495.649C349.107 497.664 350.815 499.298 352.921 499.298C355.028 499.298 356.736 497.664 356.736 495.649C356.736 493.634 355.028 492 352.921 492C350.815 492 349.107 493.634 349.107 495.649Z" fill="#00DDAC"/>
<path d="M325.78 793.809C322.64 793.809 320.092 791.372 320.092 788.366C320.092 785.361 322.64 782.923 325.78 782.923C328.919 782.923 331.467 785.361 331.467 788.366C331.467 791.372 328.919 793.809 325.78 793.809Z" fill="#00DDAC"/>
<path d="M193.317 785.527C190.875 785.527 188.896 783.627 188.896 781.288C188.896 778.949 190.875 777.049 193.317 777.049C195.759 777.049 197.738 778.949 197.738 781.288C197.738 783.627 195.759 785.527 193.317 785.527Z" fill="#00DDAC"/>
<path d="M35.0173 522.479C32.5753 522.479 30.596 520.579 30.596 518.239C30.596 515.9 32.5753 514 35.0173 514C37.4592 514 39.4385 515.9 39.4385 518.239C39.4385 520.579 37.4592 522.479 35.0173 522.479Z" fill="#00DDAC"/>
</svg>
