<svg width="42" height="42" viewBox="0 0 42 42" fill="none" xmlns="http://www.w3.org/2000/svg">
<circle cx="21" cy="21" r="21" fill="#F4F7FA"/>
<path d="M30.7197 10.8389C31.7643 10.8389 32.6112 11.7019 32.6112 12.7665V26.5557C32.6112 27.6202 31.7643 28.4833 30.7197 28.4833H23.5828V29.7436H25.4234C25.8413 29.7436 26.1801 30.0888 26.1801 30.5147V31.7452C26.1801 32.1711 25.8413 32.5163 25.4234 32.5163H16.6713C16.2535 32.5163 15.9147 32.1711 15.9147 31.7452V30.5147C15.9147 30.0888 16.2535 29.7436 16.6713 29.7436H18.6356V28.4833H11.3751C10.3304 28.4833 9.48352 27.6203 9.48352 26.5557V12.7665C9.48352 11.7019 10.3304 10.8389 11.3751 10.8389H30.7197Z" fill="#D2D6DE"/>
<path d="M11.1919 13.7632C11.1919 13.0535 11.7565 12.4781 12.453 12.4781H29.8277C30.5241 12.4781 31.0887 13.0535 31.0887 13.7632V24.5421C31.0887 25.2518 30.5241 25.8272 29.8277 25.8272H12.453C11.7565 25.8272 11.1919 25.2518 11.1919 24.5421V13.7632Z" fill="#EFF1F5"/>
<path d="M32.9751 20.1623C33.6286 19.917 34.3536 20.258 34.5943 20.924L34.8229 21.5562C35.0636 22.2222 34.7289 22.961 34.0754 23.2063L33.7418 23.3315C33.6111 23.3806 33.5441 23.5283 33.5923 23.6615L33.997 24.7813C34.0452 24.9145 34.1902 24.9827 34.3209 24.9336L34.6545 24.8084C35.308 24.5631 36.033 24.9041 36.2737 25.5701L36.5022 26.2023C36.7429 26.8683 36.4083 27.6071 35.7548 27.8524L26.9858 31.1438C26.3323 31.3891 25.6073 31.0481 25.3666 30.3821L25.1381 29.7499C24.8973 29.0839 25.232 28.3452 25.8855 28.0999L26.2191 27.9746C26.3498 27.9256 26.4168 27.7778 26.3686 27.6446L25.9639 26.5248C25.9157 26.3916 25.7707 26.3234 25.64 26.3725L25.3064 26.4977C24.6529 26.743 23.9279 26.402 23.6872 25.736L23.4587 25.1038C23.218 24.4378 23.5526 23.6991 24.2061 23.4538L32.9751 20.1623Z" fill="#777E91"/>
<path d="M16.8153 20.2646C15.4627 20.2646 14.5433 19.2829 14.5433 17.6422C14.5433 16.0015 15.4627 15.0736 16.8153 15.0736C18.1679 15.0736 19.0874 16.0082 19.0874 17.6422C19.0874 19.2829 18.1679 20.2646 16.8153 20.2646ZM16.8153 19.2291C17.4683 19.2291 17.8747 18.6172 17.8747 17.6422C17.8747 16.6739 17.4683 16.1024 16.8153 16.1024C16.1623 16.1024 15.7626 16.6739 15.7626 17.6422C15.7626 18.6172 16.1623 19.2291 16.8153 19.2291Z" fill="#3D3F4D"/>
<path d="M20.9982 20.1704C20.8589 20.1704 20.7459 20.0554 20.7459 19.9134V16.4199C20.7459 16.278 20.633 16.1629 20.4937 16.1629H19.6589C19.5196 16.1629 19.4067 16.0478 19.4067 15.9059V15.4248C19.4067 15.2828 19.5196 15.1677 19.6589 15.1677H23.0323C23.1716 15.1677 23.2845 15.2828 23.2845 15.4248V15.9059C23.2845 16.0478 23.1716 16.1629 23.0323 16.1629H22.1908C22.0515 16.1629 21.9386 16.278 21.9386 16.4199V19.9134C21.9386 20.0554 21.8257 20.1704 21.6864 20.1704H20.9982Z" fill="#3D3F4D"/>
<path d="M25.2601 20.1704C25.1208 20.1704 25.0079 20.0554 25.0079 19.9134V16.4199C25.0079 16.278 24.8949 16.1629 24.7556 16.1629H23.9208C23.7815 16.1629 23.6686 16.0478 23.6686 15.9059V15.4248C23.6686 15.2828 23.7815 15.1677 23.9208 15.1677H27.2942C27.4335 15.1677 27.5464 15.2828 27.5464 15.4248V15.9059C27.5464 16.0478 27.4335 16.1629 27.2942 16.1629H26.4527C26.3134 16.1629 26.2005 16.278 26.2005 16.4199V19.9134C26.2005 20.0554 26.0876 20.1704 25.9483 20.1704H25.2601Z" fill="#3D3F4D"/>
</svg>
