<svg width="40" height="35" viewBox="0 0 40 35" fill="none" xmlns="http://www.w3.org/2000/svg">
<rect x="10.2057" y="24.9676" width="9.29452" height="6.37859" rx="3.1893" transform="rotate(90 10.2057 24.9676)" fill="#00DDAC"/>
<rect x="15.3086" width="8.93003" height="5.83186" rx="2.91593" fill="#00DDAC"/>
<rect width="9.29452" height="6.37859" rx="3.1893" transform="matrix(4.20924e-08 1 1 -4.53926e-08 29.706 24.9676)" fill="#00DDAC"/>
<path d="M28.8633 4.23578C30.0673 4.23582 31.1299 5.04949 31.4795 6.23969L33.1426 11.9047C33.8209 11.1933 34.927 10.7309 36.1758 10.7309C38.2391 10.7309 39.912 11.9947 39.9121 13.5541C39.9121 15.0554 38.3616 16.2789 36.4053 16.3686L37.7354 17.9828C38.0834 18.4689 38.2715 19.0579 38.2715 19.6625V27.2026C38.2715 28.762 37.0477 30.0267 35.5381 30.0268H4.37402C2.86425 30.0268 1.64062 28.7621 1.64062 27.2026V19.6625C1.64062 19.058 1.82778 18.4689 2.17578 17.9828L3.50488 16.3686C1.54926 16.2783 0 15.055 0 13.5541C8.01233e-05 11.9946 1.67302 10.7309 3.73633 10.7309C4.98514 10.731 6.09026 11.1942 6.76855 11.9057L8.43262 6.23969C8.78219 5.0495 9.84476 4.23578 11.0488 4.23578H28.8633Z" fill="#FFEC6B"/>
<ellipse cx="8.20108" cy="22.7807" rx="3.09817" ry="3.28042" fill="white"/>
<rect x="14.7618" y="23.1452" width="10.388" height="2.18695" rx="1.09347" fill="#2186FF"/>
<ellipse cx="3.09817" cy="3.28042" rx="3.09817" ry="3.28042" transform="matrix(-1 0 0 1 34.8089 19.5003)" fill="white"/>
<path d="M27.5883 14.3073C27.1671 14.3073 26.8256 13.9658 26.8256 13.5445V8.66943C26.8256 8.24816 27.1671 7.90665 27.5883 7.90665C28.0096 7.90665 28.3511 8.24816 28.3511 8.66943V13.5445C28.3511 13.9658 28.0096 14.3073 27.5883 14.3073Z" fill="#2186FF"/>
<path d="M22.1263 14.3073C21.5965 14.3073 21.2572 13.7433 21.5054 13.2753L22.3072 11.7633C22.5562 11.2936 22.5563 10.731 22.3075 10.2612L21.6314 8.98466C21.3724 8.4956 21.7269 7.90665 22.2803 7.90665C22.57 7.90665 22.8326 8.07691 22.9508 8.34135L23.2678 9.05084C23.4025 9.34827 23.5456 9.67928 23.7215 10.0853C23.7255 10.0944 23.7345 10.1004 23.7445 10.1004C23.7551 10.1004 23.7645 10.0937 23.768 10.0837C23.9107 9.67838 24.0451 9.34787 24.1713 9.05084L24.4561 8.34258C24.5621 8.0792 24.8175 7.90665 25.1014 7.90665C25.6221 7.90665 25.9581 8.45789 25.7195 8.92076L25.0046 10.3077C24.7551 10.7916 24.761 11.3676 25.0203 11.8463L25.7668 13.2248C26.0314 13.7134 25.6777 14.3073 25.122 14.3073C24.8382 14.3073 24.5798 14.1434 24.4588 13.8867L24.069 13.0598C23.9176 12.7287 23.7744 12.3975 23.6069 12.0085C23.6028 11.9991 23.5937 11.9931 23.5835 11.9931C23.573 11.9931 23.5636 11.9995 23.5598 12.0093C23.409 12.398 23.2744 12.7289 23.1315 13.0598L22.7702 13.8861C22.6583 14.1419 22.4056 14.3073 22.1263 14.3073Z" fill="#2186FF"/>
<path d="M17.2946 11.107C17.2254 11.3821 17.4334 11.6489 17.7171 11.6489H17.8948C18.1785 11.6489 18.3866 11.3821 18.3173 11.107C18.1483 10.4756 17.9876 9.71728 17.8187 9.06703C17.8162 9.05746 17.8076 9.05084 17.7977 9.05084C17.7876 9.05084 17.7788 9.0578 17.7766 9.06768C17.6241 9.73437 17.4552 10.4757 17.2946 11.107ZM19.6963 14.3073C19.3518 14.3073 19.0515 14.0726 18.9682 13.7383L18.9267 13.5717C18.819 13.1395 18.4309 12.8362 17.9854 12.8362H17.6265C17.1811 12.8362 16.7929 13.1395 16.6852 13.5717L16.6392 13.7564C16.5586 14.0801 16.2679 14.3073 15.9343 14.3073C15.4456 14.3073 15.0963 13.8344 15.24 13.3673L16.6515 8.77828C16.8109 8.26019 17.2895 7.90665 17.8315 7.90665C18.3736 7.90665 18.8522 8.26019 19.0116 8.77828L20.4136 13.3363C20.562 13.8188 20.2012 14.3073 19.6963 14.3073Z" fill="#2186FF"/>
<path d="M13.0461 14.3073C12.6248 14.3073 12.2833 13.9658 12.2833 13.5445V10.0364C12.2833 9.56337 11.8998 9.17989 11.4268 9.17989H11.2069C10.8553 9.17989 10.5703 8.89486 10.5703 8.54327C10.5703 8.19167 10.8553 7.90665 11.2069 7.90665H14.8938C15.2454 7.90665 15.5305 8.19167 15.5305 8.54327C15.5305 8.89486 15.2454 9.17989 14.8938 9.17989H14.6697C14.1943 9.17989 13.8089 9.56528 13.8089 10.0407V13.5445C13.8089 13.9658 13.4674 14.3073 13.0461 14.3073Z" fill="#2186FF"/>
</svg>
