<svg width="40" height="35" viewBox="0 0 40 35" fill="none" xmlns="http://www.w3.org/2000/svg">
<rect x="10.2057" y="24.9678" width="9.29452" height="6.37859" rx="3.1893" transform="rotate(90 10.2057 24.9678)" fill="#00DDAC"/>
<rect x="15.3086" width="8.93003" height="5.83186" rx="2.91593" fill="#00DDAC"/>
<rect width="9.29452" height="6.37859" rx="3.1893" transform="matrix(4.20924e-08 1 1 -4.53926e-08 29.706 24.9678)" fill="#00DDAC"/>
<path d="M28.8633 4.23584C30.0673 4.23588 31.1299 5.04955 31.4795 6.23975L33.1426 11.9048C33.8209 11.1934 34.927 10.731 36.1758 10.731C38.2391 10.731 39.912 11.9947 39.9121 13.5542C39.9121 15.0554 38.3616 16.279 36.4053 16.3687L37.7354 17.9829C38.0834 18.469 38.2715 19.058 38.2715 19.6626V27.2026C38.2715 28.7621 37.0477 30.0267 35.5381 30.0269H4.37402C2.86425 30.0269 1.64062 28.7622 1.64062 27.2026V19.6626C1.64062 19.0581 1.82778 18.4689 2.17578 17.9829L3.50488 16.3687C1.54926 16.2784 0 15.055 0 13.5542C8.01233e-05 11.9947 1.67302 10.731 3.73633 10.731C4.98514 10.731 6.09026 11.1943 6.76855 11.9058L8.43262 6.23975C8.78219 5.04956 9.84476 4.23584 11.0488 4.23584H28.8633Z" fill="#FFEC6B"/>
<ellipse cx="8.20108" cy="22.7809" rx="3.09817" ry="3.28042" fill="white"/>
<rect x="14.7618" y="23.145" width="10.388" height="2.18695" rx="1.09347" fill="#2186FF"/>
<ellipse cx="3.09817" cy="3.28042" rx="3.09817" ry="3.28042" transform="matrix(-1 0 0 1 34.8089 19.5005)" fill="white"/>
<path d="M27.5883 14.3074C27.1671 14.3074 26.8256 13.9659 26.8256 13.5446V8.66952C26.8256 8.24825 27.1671 7.90674 27.5883 7.90674C28.0096 7.90674 28.3511 8.24825 28.3511 8.66952V13.5446C28.3511 13.9659 28.0096 14.3074 27.5883 14.3074Z" fill="#2186FF"/>
<path d="M22.1263 14.3074C21.5965 14.3074 21.2572 13.7434 21.5054 13.2754L22.3072 11.7633C22.5562 11.2937 22.5563 10.7311 22.3075 10.2613L21.6314 8.98475C21.3724 8.49569 21.7269 7.90674 22.2803 7.90674C22.57 7.90674 22.8326 8.077 22.9508 8.34144L23.2678 9.05094C23.4025 9.34836 23.5456 9.67937 23.7215 10.0854C23.7255 10.0945 23.7345 10.1005 23.7445 10.1005C23.7551 10.1005 23.7645 10.0938 23.768 10.0838C23.9107 9.67847 24.0451 9.34796 24.1713 9.05094L24.4561 8.34268C24.5621 8.07929 24.8175 7.90674 25.1014 7.90674C25.6221 7.90674 25.9581 8.45798 25.7195 8.92085L25.0046 10.3078C24.7551 10.7917 24.761 11.3677 25.0203 11.8464L25.7668 13.2249C26.0314 13.7135 25.6777 14.3074 25.122 14.3074C24.8382 14.3074 24.5798 14.1435 24.4588 13.8868L24.069 13.0599C23.9176 12.7288 23.7744 12.3976 23.6069 12.0085C23.6028 11.9992 23.5937 11.9932 23.5835 11.9932C23.573 11.9932 23.5636 11.9996 23.5598 12.0094C23.409 12.3981 23.2744 12.729 23.1315 13.0599L22.7702 13.8861C22.6583 14.142 22.4056 14.3074 22.1263 14.3074Z" fill="#2186FF"/>
<path d="M17.2946 11.1071C17.2254 11.3822 17.4334 11.649 17.7171 11.649H17.8948C18.1785 11.649 18.3866 11.3822 18.3173 11.1071C18.1483 10.4757 17.9876 9.71737 17.8187 9.06712C17.8162 9.05755 17.8076 9.05094 17.7977 9.05094C17.7876 9.05094 17.7788 9.0579 17.7766 9.06777C17.6241 9.73447 17.4552 10.4757 17.2946 11.1071ZM19.6963 14.3074C19.3518 14.3074 19.0515 14.0727 18.9682 13.7384L18.9267 13.5718C18.819 13.1396 18.4309 12.8363 17.9854 12.8363H17.6265C17.1811 12.8363 16.7929 13.1396 16.6852 13.5718L16.6392 13.7565C16.5586 14.0802 16.2679 14.3074 15.9343 14.3074C15.4456 14.3074 15.0963 13.8345 15.24 13.3674L16.6515 8.77837C16.8109 8.26029 17.2895 7.90674 17.8315 7.90674C18.3736 7.90674 18.8522 8.26029 19.0116 8.77837L20.4136 13.3364C20.562 13.8189 20.2012 14.3074 19.6963 14.3074Z" fill="#2186FF"/>
<path d="M13.0461 14.3074C12.6248 14.3074 12.2833 13.9659 12.2833 13.5446V10.0365C12.2833 9.56346 11.8998 9.17998 11.4268 9.17998H11.2069C10.8553 9.17998 10.5703 8.89496 10.5703 8.54336C10.5703 8.19176 10.8553 7.90674 11.2069 7.90674H14.8938C15.2454 7.90674 15.5305 8.19176 15.5305 8.54336C15.5305 8.89496 15.2454 9.17998 14.8938 9.17998H14.6697C14.1943 9.17998 13.8089 9.56537 13.8089 10.0408V13.5446C13.8089 13.9659 13.4674 14.3074 13.0461 14.3074Z" fill="#2186FF"/>
</svg>
