<svg width="42" height="42" viewBox="0 0 42 42" fill="none" xmlns="http://www.w3.org/2000/svg">
<circle cx="21" cy="21" r="21" fill="#F4F7FA"/>
<rect x="14.3646" y="25.7197" width="6.29629" height="4.32098" rx="2.16049" transform="rotate(90 14.3646 25.7197)" fill="#777E91"/>
<rect x="17.8219" y="8.80615" width="6.04938" height="3.95061" rx="1.97531" fill="#777E91"/>
<rect width="6.29629" height="4.32098" rx="2.16049" transform="matrix(4.20924e-08 1 1 -4.53926e-08 27.5747 25.7197)" fill="#777E91"/>
<path d="M27.0034 11.6763C27.8191 11.6763 28.5391 12.2274 28.7759 13.0337L29.9028 16.8735C30.3623 16.391 31.1109 16.0757 31.9575 16.0757C33.3552 16.0757 34.4888 16.9323 34.4888 17.9888C34.4888 19.0058 33.4381 19.8343 32.1128 19.895L33.0142 20.9888C33.2499 21.318 33.3774 21.7169 33.3774 22.1265V27.2339C33.3774 28.2904 32.5477 29.147 31.5249 29.147H10.4146C9.3918 29.147 8.56201 28.2904 8.56201 27.2339V22.1265C8.56201 21.717 8.68957 21.318 8.92529 20.9888L9.82568 19.895C8.50094 19.8338 7.45166 19.0054 7.45166 17.9888C7.45168 16.9324 8.58435 16.0758 9.98193 16.0757C10.8282 16.0757 11.5761 16.3914 12.0356 16.8735L13.1636 13.0337C13.4004 12.2274 14.1204 11.6763 14.936 11.6763H27.0034Z" fill="#D2D6DE"/>
<ellipse cx="13.0069" cy="24.2393" rx="2.09876" ry="2.22222" fill="white"/>
<rect x="17.451" y="24.4849" width="7.03703" height="1.48148" rx="0.74074" fill="#3D3F4D"/>
<ellipse cx="2.09876" cy="2.22222" rx="2.09876" ry="2.22222" transform="matrix(-1 0 0 1 31.0316 22.0171)" fill="white"/>
<path d="M26.1401 18.4985C25.8547 18.4985 25.6234 18.2672 25.6234 17.9818V14.6793C25.6234 14.3939 25.8547 14.1626 26.1401 14.1626C26.4255 14.1626 26.6568 14.3939 26.6568 14.6793V17.9818C26.6568 18.2672 26.4255 18.4985 26.1401 18.4985Z" fill="#3D3F4D"/>
<path d="M22.4397 18.4985C22.0808 18.4985 21.851 18.1165 22.0191 17.7994L22.5622 16.7751C22.7309 16.457 22.731 16.0759 22.5625 15.7576L22.1045 14.8929C21.929 14.5616 22.1692 14.1626 22.5441 14.1626C22.7403 14.1626 22.9182 14.2779 22.9982 14.4571L23.213 14.9377C23.3043 15.1392 23.4011 15.3634 23.5203 15.6385C23.523 15.6447 23.5291 15.6487 23.5359 15.6487C23.5431 15.6487 23.5495 15.6441 23.5519 15.6373C23.6485 15.3628 23.7396 15.1389 23.825 14.9377L24.018 14.4579C24.0897 14.2795 24.2628 14.1626 24.4551 14.1626C24.8078 14.1626 25.0355 14.536 24.8738 14.8496L24.3895 15.7891C24.2205 16.1169 24.2245 16.5071 24.4001 16.8314L24.9059 17.7652C25.0851 18.0962 24.8455 18.4985 24.4691 18.4985C24.2768 18.4985 24.1018 18.3875 24.0198 18.2136L23.7557 17.6535C23.6531 17.4291 23.5562 17.2048 23.4427 16.9412C23.4399 16.9349 23.4337 16.9308 23.4269 16.9308C23.4198 16.9308 23.4134 16.9352 23.4108 16.9418C23.3086 17.2051 23.2174 17.4293 23.1206 17.6535L22.8759 18.2132C22.8001 18.3865 22.6289 18.4985 22.4397 18.4985Z" fill="#3D3F4D"/>
<path d="M19.1671 16.3306C19.1202 16.5169 19.2611 16.6977 19.4533 16.6977H19.5737C19.7659 16.6977 19.9068 16.5169 19.8599 16.3306C19.7454 15.9028 19.6365 15.3892 19.5221 14.9487C19.5204 14.9422 19.5146 14.9377 19.5079 14.9377C19.501 14.9377 19.4951 14.9424 19.4936 14.9491C19.3903 15.4007 19.2759 15.9029 19.1671 16.3306ZM20.794 18.4985C20.5606 18.4985 20.3572 18.3395 20.3008 18.1131L20.2727 18.0002C20.1997 17.7074 19.9368 17.5019 19.6351 17.5019H19.3919C19.0902 17.5019 18.8272 17.7074 18.7543 18.0002L18.7231 18.1254C18.6685 18.3446 18.4716 18.4985 18.2456 18.4985C17.9145 18.4985 17.6779 18.1782 17.7752 17.8617L18.7314 14.7531C18.8394 14.4021 19.1636 14.1626 19.5308 14.1626C19.898 14.1626 20.2222 14.4021 20.3302 14.7531L21.2799 17.8407C21.3804 18.1676 21.136 18.4985 20.794 18.4985Z" fill="#3D3F4D"/>
<path d="M16.2892 18.4985C16.0038 18.4985 15.7725 18.2672 15.7725 17.9818V15.6053C15.7725 15.2849 15.5127 15.0251 15.1923 15.0251H15.0433C14.8051 15.0251 14.612 14.832 14.612 14.5939C14.612 14.3557 14.8051 14.1626 15.0433 14.1626H17.5409C17.7791 14.1626 17.9722 14.3557 17.9722 14.5939C17.9722 14.832 17.7791 15.0251 17.5409 15.0251H17.3891C17.067 15.0251 16.8059 15.2862 16.8059 15.6082V17.9818C16.8059 18.2672 16.5746 18.4985 16.2892 18.4985Z" fill="#3D3F4D"/>
</svg>
