<svg width="20" height="20" viewBox="0 0 20 20" fill="none" xmlns="http://www.w3.org/2000/svg">
<g clip-path="url(#clip0_3238_17827)">
<path d="M9.99996 1.66663C14.6025 1.66663 18.3333 5.39746 18.3333 9.99996C18.3333 14.6025 14.6025 18.3333 9.99996 18.3333C5.39746 18.3333 1.66663 14.6025 1.66663 9.99996C1.66663 5.39746 5.39746 1.66663 9.99996 1.66663ZM9.99996 3.33329C8.23185 3.33329 6.53616 4.03567 5.28591 5.28591C4.03567 6.53616 3.33329 8.23185 3.33329 9.99996C3.33329 11.7681 4.03567 13.4638 5.28591 14.714C6.53616 15.9642 8.23185 16.6666 9.99996 16.6666C11.7681 16.6666 13.4638 15.9642 14.714 14.714C15.9642 13.4638 16.6666 11.7681 16.6666 9.99996C16.6666 8.23185 15.9642 6.53616 14.714 5.28591C13.4638 4.03567 11.7681 3.33329 9.99996 3.33329ZM9.99996 4.99996C10.2041 4.99999 10.4011 5.07492 10.5536 5.21056C10.7061 5.34619 10.8036 5.53308 10.8275 5.73579L10.8333 5.83329V9.65496L13.0891 11.9108C13.2386 12.0608 13.3254 12.262 13.3318 12.4736C13.3383 12.6852 13.2639 12.8914 13.1239 13.0502C12.9839 13.209 12.7887 13.3085 12.5779 13.3286C12.3671 13.3487 12.1566 13.2878 11.9891 13.1583L11.9108 13.0891L9.41079 10.5891C9.28128 10.4595 9.1981 10.2908 9.17413 10.1091L9.16663 9.99996V5.83329C9.16663 5.61228 9.25443 5.40032 9.41071 5.24404C9.56699 5.08776 9.77895 4.99996 9.99996 4.99996Z" fill="#9C9C9C"/>
</g>
<defs>
<clipPath id="clip0_3238_17827">
<rect width="20" height="20" fill="white"/>
</clipPath>
</defs>
</svg>
