<svg width="20" height="20" viewBox="0 0 20 20" fill="none" xmlns="http://www.w3.org/2000/svg">
<mask id="mask0_615_1709" style="mask-type:alpha" maskUnits="userSpaceOnUse" x="0" y="0" width="20" height="20">
<rect width="20" height="20" fill="#D9D9D9"/>
</mask>
<g mask="url(#mask0_615_1709)">
<path d="M9.99943 12.5941C9.87499 12.5941 9.75589 12.5726 9.64214 12.5295C9.52825 12.4865 9.42464 12.4184 9.33131 12.3252L5.50297 8.49682C5.327 8.32071 5.23901 8.09967 5.23901 7.8337C5.23901 7.56773 5.327 7.34669 5.50297 7.17057C5.67908 6.9946 5.90012 6.90662 6.1661 6.90662C6.43207 6.90662 6.65311 6.9946 6.82922 7.17057L9.99943 10.341L13.1696 7.17057C13.3457 6.9946 13.5668 6.90662 13.8328 6.90662C14.0987 6.90662 14.3198 6.9946 14.4959 7.17057C14.6719 7.34669 14.7598 7.56773 14.7598 7.8337C14.7598 8.09967 14.6719 8.32071 14.4959 8.49682L10.6676 12.3252C10.5742 12.4184 10.4706 12.4865 10.3567 12.5295C10.243 12.5726 10.1239 12.5941 9.99943 12.5941Z" fill="#3D3F4D"/>
</g>
</svg>
