<svg width="22" height="22" viewBox="0 0 22 22" fill="none" xmlns="http://www.w3.org/2000/svg">
<mask id="mask0_840_7975" style="mask-type:alpha" maskUnits="userSpaceOnUse" x="0" y="0" width="22" height="22">
<rect width="22" height="22" fill="#D9D9D9"/>
</mask>
<g mask="url(#mask0_840_7975)">
<path d="M10.9996 10.0704L7.51241 13.535C7.31869 13.7286 7.07845 13.8282 6.79168 13.8341C6.50492 13.8399 6.25887 13.7402 6.05354 13.535C5.85997 13.3413 5.76318 13.0981 5.76318 12.8056C5.76318 12.513 5.85997 12.2698 6.05354 12.0761L10.2647 7.86495C10.3674 7.76243 10.4813 7.68749 10.6066 7.64013C10.7317 7.59277 10.8628 7.56909 10.9996 7.56909C11.1365 7.56909 11.2675 7.59277 11.3927 7.64013C11.5179 7.68749 11.6319 7.76243 11.7346 7.86495L15.9457 12.0761C16.1393 12.2698 16.239 12.5101 16.2448 12.7968C16.2506 13.0836 16.1509 13.3297 15.9457 13.535C15.752 13.7286 15.5089 13.8253 15.2163 13.8253C14.9237 13.8253 14.6806 13.7286 14.4869 13.535L10.9996 10.0704Z" fill="#1C1B1F"/>
</g>
</svg>
