<svg width="16" height="16" viewBox="0 0 16 16" fill="none" xmlns="http://www.w3.org/2000/svg">
<g id="up_line 1" clip-path="url(#clip0_2331_16028)">
<g id="Group">
<path id="Vector" fill-rule="evenodd" clip-rule="evenodd" d="M7.52879 5.52867C7.65381 5.40369 7.82334 5.33348 8.00012 5.33348C8.1769 5.33348 8.34644 5.40369 8.47145 5.52867L12.2428 9.3C12.3642 9.42574 12.4314 9.59414 12.4299 9.76894C12.4284 9.94374 12.3583 10.1109 12.2347 10.2346C12.1111 10.3582 11.9439 10.4283 11.7691 10.4298C11.5943 10.4313 11.4259 10.3641 11.3001 10.2427L8.00012 6.94267L4.70012 10.2427C4.57439 10.3641 4.40598 10.4313 4.23119 10.4298C4.05639 10.4283 3.88918 10.3582 3.76557 10.2346C3.64197 10.1109 3.57186 9.94374 3.57034 9.76894C3.56882 9.59414 3.63601 9.42574 3.75745 9.3L7.52879 5.52867Z" fill="#121212"/>
</g>
</g>
<defs>
<clipPath id="clip0_2331_16028">
<rect width="16" height="16" fill="white"/>
</clipPath>
</defs>
</svg>
