<svg width="14" height="14" viewBox="0 0 14 14" fill="none" xmlns="http://www.w3.org/2000/svg">
<g clip-path="url(#clip0_2245_12489)">
<path d="M7 7.58335C8.39767 7.58335 9.66875 7.98819 10.6038 8.55869C11.0705 8.84335 11.4695 9.17935 11.7577 9.54452C12.0412 9.90327 12.25 10.3326 12.25 10.7917C12.25 11.2846 12.0102 11.6731 11.6649 11.9502C11.3382 12.2127 10.9072 12.3865 10.4493 12.5079C9.52875 12.7511 8.30025 12.8334 7 12.8334C5.69975 12.8334 4.47125 12.7517 3.55075 12.5079C3.09283 12.3865 2.66175 12.2127 2.33508 11.9502C1.98917 11.6725 1.75 11.2846 1.75 10.7917C1.75 10.3326 1.95883 9.90327 2.24233 9.54394C2.5305 9.17935 2.92892 8.84394 3.39617 8.5581C4.33125 7.98877 5.60292 7.58335 7 7.58335ZM7 1.16669C7.77355 1.16669 8.51541 1.47398 9.06239 2.02096C9.60938 2.56794 9.91667 3.30981 9.91667 4.08335C9.91667 4.8569 9.60938 5.59877 9.06239 6.14575C8.51541 6.69273 7.77355 7.00002 7 7.00002C6.22645 7.00002 5.48459 6.69273 4.93761 6.14575C4.39062 5.59877 4.08333 4.8569 4.08333 4.08335C4.08333 3.30981 4.39062 2.56794 4.93761 2.02096C5.48459 1.47398 6.22645 1.16669 7 1.16669Z" fill="#66D760"/>
</g>
<defs>
<clipPath id="clip0_2245_12489">
<rect width="14" height="14" fill="white"/>
</clipPath>
</defs>
</svg>
