<svg width="10" height="10" viewBox="0 0 10 10" fill="none" xmlns="http://www.w3.org/2000/svg">
<g id="user_3_fill" clip-path="url(#clip0_2239_14777)">
<g id="Group">
<path id="Vector" d="M5 5.41671C5.99833 5.41671 6.90625 5.70587 7.57417 6.11338C7.9075 6.31671 8.1925 6.55671 8.39833 6.81754C8.60083 7.07379 8.75 7.38046 8.75 7.70838C8.75 8.06046 8.57875 8.33796 8.33208 8.53588C8.09875 8.72338 7.79083 8.84754 7.46375 8.93421C6.80625 9.10796 5.92875 9.16671 5 9.16671C4.07125 9.16671 3.19375 9.10838 2.53625 8.93421C2.20917 8.84754 1.90125 8.72338 1.66792 8.53588C1.42083 8.33754 1.25 8.06046 1.25 7.70838C1.25 7.38046 1.39917 7.07379 1.60167 6.81713C1.8075 6.55671 2.09208 6.31712 2.42583 6.11296C3.09375 5.70629 4.00208 5.41671 5 5.41671ZM5 0.833374C5.55253 0.833374 6.08244 1.05287 6.47314 1.44357C6.86384 1.83427 7.08333 2.36417 7.08333 2.91671C7.08333 3.46924 6.86384 3.99915 6.47314 4.38985C6.08244 4.78055 5.55253 5.00004 5 5.00004C4.44747 5.00004 3.91756 4.78055 3.52686 4.38985C3.13616 3.99915 2.91667 3.46924 2.91667 2.91671C2.91667 2.36417 3.13616 1.83427 3.52686 1.44357C3.91756 1.05287 4.44747 0.833374 5 0.833374Z" fill="#66D760"/>
</g>
</g>
<defs>
<clipPath id="clip0_2239_14777">
<rect width="10" height="10" fill="white"/>
</clipPath>
</defs>
</svg>
