<svg width="14" height="14" viewBox="0 0 14 14" fill="none" xmlns="http://www.w3.org/2000/svg">
<g clip-path="url(#clip0_3238_17811)">
<path d="M7 7.58329C8.39767 7.58329 9.66875 7.98813 10.6038 8.55863C11.0705 8.84329 11.4695 9.17929 11.7577 9.54446C12.0412 9.90321 12.25 10.3325 12.25 10.7916C12.25 11.2845 12.0102 11.673 11.6649 11.9501C11.3382 12.2126 10.9072 12.3865 10.4493 12.5078C9.52875 12.751 8.30025 12.8333 7 12.8333C5.69975 12.8333 4.47125 12.7516 3.55075 12.5078C3.09283 12.3865 2.66175 12.2126 2.33508 11.9501C1.98917 11.6725 1.75 11.2845 1.75 10.7916C1.75 10.3325 1.95883 9.90321 2.24233 9.54388C2.5305 9.17929 2.92892 8.84388 3.39617 8.55804C4.33125 7.98871 5.60292 7.58329 7 7.58329ZM7 1.16663C7.77355 1.16663 8.51541 1.47392 9.06239 2.0209C9.60938 2.56788 9.91667 3.30974 9.91667 4.08329C9.91667 4.85684 9.60938 5.59871 9.06239 6.14569C8.51541 6.69267 7.77355 6.99996 7 6.99996C6.22645 6.99996 5.48459 6.69267 4.93761 6.14569C4.39062 5.59871 4.08333 4.85684 4.08333 4.08329C4.08333 3.30974 4.39062 2.56788 4.93761 2.0209C5.48459 1.47392 6.22645 1.16663 7 1.16663Z" fill="#9C9C9C"/>
</g>
<defs>
<clipPath id="clip0_3238_17811">
<rect width="14" height="14" fill="white"/>
</clipPath>
</defs>
</svg>
