<svg width="168" height="106" viewBox="0 0 168 106" fill="none" xmlns="http://www.w3.org/2000/svg">
<rect width="164" height="102" rx="10" fill="#F8F8F8"/>
<path d="M59.524 20.156C57.256 20.156 55.684 18.392 55.684 15.548C55.684 12.704 57.256 11 59.524 11C61.792 11 63.376 12.704 63.376 15.548C63.376 18.392 61.792 20.156 59.524 20.156ZM59.524 18.944C60.988 18.944 61.948 17.624 61.948 15.548C61.948 13.472 60.988 12.212 59.524 12.212C58.06 12.212 57.112 13.472 57.112 15.548C57.112 17.624 58.06 18.944 59.524 18.944ZM68.5709 20.156C66.3029 20.156 64.7309 18.392 64.7309 15.548C64.7309 12.704 66.3029 11 68.5709 11C70.8389 11 72.4229 12.704 72.4229 15.548C72.4229 18.392 70.8389 20.156 68.5709 20.156ZM68.5709 18.944C70.0349 18.944 70.9949 17.624 70.9949 15.548C70.9949 13.472 70.0349 12.212 68.5709 12.212C67.1069 12.212 66.1589 13.472 66.1589 15.548C66.1589 17.624 67.1069 18.944 68.5709 18.944ZM77.9731 12.38V17.324C79.2211 17.312 80.2051 17.252 81.3211 17.024L81.4291 18.044C80.1211 18.296 79.0051 18.344 77.4811 18.344H76.7611V11.372H80.7691V12.38H77.9731ZM84.4651 10.076H85.6411V20.912H84.4651V15.368H83.1811V20.384H82.0171V10.304H83.1811V14.36H84.4651V10.076ZM93.8481 11.144V12.128H87.4521V11.144H90.0321V10.028H91.2681V11.144H93.8481ZM89.2041 14.576C89.2041 15.212 89.7801 15.596 90.6441 15.596C91.5081 15.596 92.0961 15.212 92.0961 14.576C92.0961 13.928 91.5081 13.544 90.6441 13.544C89.7801 13.544 89.2041 13.928 89.2041 14.576ZM93.2721 14.576C93.2721 15.752 92.2041 16.544 90.6441 16.544C89.0841 16.544 88.0161 15.752 88.0161 14.576C88.0161 13.388 89.0841 12.596 90.6441 12.596C92.2041 12.596 93.2721 13.388 93.2721 14.576ZM88.7721 18.392V17.396H95.9001V20.924H94.6641V18.392H88.7721ZM97.4361 12.992V14.012H95.9001V16.868H94.6641V10.088H95.9001V12.992H97.4361ZM106.015 12.236V12.104H99.4512V11.096H107.251V12.236C107.251 13.592 107.251 15.044 106.867 17.144L105.631 17C106.015 15.02 106.015 13.556 106.015 12.236ZM104.635 18.488H108.271V19.508H98.4792V18.488H100.735V14.984H101.959V18.488H103.411V14.984H104.635V18.488Z" fill="#D7D7D7"/>
<path d="M87.141 41.104C85.629 41.104 84.581 39.928 84.581 38.032C84.581 36.136 85.629 35 87.141 35C88.653 35 89.709 36.136 89.709 38.032C89.709 39.928 88.653 41.104 87.141 41.104ZM87.141 40.296C88.117 40.296 88.757 39.416 88.757 38.032C88.757 36.648 88.117 35.808 87.141 35.808C86.165 35.808 85.533 36.648 85.533 38.032C85.533 39.416 86.165 40.296 87.141 40.296ZM93.1723 41.104C91.6603 41.104 90.6123 39.928 90.6123 38.032C90.6123 36.136 91.6603 35 93.1723 35C94.6843 35 95.7403 36.136 95.7403 38.032C95.7403 39.928 94.6843 41.104 93.1723 41.104ZM93.1723 40.296C94.1483 40.296 94.7883 39.416 94.7883 38.032C94.7883 36.648 94.1483 35.808 93.1723 35.808C92.1963 35.808 91.5643 36.648 91.5643 38.032C91.5643 39.416 92.1963 40.296 93.1723 40.296ZM99.2035 41.104C97.6915 41.104 96.6435 39.928 96.6435 38.032C96.6435 36.136 97.6915 35 99.2035 35C100.716 35 101.772 36.136 101.772 38.032C101.772 39.928 100.716 41.104 99.2035 41.104ZM99.2035 40.296C100.18 40.296 100.82 39.416 100.82 38.032C100.82 36.648 100.18 35.808 99.2035 35.808C98.2275 35.808 97.5955 36.648 97.5955 38.032C97.5955 39.416 98.2275 40.296 99.2035 40.296ZM105.235 41.104C103.723 41.104 102.675 39.928 102.675 38.032C102.675 36.136 103.723 35 105.235 35C106.747 35 107.803 36.136 107.803 38.032C107.803 39.928 106.747 41.104 105.235 41.104ZM105.235 40.296C106.211 40.296 106.851 39.416 106.851 38.032C106.851 36.648 106.211 35.808 105.235 35.808C104.259 35.808 103.627 36.648 103.627 38.032C103.627 39.416 104.259 40.296 105.235 40.296ZM111.266 41.104C109.754 41.104 108.706 39.928 108.706 38.032C108.706 36.136 109.754 35 111.266 35C112.778 35 113.834 36.136 113.834 38.032C113.834 39.928 112.778 41.104 111.266 41.104ZM111.266 40.296C112.242 40.296 112.882 39.416 112.882 38.032C112.882 36.648 112.242 35.808 111.266 35.808C110.29 35.808 109.658 36.648 109.658 38.032C109.658 39.416 110.29 40.296 111.266 40.296ZM118.961 35.096V35.752H114.697V35.096H116.417V34.352H117.241V35.096H118.961ZM115.865 37.384C115.865 37.808 116.249 38.064 116.825 38.064C117.401 38.064 117.793 37.808 117.793 37.384C117.793 36.952 117.401 36.696 116.825 36.696C116.249 36.696 115.865 36.952 115.865 37.384ZM118.577 37.384C118.577 38.168 117.865 38.696 116.825 38.696C115.785 38.696 115.073 38.168 115.073 37.384C115.073 36.592 115.785 36.064 116.825 36.064C117.865 36.064 118.577 36.592 118.577 37.384ZM115.577 39.928V39.264H120.329V41.616H119.505V39.928H115.577ZM121.353 36.328V37.008H120.329V38.912H119.505V34.392H120.329V36.328H121.353ZM125.833 38.456L125.025 38.384C125.209 37.264 125.225 36.424 125.225 35.816H122.361V35.152H126.033V35.632C126.033 36.264 126.033 37.176 125.833 38.456ZM124.217 37.224V39.376C124.969 39.344 125.729 39.304 126.433 39.208L126.473 39.816C124.985 40.064 123.329 40.096 122.065 40.096L121.977 39.416C122.417 39.416 122.905 39.408 123.409 39.4V37.224H124.217ZM128.713 37.36V38.056H127.649V41.616H126.817V34.392H127.649V37.36H128.713ZM88.805 44.096V44.752H84.541V44.096H86.261V43.352H87.085V44.096H88.805ZM85.709 46.384C85.709 46.808 86.093 47.064 86.669 47.064C87.245 47.064 87.637 46.808 87.637 46.384C87.637 45.952 87.245 45.696 86.669 45.696C86.093 45.696 85.709 45.952 85.709 46.384ZM88.421 46.384C88.421 47.168 87.709 47.696 86.669 47.696C85.629 47.696 84.917 47.168 84.917 46.384C84.917 45.592 85.629 45.064 86.669 45.064C87.709 45.064 88.421 45.592 88.421 46.384ZM85.421 48.928V48.264H90.173V50.616H89.349V48.928H85.421ZM91.197 45.328V46.008H90.173V47.912H89.349V43.392H90.173V45.328H91.197ZM94.7404 46.888V45.712H93.0364V46.888H94.7404ZM95.5484 46.048V47.56H92.2204V43.872H93.0364V45.064H94.7404V43.872H95.5484V45.376H97.0524V43.392H97.8764V48.744H97.0524V46.048H95.5484ZM94.0044 49.808H98.0444V50.48H93.1724V48.216H94.0044V49.808ZM101.833 46.96C101.489 46.96 101.217 46.688 101.217 46.32C101.217 45.944 101.489 45.664 101.833 45.664C102.177 45.664 102.449 45.944 102.449 46.32C102.449 46.688 102.177 46.96 101.833 46.96ZM101.833 50.104C101.489 50.104 101.217 49.84 101.217 49.464C101.217 49.088 101.489 48.808 101.833 48.808C102.177 48.808 102.449 49.088 102.449 49.464C102.449 49.84 102.177 50.104 101.833 50.104ZM105.508 50V49.24H106.796V45.144H105.74V44.56C106.292 44.456 106.684 44.32 107.02 44.112H107.716V49.24H108.868V50H105.508ZM109.735 50V49.464C111.471 47.928 112.367 46.784 112.367 45.816C112.367 45.176 112.023 44.736 111.367 44.736C110.903 44.736 110.519 45.032 110.207 45.392L109.687 44.88C110.191 44.336 110.711 44 111.479 44C112.559 44 113.255 44.704 113.255 45.768C113.255 46.904 112.351 48.08 111.103 49.272C111.407 49.24 111.775 49.216 112.063 49.216H113.535V50H109.735ZM116.089 50.104C115.161 50.104 114.561 49.736 114.169 49.296L114.617 48.704C114.961 49.056 115.401 49.352 116.009 49.352C116.673 49.352 117.129 48.984 117.129 48.376C117.129 47.72 116.713 47.296 115.385 47.296V46.616C116.545 46.616 116.929 46.176 116.929 45.584C116.929 45.064 116.585 44.736 116.025 44.728C115.569 44.736 115.185 44.96 114.849 45.288L114.369 44.712C114.833 44.296 115.377 44 116.057 44C117.113 44 117.857 44.544 117.857 45.52C117.857 46.2 117.465 46.672 116.841 46.904V46.944C117.521 47.112 118.057 47.624 118.057 48.416C118.057 49.48 117.169 50.104 116.089 50.104ZM119.596 47.704H121.212V46.16C121.212 45.84 121.244 45.344 121.26 45.024H121.228C121.084 45.32 120.924 45.624 120.756 45.928L119.596 47.704ZM122.828 47.704V48.416H122.076V50H121.212V48.416H118.668V47.8L121.012 44.112H122.076V47.704H122.828ZM125.214 50.104C124.286 50.104 123.702 49.728 123.286 49.32L123.726 48.72C124.062 49.056 124.486 49.352 125.102 49.352C125.766 49.352 126.27 48.88 126.27 48.096C126.27 47.312 125.822 46.864 125.15 46.864C124.774 46.864 124.55 46.976 124.206 47.2L123.758 46.904L123.934 44.112H126.918V44.888H124.734L124.598 46.4C124.846 46.272 125.086 46.192 125.406 46.192C126.39 46.192 127.198 46.776 127.198 48.064C127.198 49.368 126.246 50.104 125.214 50.104ZM130.081 49.4C130.593 49.4 130.993 48.936 130.993 48.176C130.993 47.416 130.657 46.992 130.025 46.992C129.681 46.992 129.281 47.176 128.929 47.68C129.025 48.848 129.449 49.4 130.081 49.4ZM131.753 44.632L131.249 45.192C131.033 44.936 130.673 44.752 130.329 44.752C129.577 44.752 128.953 45.32 128.913 47C129.257 46.576 129.769 46.32 130.193 46.32C131.185 46.32 131.849 46.928 131.849 48.176C131.849 49.344 131.049 50.104 130.089 50.104C128.969 50.104 128.057 49.168 128.057 47.168C128.057 44.904 129.121 44 130.281 44C130.937 44 131.417 44.28 131.753 44.632ZM133.739 50C133.843 47.848 134.219 46.472 135.355 44.888H132.587V44.112H136.379V44.672C134.995 46.4 134.779 47.696 134.683 50H133.739ZM139.046 50.104C137.942 50.104 137.126 49.448 137.126 48.536C137.126 47.76 137.638 47.24 138.182 46.952V46.912C137.742 46.6 137.39 46.16 137.39 45.536C137.39 44.616 138.102 44.016 139.07 44.016C140.094 44.016 140.734 44.656 140.734 45.576C140.734 46.176 140.326 46.688 139.958 46.96V47C140.486 47.304 140.95 47.76 140.95 48.56C140.95 49.432 140.182 50.104 139.046 50.104ZM139.43 46.728C139.782 46.4 139.958 46.024 139.958 45.632C139.958 45.088 139.63 44.68 139.054 44.68C138.574 44.68 138.214 45.008 138.214 45.536C138.214 46.176 138.774 46.472 139.43 46.728ZM139.062 49.44C139.662 49.44 140.078 49.088 140.078 48.536C140.078 47.816 139.43 47.544 138.63 47.216C138.222 47.496 137.942 47.936 137.942 48.448C137.942 49.032 138.43 49.44 139.062 49.44ZM143.472 47.12C143.832 47.12 144.24 46.912 144.592 46.4C144.504 45.24 144.064 44.712 143.424 44.712C142.92 44.712 142.52 45.168 142.52 45.936C142.52 46.688 142.856 47.12 143.472 47.12ZM141.76 49.48L142.256 48.912C142.488 49.176 142.848 49.352 143.224 49.352C143.936 49.352 144.552 48.776 144.608 47.096C144.264 47.52 143.76 47.784 143.312 47.784C142.328 47.784 141.664 47.168 141.664 45.936C141.664 44.768 142.464 44 143.416 44C144.544 44 145.456 44.912 145.456 46.856C145.456 49.176 144.4 50.104 143.264 50.104C142.584 50.104 142.104 49.832 141.76 49.48ZM90.701 61.96V62.592H84.853V61.96H87.381V61.304H88.213V61.96H90.701ZM87.781 68.016C88.869 68.016 89.429 67.848 89.429 67.504C89.429 67.16 88.869 66.992 87.781 66.992C86.701 66.992 86.141 67.16 86.141 67.504C86.141 67.848 86.701 68.016 87.781 68.016ZM87.781 66.392C89.365 66.392 90.269 66.776 90.269 67.504C90.269 68.232 89.365 68.616 87.781 68.616C86.205 68.616 85.293 68.232 85.293 67.504C85.293 66.776 86.205 66.392 87.781 66.392ZM86.301 63.872C86.301 64.184 86.813 64.344 87.797 64.344C88.773 64.344 89.293 64.184 89.293 63.872C89.293 63.552 88.773 63.408 87.797 63.408C86.813 63.408 86.301 63.552 86.301 63.872ZM88.213 65.368H91.061V66.016H84.525V65.368H87.381V64.896C86.117 64.832 85.421 64.488 85.421 63.872C85.421 63.184 86.269 62.832 87.797 62.832C89.317 62.832 90.165 63.184 90.165 63.872C90.165 64.488 89.469 64.832 88.213 64.896V65.368ZM97.8444 61.392V65.056H97.0204V61.392H97.8444ZM92.3724 61.704H95.6844C95.6844 63.6 94.4844 64.72 92.2924 65.2L92.0044 64.536C93.7964 64.168 94.6764 63.392 94.7804 62.376H92.3724V61.704ZM93.9484 67.896H98.0604V68.552H93.1244V66.624H97.0204V66.016H93.1084V65.376H97.8444V67.224H93.9484V67.896ZM102.5 67.984C103.556 67.984 104.156 67.752 104.156 67.304C104.156 66.864 103.556 66.624 102.5 66.624C101.444 66.624 100.852 66.864 100.852 67.304C100.852 67.752 101.444 67.984 102.5 67.984ZM102.5 65.992C104.052 65.992 104.988 66.472 104.988 67.304C104.988 68.144 104.052 68.624 102.5 68.624C100.956 68.624 100.012 68.144 100.012 67.304C100.012 66.472 100.956 65.992 102.5 65.992ZM102.932 64.88H105.788V65.552H99.2598V64.88H102.108V64.16H100.068V61.712H104.988V62.368H100.884V63.496H105.036V64.16H102.932V64.88ZM84.901 77V71.112H85.829V73.512H88.349V71.112H89.277V77H88.349V74.32H85.829V77H84.901ZM92.5029 77.104C91.4149 77.104 90.4309 76.264 90.4309 74.808C90.4309 73.336 91.4149 72.488 92.5029 72.488C93.5909 72.488 94.5749 73.336 94.5749 74.808C94.5749 76.264 93.5909 77.104 92.5029 77.104ZM92.5029 76.352C93.1989 76.352 93.6309 75.736 93.6309 74.808C93.6309 73.872 93.1989 73.248 92.5029 73.248C91.8149 73.248 91.3829 73.872 91.3829 74.808C91.3829 75.736 91.8149 76.352 92.5029 76.352ZM95.6569 77V72.6H96.4089L96.4809 73.208H96.5049C96.9129 72.816 97.3609 72.488 97.9609 72.488C98.8969 72.488 99.3129 73.112 99.3129 74.232V77H98.3929V74.344C98.3929 73.584 98.1689 73.28 97.6489 73.28C97.2409 73.28 96.9609 73.488 96.5689 73.88V77H95.6569ZM102.153 78.976C101.097 78.976 100.329 78.584 100.329 77.816C100.329 77.448 100.561 77.104 100.969 76.856V76.816C100.745 76.68 100.569 76.448 100.569 76.088C100.569 75.744 100.817 75.448 101.057 75.272V75.24C100.761 75.008 100.481 74.592 100.481 74.072C100.481 73.072 101.273 72.488 102.185 72.488C102.433 72.488 102.657 72.536 102.825 72.6H104.385V73.288H103.545C103.713 73.464 103.833 73.76 103.833 74.096C103.833 75.056 103.105 75.608 102.185 75.608C101.985 75.608 101.761 75.56 101.569 75.472C101.425 75.6 101.329 75.728 101.329 75.936C101.329 76.2 101.505 76.368 102.065 76.368H102.873C103.913 76.368 104.457 76.688 104.457 77.44C104.457 78.288 103.561 78.976 102.153 78.976ZM102.185 75.016C102.641 75.016 103.017 74.656 103.017 74.072C103.017 73.48 102.649 73.136 102.185 73.136C101.721 73.136 101.353 73.472 101.353 74.072C101.353 74.656 101.729 75.016 102.185 75.016ZM102.289 78.368C103.057 78.368 103.569 77.992 103.569 77.584C103.569 77.216 103.281 77.104 102.745 77.104H102.081C101.873 77.104 101.673 77.08 101.489 77.04C101.225 77.232 101.113 77.456 101.113 77.68C101.113 78.112 101.561 78.368 102.289 78.368ZM109.551 77.104C107.975 77.104 106.831 76 106.831 74.072C106.831 72.152 108.015 71 109.575 71C110.407 71 110.967 71.368 111.327 71.744L110.823 72.336C110.535 72.04 110.175 71.808 109.607 71.808C108.511 71.808 107.783 72.656 107.783 74.04C107.783 75.44 108.431 76.296 109.647 76.296C110.007 76.296 110.367 76.192 110.575 76.008V74.624H109.407V73.864H111.415V76.416C111.023 76.808 110.359 77.104 109.551 77.104ZM112.68 77V72.6H113.592V77H112.68ZM113.136 71.776C112.8 71.776 112.552 71.552 112.552 71.232C112.552 70.904 112.8 70.688 113.136 70.688C113.472 70.688 113.728 70.904 113.728 71.232C113.728 71.552 113.472 71.776 113.136 71.776ZM115.889 77.104C115.225 77.104 114.977 76.68 114.977 75.968V70.624H115.889V76.016C115.889 76.264 116.001 76.352 116.113 76.352C116.153 76.352 116.185 76.352 116.265 76.336L116.385 77.032C116.273 77.072 116.113 77.104 115.889 77.104ZM118.88 77.104C117.776 77.104 117.064 76.264 117.064 74.808C117.064 73.376 117.968 72.488 118.952 72.488C119.456 72.488 119.776 72.68 120.136 72.984L120.096 72.256V70.624H121.016V77H120.264L120.184 76.504H120.16C119.832 76.84 119.376 77.104 118.88 77.104ZM119.096 76.344C119.464 76.344 119.776 76.176 120.096 75.808V73.656C119.768 73.36 119.456 73.256 119.128 73.256C118.512 73.256 118.016 73.84 118.016 74.792C118.016 75.792 118.408 76.344 119.096 76.344ZM124.159 77.104C123.071 77.104 122.087 76.264 122.087 74.808C122.087 73.336 123.071 72.488 124.159 72.488C125.247 72.488 126.231 73.336 126.231 74.808C126.231 76.264 125.247 77.104 124.159 77.104ZM124.159 76.352C124.855 76.352 125.287 75.736 125.287 74.808C125.287 73.872 124.855 73.248 124.159 73.248C123.471 73.248 123.039 73.872 123.039 74.808C123.039 75.736 123.471 76.352 124.159 76.352ZM127.313 77V72.6H128.065L128.137 73.208H128.161C128.569 72.816 129.017 72.488 129.617 72.488C130.553 72.488 130.969 73.112 130.969 74.232V77H130.049V74.344C130.049 73.584 129.825 73.28 129.305 73.28C128.897 73.28 128.617 73.488 128.225 73.88V77H127.313ZM133.809 78.976C132.753 78.976 131.985 78.584 131.985 77.816C131.985 77.448 132.217 77.104 132.625 76.856V76.816C132.401 76.68 132.225 76.448 132.225 76.088C132.225 75.744 132.473 75.448 132.713 75.272V75.24C132.417 75.008 132.137 74.592 132.137 74.072C132.137 73.072 132.929 72.488 133.841 72.488C134.089 72.488 134.313 72.536 134.481 72.6H136.041V73.288H135.201C135.369 73.464 135.489 73.76 135.489 74.096C135.489 75.056 134.761 75.608 133.841 75.608C133.641 75.608 133.417 75.56 133.225 75.472C133.081 75.6 132.985 75.728 132.985 75.936C132.985 76.2 133.161 76.368 133.721 76.368H134.529C135.569 76.368 136.113 76.688 136.113 77.44C136.113 78.288 135.217 78.976 133.809 78.976ZM133.841 75.016C134.297 75.016 134.673 74.656 134.673 74.072C134.673 73.48 134.305 73.136 133.841 73.136C133.377 73.136 133.009 73.472 133.009 74.072C133.009 74.656 133.385 75.016 133.841 75.016ZM133.945 78.368C134.713 78.368 135.225 77.992 135.225 77.584C135.225 77.216 134.937 77.104 134.401 77.104H133.737C133.529 77.104 133.329 77.08 133.145 77.04C132.881 77.232 132.769 77.456 132.769 77.68C132.769 78.112 133.217 78.368 133.945 78.368ZM89.101 81.92V83.6H88.325V79.528H89.101V81.248H89.861V79.4H90.645V83.832H89.861V81.92H89.101ZM88.157 82.704L87.717 83.32C87.077 83.072 86.629 82.592 86.357 82.016C86.093 82.68 85.621 83.24 84.925 83.544L84.493 82.912C85.461 82.472 85.949 81.568 85.949 80.744V79.832H86.749V80.744C86.749 81.544 87.221 82.336 88.157 82.704ZM88.237 85.984C89.253 85.984 89.861 85.736 89.861 85.296C89.861 84.848 89.253 84.6 88.237 84.6C87.221 84.6 86.613 84.848 86.613 85.296C86.613 85.736 87.221 85.984 88.237 85.984ZM88.237 83.968C89.741 83.968 90.685 84.464 90.685 85.296C90.685 86.12 89.741 86.616 88.237 86.616C86.733 86.616 85.789 86.12 85.789 85.296C85.789 84.464 86.733 83.968 88.237 83.968ZM97.0524 84.728V82.296H95.1324V81.64H97.0524V80.928H95.1324V80.272H97.0524V79.392H97.8764V84.728H97.0524ZM95.9324 82.792L96.0124 83.464C94.8924 83.664 93.9324 83.712 92.8604 83.712H92.3004V79.888H93.1244V83.032C94.0604 83.024 94.9324 82.968 95.9324 82.792ZM94.0124 85.808H98.0604V86.48H93.1884V84.256H94.0124V85.808ZM103.052 82.784H104.412V79.392H105.236V83.608H104.412V83.296H103.052V82.784ZM101.556 80.072C100.932 80.072 100.532 80.264 100.532 80.6C100.532 80.936 100.932 81.128 101.556 81.128C102.172 81.128 102.572 80.936 102.572 80.6C102.572 80.264 102.172 80.072 101.556 80.072ZM101.556 81.68C100.476 81.68 99.7558 81.264 99.7558 80.6C99.7558 79.936 100.476 79.52 101.556 79.52C102.628 79.52 103.348 79.936 103.348 80.6C103.348 81.264 102.628 81.68 101.556 81.68ZM101.1 83.632V82.6C100.476 82.624 99.8758 82.624 99.3318 82.624L99.2358 82.032C100.628 82.032 102.372 82.024 103.9 81.864L103.956 82.384C103.292 82.48 102.604 82.536 101.932 82.568V83.632H101.1ZM101.132 85.968H105.444V86.552H100.316V84.912H104.42V84.432H100.3V83.864H105.236V85.44H101.132V85.968ZM112.563 79.384V83.056H111.739V79.384H112.563ZM107.547 81.256C107.547 81.832 108.011 82.208 108.635 82.208C109.267 82.208 109.739 81.832 109.739 81.256C109.739 80.68 109.267 80.304 108.635 80.304C108.011 80.304 107.547 80.68 107.547 81.256ZM110.539 81.256C110.539 82.208 109.731 82.88 108.635 82.88C107.547 82.88 106.747 82.208 106.747 81.256C106.747 80.304 107.547 79.624 108.635 79.624C109.731 79.624 110.539 80.304 110.539 81.256ZM108.651 85.88H112.779V86.528H107.843V84.632H111.747V84.032H107.827V83.384H112.563V85.24H108.651V85.88ZM117.639 86.104C116.479 86.104 115.735 85.08 115.735 83.032C115.735 80.992 116.479 80 117.639 80C118.791 80 119.543 81 119.543 83.032C119.543 85.08 118.791 86.104 117.639 86.104ZM117.639 85.376C118.239 85.376 118.663 84.736 118.663 83.032C118.663 81.344 118.239 80.728 117.639 80.728C117.039 80.728 116.615 81.344 116.615 83.032C116.615 84.736 117.039 85.376 117.639 85.376ZM122.202 86.104C121.042 86.104 120.298 85.08 120.298 83.032C120.298 80.992 121.042 80 122.202 80C123.354 80 124.106 81 124.106 83.032C124.106 85.08 123.354 86.104 122.202 86.104ZM122.202 85.376C122.802 85.376 123.226 84.736 123.226 83.032C123.226 81.344 122.802 80.728 122.202 80.728C121.602 80.728 121.178 81.344 121.178 83.032C121.178 84.736 121.602 85.376 122.202 85.376ZM126.764 86.104C125.604 86.104 124.86 85.08 124.86 83.032C124.86 80.992 125.604 80 126.764 80C127.916 80 128.668 81 128.668 83.032C128.668 85.08 127.916 86.104 126.764 86.104ZM126.764 85.376C127.364 85.376 127.788 84.736 127.788 83.032C127.788 81.344 127.364 80.728 126.764 80.728C126.164 80.728 125.74 81.344 125.74 83.032C125.74 84.736 126.164 85.376 126.764 85.376ZM131.327 86.104C130.167 86.104 129.423 85.08 129.423 83.032C129.423 80.992 130.167 80 131.327 80C132.479 80 133.231 81 133.231 83.032C133.231 85.08 132.479 86.104 131.327 86.104ZM131.327 85.376C131.927 85.376 132.351 84.736 132.351 83.032C132.351 81.344 131.927 80.728 131.327 80.728C130.727 80.728 130.303 81.344 130.303 83.032C130.303 84.736 130.727 85.376 131.327 85.376ZM135.889 86.104C134.729 86.104 133.985 85.08 133.985 83.032C133.985 80.992 134.729 80 135.889 80C137.041 80 137.793 81 137.793 83.032C137.793 85.08 137.041 86.104 135.889 86.104ZM135.889 85.376C136.489 85.376 136.913 84.736 136.913 83.032C136.913 81.344 136.489 80.728 135.889 80.728C135.289 80.728 134.865 81.344 134.865 83.032C134.865 84.736 135.289 85.376 135.889 85.376ZM140.452 86.104C139.292 86.104 138.548 85.08 138.548 83.032C138.548 80.992 139.292 80 140.452 80C141.604 80 142.356 81 142.356 83.032C142.356 85.08 141.604 86.104 140.452 86.104ZM140.452 85.376C141.052 85.376 141.476 84.736 141.476 83.032C141.476 81.344 141.052 80.728 140.452 80.728C139.852 80.728 139.428 81.344 139.428 83.032C139.428 84.736 139.852 85.376 140.452 85.376Z" fill="#121212"/>
<rect x="18" y="33" width="48.2456" height="55" rx="10" fill="#D7D7D7"/>
<mask id="mask0_2246_20287" style="mask-type:alpha" maskUnits="userSpaceOnUse" x="18" y="33" width="49" height="55">
<rect x="18.0009" y="33" width="48.2456" height="55" rx="10" fill="#D7D7D7"/>
</mask>
<g mask="url(#mask0_2246_20287)">
<ellipse cx="42.6064" cy="84.6228" rx="20.7456" ry="17.8509" fill="#9C9C9C"/>
<circle cx="42.6071" cy="54.7104" r="9.16667" fill="#9C9C9C"/>
</g>
<g opacity="0.93" filter="url(#filter0_f_2246_20287)">
<rect x="72" y="24" width="92" height="78" rx="10" fill="#F8F8F8"/>
</g>
<g opacity="0.74" filter="url(#filter1_f_2246_20287)">
<rect x="42" y="6" width="61" height="18" rx="9" fill="#F8F8F8"/>
</g>
<defs>
<filter id="filter0_f_2246_20287" x="68" y="20" width="100" height="86" filterUnits="userSpaceOnUse" color-interpolation-filters="sRGB">
<feFlood flood-opacity="0" result="BackgroundImageFix"/>
<feBlend mode="normal" in="SourceGraphic" in2="BackgroundImageFix" result="shape"/>
<feGaussianBlur stdDeviation="2" result="effect1_foregroundBlur_2246_20287"/>
</filter>
<filter id="filter1_f_2246_20287" x="38" y="2" width="69" height="26" filterUnits="userSpaceOnUse" color-interpolation-filters="sRGB">
<feFlood flood-opacity="0" result="BackgroundImageFix"/>
<feBlend mode="normal" in="SourceGraphic" in2="BackgroundImageFix" result="shape"/>
<feGaussianBlur stdDeviation="2" result="effect1_foregroundBlur_2246_20287"/>
</filter>
</defs>
</svg>
